<svg width="154" height="276" viewBox="0 0 154 276" fill="none" xmlns="http://www.w3.org/2000/svg">
<path d="M132.187 118.878C130.224 110.281 127.437 101.859 126.269 93.1177C123.713 73.9961 119.967 67.9152 116.311 48.9744C113.896 36.4636 109.885 23.0883 104.398 14.7288C103.073 12.7108 77.1034 1.6853 74.6956 1.86046C71.9901 2.05557 69.162 1.80209 66.6731 2.88157C60.5824 5.5233 52.2821 7.13537 48.1419 12.3248C45.529 15.5989 43.7922 17.5101 42.7052 21.5546C35.5389 48.2311 46.9309 76.3246 45.5774 103.914C45.1514 112.588 43.4503 121.2 40.5439 129.386C55.6116 133.752 71.7237 130.318 87.3941 131.076C104.097 131.883 121.322 137.416 137.124 131.948C134.437 128.105 133.23 123.447 132.187 118.878Z" fill="#8E4324"/>
<path d="M110.475 91.4387C112.019 92.175 123.671 96.7948 132.802 101.66C134.037 102.318 133.819 108.302 133.824 109.7C133.869 122.956 133.894 136.384 130.583 149.221C129.359 153.967 127.687 158.594 126.645 163.384C125.01 170.901 124.96 178.661 124.917 186.354C124.802 207.192 128.704 252.485 132.081 273.047C119.285 275.743 102.405 276.683 89.3836 275.493C67.0669 273.453 62.6389 277.089 40.3223 275.05C47.0383 264.99 40.9876 228.196 44.7788 216.711C49.4077 202.682 44.0237 181.961 44.2573 167.19C44.3086 163.969 44.3328 160.621 42.9779 157.698C40.8038 153.012 45.4797 151.744 44.0208 146.788C41.9237 139.671 38.6824 131.915 42.8155 125.751C50.4149 114.421 52.7415 114.716 51.4635 101.134C55.5937 98.9466 63.5322 92.2519 72.7971 90.6668C94.1164 87.0168 98.0871 85.5372 110.475 91.4387Z" fill="#E4BCC6"/>
<path d="M64.1534 119.743C67.8933 129.333 71.9679 139.082 80.7185 145.149C81.5063 145.695 82.25 144.409 81.4679 143.867C73.0664 138.041 69.1712 128.54 65.5866 119.349C65.2433 118.468 63.8058 118.852 64.1534 119.743Z" fill="#EFEFEF"/>
<path d="M66.5017 148.376C68.7741 150.141 71.122 151.791 73.5625 153.318C74.376 153.826 75.1226 152.542 74.3119 152.036C71.9811 150.578 69.7244 149.013 67.5517 147.327C66.8066 146.747 65.7466 147.791 66.5017 148.376Z" fill="#EFEFEF"/>
<path d="M15.7615 186.387C17.3472 188.492 19.0981 190.502 20.2849 192.854C21.4204 195.106 22.0031 197.602 23.1372 199.854C26.2772 206.088 33.0332 209.489 39.3475 212.471C40.5585 213.044 41.9077 213.629 43.1942 213.259C44.2799 212.946 45.0592 212.021 45.7516 211.13C52.0345 203.034 56.709 193.694 59.4202 183.814C60.2109 180.933 60.7609 177.592 59.0128 175.168C57.8573 173.566 55.9425 172.739 54.1958 171.814C48.3132 168.703 43.5803 163.854 38.4656 159.597C33.3509 155.342 27.4241 151.502 20.7821 151.093C-2.30957 149.667 7.9854 176.067 15.7615 186.387Z" fill="#FCE1C0"/>
<path d="M33.3937 113.386C29.2079 131.842 30.6611 152.204 38.8945 169.245C40.0229 171.582 41.3279 174.009 43.5647 175.326C44.0562 175.615 44.6731 175.845 45.1846 175.588C45.7516 175.303 45.9026 174.576 45.9838 173.946C47.2803 163.878 47.8616 153.734 48.4415 143.6C48.9515 134.686 49.4616 125.771 49.9716 116.858C50.2765 111.527 55.1604 96.7578 47.4712 100.32C37.9912 104.709 33.9037 111.136 33.3937 113.386Z" fill="#FCE1C0"/>
<path d="M55.3726 124.27C55.2557 126.629 55.1418 129.018 55.6262 131.33C56.1391 133.779 57.3031 136.038 58.0824 138.415C60.473 145.706 59.1466 153.618 58.1109 161.222C55.5521 180 54.9153 199.04 56.2103 217.948C57.0894 230.788 66.1861 262.466 64.8711 275.269C54.2927 275.998 42.9634 276.084 33.1229 274.501C31.0001 253.694 29.9244 212.309 37.9926 193.009C39.1993 190.121 44.0233 186.112 31.2636 175.645C28.7733 173.603 32.5858 171.045 31.3078 168.089C27.9911 160.417 32.4561 151.673 35.2486 143.795C38.041 135.917 37.474 129.923 39.4629 121.805C41.6156 113.02 38.0467 107.447 44.0191 101.899C53.539 98.1135 58.3346 91.3461 68.6153 92.5424C65.2458 97.1423 59.8305 94.8979 57.5681 100.294C54.6289 107.3 55.7416 116.826 55.3726 124.27Z" fill="#FAD2A2"/>
<path d="M41.8707 191.937C42.5161 196.071 44.8953 199.696 45.6091 203.87C46.501 209.085 46.0508 214.269 44.4608 219.299C44.1716 220.211 45.6063 220.603 45.8941 219.693C47.3558 215.072 47.9143 210.305 47.343 205.475C46.7575 200.527 44.0519 196.333 43.3025 191.541C43.1572 190.6 41.7254 191 41.8707 191.937Z" fill="#FCE1C0"/>
<path d="M38.4783 220.264C39.362 223.866 39.4646 227.459 38.7705 231.1C38.5924 232.034 40.0247 232.434 40.2043 231.495C40.9482 227.592 40.8584 223.727 39.9121 219.868C39.6841 218.941 38.2503 219.334 38.4783 220.264Z" fill="#FCE1C0"/>
<path d="M92.6858 130.281C91.7541 141.156 94.0778 152.066 93.79 162.976C93.4595 175.538 89.6811 187.811 89.2523 200.371C88.9873 208.138 90.0088 215.893 90.0359 223.665C90.0744 234.393 88.198 265.03 84.5237 275.109C108.071 276.002 124.926 275.549 145.109 274.762C145.306 263.089 140.238 231.957 139.958 220.285C139.726 210.6 142.794 201.154 143.747 191.513C145.919 169.541 137.05 147.628 138.948 125.632C139.572 118.387 146.301 110.831 141.931 105.018C137.084 98.5706 115.05 88.7029 111.187 90.4289C99.8707 95.4859 93.7159 118.26 92.6858 130.281Z" fill="#FAD2A2"/>
<path d="M98.5985 133.026C97.5713 144.239 99.1185 155.36 103.169 165.868C103.509 166.751 104.946 166.367 104.602 165.474C100.597 155.084 99.07 144.115 100.086 133.026C100.171 132.074 98.6854 132.08 98.5985 133.026Z" fill="#FCE1C0"/>
<path d="M105.893 142.482C105.428 150.143 106.442 157.627 108.934 164.889C109.241 165.787 110.678 165.401 110.367 164.494C107.918 157.359 106.921 150.012 107.379 142.482C107.438 141.527 105.952 141.53 105.893 142.482Z" fill="#FCE1C0"/>
<path d="M98.6823 234.388C103.187 240.724 106.038 248.195 109.997 254.873C112.793 259.587 116.817 266.729 122.959 267.287C123.911 267.374 123.905 265.887 122.959 265.801C116.525 265.216 112.17 255.837 109.472 250.949C106.312 245.224 103.766 238.983 99.9659 233.639C99.416 232.866 98.1266 233.606 98.6823 234.388Z" fill="#FCE1C0"/>
<path d="M105.588 90.2295C99.3695 92.8855 86.795 92.4668 80.0533 93.0065C73.3116 93.5477 60.4992 93.119 60.8824 87.968C61.0335 85.9458 65.7977 81.5268 65.2492 73.5717C64.8559 67.8752 64.8987 60.7532 63.9726 55.118C63.7347 53.6668 70.3497 49.6964 71.0748 48.4161C71.7601 47.2056 73.1364 46.589 74.4386 46.0962C78.6785 44.4884 95.0812 41.1332 95.4886 45.6548C97.1427 64.0116 101.958 87.2431 105.588 90.2295Z" fill="#FBBB9D"/>
<path d="M45.3344 36.2897C47.5513 51.8781 48.1425 69.9999 60.8481 79.137C69.5688 85.4088 70.7042 84.2838 78.2694 79.953C85.638 75.7348 95.6295 66.038 95.5241 58.3037C95.346 45.3328 101.267 35.0678 97.929 22.5313C94.9272 11.2566 89.6272 4.15601 73.5651 4.15601C51.7784 4.15601 44.0679 27.3918 45.3344 36.2897Z" fill="#FCCCB6"/>
<path d="M63.9495 80.5272C65.5523 81.4927 64.4824 83.7826 66.6736 85.0587C71.3252 87.7687 74.045 88.7258 81.3338 89.6529C84.6591 90.0758 89.7852 88.092 93.0777 87.4668C97.4388 86.638 97.1538 78.9478 100.27 75.7863C101.311 74.7296 105.588 73.8423 108.58 78.559C110.159 81.0455 107.413 84.6086 109.03 87.0709C109.797 88.2373 111.572 89.0903 111.184 90.4304C111.069 90.8306 110.609 91.0471 110.473 91.4401C107.885 98.9495 104.205 100.536 97.4174 102.414C94.6207 103.188 94.2047 105.085 91.5447 106.242C86.7007 108.351 78.8705 110.735 74.0963 108.471C69.3235 106.208 65.3144 104.129 60.1712 102.924C52.0789 101.029 55.709 96.0699 55.8344 89.2114C55.8928 86.0356 56.3487 75.9501 63.9495 80.5272Z" fill="#EFEFEF"/>
<path d="M78.3245 94.6956C79.0812 96.9585 79.4988 99.2598 79.5658 101.645C79.5929 102.599 81.0794 102.604 81.0523 101.645C80.9825 99.1303 80.5577 96.6865 79.7582 94.2997C79.456 93.3996 78.0195 93.7855 78.3245 94.6956Z" fill="#E2D5D8"/>
<path d="M37.9912 39.5098C42.6386 41.0307 43.5077 39.6394 48.3973 39.5098C49.2877 34.7518 49.7778 31.5333 51.7781 27.1256C51.3707 32.3322 52.1856 34.3032 51.7781 39.5098C57.0353 40.2674 67.3075 41.8723 67.628 40.1933C68.6139 35.0366 70.7025 31.68 71.3138 28.1453C71.9164 30.1092 71.7212 38.7692 72.3238 40.733C75.6035 40.0708 82.5105 38.8532 85.7902 38.191C93.1445 54.9001 98.3533 66.0396 109.527 73.8409C111.238 69.7437 109.482 23.7178 106.608 18.4471C100.101 6.51019 92.6074 1.00596 79.0399 0.0717459C68.3817 -0.661673 53.8197 4.2843 45.8428 12.322C38.8717 19.35 37.9912 29.9326 37.9912 39.5098Z" fill="#8E4324"/>
<path d="M102.037 49.8317C101.793 48.3592 101.479 46.8995 101.091 45.4597C100.896 44.7334 100.671 43.99 100.191 43.4104C95.113 37.2881 88.7018 44.722 92.8235 55.964C93.8479 58.7566 94.8281 61.0665 97.8228 60.3445C102.504 59.2152 102.665 53.6427 102.037 49.8317Z" fill="#FCCCB6"/>
<path d="M58.8442 49.8972C59.5964 52.5176 59.7303 55.1622 59.0408 57.8167C58.6248 59.4188 57.2485 60.9028 56.9764 62.4665C56.5518 64.9017 59.6178 66.1535 61.497 66.8214C62.3988 67.1418 62.7878 65.7078 61.8916 65.3888C60.635 64.9416 58.7972 63.798 58.7302 62.2443C58.7117 61.8299 59.5237 60.7946 59.7075 60.3787C60.2304 59.1896 60.5852 57.9449 60.7932 56.6646C61.1864 54.2294 60.9542 51.8597 60.2775 49.5028C60.0139 48.5842 58.5792 48.9744 58.8442 49.8972Z" fill="#A55A44"/>
<path d="M61.6759 70.2066C63.9811 70.3176 66.2777 70.2835 68.5786 70.1012C69.526 70.0271 69.5332 68.5403 68.5786 68.6158C66.2777 68.7967 63.9811 68.8323 61.6759 68.7212C60.7199 68.6756 60.7227 70.161 61.6759 70.2066Z" fill="#A55A44"/>
<path d="M49.5614 51.7928C50.9932 50.9626 52.5732 50.8985 54.0934 51.5279C54.9753 51.8939 55.3613 50.457 54.488 50.0953C52.6216 49.322 50.5501 49.5 48.8105 50.5097C47.9842 50.9896 48.7322 52.2742 49.5614 51.7928Z" fill="#A55A44"/>
<path d="M68.4198 51.7359C69.7861 51.0395 71.4502 51.1606 72.6711 52.1104C73.4163 52.6915 74.4762 51.6476 73.7211 51.0609C71.946 49.678 69.6864 49.4246 67.669 50.4542C66.8184 50.8886 67.5693 52.1702 68.4198 51.7359Z" fill="#A55A44"/>
<path d="M47.8299 45.2048C49.9784 44.873 52.1268 44.8587 54.2824 45.1165C55.2299 45.229 55.2213 43.7437 54.2824 43.6311C51.9829 43.3563 49.7219 43.419 47.4338 43.7721C46.4935 43.9188 46.8939 45.3501 47.8299 45.2048Z" fill="#8E4324"/>
<path d="M66.4693 45.7204C68.7659 45.2889 71.0141 45.4555 73.2353 46.1718C74.1471 46.4652 74.5374 45.0325 73.6299 44.7392C71.1509 43.9402 68.6306 43.8078 66.0732 44.2877C65.1358 44.4643 65.5333 45.897 66.4693 45.7204Z" fill="#8E4324"/>
<path d="M94.974 50.2746C95.1706 49.225 95.1563 48.0017 95.6379 47.0319C96.5198 45.2546 97.698 46.8994 98.2893 48.0344C99.6955 50.7317 100.2 54.9599 97.1466 56.6888C96.3146 57.1602 97.0626 58.4433 97.896 57.9705C101.966 55.6663 101.394 49.8188 99.0543 46.4166C98.2707 45.2759 96.8332 44.0654 95.3957 44.9099C93.8214 45.8356 93.8313 48.3207 93.5393 49.8786C93.3654 50.8143 94.7973 51.2145 94.974 50.2746Z" fill="#A55A44"/>
<path d="M60.1614 87.1363C58.4868 90.6211 61.3956 94.2981 59.8735 97.6733C59.4844 98.5377 60.7642 99.2939 61.1576 98.4224C62.7281 94.9376 59.8478 91.2121 61.444 87.8854C61.8574 87.0295 60.5761 86.2747 60.1614 87.1363Z" fill="#E2D5D8"/>
<path d="M69.3605 91.4955C65.3485 92.9538 69.7779 99.8907 71.0901 101.978C71.5973 102.786 72.8838 102.041 72.3738 101.229C71.7654 100.261 67.8061 93.6359 69.7551 92.9282C70.647 92.6035 70.2624 91.168 69.3605 91.4955Z" fill="#E2D5D8"/>
<path d="M86.3614 93.8155C88.5726 96.0955 89.332 99.2257 88.4387 102.269C88.1694 103.188 89.6027 103.581 89.8719 102.663C90.912 99.1217 89.9802 95.4119 87.4129 92.7659C86.7447 92.0781 85.6947 93.1277 86.3614 93.8155Z" fill="#E2D5D8"/>
<path d="M95.2745 91.2835C96.5041 93.3826 97.1323 95.6413 97.1594 98.0722C97.1694 99.0278 98.6554 99.0292 98.6454 98.0722C98.6155 95.3892 97.9145 92.8486 96.5582 90.533C96.0752 89.7098 94.7901 90.4561 95.2745 91.2835Z" fill="#E2D5D8"/>
<path d="M101.622 84.5032C103.216 85.231 103.129 87.3301 103.244 88.8097C103.381 90.5415 103.516 92.2746 103.653 94.0077C103.727 94.9548 105.215 94.9619 105.139 94.0077C104.948 91.5739 104.914 89.0618 104.524 86.6508C104.289 85.1953 103.779 83.8638 102.371 83.2215C101.508 82.8271 100.752 84.1073 101.622 84.5032Z" fill="#E2D5D8"/>
<path d="M48.648 176.008L32.3422 128.132C31.0586 124.361 27.6492 121.718 23.6757 121.41L4.18427 119.907C1.28784 119.683 -0.817887 122.604 0.309058 125.28L20.3177 172.758C21.0357 174.46 22.6015 175.655 24.4337 175.896L46.3728 178.781C47.9257 178.986 49.1523 177.489 48.648 176.008Z" fill="#AF92CB"/>
<path d="M22.7202 128.399C21.911 128.984 21.5961 130.063 22.1047 130.969C22.6518 131.943 23.907 132.086 24.7504 131.415C25.5668 130.765 25.7477 129.566 24.967 128.81C24.2404 128.105 22.9724 128.107 22.2971 128.871C21.6659 129.585 22.7131 130.64 23.3471 129.921C23.6164 129.615 24.266 129.885 23.8429 130.248C23.4212 130.61 23.1505 129.909 23.4682 129.68C24.2375 129.126 23.4967 127.837 22.7202 128.399Z" fill="#EFEFEF"/>
<path d="M2.31372 145.797C2.31372 147.752 3.15284 147.193 4.73996 148.39C2.05866 150.263 2.06153 151.214 3.20842 152.673C4.35532 154.131 4.73144 153.963 6.61633 154.451C4.91237 154.917 4.38097 156.382 5.50079 157.665C6.62062 158.949 8.24761 159.958 9.98006 160.374C6.31428 162.77 11.2495 164.016 13.1629 164.3C18.7819 165.138 22.9093 164.3 22.0573 162.438C21.3335 160.856 18.024 160.837 16.2844 160.502C17.8245 160.29 20.2907 159.749 20.1867 158.302C20.0585 156.516 16.283 155.838 12.3992 154.45C13.6359 154.53 15.5293 154.175 16.6049 153.63C17.682 153.086 18.3203 151.683 17.5553 150.784C17.2375 150.411 11.5016 148.234 9.98006 148.081C11.0244 147.385 14.6346 148.016 16.102 145.414C16.6106 144.51 2.31372 140.663 2.31372 145.797Z" fill="#F2B59E"/>
<path d="M10.3537 169.809C14.4611 176.106 18.9376 182.486 26.4757 184.774C27.3932 185.051 27.785 183.619 26.8704 183.341C19.7269 181.173 15.5169 175.01 11.6359 169.058C11.1159 168.261 9.82938 169.004 10.3537 169.809Z" fill="#FAD2A2"/>
<path d="M26.5769 192.887C27.1725 193.313 27.768 193.737 28.3635 194.163C29.1428 194.72 29.8851 193.432 29.1129 192.88C28.5174 192.454 27.9219 192.03 27.3263 191.604C26.547 191.048 25.8048 192.336 26.5769 192.887Z" fill="#FAD2A2"/>
<path d="M5.69721 149.32C6.90109 149.118 8.1192 148.988 9.33733 148.919C10.2876 148.865 10.2947 147.379 9.33733 147.433C7.9867 147.51 6.63608 147.664 5.30255 147.888C4.36082 148.047 4.75975 149.478 5.69721 149.32Z" fill="#916152"/>
<path d="M7.80539 154.923C8.82549 155.012 9.84699 155.102 10.8685 155.192C11.8202 155.276 11.8145 153.79 10.8685 153.706C9.84842 153.617 8.82691 153.527 7.80539 153.436C6.85369 153.355 6.85939 154.84 7.80539 154.923Z" fill="#916152"/>
<path d="M11.6297 161.116C12.6512 161.202 13.6728 161.287 14.6929 161.372C15.646 161.452 15.6403 159.967 14.6929 159.887C13.6713 159.802 12.6498 159.716 11.6297 159.631C10.6766 159.551 10.6823 161.036 11.6297 161.116Z" fill="#916152"/>
<path d="M40.9732 145.279C38.2149 144.203 35.2558 143.768 32.3252 143.34C26.6905 142.519 21.0572 141.697 15.4225 140.874C14.022 140.67 12.5417 140.474 11.2309 141.006C9.91878 141.539 9.33609 143.245 10.993 144.509C15.3569 146.761 19.0113 145.831 23.3752 148.083C20.6269 148.083 18.1123 148.291 17.7576 149.424C17.0067 151.831 22.3537 153.587 22.3537 153.587C22.3537 153.587 19.2678 153.93 19.2678 155.569C19.2678 156.426 20.1197 157.301 20.8221 157.792C22.3409 158.856 22.2981 158.439 24.3796 159.278C22.6357 158.802 21.4604 160.374 21.2224 162.072C23.4735 166.559 29.3248 167.412 34.1203 168.9C42.0346 171.357 48.6196 176.794 54.9767 182.107C58.869 178.116 63.2029 174.239 66.6707 169.911C63.1189 166.269 58.9317 163.805 55.7816 159.621C51.4975 153.927 47.9714 148.006 40.9732 145.279Z" fill="#FFCBB3"/>
<path d="M148.572 122.329C149.724 137.701 148.979 144.73 152.455 159.748C154.832 170.011 153.411 185.177 153.93 195.698C154.416 205.573 152.582 222.983 142.073 229.851C138.661 232.081 120.038 229.227 116.014 229.888C102.744 232.067 70.526 214.603 60.0815 201.241C59.4589 200.445 55.6649 191.401 55.4939 190.406C55.3044 189.295 43.4708 178.194 44.0378 177.22C47.4229 171.4 53.2543 161.502 56.6394 155.683C59.949 157.713 66.071 161.795 69.8151 164.13C72.9167 166.065 82.0263 163.381 85.323 165.326C97.7721 172.676 102.841 182.32 114.907 183.728C112.575 162.995 111.967 151.234 111.575 130.304C111.421 122.088 115.914 97.7616 130.254 98.992C141.398 99.9505 147.707 110.784 148.572 122.329Z" fill="#FCE1C0"/>
<path d="M57.186 187.756C60.4885 182.726 63.7924 177.696 67.0949 172.667C67.6206 171.865 66.3355 171.121 65.8112 171.918C62.5088 176.948 59.2048 181.978 55.9024 187.007C55.3766 187.808 56.6632 188.553 57.186 187.756Z" fill="#FAD2A2"/>
<path d="M49.4173 176.084C50.446 178.507 52.1884 180.498 54.4195 181.891C55.233 182.398 55.9796 181.115 55.1689 180.609C53.1387 179.342 51.6328 177.533 50.6996 175.335C50.3277 174.456 49.0469 175.212 49.4173 176.084Z" fill="#FAD2A2"/>
<path d="M52.1996 172.11C53.6072 173.71 55.1914 175.111 56.9324 176.337C57.716 176.888 58.4583 175.601 57.6818 175.055C56.0448 173.903 54.5731 172.563 53.2496 171.061C52.617 170.34 51.5698 171.394 52.1996 172.11Z" fill="#FAD2A2"/>
<path d="M55.2712 166.744C57.0593 168.19 58.8458 169.637 60.6339 171.082C61.3704 171.679 62.4276 170.633 61.6839 170.032C59.8959 168.587 58.1093 167.142 56.3213 165.695C55.5861 165.098 54.5275 166.143 55.2712 166.744Z" fill="#FAD2A2"/>
<path d="M117.408 187.293C123.802 189.709 127.589 198.183 129.609 204.191C129.912 205.093 131.347 204.705 131.042 203.797C128.815 197.173 124.811 188.509 117.802 185.86C116.908 185.523 116.52 186.957 117.408 187.293Z" fill="#FAD2A2"/>
<path d="M118.81 184.596C126.039 188.374 132.762 192.895 138.972 198.186C139.696 198.803 140.752 197.757 140.022 197.136C133.721 191.767 126.899 187.149 119.559 183.314C118.713 182.871 117.961 184.153 118.81 184.596Z" fill="#FAD2A2"/>
<path d="M120.396 182.268C123.126 181.928 125.837 181.928 128.567 182.268C129.513 182.387 129.504 180.9 128.567 180.783C125.837 180.443 123.126 180.443 120.396 180.783C119.46 180.9 119.449 182.387 120.396 182.268Z" fill="#FAD2A2"/>
<path d="M24.1841 150.118C25.8082 150.693 27.4324 151.267 29.0566 151.842C29.9599 152.161 30.3488 150.727 29.4512 150.41C27.827 149.834 26.2029 149.26 24.5787 148.685C23.6755 148.366 23.2865 149.8 24.1841 150.118Z" fill="#F2B59E"/>
<path d="M58.2322 162.903C60.0643 164.262 61.8951 165.621 63.7272 166.979C64.4952 167.549 65.2374 166.26 64.4766 165.698C62.6445 164.339 60.8137 162.98 58.9816 161.622C58.2136 161.052 57.4714 162.34 58.2322 162.903Z" fill="#FAD2A2"/>
<path d="M25.2819 159.335C25.7808 159.775 26.3167 160.087 26.9438 160.305C27.8488 160.618 28.2393 159.184 27.3385 158.872C26.9594 158.741 26.633 158.55 26.3323 158.284C25.6183 157.653 24.5622 158.7 25.2819 159.335Z" fill="#F2B59E"/>
<path d="M24.8366 154.941C25.4749 155.196 26.1132 155.451 26.7514 155.706C27.639 156.06 28.0251 154.625 27.1461 154.273C26.5078 154.018 25.8696 153.763 25.2313 153.508C24.3437 153.154 23.9576 154.591 24.8366 154.941Z" fill="#F2B59E"/>
</svg>
