<svg width="449" height="361" viewBox="0 0 449 361" fill="none" xmlns="http://www.w3.org/2000/svg">
<path d="M168.335 249.463L191.21 349.007H185.392C185.392 349.007 169.88 287.037 166.394 278.901C162.903 270.765 158.831 267.644 151.659 267.283C144.487 266.917 130.619 265.976 130.619 265.976L168.335 249.468V249.463Z" fill="#C99E87"/>
<path d="M33.8319 254.343L10.9567 353.887H16.7746C16.7746 353.887 32.6232 293.624 35.7729 283.78C38.4712 275.354 39.5545 266.897 48.843 268.135C55.9598 269.082 73.3331 271.892 73.3331 271.892V263.1L33.8319 254.343Z" fill="#C99E87"/>
<path d="M96.8047 268.846C91.9297 269.091 82.5309 269.091 81.9291 278.685C81.3272 288.274 78.5286 353.887 78.5286 353.887H73.3277L71.9284 259.904L96.8047 268.846Z" fill="#C99E87"/>
<path d="M96.8048 261.702L98.1339 334.825H92.7323L88.9357 261.702H96.8048Z" fill="#C99E87"/>
<path d="M40.838 180.619C53.3614 186.37 61.4713 195.473 66.0052 208.148C69.7216 218.518 82.2701 253.225 89.9587 269.888C107.262 270.965 126.08 270.73 139.451 268.059C158.268 264.302 171.559 256.407 178.545 247.454C180.762 244.629 182.347 241.688 183.27 238.747C187.829 224.284 192.032 199.295 183.27 186.606C175.647 175.564 151.262 164.147 130.679 156.532C115.928 151.076 87.0648 144.634 65.5889 141.433C64.4153 141.257 63.2668 141.092 62.1434 140.937C55.1419 139.97 49.1284 139.409 44.9506 139.409C31.4993 139.409 14.9987 143.386 6.1265 153.191C6.1265 153.196 6.12154 153.196 6.12154 153.206C0.0127869 166.311 27.3316 174.412 40.853 180.624L40.838 180.619Z" fill="#E8CFBC"/>
<path d="M22.5768 252.073C23.4194 253.065 24.3924 253.977 25.5058 254.738C27.7026 256.246 35.4112 260.445 53.3261 265.009C71.2361 269.582 114.679 273.004 139.445 268.054C158.263 264.297 171.554 256.402 178.54 247.449C178.952 240.786 175.546 234.133 159.326 228.507C137.123 220.812 95.8968 217.646 67.3592 225.787C49.0781 231.002 32.2866 243.652 22.5718 252.068L22.5768 252.073Z" fill="#E2CAB5"/>
<path d="M62.1433 140.937C62.2938 140.992 63.9389 141.568 63.989 141.583C71.161 144.193 78.1023 148.707 84.6123 154.999C90.4 160.595 95.8869 167.619 100.912 175.87C112.443 194.817 117.985 214.12 119.83 221.539L120.522 221.364C118.667 213.914 113.1 194.526 101.519 175.499C96.4636 167.193 90.9417 160.124 85.1088 154.488C78.9298 148.522 72.3697 144.133 65.5839 141.428C64.4103 141.253 63.2618 141.087 62.1383 140.932L62.1433 140.937Z" fill="#A59284"/>
<path d="M104.743 206.985C119.825 207.486 163.754 218.538 177.241 222.746C190.727 226.954 191.088 236.287 189.403 253.04C187.718 269.793 173.389 309.36 173.389 309.36L150.494 306.835C150.494 306.835 158.639 260.53 159.908 255.48C161.177 250.43 130.713 245.921 130.713 245.921L88.8195 238.221L60.4525 209.861L104.743 206.975V206.985Z" fill="#1E648A"/>
<path d="M173.183 308.544C172.24 313.523 171.352 325.076 172.295 328.362C173.238 331.654 175.475 334.564 179.181 337.961C181.448 340.04 193.405 346.117 193.37 348.146C193.31 351.477 190.025 352.284 176.418 350.4C162.806 348.516 154.185 344.879 155.935 338.151C157.686 331.423 158.764 304.771 158.764 304.771L173.183 308.539V308.544Z" fill="#FCCCB6"/>
<path d="M177.241 301.54C175.722 308.198 174.779 310.658 174.779 310.658L150.304 307.256L150.81 296.841L151.026 297.201C151.026 297.201 175.07 301.69 177.241 301.54Z" fill="#1E648A"/>
<path d="M177.146 301.97C174.307 301.97 151.919 297.802 150.951 297.622L151.106 296.78C159.407 298.328 175.546 301.229 177.216 301.114L177.271 301.97C177.236 301.97 177.191 301.97 177.146 301.97Z" fill="#123F4F"/>
<path d="M53.9273 245.926C67.6193 258.01 100.911 256.492 113.972 253.04C127.037 249.588 126.881 251.272 127.588 260.324C128.3 269.377 139.675 321.569 143.046 327.465L161.091 320.491C160.494 309.365 156.437 275.935 156.532 259.347C156.627 242.429 156.362 230.21 139.379 226.854C122.397 223.497 85.8703 219.535 85.8703 219.535L53.9273 223.898V245.931V245.926Z" fill="#1E648A"/>
<path d="M161.523 320.466L160.666 320.512C160.46 316.689 159.843 310.211 159.131 302.712C157.757 288.244 156.047 270.244 156.107 259.342C156.157 250.295 156.031 243.481 153.965 238.166C151.663 232.255 147.004 228.793 139.305 227.27L139.471 226.428C147.485 228.011 152.345 231.643 154.768 237.855C156.894 243.311 157.02 250.205 156.969 259.347C156.909 270.209 158.619 288.184 159.994 302.632C160.706 310.141 161.323 316.629 161.528 320.466H161.523Z" fill="#123F4F"/>
<path d="M139.466 226.433L139.3 227.275C122.529 223.959 86.1925 220.001 85.8264 219.961L85.9167 219.109C86.2828 219.149 122.659 223.112 139.461 226.438L139.466 226.433Z" fill="#123F4F"/>
<path d="M158.809 347.254C158.985 349.869 159.547 350.991 161.427 351.016C163.669 351.051 193.34 351.757 195.718 351.532C197.167 351.392 197.689 349.929 197.272 348.226L158.804 347.254H158.809Z" fill="#202035"/>
<path d="M158.744 345.575C158.759 346.192 158.774 346.753 158.814 347.254L197.282 348.225C197.016 347.133 196.294 345.801 194.835 345.37C193.42 344.954 191.705 344.388 187.472 342.78C185.431 342.003 183.57 340.871 181.93 339.644C181.599 339.398 181.283 339.153 180.972 338.897C180.39 338.426 179.839 337.95 179.327 337.485C179.021 337.209 178.725 336.933 178.444 336.668C177.883 336.132 177.366 335.616 176.9 335.15C176.594 334.839 176.313 334.554 176.052 334.293C175.375 333.612 174.858 333.111 174.512 332.896C172.291 331.548 171.613 332.59 168.915 336.633C166.217 340.676 163.077 339.048 162.029 338.376C160.981 337.705 158.894 336.222 158.864 338.331C158.834 340.44 158.684 341.758 158.754 345.575H158.744Z" fill="#586F93"/>
<path d="M178.514 342.189C178.63 342.304 178.78 342.364 178.931 342.364C179.091 342.364 179.247 342.309 179.367 342.189L181.92 339.644C181.589 339.398 181.273 339.153 180.962 338.897L178.519 341.337C178.284 341.572 178.284 341.953 178.519 342.189H178.514Z" fill="#E5F4F9"/>
<path d="M176.238 339.709C176.353 339.824 176.504 339.884 176.654 339.884C176.81 339.884 176.97 339.829 177.091 339.709L179.317 337.489C179.011 337.214 178.716 336.938 178.435 336.673L176.243 338.862C176.007 339.098 176.007 339.478 176.243 339.714L176.238 339.709Z" fill="#E5F4F9"/>
<path d="M173.956 337.229C174.071 337.344 174.222 337.404 174.372 337.404C174.528 337.404 174.688 337.349 174.808 337.229L176.885 335.155C176.579 334.844 176.298 334.559 176.037 334.298L173.956 336.377C173.72 336.613 173.72 336.994 173.956 337.229Z" fill="#E5F4F9"/>
<path d="M144.365 325.411C144.365 325.411 146.321 332.354 146.973 335.395C147.625 338.431 149.215 341.597 148.709 346.662C148.202 351.727 147.991 358.841 154.145 358.986C160.299 359.132 165.947 358.691 169.859 358.691C173.771 358.691 183.897 359.357 184.84 356.682C185.782 354.007 183.39 354.803 178.465 353.571C173.54 352.343 166.724 345.385 164.261 342.419C161.799 339.453 160.013 329.464 158.925 321.869L144.37 325.416L144.365 325.411Z" fill="#FCCCB6"/>
<path d="M164.147 342.51C162.216 340.185 160.42 333.302 158.8 322.045L144.396 325.552L144.326 325.271L159.036 321.689L159.056 321.844C160.671 333.136 162.456 340.03 164.362 342.324L164.142 342.51H164.147Z" fill="#AA6B41"/>
<path d="M125.226 250.956L125.06 250.335C126.349 249.989 128.44 248.065 130.266 245.545C132.337 242.69 133.576 239.784 133.671 237.58L134.313 237.605C134.098 242.79 128.23 250.144 125.231 250.951L125.226 250.956Z" fill="#123F4F"/>
<path d="M139.586 321.358L142.119 328.232C152.546 325.917 160.37 323.457 163.123 320.707C162.907 319.334 161.383 314.34 161.383 314.34C154.286 319.044 146.968 320.416 139.586 321.358Z" fill="#1E648A"/>
<path d="M139.636 321.784L139.525 320.932C146.497 320.046 153.905 318.778 161.142 313.984L161.613 314.7C154.221 319.595 146.703 320.887 139.631 321.784H139.636Z" fill="#123F4F"/>
<path d="M127.708 253.591C127.528 253.591 127.342 253.581 127.162 253.556L127.247 252.92C129.82 253.276 132.333 250.47 133.702 247.965L134.269 248.271C133.817 249.098 132.849 250.676 131.425 251.933C130.181 253.035 128.932 253.591 127.708 253.591Z" fill="#123F4F"/>
<path d="M129.6 255.495C129.093 255.495 128.657 255.455 128.331 255.375L128.486 254.753C129.916 255.104 134.119 254.508 135.468 253.386L135.879 253.882C134.645 254.904 131.591 255.495 129.6 255.495Z" fill="#123F4F"/>
<path d="M161.217 253.927L160.966 253.336C163.794 252.133 168.494 245.57 169.086 244.002L169.688 244.228C169.061 245.901 164.246 252.639 161.217 253.927Z" fill="#123F4F"/>
<path d="M164.874 256.652C163.981 256.652 163.174 256.477 162.481 256.076L162.802 255.52C165.997 257.368 172.472 253.601 177.066 250.605L177.417 251.141C173.31 253.821 168.435 256.652 164.874 256.652Z" fill="#123F4F"/>
<path d="M146.838 356.286C147.053 358.901 147.013 360.129 148.894 360.129C151.136 360.129 182.497 360.274 184.875 360.014C186.319 359.853 186.825 358.38 186.379 356.682L146.838 356.291V356.286Z" fill="#202035"/>
<path d="M146.838 354.217C146.858 354.833 146.797 355.78 146.838 356.286L186.379 356.677C186.093 355.59 185.351 354.267 183.886 353.856C182.467 353.461 180.742 352.92 176.484 351.377C174.427 350.635 172.551 349.528 170.891 348.326C170.56 348.085 170.234 347.84 169.923 347.594C169.337 347.133 168.78 346.667 168.258 346.207C167.947 345.936 167.646 345.666 167.361 345.4C166.789 344.874 166.267 344.368 165.796 343.907C165.485 343.601 165.199 343.321 164.938 343.06C164.251 342.389 163.729 341.893 163.378 341.688C161.136 340.37 160.474 341.422 157.836 345.51C155.198 349.593 152.034 348.015 150.98 347.354C149.922 346.698 147.816 345.245 147.816 347.354C147.816 349.463 146.712 350.39 146.843 354.212L146.838 354.217Z" fill="#6179A7"/>
<path d="M167.531 350.926C167.647 351.041 167.802 351.096 167.948 351.096C168.108 351.096 168.264 351.036 168.379 350.916L170.892 348.331C170.561 348.09 170.235 347.845 169.924 347.599L167.516 350.074C167.286 350.314 167.291 350.695 167.531 350.926Z" fill="#E5F4F9"/>
<path d="M165.214 348.481C165.33 348.596 165.485 348.651 165.636 348.651C165.786 348.651 165.952 348.591 166.067 348.471L168.259 346.217C167.948 345.946 167.647 345.676 167.361 345.41L165.199 347.629C164.969 347.865 164.974 348.251 165.209 348.481H165.214Z" fill="#E5F4F9"/>
<path d="M162.898 346.031C163.013 346.146 163.169 346.202 163.319 346.202C163.47 346.202 163.63 346.141 163.751 346.016L165.797 343.912C165.486 343.606 165.2 343.326 164.939 343.065L162.888 345.175C162.657 345.41 162.662 345.796 162.898 346.026V346.031Z" fill="#E5F4F9"/>
<path d="M147.135 162.318C147.135 162.318 143.163 183.87 143.093 188.003C143.023 192.136 159.303 221.223 159.303 221.223L141.774 219.525C141.774 219.525 125.76 198.634 125.76 195.768C125.76 192.903 125.078 183.154 128.338 163.731L147.14 162.313L147.135 162.318Z" fill="#FBBB9D"/>
<path d="M127.089 110.037C129.952 111.309 138.388 115.613 143.945 120.682C157.382 132.946 147.135 162.319 147.135 162.319L133.207 164.232C133.207 164.232 127.033 193.229 125.76 195.774C124.486 198.319 123.096 203.539 123.101 211.539C123.101 211.539 79.4525 230.822 53.0264 225.096C60.4592 206.986 60.2285 179.367 60.5444 176.822C60.8604 174.277 56.4068 160.6 55.4488 148.832C54.4909 137.064 54.8119 123.708 64.6821 117.346C74.5524 110.984 106.074 106.47 106.074 106.47L127.089 110.032V110.037Z" fill="#86A0B3"/>
<path d="M135.989 150.627L136.543 150.788L132.637 164.147L132.084 163.986L135.989 150.627Z" fill="#702D1B"/>
<path d="M79.6219 133.518L83.4442 159.916L82.8734 159.998L79.0511 133.601L79.6219 133.518Z" fill="#702D1B"/>
<path d="M158.67 207.662C159.803 206.665 161.308 206.86 161.654 207.662C162 208.463 161.885 209.841 160.159 211.444C158.439 213.047 157.115 214.194 157.376 215.001C157.632 215.802 163.986 225.231 163.986 225.231C165.079 226.974 164.543 228.713 163.485 228.647C164.287 229.91 164.623 230.13 164.623 231.393C164.623 232.655 163.454 233.843 162.16 232.385C162.632 233.422 162.105 236.102 160.5 235.3C158.895 234.499 145.61 221.233 145.61 221.233L149.828 209.615L158.67 207.667V207.662Z" fill="#FBBB9D"/>
<path d="M82.6267 159.969C82.6267 159.969 85.6962 190.183 86.4084 191.616C87.1256 193.048 140.299 212.02 140.299 212.02L138.117 222.686C138.117 222.686 82.8274 213.799 78.5292 213.082C74.231 212.366 72.0794 209.741 68.0219 200.919C63.9645 192.092 60.539 176.827 60.539 176.827L58.0062 164.252C58.0062 164.252 76.6534 159.378 82.6218 159.969H82.6267Z" fill="#FCCCB6"/>
<path d="M135.534 103.874C135.534 103.874 126.632 116.699 126.261 120.662C125.057 133.567 114.385 134.784 106.811 128.262C99.2381 121.739 100.918 118.107 105.939 100.002L135.534 103.869V103.874Z" fill="#FCCCB6"/>
<path d="M127.809 120.417C127.297 120.557 126.786 120.637 126.264 120.667C117.362 121.088 110.862 114.24 106.945 105.964C103.193 98.0532 101.799 88.8453 102.907 83.4497C105.169 72.4132 118.064 65.0439 130.231 65.8003C151.853 67.138 142.364 116.429 127.809 120.422V120.417Z" fill="#FCCCB6"/>
<path d="M124.635 97.1162C124.509 98.2684 123.722 99.1301 122.874 99.0349C122.027 98.9448 121.435 97.9378 121.56 96.7855C121.686 95.6333 122.473 94.7716 123.321 94.8668C124.168 94.957 124.76 95.9639 124.635 97.1162Z" fill="#092335"/>
<path d="M138.979 98.3939C138.864 99.471 138.126 100.273 137.334 100.187C136.541 100.102 135.99 99.1654 136.105 98.0883C136.22 97.0112 136.958 96.2096 137.75 96.2948C138.543 96.3799 139.094 97.3168 138.979 98.3939Z" fill="#092335"/>
<path d="M131.807 106.289C131.782 106.289 131.757 106.294 131.727 106.299L131.657 106.309C130.974 106.405 129.62 106.144 129.565 106.134C129.415 106.104 129.304 105.934 129.324 105.758C129.339 105.578 129.475 105.458 129.625 105.488C129.64 105.488 130.959 105.748 131.566 105.663L131.637 105.653C132.053 105.598 132.675 105.508 132.87 105.162C132.935 105.042 132.951 104.887 132.91 104.686C132.77 103.995 132.589 103.243 132.399 102.452C132.133 101.34 131.857 100.187 131.637 99.0101C131.601 98.8298 131.697 98.6594 131.842 98.6294C131.988 98.5993 132.138 98.7195 132.168 98.8999C132.384 100.057 132.66 101.199 132.92 102.302C133.111 103.098 133.292 103.855 133.437 104.556C133.517 104.942 133.477 105.277 133.327 105.548C133.016 106.099 132.309 106.219 131.802 106.289H131.807Z" fill="#724120"/>
<path d="M106.273 104.486C105.631 104.907 104.764 104.601 104.538 103.87C103.71 101.219 101.88 95.7238 100.31 93.6748C98.2085 90.9394 96.2175 83.9158 97.3259 77.894C98.5396 71.3062 107.281 62.0231 115.477 64.6382C115.577 61.3067 130.984 56.0164 139.846 61.1213C148.708 66.2263 149.305 78.5553 142.63 80.8899C136.656 82.9789 120.923 77.1626 116.038 78.7858C112.201 80.0633 110.125 84.0911 109.694 86.3004C109.202 88.8103 109.187 96.1145 109.187 96.1145L105.07 97.1766L106.278 104.486H106.273Z" fill="#092335"/>
<path d="M107.132 95.919C106.359 91.9313 104.208 90.0726 101.745 92.1216C99.2828 94.1706 101.148 101.039 104.549 101.039C107.949 101.039 107.423 97.9831 107.423 97.9831C107.423 97.9831 107.257 96.5603 107.132 95.919Z" fill="#FCCCB6"/>
<path d="M106.072 106.474C106.353 104.501 106.007 106.935 106.218 105.457L106.278 104.486C110.2 112.762 117.362 121.088 126.264 120.662C126.786 120.637 127.523 120.517 128.306 120.261C117.297 127.841 107.371 110.748 106.077 106.469L106.072 106.474Z" fill="#FBBB9D"/>
<path d="M141.773 95.0773C141.968 95.0773 142.169 95.0172 142.339 94.892C142.771 94.5814 142.861 93.9702 142.55 93.5444C142.48 93.4442 140.744 91.1347 136.717 91.8611C136.195 91.9563 135.849 92.4572 135.94 92.9783C136.035 93.4993 136.537 93.845 137.058 93.7548C139.847 93.2488 140.955 94.6265 141.005 94.6866C141.191 94.9421 141.482 95.0773 141.778 95.0773H141.773Z" fill="#092335"/>
<path d="M119.72 93.8249C119.93 93.8249 120.141 93.7548 120.321 93.6145C120.412 93.5444 122.112 92.2969 125.482 93.3039C125.989 93.4542 126.525 93.1686 126.681 92.6576C126.831 92.1466 126.545 91.6156 126.034 91.4603C121.6 90.1377 119.208 92.0364 119.108 92.1216C118.696 92.4572 118.636 93.0634 118.972 93.4742C119.163 93.7047 119.439 93.8249 119.715 93.8249H119.72Z" fill="#092335"/>
<path d="M130.177 111.92C130.298 111.92 130.418 111.86 130.493 111.755C130.614 111.58 130.569 111.339 130.393 111.219C130.243 111.114 126.687 108.699 122.067 108.699C121.857 108.699 121.681 108.869 121.681 109.085C121.681 109.3 121.852 109.47 122.067 109.47C126.451 109.47 129.922 111.83 129.957 111.855C130.022 111.9 130.102 111.925 130.177 111.925V111.92Z" fill="#724120"/>
<path d="M159.934 207.431C159.453 209.024 157.753 209.495 155.917 209.726C154.081 209.956 152.246 211.219 151.9 211.79C151.554 212.361 151.554 215.126 154.197 217.356C156.835 219.585 161.89 224.52 162.693 225.892C163.495 227.27 162.798 229.449 161.023 228.643C163.726 231.623 162.231 234.033 160.511 233.572C160.626 235.521 158.615 235.867 157.382 235.291C157.637 236.668 156.494 237.47 154.999 236.438C153.505 235.406 146.909 229.529 145.335 228.638C141.678 226.574 141.678 223.708 138.122 222.676L140.304 212.01C142.14 212.125 144.552 212.266 146.619 210.247C148.685 208.228 150.52 207.081 152.818 206.735C155.115 206.389 160.561 205.357 159.934 207.421V207.431Z" fill="#FCCCB6"/>
<path d="M160.776 228.798L161.263 228.493C159.954 226.409 151.929 221.509 151.588 221.299L151.287 221.79C151.367 221.84 159.537 226.829 160.771 228.798H160.776Z" fill="#683A1A"/>
<path d="M160.27 233.737L160.751 233.417C158.905 230.651 151.071 225.096 150.74 224.86L150.404 225.331C150.484 225.386 158.484 231.062 160.27 233.737Z" fill="#683A1A"/>
<path d="M157.151 235.476L157.607 235.12C156.083 233.161 149.483 228.172 149.202 227.956L148.856 228.417C148.926 228.467 155.672 233.577 157.156 235.476H157.151Z" fill="#683A1A"/>
<path d="M18.8471 245.551C19.6646 247.685 20.8532 250.044 22.5785 252.073C23.4211 253.065 24.3941 253.977 25.5075 254.738C27.7043 256.246 35.4129 260.445 53.3279 265.009C59.1256 266.486 67.5916 267.849 77.2412 268.846C70.2548 250.866 60.55 218.653 57.0543 208.894C52.5204 196.224 41.7022 188.705 29.1788 182.949C15.6623 176.742 -2.22259 169.122 3.88113 156.016C2.52197 158.01 1.45368 160.209 0.741501 162.619C-4.2137 179.367 17.2321 241.302 18.842 245.551H18.8471Z" fill="#E2CAB5"/>
<path d="M29.1834 182.949C41.7068 188.705 52.525 196.225 57.0589 208.894C60.5496 218.648 70.2594 250.866 77.2458 268.846C81.3133 269.262 85.5914 269.618 89.9648 269.883C82.2763 253.226 69.7278 218.518 66.0114 208.148C61.4775 195.473 53.3676 186.37 40.8441 180.619C27.3227 174.407 0.00387573 166.301 6.11262 153.201C5.30013 154.092 4.55782 155.029 3.88576 156.021C-2.21295 169.127 15.6719 176.747 29.1834 182.954V182.949Z" fill="#FBE2C8"/>
<path d="M89.6323 270.033L90.2793 269.733C85.2138 258.762 78.0066 239.845 72.8508 225.907L72.1838 226.153C77.3446 240.1 84.5618 259.032 89.6323 270.028V270.033Z" fill="#A59284"/>
<path d="M284.356 241.957L261.98 339.315H267.666C267.666 339.315 282.838 278.705 286.248 270.751C289.663 262.797 293.644 259.74 300.661 259.386C307.678 259.032 321.241 258.108 321.241 258.108L284.356 241.962V241.957Z" fill="#C79C85"/>
<path d="M415.905 246.732L438.281 344.09H432.595C432.595 344.09 417.094 285.153 414.013 275.526C411.372 267.284 410.315 259.012 401.234 260.225C394.273 261.155 377.279 263.899 377.279 263.899V255.303L415.91 246.737L415.905 246.732Z" fill="#C79C85"/>
<path d="M354.318 260.917C359.083 261.16 368.281 261.16 368.867 270.539C369.454 279.918 372.191 344.09 372.191 344.09H377.275L378.646 252.17L354.318 260.917Z" fill="#C79C85"/>
<path d="M354.318 253.928L353.018 325.448H358.299L362.018 253.928H354.318Z" fill="#C79C85"/>
<path d="M409.057 174.626C396.809 180.25 388.877 189.149 384.445 201.55C380.812 211.692 368.539 245.641 361.016 261.933C344.094 262.984 325.689 262.757 312.612 260.144C294.207 256.47 281.21 248.749 274.376 239.991C272.205 237.227 270.657 234.352 269.752 231.476C265.295 217.332 261.182 192.889 269.752 180.478C277.204 169.679 301.057 158.516 321.187 151.067C335.615 145.731 363.844 139.434 384.85 136.296C385.998 136.125 387.121 135.963 388.219 135.811C395.069 134.866 400.947 134.315 405.035 134.315C418.194 134.315 434.327 138.207 443.008 147.793C443.008 147.798 443.013 147.798 443.013 147.808C448.988 160.623 422.271 168.547 409.047 174.626H409.057Z" fill="#E6CDBA"/>
<path d="M426.915 244.509C426.09 245.479 425.139 246.368 424.051 247.116C421.901 248.592 414.363 252.695 396.844 257.162C379.325 261.635 336.839 264.98 312.616 260.144C294.211 256.47 281.21 248.749 274.38 239.991C273.98 233.477 277.309 226.964 293.169 221.466C314.883 213.941 355.208 210.843 383.119 218.807C400.997 223.911 417.424 236.282 426.92 244.514L426.915 244.509Z" fill="#E0C8B3"/>
<path d="M388.219 135.816C388.072 135.872 386.463 136.433 386.413 136.453C379.396 139.005 372.612 143.421 366.242 149.576C360.581 155.049 355.214 161.917 350.301 169.992C339.025 188.523 333.601 207.402 331.795 214.659L331.118 214.487C332.934 207.2 338.377 188.24 349.704 169.628C354.647 161.502 360.05 154.589 365.752 149.076C371.792 143.24 378.207 138.949 384.849 136.301C385.998 136.129 387.121 135.968 388.219 135.816Z" fill="#A39082"/>
<path d="M327.757 213.708C335.062 215.219 393.276 214.219 391.334 204.804C389.786 197.305 386.912 193.212 386.912 193.212C386.912 193.212 367.323 194.455 360.074 194.895C353.568 195.289 332.264 193.212 332.264 193.212C329.148 203.455 328.354 204.274 327.757 213.708Z" fill="#1B75B1"/>
<path d="M264.803 276.476L259.673 286.3L244.587 289.559L245.229 283.02L252.535 270.22L264.803 276.476Z" fill="#FCCCB6"/>
<path d="M250.42 272.742L264.302 279.862C264.302 279.862 276.646 260.654 284.361 241.957C282.697 235.64 279.176 226.655 278.973 224.78C278.063 216.341 286.885 209.479 295.516 209.939C297.216 210.014 298.835 210.06 301.349 210.105C302.224 210.121 303.15 210.313 304.147 210.393C311.533 211.005 312.762 215.927 321.995 224.533C325.966 228.232 331.87 231.365 337.309 233.735C339.676 234.766 355.167 234.387 360.823 234.169C368.543 233.871 383.781 232.472 388.461 225.412C391.688 220.541 394.076 210.969 390.798 202.525C390.798 202.525 381.687 201.176 372.454 200.565C363.221 199.948 308.452 185.809 298.602 185.197C288.757 184.586 280.142 186.425 277.061 196.881C273.985 207.331 250.415 272.747 250.415 272.747L250.42 272.742Z" fill="#1E648A"/>
<path d="M278.974 224.786C279.177 226.66 280.325 231.446 281.994 237.763C287.822 259.881 307.76 315.579 307.76 315.579H323.418C324.561 306.913 309.116 240.067 309.116 240.067C312.278 239.567 328.654 235.767 337.31 233.74C331.871 231.37 325.967 228.237 321.996 224.538C312.763 215.932 311.443 210.757 304.057 210.146C303.06 210.065 297.161 209.934 294.976 209.929C285.854 209.919 278.064 216.341 278.974 224.786Z" fill="#1C5E7C"/>
<path d="M323.417 315.574L326.139 335.534L320.321 338.637L311.892 330.971L307.754 315.574H323.417Z" fill="#FCCCB6"/>
<path d="M289.714 343.387C291.697 346.495 301.315 347.344 303.485 347.531C305.655 347.718 325.178 345.833 327.161 345.08C328.76 344.469 328.148 343.064 328.001 341.7C327.966 341.376 327.955 341.053 328.011 340.744C328.178 339.784 327.844 337.212 327.546 335.297C327.399 334.342 326.266 333.902 325.512 334.514C324.601 335.251 323.458 336.04 322.446 336.318C320.372 336.884 317.256 333.963 316.127 332.457C314.994 330.951 311.514 329.536 311.514 329.536C311.514 329.536 302.549 337.354 293.777 338.865C291.895 339.188 290.868 339.992 290.321 340.835C289.512 342.073 289.719 343.387 289.719 343.387H289.714Z" fill="#702D1B"/>
<path d="M289.714 343.388C291.697 346.496 301.315 347.345 303.485 347.532C305.655 347.719 325.178 345.834 327.161 345.081C328.76 344.469 328.148 343.064 328.001 341.7C328.001 341.7 316.785 343.196 312.262 343.575C307.735 343.954 298.557 346.288 290.321 340.831C289.512 342.069 289.719 343.383 289.719 343.383L289.714 343.388Z" fill="#382F36"/>
<path d="M226.345 296.21C226.462 296.791 230.716 299.818 236.833 300.338C242.949 300.864 260.772 295.103 262.173 293.996C262.993 293.349 262.998 291.823 262.932 290.545C262.912 290.171 262.887 289.817 262.871 289.519C262.831 288.579 261.981 286.078 261.48 284.678C261.349 284.309 260.863 284.223 260.62 284.526C258.602 287.033 253.042 287.649 251.509 287.073C249.819 286.431 250.558 285.092 250.558 285.092L246.212 280.261C246.212 280.261 244.699 280.959 242.661 283.692C240.622 286.426 232.234 290.56 228.91 291.49C227.6 291.859 226.907 292.576 226.553 293.354C226.011 294.542 226.274 295.851 226.345 296.205V296.21Z" fill="#702D1B"/>
<path d="M226.345 296.21C226.462 296.791 230.716 299.818 236.833 300.338C242.949 300.864 260.772 295.103 262.173 293.996C262.993 293.35 262.998 291.823 262.932 290.545C262.431 291.444 261.283 292.511 258.677 293.183C253.492 294.522 241.082 298.999 235.548 297.953C230.585 297.013 227.711 294.668 226.553 293.355C226.011 294.542 226.274 295.851 226.345 296.205V296.21Z" fill="#382F36"/>
<path d="M281.285 235.797L281.644 235.695C279.636 228.651 279.014 224.447 279.494 221.177C279.98 217.852 281.68 215.381 285.17 212.925C288.717 210.429 293.417 208.994 298.066 208.994H298.086C301.84 208.994 307.314 209.939 312.054 214.416C322.926 224.674 328.612 229.551 335.68 233.214L335.852 232.886C328.825 229.242 323.159 224.376 312.312 214.143C307.481 209.585 301.911 208.625 298.086 208.62H298.061C293.336 208.62 288.56 210.075 284.953 212.617C278.235 217.347 277.445 222.329 281.28 235.791L281.285 235.797Z" fill="#0A2435"/>
<path d="M338.432 71.874L338.483 72.4275L333.572 72.8843L333.52 72.3308L338.432 71.874Z" fill="#343456"/>
<path d="M376.354 66.6561C381.438 64.0132 383.867 65.1502 385.506 67.5859C387.145 70.0217 387.287 75.9391 384.939 78.3546C382.592 80.7701 383.457 83.8679 380.244 85.874C377.032 87.8802 371.416 88.6635 369.089 82.0638C366.762 75.4641 376.349 66.6561 376.349 66.6561H376.354Z" fill="#092335"/>
<path d="M300.701 139.141C299.629 137.378 299.487 137.732 298.921 136.175C298.354 134.624 300.686 133.633 301.749 134.412C302.811 135.19 304.506 136.61 305.214 136.64C305.922 136.67 306.98 135.892 308.184 137.449C309.383 139 309.666 141.047 309.666 141.047L302.032 144.17L300.701 139.141Z" fill="#FCCCB6"/>
<path d="M299.805 132.148L307.242 142.355L308.684 141.501L301.379 131.066L299.805 132.148Z" fill="#2A3642"/>
<path d="M342.868 104.526L351.584 97.886H371.583L375.969 206.872C375.969 206.872 347.39 195.507 338.461 193.495C321.701 189.716 333.64 125.012 333.64 125.012L342.868 104.526Z" fill="#EDEDED"/>
<path d="M407.907 180.564C407.052 185.006 405.853 186.886 402.261 187.74C398.669 188.594 391.313 189.448 391.313 189.448C391.313 189.448 400.89 226.059 391.46 229.308C380.588 233.053 379.764 214.28 351.463 206.624C353.543 181.448 354.696 161.831 356.765 140.935C358.248 125.957 360.246 117.665 366.362 106.8C364.349 108.781 357.038 111.965 356.254 112.637C351.858 116.422 345.676 113.718 345.823 111.682C345.939 110.049 348.484 104.122 350.092 100.857C344.406 108.968 342.049 119.742 341.194 136.145C340.688 145.837 338.79 183.222 338.452 193.5L329.067 191.353L330.585 157.844C330.585 157.844 323.214 149.061 322.156 144.175C320.381 135.978 324.954 117.508 327.509 110.009C329.907 102.97 343.647 98.6944 351.934 95.147C356.699 93.1054 372.605 93.5147 372.605 93.5147L372.873 93.4945C380.705 94.4648 394 97.1835 400.202 104.031C409.713 114.537 409.01 149.471 409.01 156.99C409.01 164.509 408.757 176.122 407.902 180.569L407.907 180.564Z" fill="#D0BAE5"/>
<path d="M372.61 93.5098C371.831 96.562 369.286 100.943 366.367 106.805C363.883 111.783 358.85 114.218 356.861 114.855C350.993 116.745 345.681 113.723 345.828 111.687C345.944 110.055 348.489 104.127 350.097 100.862C350.497 100.049 350.841 99.402 351.074 99.023C351.742 97.9366 351.934 96.557 351.944 95.1421C351.954 94.096 351.868 93.0247 351.802 92.0342L371.993 71.5378C371.993 71.5378 370.531 88.6131 372.615 93.5098H372.61Z" fill="#FCCCB6"/>
<path d="M299.487 141.213C298.04 139.596 297.438 138.459 297.084 137.545C296.73 136.625 298.708 135.538 299.487 136.256C300.266 136.979 302.103 139.945 302.103 139.945L299.487 141.213Z" fill="#FCCCB6"/>
<path d="M364.849 206.503L363.797 192.404L391.44 191.378L391.465 191.98L364.445 192.98L365.446 206.457L364.849 206.503Z" fill="#153344"/>
<path d="M386.573 143.154C382.591 138.656 379.768 124.229 379.768 120.641H380.067C380.067 122.364 380.77 126.852 381.949 131.379C383.37 136.842 385.065 140.88 386.725 142.755L386.573 143.154Z" fill="#153344"/>
<path d="M331.865 150.39H332.235C332.235 137.413 333.216 128.717 335.508 121.298L335.154 121.187C332.847 128.641 331.86 137.378 331.86 150.39H331.865Z" fill="#153344"/>
<path d="M313.01 174.04C316.541 179.942 322.238 185.036 325.835 184.733C329.432 184.43 336.914 171.554 336.914 171.554L313.005 174.04H313.01Z" fill="#6179A7"/>
<path d="M403.94 175.485C403.9 175.445 399.499 172.094 396.994 170.76C394.516 169.441 389.128 168.562 389.072 168.557L388.693 168.481L388.794 168.309C386.355 153.968 386.396 121.657 386.568 117.508L386.917 117.523C386.745 121.642 386.72 153.741 389.112 168.148C390.231 168.229 394.94 169.265 397.263 170.503C399.833 171.872 404.026 175.041 404.198 175.202L403.935 175.485H403.94Z" fill="#153344"/>
<path d="M291.676 143.164L312.185 174.798C312.934 175.955 314.219 176.648 315.595 176.648H350.346C352.081 176.648 353.148 174.743 352.233 173.267L333.049 142.204C332.396 141.148 331.243 140.506 330.003 140.506H293.113C291.752 140.506 290.927 142.017 291.671 143.159L291.676 143.164Z" fill="#999898"/>
<path d="M366.312 166.086C364.754 165.929 361.021 165.232 358.769 164.221C356.513 163.211 352.471 161.422 349.901 160.259C347.336 159.092 343.324 158.713 340.876 158.627C338.427 158.541 337.764 158.471 336.677 158.627C335.589 158.784 334.81 160.335 336.287 160.724C333.333 160.027 334.729 160.335 333.333 160.027C331.931 159.719 331.587 161.882 332.786 162.311L334.35 162.867C332.483 162.478 332.948 164.454 334.107 165C334.911 165.379 335.604 165.464 335.604 165.464C333.565 165.54 334.668 167.198 335.604 167.587C336.54 167.976 340.643 169.735 342.201 170.356C343.759 170.978 348.267 172.221 350.913 172.534C353.559 172.847 359.857 174.712 361.334 175.334L366.312 166.086Z" fill="#FCCCB6"/>
<path d="M345.757 162.852C344.791 162.69 343.46 162.382 341.816 161.993C341.128 161.831 340.055 161.629 339.023 161.432C337.991 161.235 336.924 161.033 336.251 160.876L336.322 160.583C336.989 160.739 338.052 160.942 339.079 161.139C340.116 161.336 341.188 161.538 341.887 161.705C343.526 162.094 344.856 162.402 345.807 162.559L345.757 162.852Z" fill="#724120"/>
<path d="M344.877 166.278C344.827 166.263 340.041 164.641 338.791 164.231C338.336 164.08 337.436 163.852 336.57 163.63C335.68 163.403 334.759 163.165 334.304 163.013L334.4 162.73C334.845 162.877 335.761 163.115 336.646 163.342C337.516 163.564 338.417 163.797 338.887 163.948C340.137 164.358 344.928 165.98 344.979 165.995L344.882 166.278H344.877Z" fill="#724120"/>
<path d="M335.455 165.306L343.669 168.425L343.563 168.703L335.349 165.585L335.455 165.306Z" fill="#724120"/>
<path d="M391.302 189.746C376.525 189.154 361.282 175.692 361.13 175.556L361.328 175.333C361.479 175.47 376.753 188.861 391.312 189.448L391.302 189.746Z" fill="#153344"/>
<path d="M337.328 65.3424C337.338 65.9387 337.358 66.535 337.394 67.1262C337.561 70.517 338.041 73.8775 338.588 76.8741C340.657 88.224 348.574 95.4503 351.868 94.5811C355.156 93.717 365.871 88.3907 366.605 87.1729C367.333 85.955 372.939 78.1678 371.234 63.0835C369.529 47.9942 352.93 44.2295 348.336 45.4423C339.428 47.7921 337.186 56.4636 337.333 65.3373L337.328 65.3424Z" fill="#FCCCB6"/>
<path d="M351.944 95.1421C351.944 95.1421 351.979 95.1421 351.995 95.1371C355.227 94.2881 365.998 88.5576 366.767 87.2791C366.807 87.2134 366.863 87.1224 366.934 87.0163C371.983 79.0472 372.16 69.5974 371.426 63.0685C371.416 62.9623 371.32 62.8865 371.214 62.8967C371.108 62.9068 371.032 63.0028 371.042 63.1089C371.77 69.5721 371.598 78.931 366.61 86.8041C366.539 86.9153 366.484 87.0062 366.438 87.077C366.129 87.5924 363.539 89.2145 360.145 91.0236C356.603 92.9085 353.371 94.374 351.898 94.7631C351.797 94.7884 351.731 94.8945 351.762 95.0006C351.787 95.0865 351.863 95.1472 351.949 95.1472L351.944 95.1421Z" fill="#724120"/>
<path d="M389.032 168.552C381.287 166.94 372.206 166.384 366.312 166.384V166.086C366.358 166.086 366.312 166.086 366.358 166.086C372.297 166.086 381.383 166.536 389.118 168.148L389.032 168.557V168.552Z" fill="#153344"/>
<path d="M341.033 71.8867C341.104 72.8418 340.502 73.6655 339.687 73.7262C338.873 73.7868 338.155 73.0642 338.084 72.1091C338.013 71.154 338.615 70.3303 339.429 70.2697C340.244 70.209 340.962 70.9317 341.033 71.8867Z" fill="#271A1D"/>
<path d="M354.338 71.3659C354.328 72.4018 353.605 73.2306 352.724 73.2205C351.844 73.2104 351.136 72.3664 351.146 71.3305C351.156 70.2946 351.88 69.4658 352.76 69.4759C353.64 69.486 354.348 70.3299 354.338 71.3659Z" fill="#271A1D"/>
<path d="M354.434 40.2675C359.842 39.8127 376.587 41.5511 379.997 56.029C383.407 70.5068 375.768 82.4075 371.508 84.5956L370.997 71.5326C370.997 71.5326 367.208 70.6786 365.503 65.6051C363.798 60.5315 349.663 51.1878 345.575 51.5517C342.828 52.4057 337.663 55.7813 337.334 63.4473C335.417 54.3209 341.402 41.3591 354.434 40.2625V40.2675Z" fill="#092335"/>
<path d="M345.829 80.3864C345.08 80.2146 344.433 79.8558 344.043 79.3707C343.664 78.8957 343.527 78.3196 343.658 77.7081C343.785 77.1118 344.038 76.5307 344.306 75.9142C344.731 74.9339 345.212 73.8221 345.333 72.3364L345.839 72.3769C345.712 73.9434 345.212 75.0956 344.771 76.1113C344.513 76.7025 344.271 77.2634 344.154 77.8143C344.053 78.2741 344.154 78.6936 344.438 79.0523C344.893 79.6234 345.793 79.9821 346.79 79.9923V80.5026C346.456 80.5026 346.132 80.4622 345.824 80.3915L345.829 80.3864Z" fill="#724120"/>
<path d="M357.61 72.5333L372.048 70.7899L371.932 70.2441L357.488 71.9926L357.61 72.5333Z" fill="#343456"/>
<path d="M337.328 65.7317C337.338 66.328 337.358 66.9243 337.394 67.5156C338.926 67.3791 340.262 67.3943 341.299 67.8087C343.93 68.8598 343.722 66.1107 341.082 65.7974C340.146 65.6863 338.522 65.4488 337.333 65.7317H337.328Z" fill="#0A2435"/>
<path d="M359.372 66.1509C359.716 67.0605 353.362 65.8275 350.848 67.1262C348.333 68.4249 348.692 65.6001 351.288 65.0341C353.888 64.4682 359.129 65.5041 359.372 66.1509Z" fill="#0A2435"/>
<path d="M352.703 77.8647C355.218 77.8647 357.449 76.2779 357.985 73.9129C358.623 71.1285 356.68 68.3037 353.655 67.6165C350.634 66.9292 347.655 68.6322 347.022 71.4166C346.385 74.201 348.327 77.0258 351.353 77.7131C351.808 77.8141 352.258 77.8647 352.703 77.8647ZM352.309 68.0207C352.714 68.0207 353.123 68.0662 353.538 68.1572C356.26 68.7787 358.015 71.3054 357.449 73.7866C356.882 76.2728 354.206 77.7889 351.479 77.1673C348.757 76.5457 347.002 74.0191 347.569 71.5379C348.049 69.4306 350.053 68.0207 352.309 68.0207Z" fill="#343456"/>
<path d="M338.953 78.2334C339.955 78.2334 340.931 77.9808 341.797 77.4906C343.056 76.773 343.916 75.636 344.225 74.2817C344.533 72.9274 344.25 71.5276 343.426 70.3351C342.606 69.1526 341.351 68.3137 339.894 67.9852C338.432 67.6517 336.94 67.864 335.69 68.5765C334.431 69.2941 333.571 70.4311 333.262 71.7854C332.953 73.1397 333.237 74.5394 334.061 75.732C334.881 76.9145 336.135 77.7534 337.592 78.0818C338.048 78.1829 338.503 78.2385 338.953 78.2385V78.2334ZM338.539 68.3844C338.948 68.3844 339.363 68.4299 339.773 68.5259C341.098 68.8291 342.232 69.5821 342.97 70.6534C343.704 71.7146 343.957 72.9577 343.684 74.1604C343.41 75.3581 342.641 76.3738 341.518 77.0105C340.39 77.6523 339.039 77.8443 337.714 77.5411C336.388 77.2379 335.255 76.485 334.517 75.4137C333.783 74.3525 333.53 73.1093 333.803 71.9066C334.076 70.709 334.845 69.6983 335.969 69.0566C336.748 68.6119 337.628 68.3844 338.533 68.3844H338.539Z" fill="#343456"/>
<path d="M347.195 72.3665L347.463 71.8763C347.377 71.8308 345.965 70.8505 344.63 71.2497C344.21 71.376 343.896 71.6287 343.699 71.9976L344.189 72.2603C344.316 72.0178 344.513 71.8611 344.791 71.7803C345.717 71.5023 346.679 72.0835 347.2 72.3665H347.195Z" fill="#343456"/>
<path d="M352.981 85.3082C352.455 85.0657 348.003 82.1448 346.582 83.5648C345.484 82.8776 344.214 83.6052 344.012 84.9848C343.809 86.3644 344.619 87.9966 346.531 87.7945C348.438 87.5923 349.738 88.1078 352.986 85.3082H352.981Z" fill="#E27156"/>
<path d="M369.747 72.7809C368.989 75.7421 369.828 78.5164 371.624 78.9712C373.415 79.426 375.484 77.3996 376.238 74.4333C376.997 71.4721 376.157 68.6978 374.361 68.243C372.57 67.7882 370.501 69.8146 369.747 72.7809Z" fill="#FCCCB6"/>
<path d="M382.855 213.78L383.017 213.446C382.84 213.36 365.436 204.886 354.549 205.143L354.56 205.512C365.35 205.255 382.678 213.689 382.855 213.775V213.78Z" fill="#153344"/>
<path d="M430.567 238.131C429.768 240.218 428.604 242.528 426.915 244.509C426.09 245.479 425.139 246.368 424.051 247.116C421.901 248.592 414.363 252.695 396.844 257.162C391.173 258.608 382.891 259.937 373.456 260.917C380.286 243.331 389.781 211.824 393.196 202.283C397.628 189.892 408.211 182.539 420.459 176.905C433.679 170.836 451.168 163.382 445.203 150.567C446.534 152.517 447.576 154.665 448.274 157.025C453.12 173.403 432.146 233.983 430.572 238.136L430.567 238.131Z" fill="#E0C8B3"/>
<path d="M420.453 176.905C408.206 182.54 397.622 189.892 393.19 202.283C389.776 211.824 380.28 243.332 373.45 260.917C369.469 261.322 365.29 261.67 361.015 261.933C368.533 245.641 380.811 211.698 384.443 201.551C388.875 189.155 396.808 180.251 409.055 174.626C422.28 168.547 448.996 160.623 443.022 147.808C443.816 148.677 444.545 149.597 445.197 150.567C451.162 163.383 433.673 170.836 420.453 176.905Z" fill="#F9E0C6"/>
<path d="M361.334 262.074L360.702 261.781C365.655 251.048 372.707 232.548 377.751 218.919L378.404 219.161C373.355 232.8 366.297 251.321 361.334 262.074Z" fill="#A39082"/>
<path d="M353.325 85.04C353.138 85.1209 352.926 85.1158 352.728 85.1411C352.121 85.1815 351.509 85.1916 350.897 85.2017C349.678 85.2118 348.448 85.2573 347.249 85.0855C346.409 85.0501 345.605 85.2775 344.801 85.4392C344.406 85.51 344.012 85.5807 343.607 85.4948C343.976 85.6919 344.421 85.702 344.831 85.6818C345.641 85.6363 346.435 85.4493 347.234 85.4696C348.458 85.6212 349.688 85.5302 350.907 85.4392C351.519 85.3887 352.131 85.3281 352.733 85.2169C352.931 85.1714 353.143 85.1462 353.32 85.04H353.325Z" fill="#8C3C2C"/>
<path d="M162.947 39.8831V62.2783L175.976 39.8831H162.947Z" fill="white"/>
<path d="M166.292 46.5857L203.367 46.5857C216.222 46.5857 226.66 36.1481 226.66 23.2929C226.66 10.4377 216.222 0.000148773 203.367 0.000148773L166.292 0.000148773C153.437 0.000148773 143 10.4377 143 23.2929C143 36.1481 153.437 46.5857 166.292 46.5857Z" fill="white"/>
<path d="M172.632 13.1884C174.442 13.7819 176.338 14.2163 177.931 15.2441C179.538 16.2719 180.812 18.096 180.508 19.9779C180.305 21.2229 179.364 22.3376 178.162 22.685C176.946 23.0325 175.528 22.5548 174.833 21.498C174.138 20.4412 174.268 18.8922 175.18 18.0236C176.657 16.6049 179.364 17.2274 180.783 15.7652C181.695 14.8243 181.738 13.2753 181.202 12.0737C180.667 10.8722 179.682 9.93118 178.684 9.07707C177.974 8.45458 177.207 7.83209 176.295 7.58598C175.383 7.33988 174.268 7.54257 173.733 8.3243C173.125 9.1929 173.472 10.4668 174.225 11.2196C174.978 11.9579 176.049 12.3053 177.077 12.5659C180.638 13.4924 184.373 13.9123 187.731 15.4323C191.09 16.9523 194.13 19.949 194.304 23.626C194.391 25.5225 193.623 27.5347 192.016 28.5481C190.41 29.5614 188.006 29.2863 186.95 27.7084C185.98 26.2607 186.371 24.2774 187.254 22.7719C188.137 21.2663 189.425 20.0503 190.381 18.6027C191.336 17.155 191.93 15.2585 191.191 13.6806C190.279 11.7407 187.876 11.1327 185.763 10.7419C182.332 10.1194 178.611 9.52586 175.484 11.0893C173.182 12.233 171.518 14.4768 170.75 16.9378C169.983 19.3988 170.084 22.0625 170.678 24.5814C171.373 27.5202 172.864 30.4155 175.397 32.0514C177.583 33.4701 180.319 33.7885 182.925 33.6293C188.788 33.2674 194.738 30.3142 197.416 25.0881C198.198 23.5536 198.69 21.7875 198.357 20.1082C198.01 18.371 196.808 16.9089 195.375 15.8666C193.942 14.8243 192.277 14.1583 190.641 13.5069C188.947 12.8265 186.819 12.204 185.43 13.4055C184.272 14.4044 184.272 16.1706 184.431 17.6906C184.72 20.2819 185.241 22.9601 184.547 25.479C183.866 27.9979 181.463 30.3142 178.901 29.822C176.946 29.4456 175.513 27.4333 175.643 25.45C175.774 23.4668 177.308 21.7006 179.219 21.1361C180.348 20.8031 181.767 20.9334 182.462 21.8888C183.388 23.1483 182.563 24.9144 182.563 26.4779C182.563 28.9389 185.097 31.0669 187.514 30.6471C189.483 30.3142 190.945 28.6494 191.886 26.8833C192.813 25.1171 193.377 23.1772 194.449 21.4835C195.52 19.8042 197.3 18.3565 199.284 18.4868C201.368 18.6171 203.033 20.528 203.41 22.5837C203.8 24.6394 203.134 26.753 202.15 28.5915C200.355 31.9356 197.358 34.7295 193.725 35.8298C190.091 36.93 185.835 36.1917 183.084 33.5714C181.478 32.0369 180.45 30.0102 179.292 28.1282C178.133 26.2318 176.715 24.3498 174.688 23.4523C172.661 22.5403 169.896 22.9456 168.767 24.871C167.942 26.2752 168.203 28.0993 168.883 29.5759C170.273 32.5725 173.24 34.5992 176.396 35.5547C179.552 36.5102 182.911 36.5246 186.211 36.3943C188.195 36.3075 190.221 36.1772 192.103 35.5402C193.985 34.9032 195.766 33.7017 196.692 31.95C197.532 30.3866 197.706 28.3888 199.067 27.2307C200.673 25.8699 203.453 26.5358 204.495 28.3598C205.552 30.1839 204.959 32.6883 203.381 34.107C201.817 35.5113 199.486 35.9021 197.431 35.3954C195.491 34.9177 193.565 33.7306 191.64 34.2663C189.961 34.744 188.918 36.3654 187.558 37.4801C185.632 39.058 182.867 39.5358 180.522 38.7251C178.177 37.9144 176.309 35.8298 175.759 33.3977C175.412 31.8342 175.484 29.9812 174.254 28.9534C173.182 28.0414 171.59 28.2295 170.2 28.5191C168.825 28.8086 167.305 29.1416 166.074 28.4612C164.366 27.5057 164.178 24.9723 165.119 23.2351C166.046 21.5124 167.739 20.3543 169.274 19.1238C170.794 17.8933 172.299 16.3588 172.546 14.4044C172.632 13.6806 172.546 12.8989 172.864 12.2329C173.284 11.3209 174.312 10.8722 175.267 10.5392C181.506 8.38221 186.877 7.55703 193.276 9.16392C194.521 9.48241 197.271 10.4089 198.241 11.263C199.211 12.1172 199.776 13.5069 199.313 14.694C198.791 16.0693 197.156 16.6773 195.679 16.6917C194.608 16.6917 193.508 16.4456 192.682 15.7652C191.857 15.0848 191.38 13.9267 191.727 12.9133C192.031 12.0013 192.914 11.3788 193.855 11.1617C194.796 10.9445 195.751 11.1617 196.707 11.263C200.036 11.6105 202.946 15.2586 201.701 19.5436" stroke="#AF92CB" stroke-linecap="round" stroke-linejoin="round"/>
</svg>
