<svg width="259" height="334" viewBox="0 0 259 334" fill="none" xmlns="http://www.w3.org/2000/svg">
<path d="M119.134 118.962C108.621 138.895 97.8864 164.656 91.0089 186.599C81.7471 169.469 73.1479 152.269 65.3311 130.308C66.803 119.42 56.5344 111.991 48.0043 107.349C42.7283 104.7 38.2868 100.992 33.9669 97.1568C33.0503 96.343 31.8408 95.8901 30.6212 96.0221C24.3537 96.7002 38.1688 109.83 39.4695 112.388C24.654 110.434 19.9396 97.8297 7.4015 93.0867C6.32049 93.1719 5.868 94.386 6.72196 95.0652C11.7388 100.729 16.7555 106.393 21.5953 112.334C11.3615 109.076 8.98934 98.6261 1.47913 96.1673C-4.25624 95.2635 13.0442 114.261 14.1352 115.97C10.4434 113.682 -1.24818 96.7544 0.668343 106.338C1.73092 108.973 3.19971 111.443 5.00719 113.635C6.08294 126.941 26.8066 134.774 41.602 137.78C46.1668 138.708 49.726 142.277 50.659 146.834C54.2249 164.256 59.3144 184.968 61.4912 201.908C63.6722 218.877 70.4243 230.371 85.2409 238.96C91.2412 243.905 98.0955 243.505 102.043 236.493C114.904 220.073 130.592 196.238 128.441 176.897C128.779 170.386 115.4 181.873 117.326 175.643C122.809 157.904 118.044 138.675 119.134 118.962Z" fill="#FFC2AB"/>
<path d="M22.8377 124.435C23.0189 124.435 23.1823 124.31 23.2228 124.125C23.2697 123.913 23.1354 123.702 22.9225 123.655C17.8335 122.53 13.216 119.429 10.2549 115.146L10.0858 114.898C9.56003 114.128 9.01687 113.332 8.15764 112.865C7.5476 112.534 6.77004 112.472 6.1268 112.7C5.62581 112.879 5.24912 113.225 5.06579 113.675C4.98413 113.877 5.08111 114.107 5.28341 114.189C5.48676 114.271 5.71587 114.174 5.79858 113.972C5.9229 113.666 6.19055 113.515 6.39284 113.443C6.82483 113.289 7.36904 113.334 7.78048 113.558C8.47218 113.934 8.96051 114.649 9.43306 115.343L9.60534 115.594C12.6787 120.04 17.4706 123.258 22.7524 124.425C22.7808 124.432 22.8098 124.435 22.8377 124.435Z" fill="#E06653"/>
<path d="M25.6979 119.858C25.906 119.858 26.0803 119.696 26.0919 119.486C26.104 119.268 25.9376 119.082 25.7195 119.069C19.0469 118.692 13.8984 116.154 9.97997 111.31C9.84299 111.141 9.5949 111.115 9.42422 111.251C9.25458 111.388 9.2282 111.637 9.3657 111.806C13.4321 116.833 18.7666 119.467 25.6752 119.858C25.6826 119.858 25.6905 119.858 25.6979 119.858Z" fill="#E06653"/>
<path d="M29.0238 115.717C29.2008 115.717 29.362 115.597 29.4068 115.418C29.46 115.206 29.3304 114.992 29.1191 114.94C26.1785 114.207 23.3147 113.147 20.608 111.789C20.412 111.69 20.1755 111.77 20.0775 111.964C19.979 112.159 20.058 112.396 20.2529 112.494C23.0118 113.879 25.9309 114.96 28.9279 115.706C28.9601 115.714 28.9917 115.717 29.0238 115.717Z" fill="#E06653"/>
<path d="M45.9336 114.123C46.1217 114.123 46.2886 113.988 46.3218 113.796C46.3597 113.582 46.2159 113.378 46.0015 113.34L39.772 112.249C39.5555 112.21 39.3521 112.355 39.3147 112.569C39.2768 112.784 39.4206 112.988 39.635 113.026L45.8645 114.117C45.8877 114.121 45.9109 114.123 45.9336 114.123Z" fill="#E06653"/>
<path d="M100.171 215.377C100.389 215.377 100.566 215.201 100.566 214.983C100.57 204.71 97.2109 194.498 91.1067 186.23C90.9777 186.054 90.7296 186.016 90.5541 186.146C90.3787 186.275 90.3413 186.522 90.4709 186.697C96.475 194.832 99.7802 204.877 99.7759 214.982C99.7759 215.201 99.953 215.377 100.171 215.377Z" fill="#E06653"/>
<path d="M211.653 119.531C222.222 121.471 231.387 124.742 238.571 129.826C203.968 189.008 223.914 194.464 228.835 255.648C225.468 270.362 246.016 288.819 256.898 334.659C252.168 347.291 205.392 323.897 202.31 337.283C172.278 336.71 142.246 336.138 111.818 334.659C112.531 308.044 127.764 284.665 137.934 260.647C136.262 251.31 132.731 229.593 131.123 220.299C115.474 204.672 111.918 197.077 117.487 173.405C118.078 151.216 115.259 135.434 119.134 118.963C123.575 113.468 130.911 112.681 137.781 114.328L211.653 119.531Z" fill="#FFE6C2"/>
<path d="M146.283 234.194C146.364 234.194 146.447 234.168 146.517 234.116C146.693 233.986 146.73 233.74 146.599 233.565C143.52 229.41 139.849 225.744 135.688 222.668C135.512 222.538 135.264 222.576 135.136 222.751C135.005 222.926 135.042 223.173 135.218 223.303C139.315 226.331 142.931 229.942 145.964 234.034C146.042 234.139 146.161 234.194 146.283 234.194Z" fill="#C99475"/>
<path d="M146.282 267.007C146.428 267.007 146.568 266.927 146.637 266.788C146.734 266.592 146.654 266.356 146.458 266.259C145.986 266.026 145.48 265.796 144.943 265.552C142.943 264.644 140.454 263.513 137.891 261.313C137.726 261.171 137.476 261.189 137.334 261.356C137.191 261.521 137.211 261.77 137.376 261.912C140.024 264.185 142.57 265.342 144.615 266.271C145.144 266.511 145.643 266.738 146.107 266.967C146.164 266.994 146.223 267.007 146.282 267.007Z" fill="#C99475"/>
<path d="M237.999 129.254C245.444 132.113 249.726 145.239 250.851 154.533C255.894 188.592 260.011 224.96 256.919 259.992C252.985 287.843 242.389 313.612 228.303 337.527C217.907 337.259 215.205 337.483 200.771 336.645C219.318 262.894 231.946 271.542 215.358 211.329C205.69 173.822 221.422 159.807 237.999 129.254Z" fill="#FFC2AB"/>
<path d="M227.02 87.8271C233.362 91.3912 238.193 95.4109 234.998 103.431C233.681 106.417 230.535 108.929 231.04 112.153C233.969 119.047 244.578 122.135 241.971 131.968C233.629 126.848 224.655 122.766 215.09 120.675C208.417 119.283 200.154 118.5 196.312 112.2C205.155 104.005 218.426 93.9984 227.02 87.8271Z" fill="#804444"/>
<path d="M257.61 245.289C255.27 242.387 251.753 237.76 250.175 233.798C235.526 267.447 230.985 242.082 247.327 297.485C255.706 268.402 258.489 270.041 257.61 245.289Z" fill="#FFC2AB"/>
<path d="M172.208 235.364C172.326 235.364 172.442 235.311 172.52 235.212C172.654 235.041 172.624 234.792 172.452 234.658C168.883 231.871 160.061 224.576 155.244 217.024C155.126 216.84 154.882 216.787 154.698 216.904C154.514 217.021 154.46 217.265 154.577 217.448C159.461 225.103 168.364 232.469 171.966 235.28C172.037 235.336 172.123 235.364 172.208 235.364Z" fill="#876F80"/>
<path d="M175.452 271.297C188.526 271.297 201.448 268.889 211.776 264.178C211.974 264.087 212.062 263.853 211.971 263.655C211.88 263.456 211.644 263.369 211.447 263.46C193.353 271.714 167.214 272.83 146.402 266.236C146.194 266.17 145.972 266.285 145.906 266.493C145.84 266.701 145.955 266.923 146.163 266.988C155.278 269.876 165.411 271.297 175.452 271.297Z" fill="#876F80"/>
<path d="M135.009 33.8373C148.799 -26.423 229.01 1.05341 214.28 59.545C213.285 64.52 211.815 69.6939 213.235 74.5658C215.816 80.979 222.398 85.1681 226.982 87.8268C217.867 98.6416 204.756 106.002 193.311 114.323C192.283 113.642 191.613 112.451 191.468 111.023C191.601 110.67 191.636 110.28 191.567 109.909L191.647 109.766C182.091 110.685 132.421 122.685 132.987 109.213C133.444 106.837 136.173 105.762 137.797 103.969C143.401 97.7642 132.368 91.858 136.307 85.1312L135.009 33.8373Z" fill="#804444"/>
<path d="M172.559 8.71411C175.52 22.8195 177.177 21.951 183.091 35.0894C185.092 39.5352 186.881 51.7962 185.389 56.1631C186.644 61.4264 191.539 49.703 196.914 50.642C209.465 51.6537 199.7 76.4587 185.814 75.5733C180.847 94.6016 193.762 117.061 213.182 120.307C188.585 126.19 158.99 131.506 137.781 114.327C143.482 114.27 147.942 114.22 151.909 110.131C156.993 104.888 153.588 89.513 150.631 88.8586C145.784 89.0527 135.792 88.8412 132.687 83.4922C128.464 76.2156 127.609 65.0204 129.164 54.5938C129.683 51.1181 131.355 44.9248 132.983 42.0624C134.883 38.7224 134.885 35.4724 136.924 31.8883C144.392 18.7599 155.193 13.6628 172.559 8.71411Z" fill="#FFC2AB"/>
<path d="M151.908 70.206C151.908 70.206 150.006 63.436 142.711 65.8323C142.711 65.8323 137.551 59.4222 136.032 64.3467L135.948 66.3641C135.948 66.3641 135.074 68.2643 136.227 70.8325C137.681 74.071 146.193 76.5387 150.434 71.8068C151.533 70.7862 151.908 70.206 151.908 70.206Z" fill="#FC8D7E"/>
<path d="M142.41 67.1281C155.714 67.0734 154.547 74.1579 142 71.5975C134.251 69.2581 133.476 58.7405 142.41 67.1281Z" fill="white"/>
<path d="M151.907 89.5348C151.918 89.5348 151.929 89.5342 151.939 89.5337C160.707 88.8314 170.906 86.7266 180.082 76.4415C180.227 76.2785 180.213 76.0291 180.049 75.8844C179.886 75.7398 179.636 75.7534 179.492 75.9165C170.525 85.9665 160.92 88.0223 151.876 88.7472C151.659 88.7646 151.496 88.955 151.514 89.1723C151.531 89.3785 151.704 89.5348 151.907 89.5348Z" fill="#E06653"/>
<path d="M188.721 61.2481C188.823 61.2481 188.927 61.2081 189.004 61.1281C190.477 59.612 192.001 58.0438 193.868 57.0227C195.881 55.9222 198.093 55.6912 199.786 56.4035C199.985 56.4882 200.218 56.3946 200.303 56.1936C200.387 55.9927 200.293 55.7612 200.092 55.677C198.153 54.8595 195.745 55.0978 193.488 56.3315C191.516 57.4094 189.95 59.0207 188.437 60.5794C188.284 60.7357 188.289 60.9856 188.445 61.1376C188.522 61.2107 188.622 61.2481 188.721 61.2481Z" fill="#E06653"/>
<path d="M189.043 68.6339C189.052 68.6339 189.061 68.6333 189.07 68.6333C191.436 68.4766 193.719 67.1519 195.027 65.176C196.335 63.2012 196.662 60.5845 195.879 58.3477C195.807 58.142 195.582 58.0326 195.376 58.1057C195.169 58.1778 195.061 58.4024 195.133 58.6086C195.836 60.6172 195.542 62.9671 194.368 64.741C193.193 66.5154 191.143 67.7054 189.017 67.8458C188.8 67.86 188.635 68.0484 188.65 68.2656C188.663 68.4739 188.836 68.6339 189.043 68.6339Z" fill="#E06653"/>
<path d="M185.621 75.8716C185.783 75.8716 185.935 75.7711 185.993 75.6101C186.066 75.405 185.959 75.1793 185.753 75.1062C184.43 74.6338 183.464 73.2723 183.458 71.8688C183.456 71.6515 183.279 71.4763 183.062 71.4763H183.06C182.842 71.4774 182.666 71.6552 182.667 71.873C182.677 73.5969 183.863 75.2687 185.488 75.849C185.532 75.8642 185.576 75.8716 185.621 75.8716Z" fill="#E06653"/>
<path d="M142.176 61.0706C142.226 61.0706 142.275 61.0617 142.324 61.0422C142.526 60.9606 142.624 60.7308 142.542 60.5288C141.871 58.8611 141.44 57.1109 141.263 55.3239C144.149 52.8256 146.711 49.8307 148.679 46.6511C149.964 44.5758 150.464 42.1086 150.085 39.705C149.928 38.7039 149.612 36.8442 149.264 35.6348C149.204 35.4254 148.986 35.3039 148.775 35.3644C148.565 35.4244 148.444 35.6427 148.504 35.8526C148.75 36.7059 149.041 38.1547 149.304 39.8276C149.653 42.0449 149.193 44.3212 148.007 46.2361C146.045 49.404 143.482 52.3858 140.594 54.8583C140.497 54.9409 140.446 55.0656 140.457 55.1923C140.627 57.1267 141.082 59.021 141.809 60.8233C141.872 60.9775 142.02 61.0706 142.176 61.0706Z" fill="#E06653"/>
<path d="M147.508 62.3574C147.554 62.3574 147.601 62.3495 147.647 62.3322C147.851 62.2559 147.954 62.0281 147.877 61.824C147.38 60.5004 146.676 59.27 145.785 58.1684C145.647 57.9979 145.4 57.9722 145.23 58.1089C145.06 58.2457 145.033 58.494 145.17 58.6639C146.007 59.7003 146.669 60.8571 147.137 62.1018C147.197 62.2601 147.347 62.3574 147.508 62.3574Z" fill="#E06653"/>
<path d="M149.334 33.6592C149.088 32.5197 148.457 31.4134 147.556 30.5675C146.654 29.7211 145.515 29.1477 144.349 28.873C143.182 28.5895 141.986 28.5574 140.842 28.7436C139.7 28.9288 138.591 29.3113 137.625 29.9489C137.257 30.1914 137.156 30.6859 137.399 31.0536C137.59 31.3424 137.938 31.4666 138.256 31.3882L138.294 31.3782C139.216 31.1499 140.145 31.0131 141.067 30.9915C141.987 30.9747 142.894 31.0578 143.74 31.2803C144.584 31.5092 145.365 31.8532 146.045 32.3498C146.734 32.8391 147.316 33.4814 147.87 34.2547L147.897 34.2936C148.155 34.6529 148.656 34.736 149.016 34.4788C149.285 34.2878 149.399 33.9612 149.334 33.6592Z" fill="#804444"/>
<path d="M159.554 38.1647C161.234 37.7301 162.755 37.5381 164.312 37.7512C165.871 37.9153 167.418 38.5508 168.892 39.3851C170.363 40.2337 171.763 41.2911 173.115 42.4342C174.466 43.5821 175.772 44.8162 177.107 46.0567C177.428 46.3545 177.93 46.3366 178.228 46.0162C178.494 45.7305 178.508 45.3002 178.28 44.9993C177.172 43.5342 175.984 42.1039 174.659 40.7724C173.337 39.4404 171.889 38.1884 170.232 37.1552C168.588 36.1188 166.688 35.3076 164.607 35.074C162.531 34.8599 160.324 35.4633 158.801 36.7764C158.463 37.0678 158.425 37.5776 158.717 37.9153C158.925 38.1552 159.244 38.2436 159.532 38.1699L159.554 38.1647Z" fill="#804444"/>
<path d="M156.978 47.3626C157.252 47.7266 157.671 47.9649 158.089 48.078C158.511 48.1959 158.948 48.2064 159.366 48.1564C160.189 48.0465 160.887 47.754 161.513 47.6482C162.781 47.4057 164.116 47.6209 165.35 48.1033C166.594 48.5799 167.721 49.3469 168.789 50.2438C169.856 51.1397 170.855 52.1698 171.92 53.1677C172.133 53.3676 172.468 53.3571 172.668 53.1446C172.845 52.9573 172.857 52.6737 172.712 52.4728C171.854 51.2912 170.925 50.1334 169.817 49.0933C169.27 48.5673 168.662 48.0922 168.019 47.6582C167.367 47.2274 166.659 46.8744 165.921 46.593C164.444 46.0627 162.761 45.8586 161.189 46.331C160.395 46.5567 159.771 46.9202 159.159 47.0838C158.575 47.2558 157.922 47.2469 157.478 46.9039L157.46 46.8896C157.311 46.775 157.097 46.8018 156.982 46.9507C156.885 47.0743 156.888 47.2432 156.978 47.3626Z" fill="#69322E"/>
<path d="M147.29 43.4304C147.294 43.4199 147.165 43.4056 147.093 43.373C147.008 43.3415 146.922 43.2968 146.837 43.2447C146.668 43.1395 146.507 43.0022 146.358 42.8438L146.357 42.8428L146.464 42.9727C145.994 41.9753 145.353 41.0552 144.555 40.2619C143.76 39.4696 142.797 38.7879 141.653 38.4065C141.086 38.2218 140.493 38.1182 139.876 38.1113C139.262 38.1124 138.647 38.2313 138.093 38.4396C136.973 38.8526 136.088 39.5359 135.285 40.2435C135.065 40.4365 135.045 40.7701 135.238 40.9889C135.408 41.1809 135.686 41.2204 135.899 41.0968L135.907 41.092C136.795 40.5791 137.681 40.093 138.555 39.84C139.426 39.5822 140.29 39.6274 141.163 39.9105C142.014 40.1819 142.823 40.7054 143.559 41.3303C144.291 41.9637 144.965 42.6997 145.555 43.5045L145.618 43.5914C145.631 43.6082 145.646 43.6229 145.662 43.6345L145.664 43.6355C145.894 43.8097 146.15 43.9649 146.435 44.0801C146.578 44.1369 146.728 44.1837 146.888 44.2121C147.062 44.2363 147.187 44.2595 147.442 44.2168C147.659 44.1753 147.801 43.9649 147.76 43.7481C147.718 43.5303 147.508 43.3883 147.29 43.4304Z" fill="#69322E"/>
<path d="M166.606 52.1811C166.698 52.1811 166.79 52.1495 166.865 52.0848C167.03 51.9422 167.048 51.6929 166.905 51.5282C165.212 49.5744 162.461 48.5328 159.894 48.8753C159.678 48.9042 159.526 49.1025 159.555 49.3182C159.584 49.5344 159.782 49.6886 159.999 49.657C162.307 49.3508 164.783 50.2862 166.307 52.0448C166.385 52.1348 166.496 52.1811 166.606 52.1811Z" fill="#E06653"/>
<path d="M144.096 43.9727C144.195 43.9727 144.296 43.9348 144.372 43.8596C144.528 43.707 144.53 43.4572 144.378 43.3014C143.028 41.9316 140.942 41.3061 139.059 41.7085C138.846 41.7543 138.71 41.9637 138.755 42.1772C138.801 42.3908 139.015 42.525 139.225 42.4803C140.849 42.1336 142.65 42.6723 143.814 43.8549C143.892 43.9338 143.994 43.9727 144.096 43.9727Z" fill="#E06653"/>
<path d="M151.079 68.9193C151.079 68.9193 153.303 68.853 153.303 70.104C153.303 71.355 150.717 71.5517 150.717 71.5517C150.717 71.5517 151.58 70.8805 151.656 70.3013C151.731 69.7221 151.079 68.9193 151.079 68.9193Z" fill="#B04545"/>
<path d="M137.102 63.9409C137.102 63.9409 135.609 62.4927 135.158 63.6337C134.707 64.7742 136.065 66.2703 136.065 66.2703C136.065 66.2703 135.864 65.1282 136.147 64.5622C136.43 63.9961 137.102 63.9409 137.102 63.9409Z" fill="#B04545"/>
</svg>
