<svg width="48" height="40" viewBox="0 0 48 40" fill="none" xmlns="http://www.w3.org/2000/svg">
<rect x="4" width="40" height="40" rx="20" fill="#FBF7FF"/>
<mask id="mask0_3248_1751" style="mask-type:alpha" maskUnits="userSpaceOnUse" x="14" y="10" width="21" height="21">
<rect x="14.0078" y="10.0347" width="20" height="20" fill="#AF92CB"/>
</mask>
<g mask="url(#mask0_3248_1751)">
<path d="M24.0078 23.5347C24.98 23.5347 25.8064 23.1944 26.487 22.5138C27.1675 21.8333 27.5078 21.0069 27.5078 20.0347C27.5078 19.0624 27.1675 18.2361 26.487 17.5555C25.8064 16.8749 24.98 16.5347 24.0078 16.5347C23.0356 16.5347 22.2092 16.8749 21.5286 17.5555C20.8481 18.2361 20.5078 19.0624 20.5078 20.0347C20.5078 21.0069 20.8481 21.8333 21.5286 22.5138C22.2092 23.1944 23.0356 23.5347 24.0078 23.5347ZM24.0078 22.0347C23.4523 22.0347 22.98 21.8402 22.5911 21.4513C22.2023 21.0624 22.0078 20.5902 22.0078 20.0347C22.0078 19.4791 22.2023 19.0069 22.5911 18.618C22.98 18.2291 23.4523 18.0347 24.0078 18.0347C24.5634 18.0347 25.0356 18.2291 25.4245 18.618C25.8134 19.0069 26.0078 19.4791 26.0078 20.0347C26.0078 20.5902 25.8134 21.0624 25.4245 21.4513C25.0356 21.8402 24.5634 22.0347 24.0078 22.0347ZM24.0078 26.0347C22.0273 26.0347 20.2231 25.4895 18.5953 24.3993C16.9675 23.309 15.7717 21.8541 15.0078 20.0347C15.7717 18.2152 16.9675 16.7604 18.5953 15.6701C20.2231 14.5798 22.0273 14.0347 24.0078 14.0347C25.9884 14.0347 27.7925 14.5798 29.4203 15.6701C31.0481 16.7604 32.2439 18.2152 33.0078 20.0347C32.2439 21.8541 31.0481 23.309 29.4203 24.3993C27.7925 25.4895 25.9884 26.0347 24.0078 26.0347Z" fill="#AF92CB"/>
</g>
</svg>
