<svg width="562" height="481" viewBox="0 0 562 481" fill="none" xmlns="http://www.w3.org/2000/svg">
<g clip-path="url(#clip0_2902_3281)">
<path d="M499.112 438.754C499.112 438.754 523.778 364.284 501.23 333.316C478.682 302.348 460.808 288.682 472.105 263.712C483.402 238.742 478.373 197.925 448.518 185.668C418.662 173.411 432.523 127.261 399.468 100.764C366.413 74.2663 339.463 86.2509 323.616 53.5657C309.697 24.8597 280.822 -2.19954 251.925 25.6199C245.59 31.7182 241.338 39.6703 239.13 48.2734C236.819 57.2709 228.747 72.8502 201.49 88.4296C159.554 112.399 176.181 127.847 159.338 155.531C142.494 183.215 88.4972 169.285 68.2368 222.394C47.9777 275.503 91.7026 293.331 88.1549 325.08C84.6073 356.829 63.603 374.142 76.3985 437.879" stroke="#6D5287" stroke-miterlimit="10"/>
<path d="M511.031 439.562C511.031 439.562 539.885 357.169 515.557 325.876C491.23 294.583 471.945 280.773 484.133 255.541C496.322 230.309 490.896 189.063 458.683 176.677C426.471 164.29 441.426 117.658 405.763 90.8811C370.099 64.1058 346.228 66.6651 329.13 33.6377C314.112 4.63042 277.753 -13.1623 246.575 14.9485C239.74 21.1113 235.152 29.1465 232.769 37.8401C230.275 46.9318 221.568 62.6748 192.158 78.4178C146.913 102.639 164.852 118.249 146.678 146.224C128.505 174.198 78.2688 164.604 55.8025 211.46C30.7496 263.71 69.6633 284.714 65.8366 316.797C62.0087 348.879 52.3901 374.348 66.1962 438.754" stroke="#6D5287" stroke-miterlimit="10"/>
<path d="M255.877 42.2309C249.689 48.3292 245.537 56.2813 243.379 64.8845C241.122 73.8819 233.238 89.4613 206.616 105.041C165.656 129.01 181.896 144.458 165.445 172.142C148.993 199.826 102.127 178.589 82.3391 231.698C62.5511 284.807 108.174 308.78 104.71 340.529C101.245 372.278 74.0075 374.14 86.5055 437.878H499.383C499.383 437.878 521.407 380.895 499.383 349.927C477.36 318.959 459.902 305.293 470.936 280.323C481.97 255.353 477.058 214.536 447.897 202.279C418.736 190.022 432.274 143.872 399.99 117.375C367.704 90.8773 341.381 102.862 325.902 70.1768C312.304 41.472 284.102 14.4127 255.877 42.2309Z" fill="#C5C2E3"/>
<path d="M257.505 57.1593C251.586 62.9923 247.614 70.5996 245.55 78.827C243.391 87.4326 235.85 102.335 210.385 117.236C171.207 140.162 186.742 154.938 171.005 181.418C155.268 207.899 110.441 187.585 91.5145 238.383C72.5871 289.181 116.225 312.111 112.912 342.48C109.597 372.847 83.545 374.629 95.4998 435.592H490.414C490.414 435.592 511.479 381.088 490.414 351.468C469.349 321.848 452.651 308.776 463.204 284.893C473.758 261.009 469.061 221.968 441.168 210.243C413.276 198.519 426.226 154.379 395.345 129.033C364.465 103.689 339.288 115.152 324.482 83.8887C311.477 56.4339 284.501 30.5514 257.505 57.1593Z" stroke="white" stroke-miterlimit="10"/>
<path d="M409.892 207.668C407.455 206.253 404.257 207.277 403.737 206.484C403.218 205.691 406.36 203.242 407.371 200.673C408.381 198.104 407.244 191.445 403.105 194.581C398.965 197.717 398.777 203.061 398.777 203.061C398.777 203.061 398.71 203.355 398.656 203.845C397.251 200.54 398.006 195.978 398.014 195.928C398.056 195.68 397.891 195.444 397.643 195.401C397.384 195.357 397.158 195.525 397.117 195.773C397.082 195.967 396.48 199.623 397.375 202.916C395.199 200.407 392.026 198.88 391.851 198.798C391.625 198.692 391.352 198.787 391.244 199.015C391.137 199.242 391.233 199.515 391.461 199.622C391.51 199.645 396.025 201.818 397.789 205.084C397.245 204.689 396.864 204.486 396.864 204.486C396.864 204.486 392.699 201.137 387.621 202.226C382.543 203.314 386.84 208.525 389.444 209.437C392.048 210.35 395.953 209.568 396.213 210.48C396.474 211.392 393.609 213.146 393.088 215.918C392.568 218.688 395.823 221.562 397.645 221.689C399.297 221.804 401.793 216.259 401.766 212.115C404.961 214.636 410.334 216.159 411.282 214.892C412.375 213.427 412.328 209.083 409.892 207.668Z" fill="#662483"/>
<path d="M140.38 250.589C139.924 248.319 137.555 246.908 137.759 246.155C137.964 245.404 141.179 246.005 143.308 245.23C145.437 244.454 148.913 240.13 144.732 239.288C140.55 238.446 137.163 241.239 137.163 241.239C137.163 241.239 136.946 241.358 136.615 241.589C137.882 238.926 141.097 236.908 141.133 236.885C141.309 236.776 141.364 236.545 141.255 236.369C141.141 236.187 140.915 236.138 140.74 236.248C140.601 236.333 138.026 237.95 136.488 240.294C136.846 237.588 136.058 234.804 136.013 234.652C135.956 234.454 135.748 234.339 135.549 234.396C135.351 234.453 135.237 234.662 135.295 234.86C135.308 234.902 136.429 238.864 135.381 241.728C135.326 241.178 135.244 240.833 135.244 240.833C135.244 240.833 135.036 236.446 131.604 233.911C128.171 231.378 127.306 236.859 128.163 238.958C129.02 241.057 131.625 243.037 131.206 243.694C130.787 244.351 128.149 243.541 126.163 244.729C124.176 245.916 124.181 249.485 125.095 250.675C125.923 251.754 130.69 250.274 133.223 248.001C133.413 251.341 135.399 255.477 136.695 255.372C138.193 255.252 140.837 252.86 140.38 250.589Z" fill="#662483"/>
<path d="M279.793 91.227C279.336 88.9566 276.967 87.5455 277.171 86.7928C277.376 86.0414 280.591 86.6428 282.72 85.8678C284.849 85.0928 288.325 80.7676 284.144 79.9257C279.963 79.0837 276.575 81.8774 276.575 81.8774C276.575 81.8774 276.358 81.9965 276.027 82.2284C277.294 79.5649 280.509 77.5474 280.545 77.5238C280.721 77.4147 280.776 77.184 280.667 77.008C280.553 76.8257 280.327 76.7773 280.152 76.8865C280.013 76.972 277.438 78.589 275.9 80.9326C276.259 78.2269 275.47 75.4419 275.425 75.2906C275.368 75.0934 275.16 74.9781 274.962 75.0351C274.763 75.0922 274.649 75.3005 274.707 75.4989C274.72 75.5411 275.841 79.5029 274.793 82.3673C274.738 81.8179 274.657 81.472 274.657 81.472C274.657 81.472 274.448 77.0849 271.016 74.5503C267.584 72.017 266.718 77.4978 267.575 79.5971C268.432 81.6964 271.037 83.6754 270.618 84.3326C270.199 84.9886 267.561 84.1801 265.575 85.3681C263.588 86.5547 263.593 90.1222 264.507 91.3139C265.336 92.3927 270.102 90.9133 272.635 88.6404C272.825 91.9797 274.812 96.1164 276.107 96.011C277.605 95.8907 280.249 93.4975 279.793 91.227Z" fill="#662483"/>
<path d="M216.506 152.797C216.067 153.388 215.232 153.512 214.641 153.073C214.049 152.634 213.925 151.799 214.364 151.207C214.803 150.616 215.638 150.492 216.229 150.931C216.821 151.368 216.945 152.204 216.506 152.797Z" fill="white"/>
<path d="M219.945 147.113C219.506 147.704 218.672 147.828 218.08 147.389C217.489 146.95 217.365 146.115 217.804 145.523C218.243 144.932 219.077 144.808 219.669 145.247C220.26 145.686 220.384 146.521 219.945 147.113Z" fill="white"/>
<path d="M223.945 156.078C223.506 156.669 222.672 156.793 222.08 156.354C221.489 155.915 221.365 155.08 221.804 154.488C222.243 153.897 223.077 153.773 223.669 154.212C224.261 154.651 224.384 155.486 223.945 156.078Z" fill="white"/>
<path d="M395.963 168.431C395.524 169.022 394.689 169.146 394.098 168.707C393.506 168.268 393.382 167.432 393.821 166.841C394.26 166.25 395.095 166.126 395.686 166.564C396.278 167.003 396.402 167.838 395.963 168.431Z" fill="white"/>
<path d="M399.402 162.747C398.963 163.338 398.129 163.462 397.537 163.023C396.946 162.584 396.822 161.748 397.261 161.157C397.7 160.565 398.534 160.441 399.126 160.88C399.717 161.319 399.841 162.155 399.402 162.747Z" fill="white"/>
<path d="M403.402 171.712C402.963 172.303 402.129 172.427 401.537 171.988C400.946 171.549 400.822 170.713 401.261 170.122C401.7 169.53 402.534 169.406 403.126 169.845C403.717 170.284 403.841 171.12 403.402 171.712Z" fill="white"/>
<path d="M332.668 114.318C332.229 114.91 331.394 115.034 330.803 114.595C330.211 114.156 330.087 113.32 330.526 112.729C330.965 112.137 331.8 112.013 332.391 112.452C332.983 112.89 333.107 113.726 332.668 114.318Z" fill="white"/>
<path d="M336.107 108.634C335.668 109.226 334.834 109.35 334.242 108.911C333.651 108.472 333.527 107.636 333.966 107.045C334.405 106.453 335.239 106.329 335.831 106.768C336.422 107.207 336.546 108.043 336.107 108.634Z" fill="white"/>
<path d="M340.107 117.601C339.668 118.192 338.834 118.316 338.242 117.877C337.651 117.438 337.527 116.603 337.966 116.011C338.405 115.42 339.239 115.296 339.831 115.735C340.422 116.172 340.546 117.008 340.107 117.601Z" fill="white"/>
<path d="M349.912 191.977C349.344 191.507 349.264 190.666 349.733 190.099C350.202 189.531 351.043 189.45 351.611 189.92C352.178 190.389 352.258 191.231 351.789 191.799C351.32 192.365 350.48 192.446 349.912 191.977Z" fill="white"/>
<path d="M355.404 195.71C354.836 195.241 354.757 194.399 355.225 193.831C355.694 193.263 356.535 193.182 357.103 193.652C357.671 194.121 357.75 194.963 357.281 195.531C356.811 196.099 355.972 196.178 355.404 195.71Z" fill="white"/>
<path d="M346.25 199.24C345.682 198.771 345.602 197.929 346.071 197.361C346.54 196.793 347.381 196.713 347.948 197.183C348.516 197.651 348.596 198.493 348.127 199.061C347.657 199.629 346.818 199.71 346.25 199.24Z" fill="white"/>
<path d="M157.937 219.994C157.937 220.931 157.178 221.69 156.242 221.69C155.306 221.69 154.547 220.931 154.547 219.994C154.547 219.057 155.306 218.297 156.242 218.297C157.178 218.297 157.937 219.056 157.937 219.994Z" fill="white"/>
<path d="M385.106 132.551C385.106 133.714 384.163 134.658 383 134.658C381.837 134.658 380.895 133.714 380.895 132.551C380.895 131.388 381.837 130.445 383 130.445C384.163 130.445 385.106 131.388 385.106 132.551Z" fill="white"/>
<path d="M239.622 198.212C239.622 199.375 238.68 200.318 237.518 200.318C236.355 200.318 235.412 199.375 235.412 198.212C235.412 197.049 236.355 196.105 237.518 196.105C238.68 196.105 239.622 197.049 239.622 198.212Z" fill="white"/>
<path d="M279.862 60.6386C279.862 61.3479 279.287 61.9233 278.578 61.9233C277.868 61.9233 277.293 61.3479 277.293 60.6386C277.293 59.9294 277.868 59.354 278.578 59.354C279.287 59.354 279.862 59.9294 279.862 60.6386Z" fill="white"/>
<path d="M378.116 249.385C378.116 250.441 377.262 251.296 376.206 251.296C375.152 251.296 374.297 250.441 374.297 249.385C374.297 248.33 375.151 247.475 376.206 247.475C377.262 247.475 378.116 248.33 378.116 249.385Z" fill="white"/>
<path d="M252.884 104.065C252.884 105.12 252.029 105.976 250.974 105.976C249.92 105.976 249.064 105.12 249.064 104.065C249.064 103.01 249.919 102.154 250.974 102.154C252.029 102.154 252.884 103.01 252.884 104.065Z" fill="white"/>
<path d="M42.4054 424.031H552.138C555.892 424.031 556.924 429.2 553.452 430.627C519.358 444.633 428.944 476.364 302.231 479.987C184.4 483.356 85.953 452.691 40.3234 435.38C34.2251 433.068 35.8842 424.031 42.4054 424.031Z" fill="#C5C2E3"/>
<path d="M212.306 317.257C211.179 297.122 190.078 293.074 187.968 288.063C185.858 283.053 182.451 272.804 167.257 267.97C152.064 263.137 142.61 272.071 134.096 266.6C125.582 261.129 118.006 256.606 107.858 263.487C97.7094 270.367 90.5186 267.838 75.868 266.179C61.2174 264.52 49.5825 278.649 49.5825 278.649C43.8525 283.906 49.3804 290.562 62.8889 293.827C81.9638 298.437 76.5165 310.826 86.6845 315.847C96.8525 320.868 108.936 315.893 116.6 321.969C124.261 328.045 123.684 339.063 133.167 341.65C142.651 344.237 153.838 337.939 159.264 341.666C164.69 345.394 167.647 356.438 174.122 360.252C180.598 364.067 198.926 365.01 198.926 365.01L203.352 363.94C203.352 363.94 213.434 337.392 212.306 317.257Z" fill="#8EB498"/>
<path d="M200.345 357.605C200.345 357.605 195.562 316.504 167.296 297.782C139.03 279.061 92.6742 278.615 78.6213 277.838C64.5684 277.062 64.5684 277.062 64.5684 277.062C64.5684 277.062 121.297 273.454 149.425 284.894C188.056 300.605 199.062 326.27 200.345 357.605Z" fill="#FFFBF4"/>
<path d="M179.604 314.339C179.604 314.339 155.969 293.224 152.409 275.65C148.849 258.076 159.296 251.512 152.262 242.615C145.229 233.718 148.372 217.752 155.944 213.699C163.515 209.648 166.617 200.805 167.358 188.579C168.1 176.354 177.418 171.806 180.305 175.197C188.253 184.536 184.301 194.085 196.46 200.025C208.618 205.965 212.929 218.268 209.879 228.34C206.829 238.414 220.235 241.628 229.114 257.005C237.992 272.382 231.56 285.239 227.794 294.883C224.027 304.528 234.467 316.148 230.676 327.266C226.887 338.384 200.73 356.686 200.73 356.686C200.73 356.686 188.075 352.01 179.604 314.339Z" fill="#8EB498"/>
<path d="M179.365 192.218C179.365 192.218 187.17 222.313 196.569 261.11C205.967 299.907 207.549 347.757 207.549 347.757C207.549 347.757 212.99 313.031 205.941 280.442C198.892 247.855 179.96 197.234 179.365 192.218Z" fill="#FFFBF4"/>
<path d="M182.776 330.046C179.553 313.511 195.806 305.9 196.485 301.41C197.164 296.919 197.818 287.921 209.127 280.886C220.436 273.852 229.926 279.143 235.695 272.965C241.465 266.786 246.671 261.567 256.3 265.054C265.93 268.541 271.232 265.015 282.755 260.662C294.275 256.309 306.599 265.36 306.599 265.36C312.317 268.439 309.21 274.964 298.943 280.383C284.446 288.034 291.401 296.946 284.199 303.1C276.998 309.254 266.192 307.707 261.236 314.201C256.279 320.694 259.011 329.498 251.865 333.54C244.718 337.583 234.366 334.782 230.739 338.913C227.112 343.045 226.987 352.595 222.527 357.015C218.066 361.433 203.421 365.961 203.421 365.961L199.616 366.005C199.616 366.005 186 346.58 182.776 330.046Z" fill="#8EB498"/>
<path d="M200.75 360.259C200.75 360.259 196.179 325.997 215.219 305.033C234.259 284.068 271.701 274.184 282.92 270.669C294.138 267.153 294.138 267.153 294.138 267.153C294.138 267.153 247.464 275.885 227.04 290.925C198.99 311.582 195.351 334.624 200.75 360.259Z" fill="#FFFBF4"/>
<path d="M189.572 360.199C189.572 360.199 158.431 351.673 142.08 359.151C125.73 366.63 122.713 376.907 122.713 376.907C122.713 376.907 129.715 379.356 143.031 377.491C156.349 375.625 158.344 367.736 167.629 371.488C176.914 375.24 179.962 378.855 187.779 376.616C195.596 374.376 199.614 366.006 199.614 366.006L189.572 360.199Z" fill="#9A9B82"/>
<path d="M204.905 361.315C204.905 361.315 213.278 351.663 225.424 352.305C237.57 352.948 239.704 357.182 245.655 357.453C251.605 357.723 254.893 355.846 263.016 358.619C271.055 361.365 275.808 365.126 275.808 365.126C275.808 365.126 267.549 377.079 254.692 373.984C241.834 370.889 232.106 368.893 227.9 373.202C223.694 377.511 197.277 369.658 197.277 369.658L204.905 361.315Z" fill="#9A9B82"/>
<path d="M385.157 322.984C385.157 322.984 402.663 334.215 438.667 340.491C474.67 346.766 489.865 336.526 491.847 331.737C493.828 326.947 487.882 324.306 464.432 320.012C440.979 315.718 434.704 310.433 446.264 309.112C457.825 307.792 474.011 318.03 487.884 318.03C501.757 318.03 511.336 310.654 511.666 305.588C511.995 300.524 470.046 299.202 464.761 291.936C459.477 284.669 491.957 292.266 505.941 294.248C519.924 296.23 525.539 285.33 524.548 281.697C523.557 278.064 489.535 276.886 486.232 271.859C482.929 266.833 500.435 268.628 515.63 271.859C530.824 275.09 538.421 263.86 536.44 261.217C534.458 258.575 506.382 256.593 503.408 251.638C500.435 246.683 518.602 248.005 527.851 249.987C537.101 251.968 547.009 243.05 543.706 240.078C540.403 237.106 519.593 236.114 518.933 231.819C518.272 227.525 546.657 229.838 544.356 223.562C542.054 217.287 534.127 211.414 521.906 211.212C509.684 211.011 498.453 223.892 491.848 219.929C485.241 215.965 508.032 206.386 502.088 202.753C496.142 199.119 482.93 201.101 478.306 207.377C473.682 213.652 473.351 224.222 468.397 223.892C463.442 223.562 472.03 208.698 467.736 205.395C463.442 202.092 452.211 209.028 449.9 215.635C447.587 222.24 450.23 235.454 445.606 236.114C440.982 236.774 446.718 214.974 442.693 212.992C438.669 211.011 425.787 223.892 425.457 231.821C425.127 239.748 429.421 252.236 422.485 254.25C415.548 256.264 416.87 231.49 411.585 229.178C406.3 226.866 395.731 242.017 397.382 254.425C399.034 266.833 402.667 276.985 397.712 277.029C392.757 277.072 389.124 261.217 385.161 258.575C381.197 255.932 377.627 262.539 376.605 279.385C375.578 296.23 383.525 318.855 385.157 322.984Z" fill="#8EB498"/>
<path d="M379.507 350.12C379.507 350.12 398.061 302.524 419.644 276.151C441.228 249.777 482.879 233.873 502.949 232.737C502.949 232.737 455.47 241.563 424.945 279.311C394.42 317.059 382.914 368.674 382.914 368.674L374.584 367.036L379.507 350.12Z" fill="#FFFBF4"/>
<path d="M43.3261 420.025C43.3261 420.025 45.976 410.151 58.9811 405.574C71.9862 400.999 73.9132 413.281 82.1021 412.8C90.2911 412.319 94.0942 428.214 94.0942 428.214H40.4357L43.3261 420.025Z" fill="#9A9B82"/>
<path d="M74.7712 427.643C74.0173 423.898 72.8616 419.677 71.4245 415.165C73.7792 410.592 80.4455 396.069 80.2855 378.49C80.0908 357.155 65.3038 334.779 65.3038 334.779C65.3038 334.779 61.4202 371.285 67.8558 404.865C63.4029 392.847 57.694 379.811 52.4054 368.418C54.656 363.706 58.7033 353.565 58.6723 341.54C58.6289 324.906 47.2147 307.389 47.2147 307.389C47.2147 307.389 44.1507 334.48 48.5105 360.15C44.6132 351.995 41.2503 345.292 39.2155 341.298C38.8571 335.667 37.4658 325.795 32.3484 316.11C24.5773 301.403 6.32819 291.199 6.32819 291.199C6.32819 291.199 17.818 320.745 35.8179 342.07C37.446 345.267 40.1814 350.711 43.4575 357.485C40.9577 353.818 37.7634 349.917 33.7434 346.376C21.264 335.379 0.582031 332.307 0.582031 332.307C0.582031 332.307 24.0875 358.396 50.0593 371.465C52.7563 377.317 55.5376 383.548 58.1887 389.817C55.1892 385.741 51.5113 381.526 47.0634 377.658C30.9645 363.656 4.40991 359.888 4.40991 359.888C4.40991 359.888 33.1655 391.394 65.5097 408.337C68.1856 415.731 70.3172 422.623 71.4629 428.31L74.7712 427.643Z" fill="#8EB498"/>
<path d="M499.133 417.57H515.469C515.469 417.57 522.859 403.958 540.75 394.623C558.641 385.288 560.585 374.029 561.364 368.769C562.141 363.509 554.363 366.231 542.694 373.232C531.026 380.233 527.915 396.807 522.858 396.493C517.802 396.179 520.914 377.127 531.803 370.9C542.693 364.676 551.25 349.507 553.972 339.784C556.695 330.061 534.525 337.061 524.023 348.729C513.522 360.398 515.078 388.893 507.3 392.536C499.521 396.179 513.134 372.26 497.382 362.502C491.066 358.59 489.406 369.778 491.352 383.951C493.3 398.123 503.023 404.735 499.133 417.57Z" fill="#8EB498"/>
<path d="M471.621 426.028C471.621 426.028 500.305 429.152 522.456 429.152C544.607 429.152 553.128 427.164 553.128 427.164C553.128 427.164 548.3 418.076 534.1 414.669C519.901 411.261 518.481 419.78 512.232 414.669C505.984 409.557 494.624 405.865 484.686 408.704C474.745 411.544 471.621 426.028 471.621 426.028Z" fill="#D7CA8C"/>
<path d="M288.991 452.137C383.712 452.137 460.499 445.845 460.499 438.084C460.499 430.322 383.712 424.031 288.991 424.031C194.269 424.031 117.482 430.322 117.482 438.084C117.482 445.845 194.269 452.137 288.991 452.137Z" fill="#E2C9B5"/>
<path d="M448.566 360.541L435.539 374.277C435.539 374.277 435.539 374.291 435.525 374.318L433.075 376.891C433.061 376.904 433.048 376.905 433.048 376.905L432.897 377.068C432.884 377.055 432.857 377.041 432.843 377.027C404.718 359.63 377.588 333.712 370.755 327.028C367.243 323.87 363.949 320.085 361.389 315.567C355.386 304.935 347.273 285.087 341.624 270.55L340.875 273.708L330.692 316.846C335.048 323.53 341.01 333.767 346.115 346.399C348.701 352.811 351.07 359.848 352.894 367.335L294.373 401.762L294.387 402.633L293.597 402.212L292.821 402.661L292.807 401.789L233.006 369.636C234.939 360.161 237.756 351.38 240.807 343.635C240.861 343.513 240.902 343.377 240.957 343.255C245.122 332.8 249.737 324.238 253.262 318.329L241.243 274.932L239.624 269.091L238.752 265.947C233.034 280.145 222.498 305.451 215.147 317.893C212.506 322.358 209.158 326.074 205.563 329.165C198.621 335.712 170.946 361.14 142.496 378.021L139.895 375.176L127.141 361.196L191.992 300.224L213.909 237.564C226.528 210.489 235.988 210.107 235.988 210.107V210.121C237.73 208.65 239.718 207.411 241.95 206.541C242.672 206.254 243.407 205.969 244.155 205.656L244.168 205.642C248.443 203.886 253.234 201.64 258.026 198.822C263.676 195.486 269.339 191.335 274.185 186.202C274.893 181.384 275.151 174.523 275.246 170.071C275.301 167.416 275.301 165.606 275.301 165.606L289.091 167.022L302.813 165.075C302.813 165.075 302.936 168.655 303.262 173.148C303.575 177.19 304.024 181.983 304.705 185.617C306.951 187.822 309.36 189.837 311.851 191.634C320.495 197.991 330.132 202.074 337.701 204.702C339.662 205.383 341.445 206.335 343.064 207.48C345.038 207.969 353.587 211.4 364.164 235.29L384.883 298.344L448.566 360.541Z" fill="#5A6797"/>
<path d="M263.57 150.709C263.57 150.709 260.429 144.302 256.295 144.553C252.161 144.805 250.778 153.628 256.601 160.5C262.424 167.373 267.714 164.426 267.714 164.426L263.57 150.709Z" fill="#EBB1A4"/>
<path d="M315.417 149.714C315.417 149.714 318.31 143.192 322.451 143.285C326.591 143.378 328.312 152.141 322.757 159.231C317.202 166.323 311.803 163.581 311.803 163.581L315.417 149.714Z" fill="#EBB1A4"/>
<path d="M317.277 136.485C317.769 162.086 302.514 184.971 290.361 185.204C275.621 185.487 261.362 161.445 260.905 137.567C260.566 119.906 271.161 105.379 288.822 105.039C306.483 104.701 316.938 118.823 317.277 136.485Z" fill="#FACDBF"/>
<path d="M267.223 138.847C267.223 138.847 271.369 137.664 275.856 137.336C281.479 136.925 283.552 137.511 283.552 137.511C283.552 137.511 282.47 134.358 277.737 134.448C273.005 134.54 267.223 138.847 267.223 138.847Z" fill="#2F2A00"/>
<path d="M283.266 145.761C283.266 145.761 279.947 141.297 275.677 141.25C271.408 141.203 267.621 146.061 267.621 146.061C267.621 146.061 268.787 147.342 274.852 147.604C281.064 147.873 283.266 145.761 283.266 145.761Z" fill="#EBB1A4"/>
<path d="M275.562 147.245C271.538 147.284 268.266 146.272 267.713 146.091L267.653 146.06C267.65 146.062 267.645 146.065 267.64 146.067C267.633 146.065 267.62 146.061 267.62 146.061C267.624 146.064 267.63 146.069 267.633 146.071C266.927 146.526 265.475 146.648 265.475 146.648C266.971 147.114 268.158 146.959 268.689 146.842C269.849 147.631 271.905 148.665 275.587 148.624C280.874 148.566 283.264 145.761 283.264 145.761C283.264 145.761 279.979 147.203 275.562 147.245Z" fill="#2F2A00"/>
<path d="M310.735 138.012C310.735 138.012 306.546 136.989 302.051 136.834C296.416 136.64 294.367 137.304 294.367 137.304C294.367 137.304 295.328 134.111 300.06 134.021C304.792 133.929 310.735 138.012 310.735 138.012Z" fill="#2F2A00"/>
<path d="M294.971 145.537C294.971 145.537 298.117 140.949 302.381 140.738C306.645 140.526 310.616 145.237 310.616 145.237C310.616 145.237 309.5 146.561 303.45 147.056C297.251 147.562 294.971 145.537 294.971 145.537Z" fill="#EBB1A4"/>
<path d="M312.781 145.739C312.781 145.739 311.325 145.673 310.602 145.245C310.606 145.243 310.611 145.238 310.616 145.235C310.616 145.235 310.603 145.24 310.597 145.243C310.593 145.24 310.587 145.239 310.584 145.237L310.525 145.27C309.978 145.472 306.747 146.608 302.726 146.725C298.31 146.852 294.971 145.537 294.971 145.537C294.971 145.537 297.467 148.249 302.753 148.103C306.433 148.003 308.448 146.89 309.578 146.057C310.111 146.153 311.303 146.263 312.781 145.739Z" fill="#2F2A00"/>
<path d="M285.457 161.111C285.457 161.111 287.725 162.49 289.581 162.584C291.438 162.678 293.646 160.953 293.646 160.953C293.646 160.953 291.917 160.772 289.848 160.725C287.777 160.678 285.457 161.111 285.457 161.111Z" fill="#EBB1A4"/>
<path d="M290.568 169.046C295.151 168.769 298.062 167.327 298.062 167.327C298.062 167.327 293.157 166.801 291.901 167.047C291.121 167.2 290.577 167.945 290.277 168.488C289.956 167.956 289.384 167.232 288.599 167.11C287.334 166.913 282.455 167.627 282.455 167.627C282.455 167.627 285.42 168.957 290.009 169.057C290.008 169.061 290 169.078 290 169.078C290.098 169.074 290.191 169.067 290.288 169.062C290.385 169.063 290.478 169.067 290.576 169.067C290.576 169.067 290.571 169.05 290.568 169.046Z" fill="#743F3D"/>
<path d="M283.861 169.582C283.861 169.582 284.826 170.953 288.4 171.822C291.973 172.691 294.564 171.218 296.705 169.852C296.705 169.852 294.771 173.543 290.738 174.041C286.706 174.539 284.001 170.128 283.861 169.582Z" fill="#EBB1A4"/>
<path d="M300.15 120.215C300.15 120.215 294.009 116.969 285.739 117.387C277.47 117.805 271.045 124.266 268.651 128.839C266.256 133.412 263.825 134.716 263.825 134.716C263.825 134.716 264.582 145.804 262.461 150.53C262.461 150.53 259.596 145.741 256.297 144.555C256.297 144.555 253.472 134.434 255.205 123.664C256.939 112.895 268.357 101.293 283.719 99.705C299.08 98.1165 306.856 105.599 306.856 105.599C306.856 105.599 317.055 111.352 320.088 121.125C323.121 130.897 320.52 143.581 320.52 143.581C320.52 143.581 317.895 144.91 316.204 149.497C316.204 149.497 311.289 142.082 312.553 133.78C312.551 133.78 310.539 120.575 300.15 120.215Z" fill="#743F3D"/>
<path d="M309.284 111.111C306.205 112.085 286.332 101.329 286.332 101.329C286.332 101.329 286.228 99.5884 286.787 97.3416C287.567 94.2366 289.593 90.1459 294.879 88.2363C295.788 87.9114 296.685 87.6782 297.555 87.522C305.517 86.1716 312.129 91.6264 314.026 97.1866C316.129 103.357 312.376 110.15 309.284 111.111Z" fill="#743F3D"/>
<path d="M283.551 137.511C283.551 137.511 285.478 141.12 286.562 146.598C287.645 152.078 286.743 156.007 286.743 156.007C286.743 156.007 285.683 140.51 277.795 137.225C277.795 137.225 282.12 137.132 283.551 137.511Z" fill="#EBB1A4"/>
<path d="M300.151 120.215C300.151 120.215 290.34 116.931 281.988 120.563C273.635 124.195 273.835 129.496 268.033 129.945L267.285 128.557C267.285 128.557 268.831 128.854 272.365 126.069C275.898 123.282 283.352 113.261 300.151 120.215Z" fill="#743F3D"/>
<path d="M260.244 413.08C260.244 413.08 252.22 414.103 249.422 414.646C249.422 414.646 238.215 413.041 233.507 413.24C228.797 413.44 226.223 419.045 223.563 425.127C220.903 431.209 210.597 437.689 206.955 441.477C203.314 445.264 203.216 450.821 203.295 451.996C203.375 453.172 201.003 456.52 202.25 459.269C203.498 462.018 204.853 461.1 206.012 460.787C207.172 460.473 207.985 458.529 207.985 458.529C207.985 458.529 210.947 458.684 212.209 458.126C213.47 457.569 212.388 457.287 215.209 457.097C218.03 456.907 219.542 456.568 221.266 455.861C222.989 455.155 234.796 442.906 241.189 439.642C247.581 436.377 257.435 437.131 257.435 437.131L260.244 413.08Z" fill="#FACDBF"/>
<path d="M441.434 421.404C422.377 432.063 390.809 436.256 354.272 438.474C349.821 438.747 345.302 438.991 340.714 439.21L341.34 455.054C341.34 455.054 338.563 455.027 333.648 454.959C318.579 454.781 283.445 454.333 246.812 453.597C187.57 452.427 140.443 437.725 126.83 424.616C120.269 418.286 116.376 408.198 117.764 398.779C118.867 391.32 123.291 384.281 132.316 379.831C134.467 378.769 138.223 377.422 143.301 375.978C159.228 371.418 188.046 365.904 219.831 365.606C220.335 365.565 220.811 365.537 221.275 365.497C225.467 359.207 240.958 343.253 240.958 343.253C240.958 343.253 251.848 352.415 266.741 357.859C274.608 360.731 283.607 362.583 292.7 361.48C319 358.308 345.422 343.648 345.422 343.648C350.772 348.971 355.89 361.467 355.89 361.467C382.218 361.712 425.819 369.703 435.198 374.399C435.266 374.439 435.321 374.48 435.376 374.508C441.747 376.223 447.055 379.925 450.69 384.636C459.117 395.539 458.559 411.848 441.434 421.404Z" fill="#F4CFA4"/>
<path d="M127.136 361.194C127.136 361.194 120.509 360.182 117.853 360.233C115.196 360.284 109.837 361.981 106.81 362.494C103.782 363.008 102.265 363.113 102.349 363.567C102.434 364.021 103.443 365.141 106.794 365.608C110.144 366.076 113.01 365.185 114.795 365.151C116.581 365.116 116.98 366.172 116.98 366.172C116.98 366.172 115.175 370.991 109.347 372.014C103.519 373.037 101.225 372.17 100.829 371.342C100.434 370.515 102.906 364.847 102.259 362.734C101.61 360.62 100.627 360.791 99.4007 364.156C98.1744 367.521 96.0341 370.752 96.0763 372.953C96.1185 375.154 99.8757 377.057 99.8757 377.057C99.8757 377.057 92.6452 376.209 90.4814 378.224C88.3176 380.24 92.6477 380.308 96.0713 380.623C99.495 380.937 102.703 381.939 104.749 381.671C104.749 381.671 95.558 381.543 93.7637 383.021C91.9694 384.498 95.6336 385.492 99.1255 385.425C102.617 385.358 107.339 386.103 108.099 386.088C108.099 386.088 99.9166 387.08 100.184 389.126C100.451 391.171 101.944 389.776 106.433 390.221C110.922 390.666 114.642 390.595 118.869 389.298C123.096 388.002 139.899 375.172 139.899 375.172L127.136 361.194Z" fill="#FACDBF"/>
<path d="M435.54 374.277C435.54 374.277 435.54 374.291 435.526 374.318C435.404 374.577 434.777 375.843 433.076 376.891C433.062 376.904 433.049 376.905 433.049 376.905C432.981 376.945 432.912 376.986 432.844 377.027C404.72 359.63 377.59 333.712 370.756 327.028C367.244 323.87 363.95 320.085 361.39 315.567C355.388 304.935 347.274 285.087 341.625 270.55L344.879 243.474C344.879 243.474 357.034 295.869 369.872 312.749C382.709 329.627 435.54 374.277 435.54 374.277Z" fill="#5A6797"/>
<path d="M241.244 274.931L239.625 269.09L238.753 265.946C233.035 280.144 222.499 305.45 215.148 317.892C212.507 322.357 209.159 326.073 205.565 329.163C198.622 335.71 170.947 361.139 142.497 378.019L139.897 375.175C139.897 375.175 195.94 327.312 212.398 308.486C228.842 289.659 238.956 248.604 238.956 248.604L241.244 274.931Z" fill="#5A6797"/>
<path d="M328.1 430.016C328.1 430.016 336.103 431.195 338.889 431.793C338.889 431.793 350.124 430.407 354.829 430.698C359.534 430.989 361.998 436.644 364.537 442.777C367.078 448.91 377.256 455.591 380.822 459.449C384.388 463.306 384.377 468.863 384.275 470.037C384.174 471.21 386.479 474.604 385.178 477.328C383.876 480.053 382.539 479.109 381.386 478.772C380.233 478.434 379.458 476.475 379.458 476.475C379.458 476.475 376.493 476.572 375.243 475.99C373.993 475.409 375.079 475.148 372.263 474.903C369.447 474.657 367.942 474.29 366.232 473.55C364.523 472.81 352.957 460.333 346.63 456.944C340.304 453.555 330.436 454.116 330.436 454.116L328.1 430.016Z" fill="#FACDBF"/>
<path d="M448.568 360.545C448.568 360.545 455.212 359.66 457.868 359.762C460.524 359.863 465.849 361.662 468.867 362.234C471.884 362.806 473.399 362.94 473.305 363.392C473.212 363.845 472.181 364.945 468.823 365.348C465.465 365.751 462.616 364.806 460.833 364.738C459.048 364.669 458.628 365.717 458.628 365.717C458.628 365.717 460.342 370.569 466.149 371.704C471.956 372.839 474.267 372.015 474.679 371.194C475.09 370.375 472.726 364.661 473.414 362.56C474.102 360.46 475.083 360.648 476.245 364.036C477.407 367.424 479.485 370.695 479.401 372.894C479.316 375.094 475.523 376.924 475.523 376.924C475.523 376.924 482.768 376.214 484.892 378.271C487.018 380.328 482.687 380.315 479.258 380.563C475.829 380.811 472.602 381.752 470.562 381.445C470.562 381.445 479.754 381.494 481.52 383.005C483.285 384.517 479.603 385.439 476.113 385.306C472.623 385.172 467.887 385.826 467.128 385.797C467.128 385.797 475.29 386.945 474.985 388.985C474.679 391.024 473.214 389.601 468.717 389.961C464.22 390.32 460.503 390.178 456.301 388.801C452.098 387.425 435.543 374.277 435.543 374.277L448.568 360.545Z" fill="#FACDBF"/>
<path d="M302.557 104.214C296.569 101.291 287.1 99.4979 287.1 99.4979C286.944 98.744 286.84 98.0173 286.789 97.3415C287.569 94.2366 289.595 90.1458 294.881 88.2362C295.79 87.9113 296.687 87.6782 297.557 87.522C296.558 88.5487 295.517 90.457 296.428 93.6401C297.971 99.044 308.531 107.136 302.557 104.214Z" fill="#603030"/>
<path d="M296.98 115.349C296.98 115.349 285.944 111.174 275.388 115.349C264.832 119.524 263.363 130.797 260.896 131.91C260.896 131.91 263.034 116.787 274.372 113.494C285.708 110.2 296.98 115.349 296.98 115.349Z" fill="#603030"/>
<path d="M305.329 108.391L301.154 117.804C301.154 117.804 306.86 115.21 305.329 108.391Z" fill="#603030"/>
<path d="M233.5 239.5C235.5 243 237.5 257.167 238.5 265.5C237.833 259.833 238.3 251.2 243.5 242M346.5 252C345.3 252.4 342.667 264.5 341.5 270.5C341.833 261.333 342.3 242.4 341.5 240M195.5 306.5C195.1 303.3 193.5 301.333 192.5 300.5C194 301.667 198 303.2 204 302M384.5 304.5C383.7 302.5 384 300.167 384.5 299C382.833 300.833 379.5 303.8 377.5 303M282.5 361C265.3 360.2 247.667 349 241 343.5C245.833 345.5 259.5 351 267 351M246.5 331C246.667 331.667 248.5 333.3 254.5 334.5M326 324.5C330 320.5 330.333 319.333 330.5 317C328.833 318.5 326.5 319 320 319M304.5 186L302.5 187.5C300.5 189.5 298.667 190 298 190M304.5 186L299 187M304.5 186L303.5 181M304.5 186L309 190M281.5 190.5C277 190 274.833 187.5 274.5 186.5C274.833 187.833 274.5 190.9 272.5 194.5M290 263C288 265.5 286.7 270.3 277.5 273.5C287.833 274 289 272 291.5 270" stroke="#333D62" stroke-linecap="round" stroke-linejoin="round"/>
<path d="M409 381.5C397.667 381.5 370.7 383.6 353.5 392C336.3 400.4 304.333 413.988 289 415.988M162.5 379.5C182.333 380.5 211.8 383.2 229 392C246.2 400.8 307.167 423 328 429.5M231 371C226.5 369 222.167 366.333 221.5 365.5C223.167 367 223.6 370.1 224 370.5M356.5 368C355.3 365.6 355.667 362.667 356 361.5C354.833 363.333 348.1 370.1 346.5 370.5M121 415.988C128 432.5 165.57 447.04 221.5 451C278 455 305.667 454.833 318.5 455M455.5 404C451.5 418 440 431 369 437" stroke="#DCB483" stroke-linecap="round" stroke-linejoin="round"/>
</g>
<defs>
<clipPath id="clip0_2902_3281">
<rect width="562" height="481" fill="white"/>
</clipPath>
</defs>
</svg>
