<svg width="16" height="16" viewBox="0 0 16 16" fill="none" xmlns="http://www.w3.org/2000/svg">
<g clip-path="url(#clip0_3434_429)">
<path d="M8 0C3.57803 0 0 3.57834 0 8C0 12.422 3.57834 16 8 16C12.422 16 16 12.4217 16 8C16 3.57803 12.4216 0 8 0ZM8 14.75C4.26897 14.75 1.25 11.7308 1.25 8C1.25 4.26897 4.26922 1.25 8 1.25C11.731 1.25 14.75 4.26922 14.75 8C14.75 11.731 11.7308 14.75 8 14.75Z" fill="#ADB5C9"/>
<path d="M8 14.75C4.26897 14.75 1.25 11.7308 1.25 8C1.25 4.26897 4.26922 1.25 8 1.25C11.731 1.25 14.75 4.26922 14.75 8C14.75 11.731 11.7308 14.75 8 14.75Z" fill="#ADB5C9"/>
<path d="M8 6C7.4477 6 7 6.37133 7 6.82942V12.1706C7 12.6287 7.4477 13 8 13C8.5523 13 9 12.6286 9 12.1705V6.82942C9 6.37133 8.5523 6 8 6Z" fill="#FEFEFE"/>
<path d="M8.09368 5.18736C8.6977 5.18736 9.18736 4.6977 9.18736 4.09368C9.18736 3.48966 8.6977 3 8.09368 3C7.48966 3 7 3.48966 7 4.09368C7 4.6977 7.48966 5.18736 8.09368 5.18736Z" fill="#FEFEFE"/>
</g>
<defs>
<clipPath id="clip0_3434_429">
<rect width="16" height="16" fill="white"/>
</clipPath>
</defs>
</svg>
