<svg width="190" height="334" viewBox="0 0 190 334" fill="none" xmlns="http://www.w3.org/2000/svg">
<path d="M7.47257 111.208C0.287147 137.878 27.8382 143.906 31.7013 116.487C38.1686 90.9996 13.9216 80.3191 7.47257 111.208Z" fill="#222238"/>
<path d="M16.6436 304.402C16.5935 311.111 14.3047 317.785 10.1909 323.128C9.55904 324.181 8.99333 325.303 8.8022 326.516C8.61107 327.729 8.83948 329.057 9.64529 329.984C10.4635 330.925 11.7419 331.328 12.9778 331.494C15.1665 331.789 17.4213 331.471 19.4838 330.682C20.6233 330.246 21.7303 329.651 22.5536 328.75C24.1747 326.977 24.4265 324.35 24.2526 321.953C24.0786 319.557 23.5652 317.141 23.969 314.978C24.3015 311.015 24.6337 307.052 24.9663 303.089L16.6436 304.402Z" fill="#FFD8CA"/>
<path d="M56.6955 303.99C58.0926 314.319 52.9098 316.523 55.8188 320.51C59.1542 323.44 64.4703 321.62 68.5122 322.81C72.5566 323.617 76.4135 325.698 80.5321 325.485C83.7616 325.632 87.6974 322.058 81.972 319.151C73.7293 314.968 66.0282 314.238 67.3873 303.397L56.6955 303.99Z" fill="#FFD8CA"/>
<mask id="mask0_1_853" style="mask-type:luminance" maskUnits="userSpaceOnUse" x="8" y="303" width="17" height="29">
<path d="M16.6436 304.402C16.5935 311.111 14.3047 317.785 10.1909 323.128C9.55904 324.181 8.99333 325.303 8.8022 326.516C8.61107 327.729 8.83948 329.057 9.64529 329.984C10.4635 330.925 11.7419 331.328 12.9778 331.494C15.1665 331.789 17.4213 331.471 19.4838 330.682C20.6233 330.246 21.7303 329.651 22.5536 328.75C24.1747 326.977 24.4265 324.35 24.2526 321.953C24.0786 319.557 23.5652 317.141 23.969 314.978C24.3015 311.015 24.6337 307.052 24.9663 303.089L16.6436 304.402Z" fill="white"/>
</mask>
<g mask="url(#mask0_1_853)">
<path d="M14.9749 313.243C14.5043 317.053 10.6071 327.087 18.1401 324.948C21.9166 322.964 22.7126 317.875 24.6085 314.328C24.0333 318.768 26.2322 323.523 24.4418 327.626C15.6554 340.977 -1.41169 330.542 14.9749 313.243Z" fill="#572C22"/>
</g>
<mask id="mask1_1_853" style="mask-type:luminance" maskUnits="userSpaceOnUse" x="54" y="303" width="31" height="23">
<path d="M56.6955 303.99C58.0926 314.319 52.9098 316.523 55.8188 320.51C59.1542 323.44 64.4703 321.62 68.5122 322.81C72.5566 323.617 76.4135 325.698 80.5321 325.485C83.7616 325.632 87.6974 322.058 81.972 319.151C73.7293 314.968 66.0282 314.238 67.3873 303.397L56.6955 303.99Z" fill="white"/>
</mask>
<g mask="url(#mask1_1_853)">
<path d="M54.0463 312.882C58.6871 315.477 63.0092 318.92 68.1058 320.556C71.7295 321.408 77.2105 321.639 80.5967 320.134C80.3903 318.415 77.0146 316.608 75.8371 315.151C85.1827 312.761 95.9616 323.593 82.5636 327.039C76.4003 327.99 70.377 324.863 64.1688 324.274C57.4607 324.609 45.7481 322.05 54.0463 312.882Z" fill="#572C22"/>
</g>
<path d="M68.974 118.142L30.2085 117.996L23.129 125.868C16.5967 137.084 14.2578 150.271 13.5708 163.232C12.8837 176.193 13.733 189.199 13.0379 202.159C12.6667 209.084 11.859 216.087 13.1118 222.907C13.7144 226.187 14.7925 229.422 14.7329 232.757C14.6591 236.898 12.845 240.778 11.8919 244.818C9.92507 248.927 9.56547 253.626 9.77268 258.176C9.97989 262.726 10.7196 267.244 10.8201 271.798C11.0452 281.996 8.06532 292.218 10.0928 302.571C12.3396 304.167 15.2467 304.533 17.9985 304.381C22.594 304.126 27.1084 302.54 30.0532 299.951C33.4847 283.746 36.9162 267.541 40.7644 251.547C41.6831 243.982 42.6019 236.416 43.5206 228.85C44.6056 219.913 46.4226 209.876 47.9045 201.6C48.0942 199.601 48.2835 197.601 48.4731 195.602C47.7627 208.362 46.5947 221.324 48.9219 233.891C50.0307 239.878 50.7221 245.721 49.8863 252.421C49.1996 257.923 49.4704 263.51 49.693 269.051C49.8918 274.001 50.7652 278.897 51.6368 283.774C52.7796 290.169 53.9227 296.565 54.924 302.399C57.139 304.69 60.7397 304.713 63.9231 304.579C65.4489 304.515 67.0082 304.444 68.4284 303.882C69.8485 303.32 71.1287 302.166 72.176 299.999C71.0468 292.8 72.5272 285.488 73.522 278.269C74.2748 272.805 74.7502 267.307 75.2253 261.812C76.1978 250.563 77.1706 239.313 78.2907 227.841C79.3373 209.9 80.3836 191.959 81.4302 174.018C82.0683 163.077 82.6779 151.871 79.796 141.636C78.0795 135.177 75.2107 129.025 71.3651 123.558L68.974 118.142Z" fill="#8F8CBB"/>
<mask id="mask2_1_853" style="mask-type:luminance" maskUnits="userSpaceOnUse" x="9" y="117" width="73" height="188">
<path d="M68.974 118.142L30.2085 117.996L23.129 125.868C16.5967 137.084 14.2578 150.271 13.5708 163.232C12.8837 176.193 13.733 189.199 13.0379 202.159C12.6667 209.084 11.859 216.087 13.1118 222.907C13.7144 226.187 14.7925 229.422 14.7329 232.757C14.6591 236.898 12.845 240.778 11.8919 244.818C9.92507 248.927 9.56547 253.626 9.77268 258.176C9.97989 262.726 10.7196 267.244 10.8201 271.798C11.0452 281.996 8.06532 292.218 10.0928 302.571C12.3396 304.167 15.2467 304.533 17.9985 304.381C22.594 304.126 27.1084 302.54 30.0532 299.951C33.4847 283.746 36.9162 267.541 40.7644 251.547C41.6831 243.982 42.6019 236.416 43.5206 228.85C44.6056 219.913 46.4226 209.876 47.9045 201.6C48.0942 199.601 48.2835 197.601 48.4731 195.602C47.7627 208.362 46.5947 221.324 48.9219 233.891C50.0307 239.878 50.7221 245.721 49.8863 252.421C49.1996 257.923 49.4704 263.51 49.693 269.051C49.8918 274.001 50.7652 278.897 51.6368 283.774C52.7796 290.169 53.9227 296.565 54.924 302.399C57.139 304.69 60.7397 304.713 63.9231 304.579C65.4489 304.515 67.0082 304.444 68.4284 303.882C69.8485 303.32 71.1287 302.166 72.176 299.999C71.0468 292.8 72.5272 285.488 73.522 278.269C74.2748 272.805 74.7502 267.307 75.2253 261.812C76.1978 250.563 77.1706 239.313 78.2907 227.841C79.3373 209.9 80.3836 191.959 81.4302 174.018C82.0683 163.077 82.6779 151.871 79.796 141.636C78.0795 135.177 75.2107 129.025 71.3651 123.558L68.974 118.142Z" fill="white"/>
</mask>
<g mask="url(#mask2_1_853)">
<path d="M60.1652 311.931C59.9785 311.931 59.7888 311.898 59.5984 311.83C58.4853 311.431 57.5629 309.922 57.2267 308.638L51.8897 288.25C51.0908 285.199 50.2653 282.044 50.1933 278.809C50.1155 275.316 50.9257 271.863 51.7095 268.523C51.9087 267.675 52.1075 266.826 52.2924 265.978C55.1634 252.799 54.6375 238.99 54.1288 225.635C54.0426 223.372 53.9563 221.11 53.8861 218.853C53.0935 193.397 54.3842 167.686 57.723 142.436C57.8052 141.812 57.8889 141.189 57.9726 140.565C58.744 134.816 59.5418 128.87 59.3101 123.008C59.256 121.639 59.131 120.076 58.3292 118.871C57.6462 117.844 56.206 117.118 55.0691 117.585C54.3367 121.698 54.3539 125.903 54.3707 129.971C54.3813 132.539 54.3923 135.193 54.2154 137.804C53.9534 141.67 53.2726 145.543 52.6144 149.289C52.2011 151.64 51.7739 154.071 51.4556 156.471C50.6399 162.62 50.4889 168.941 50.3424 175.055L50.2909 177.171C49.6104 204.055 47.4674 231.203 43.9215 257.861C43.1734 263.486 42.2339 268.875 39.0037 272.983L38.3846 273.771L38.3514 272.769C37.7893 255.84 39.1879 238.833 42.5087 222.222C42.8361 220.585 43.1884 218.919 43.529 217.309C45.0361 210.186 46.5944 202.82 46.5034 195.467C46.4639 192.268 46.1094 189.022 45.767 185.883C45.4246 182.746 45.0708 179.502 45.027 176.288C44.9828 173.036 45.2554 169.746 45.5192 166.565C45.611 165.459 45.7023 164.354 45.7816 163.248C46.1339 158.321 46.2388 153.294 46.3404 148.432L46.9547 118.975C45.737 119.233 44.3882 119.231 43.0726 118.969C42.0515 132.255 41.0502 145.604 40.0814 158.517C39.6176 164.7 39.1382 171.093 39.4155 177.385C39.5307 179.997 39.7795 182.653 40.0204 185.221C40.4114 189.395 40.8159 193.711 40.6613 197.981C40.4684 203.302 39.4053 208.607 38.3773 213.738C38.0999 215.121 37.8229 216.504 37.562 217.888C36.1218 225.526 35.1519 233.375 34.2141 240.965C33.1997 249.175 32.1508 257.663 32.4684 266.064C32.5148 267.297 32.5919 268.554 32.6665 269.769C32.851 272.774 33.0418 275.88 32.7918 278.939C32.4918 282.62 31.553 286.284 30.6448 289.828C29.3796 294.766 28.0735 299.864 28.5523 304.94L28.6151 304.92V305.421C28.6151 305.458 28.6151 305.495 28.618 305.554L28.3008 305.581L28.3615 305.769C26.6856 306.308 24.8627 306.567 22.9522 306.534L22.5239 306.527L22.5984 306.105C24.8718 293.215 25.2592 279.839 25.6342 266.904C25.9602 255.65 26.2975 244.013 27.8707 232.692C28.379 229.033 29.027 225.33 29.6537 221.748C31.003 214.037 32.3982 206.064 32.4658 198.132C32.5166 192.178 31.8183 186.145 31.1433 180.311C30.5355 175.063 29.9077 169.635 29.8218 164.26C29.5825 149.233 33.488 134.549 37.3146 120.34C35.624 120.46 33.8757 120.5 31.8808 120.465C31.664 127.494 29.9249 134.497 28.2424 141.272C27.3357 144.923 26.398 148.698 25.7069 152.44C23.9158 162.138 23.6776 172.01 24.9983 181.783C25.173 183.074 25.3784 184.387 25.5768 185.655C25.9784 188.22 26.3932 190.871 26.5789 193.511C27.0492 200.197 26.0654 206.904 24.9329 213.156C24.6149 214.91 24.2736 216.695 23.9436 218.42C22.2969 227.027 20.5939 235.926 21.1066 244.752C21.2525 247.261 21.581 249.805 21.8989 252.265C22.2699 255.135 22.6532 258.102 22.7523 261.05C22.9847 267.971 21.6629 274.938 20.3842 281.675C18.8296 289.867 17.2219 298.338 18.4707 306.635L18.5123 306.911L18.2573 307.024C16.6617 307.729 14.7965 307.821 13.1399 307.276L12.8954 307.195L12.8888 306.938C12.7375 301.075 13.8982 295.038 15.0212 289.2C16.168 283.235 17.3542 277.067 17.2077 270.92C17.1394 268.058 16.7787 265.158 16.4297 262.354C16.1929 260.451 15.948 258.483 15.7952 256.536C15.1195 247.933 16.1929 239.221 17.2307 230.796C18.0533 224.119 18.9041 217.214 18.8778 210.408C18.8581 205.292 18.3428 200.106 17.8439 195.09C17.5253 191.884 17.196 188.57 16.9979 185.299C15.7331 164.407 19.7351 143.475 23.8164 125.754L24.5287 125.918C20.4591 143.588 16.4684 164.456 17.7274 185.255C17.9247 188.511 18.2532 191.819 18.5715 195.018C19.0718 200.051 19.5893 205.255 19.6091 210.405C19.6354 217.258 18.7817 224.186 17.9565 230.886C16.923 239.275 15.8545 247.949 16.5243 256.479C16.676 258.409 16.9197 260.369 17.1554 262.263C17.5066 265.086 17.8699 268.004 17.939 270.903C18.0873 277.128 16.8938 283.335 15.7397 289.338C14.5907 295.313 13.5046 300.962 13.6143 306.656C14.9492 307.035 16.4136 306.965 17.7073 306.461C16.5177 298.133 18.1184 289.699 19.6668 281.539C20.9382 274.841 22.2523 267.915 22.0225 261.075C21.9245 258.162 21.5434 255.212 21.1746 252.36C20.8552 249.887 20.5245 247.33 20.3772 244.795C19.8594 235.879 21.5711 226.934 23.2259 218.284C23.5555 216.56 23.8968 214.777 24.214 213.026C25.3382 206.821 26.3146 200.169 25.8502 193.563C25.6667 190.954 25.2541 188.318 24.855 185.769C24.6559 184.497 24.4498 183.181 24.2743 181.881C22.943 172.032 23.1835 162.082 24.9884 152.308C25.6835 148.544 26.6238 144.758 27.5334 141.096C29.2357 134.242 30.996 127.155 31.1605 120.084L31.1689 119.719L31.5339 119.727C33.8626 119.778 35.8444 119.729 37.7729 119.573L38.29 119.531L38.1551 120.032C34.2996 134.347 30.3126 149.149 30.5535 164.249C30.6382 169.587 31.2646 174.996 31.8698 180.228C32.5477 186.084 33.2483 192.139 33.1975 198.139C33.1295 206.131 31.7287 214.135 30.3744 221.875C29.7487 225.45 29.1015 229.147 28.595 232.793C27.0276 244.075 26.691 255.692 26.3654 266.926C25.9938 279.744 25.6101 292.995 23.3936 305.806C24.9577 305.794 26.4502 305.58 27.8407 305.166C27.3079 299.912 28.644 294.696 29.9377 289.647C30.8378 286.133 31.7689 282.499 32.0642 278.881C32.3094 275.873 32.1205 272.793 31.9378 269.814C31.8628 268.595 31.7854 267.334 31.7386 266.092C31.4192 257.633 32.4717 249.114 33.4895 240.876C34.4287 233.274 35.4 225.414 36.8446 217.753C37.1063 216.366 37.384 214.98 37.6618 213.594C38.6839 208.492 39.7412 203.217 39.9319 197.955C40.085 193.733 39.6827 189.44 39.2938 185.289C39.0523 182.712 38.8027 180.047 38.6865 177.417C38.4069 171.082 38.8882 164.666 39.3538 158.463C40.3328 145.413 41.3451 131.919 42.3771 118.494L42.41 118.065L42.8277 118.167C44.3261 118.531 45.8909 118.527 47.2335 118.155L47.7064 118.024L47.072 148.445C46.9701 153.318 46.8652 158.355 46.5114 163.3C46.4321 164.409 46.3404 165.516 46.2483 166.625C45.9859 169.789 45.7147 173.061 45.7586 176.278C45.8017 179.458 46.1536 182.684 46.4942 185.803C46.8389 188.959 47.1948 192.223 47.235 195.458C47.3271 202.892 45.7601 210.298 44.2449 217.46C43.9047 219.068 43.5528 220.731 43.2261 222.366C39.9856 238.575 38.5816 255.164 39.0501 271.686C41.6729 267.854 42.4886 263.097 43.1979 257.764C46.7402 231.132 48.8813 204.01 49.5611 177.152L49.6126 175.038C49.7591 168.905 49.9108 162.563 50.732 156.375C51.0521 153.96 51.4808 151.521 51.8955 149.163C52.5508 145.436 53.228 141.582 53.4874 137.755C53.6625 135.17 53.6515 132.529 53.6409 129.975C53.6237 125.812 53.6062 121.508 54.385 117.269L54.4171 117.094L54.575 117.011C56.1314 116.197 58.0522 117.133 58.9388 118.467C59.8458 119.83 59.9836 121.512 60.0414 122.98C60.276 128.906 59.4738 134.882 58.698 140.663C58.6143 141.286 58.531 141.909 58.4484 142.532C55.1151 167.743 53.8262 193.414 54.6178 218.831C54.6879 221.087 54.7742 223.346 54.8601 225.608C55.3706 239.008 55.8983 252.864 53.0076 266.134C52.822 266.986 52.6221 267.838 52.4222 268.691C51.6489 271.986 50.8496 275.394 50.9253 278.793C50.9955 281.943 51.81 285.056 52.5979 288.065L57.9349 308.454C58.2192 309.541 59.0119 310.844 59.8458 311.142C60.1517 311.252 60.4339 311.208 60.7079 311.009C61.2821 310.593 61.2846 309.666 61.2225 308.904C60.8775 304.68 59.9368 300.447 59.0269 296.355C57.9759 291.626 56.8887 286.737 56.7056 281.808C56.5163 276.702 57.2965 271.569 58.0511 266.605C58.2858 265.062 58.528 263.467 58.7371 261.899C60.1276 251.477 60.2391 240.785 60.3469 230.445L60.7522 191.609C60.8691 180.419 60.9901 168.848 62.1588 157.519C62.3989 155.19 62.6883 152.817 62.9675 150.522C64.0759 141.423 65.2223 132.014 63.6304 122.926C63.4075 121.654 62.7296 117.784 65.2512 116.639C65.9583 116.318 66.7513 116.322 67.5458 116.65C68.5599 117.07 69.4341 117.978 69.8273 119.022C70.4592 120.699 70.18 122.496 69.9103 124.234L69.8945 124.337C68.2716 134.797 68.1616 145.42 69.5667 155.911C69.7082 156.967 69.8649 158.022 70.0217 159.077C70.4924 162.244 70.9792 165.519 71.0267 168.783C71.0965 173.589 70.2183 178.397 69.3687 183.046C67.5239 193.143 65.4386 204.557 65.9828 215.652C66.1191 218.429 66.421 221.246 66.713 223.971C67.0313 226.941 67.3609 230.013 67.4782 233.054C67.7424 239.89 66.9483 246.798 66.1805 253.478C65.9159 255.78 65.6426 258.16 65.4167 260.499C63.903 276.177 64.324 291.73 65.0206 306.222L68.4415 305.387C66.4776 297.581 67.9339 289.437 69.3431 281.558C69.8408 278.775 70.3557 275.897 70.7088 273.085C71.3614 267.892 71.493 262.549 71.6202 257.382C71.7828 250.784 71.9509 243.96 73.2044 237.361C73.4178 236.237 73.6663 235.101 73.9068 234.003C74.4604 231.472 75.0331 228.855 75.2049 226.243C75.4402 222.668 74.9308 219.031 74.4385 215.513C74.2086 213.871 73.9707 212.173 73.8103 210.496C72.991 201.941 74.1118 193.27 75.1957 184.885C76.0293 178.436 76.8914 171.768 76.8651 165.196C76.8442 159.937 76.2544 154.595 75.6836 149.429C74.8873 142.22 74.0639 134.767 74.7733 127.42L75.5009 127.491C74.7992 134.762 75.6182 142.177 76.4105 149.348C76.9831 154.534 77.5755 159.895 77.5963 165.193C77.6226 171.813 76.7576 178.506 75.9208 184.978C74.842 193.324 73.7266 201.953 74.5383 210.426C74.6972 212.088 74.9341 213.778 75.1628 215.412C75.6602 218.967 76.1751 222.641 75.9346 226.292C75.7592 228.958 75.1807 231.603 74.6212 234.16C74.3819 235.254 74.1345 236.385 73.9229 237.499C72.6807 244.039 72.5133 250.832 72.3514 257.402C72.2235 262.586 72.0916 267.947 71.4345 273.178C71.079 276.008 70.5626 278.896 70.0634 281.688C68.6465 289.61 67.1815 297.802 69.2419 305.561L69.3376 305.921L64.3343 307.142L64.3127 306.7C63.6026 292.055 63.1568 276.314 64.6902 260.43C64.9168 258.083 65.1909 255.701 65.4555 253.396C66.2203 246.743 67.0108 239.864 66.7488 233.084C66.6322 230.067 66.304 227.008 65.9868 224.049C65.6937 221.315 65.3908 218.487 65.2534 215.689C64.7052 204.509 66.7981 193.052 68.6451 182.943C69.4933 178.301 70.3656 173.529 70.2965 168.795C70.2498 165.579 69.7666 162.329 69.2996 159.185C69.1424 158.127 68.9849 157.068 68.8431 156.009C67.4285 145.448 67.5396 134.755 69.1732 124.225L69.1892 124.123C69.4447 122.478 69.7089 120.777 69.145 119.28C68.8209 118.419 68.1017 117.671 67.2681 117.326C66.8482 117.153 66.2097 117.008 65.5549 117.305C64.2049 117.918 63.8117 119.716 64.3518 122.8C65.9623 131.995 64.8093 141.459 63.6944 150.61C63.4152 152.902 63.1265 155.272 62.8871 157.595C61.722 168.89 61.6011 180.444 61.4845 191.618L61.0792 230.453C60.9711 240.815 60.8592 251.53 59.4632 261.996C59.2531 263.571 59.0101 265.169 58.7751 266.715C58.0256 271.646 57.2504 276.744 57.4376 281.781C57.6181 286.643 58.6976 291.5 59.7417 296.196C60.6568 300.313 61.6029 304.57 61.9519 308.845C62.0298 309.797 62.0071 310.971 61.1381 311.601C60.8326 311.821 60.5036 311.931 60.1652 311.931Z" fill="#ACA9DD"/>
</g>
<path d="M48.4532 196.585C48.4466 196.585 48.44 196.585 48.4335 196.584C48.3333 196.573 48.2606 196.484 48.2712 196.383C48.9575 189.977 49.6672 183.352 50.552 177.356C50.7752 175.843 51.4276 174.431 52.4377 173.272L56.9663 168.081C57.0332 168.005 57.1486 167.998 57.2243 168.063C57.3003 168.13 57.308 168.245 57.2418 168.321L52.7132 173.513C51.7488 174.618 51.1264 175.965 50.9134 177.409C50.0297 183.399 49.3204 190.019 48.6345 196.422C48.6246 196.516 48.5456 196.585 48.4532 196.585Z" fill="#08080F"/>
<path d="M54.9003 143.251C54.7998 143.251 54.7179 143.17 54.7176 143.069C54.6942 136.307 54.1241 129.495 53.0233 122.823C53.0069 122.724 53.0741 122.63 53.1739 122.613C53.2748 122.596 53.3676 122.664 53.384 122.764C54.4881 129.455 55.0596 136.286 55.083 143.068C55.0834 143.169 55.0019 143.251 54.901 143.252L54.9003 143.251Z" fill="#08080F"/>
<path d="M23.272 138.071C22.1584 138.071 21.0577 137.889 20.0217 137.513C19.927 137.478 19.8777 137.373 19.9124 137.278C19.9471 137.184 20.0516 137.135 20.1467 137.169C23.6462 138.441 27.9208 137.405 30.7845 134.59C33.3981 132.021 34.8215 128.064 34.592 124.004C34.5862 123.903 34.6633 123.817 34.7642 123.812C34.8617 123.807 34.9513 123.883 34.9568 123.984C35.1925 128.147 33.7285 132.209 31.0406 134.851C28.9243 136.931 26.0592 138.071 23.272 138.071Z" fill="#08080F"/>
<path d="M76.7106 138.791C76.6912 138.791 76.6715 138.788 76.6517 138.781C76.2936 138.66 75.9307 138.551 75.5682 138.443C74.9513 138.258 74.3136 138.067 73.7059 137.812C71.4079 136.847 69.4115 134.858 68.2275 132.356C67.1812 130.144 66.7189 127.566 66.853 124.694C66.8578 124.593 66.9393 124.508 67.0441 124.52C67.145 124.524 67.2228 124.61 67.2181 124.711C67.0865 127.523 67.5375 130.042 68.5582 132.2C69.7039 134.621 71.632 136.544 73.8477 137.475C74.4375 137.723 75.0653 137.911 75.6731 138.093C76.04 138.202 76.4069 138.312 76.7694 138.436C76.8652 138.468 76.916 138.572 76.8838 138.667C76.8579 138.743 76.787 138.791 76.7106 138.791Z" fill="#08080F"/>
<path d="M15.8718 237.323C15.8546 237.323 15.8367 237.32 15.8192 237.315C15.7223 237.287 15.6675 237.185 15.6968 237.088C17.9008 229.732 19.8731 222.205 21.5585 214.715C21.5808 214.616 21.6791 214.555 21.7771 214.577C21.8757 214.599 21.9371 214.697 21.9152 214.795C20.2276 222.293 18.2534 229.829 16.0469 237.193C16.0235 237.272 15.9507 237.323 15.8718 237.323Z" fill="#08080F"/>
<path d="M11.2992 278.461C11.2901 278.461 11.2806 278.46 11.2711 278.458C11.1713 278.443 11.103 278.35 11.1187 278.25C11.8748 273.371 13.0435 268.521 14.5919 263.832C14.6237 263.736 14.7271 263.684 14.8225 263.716C14.9182 263.748 14.9705 263.851 14.9387 263.947C13.3965 268.617 12.2326 273.448 11.4797 278.306C11.4658 278.396 11.388 278.461 11.2992 278.461Z" fill="#08080F"/>
<path d="M54.803 249.453C54.719 249.453 54.643 249.395 54.6247 249.309L50.0683 228.167C50.0471 228.068 50.1096 227.971 50.2083 227.949C50.3077 227.93 50.4045 227.991 50.4254 228.09L54.9817 249.232C55.0029 249.331 54.9404 249.427 54.8418 249.449C54.8286 249.452 54.8158 249.453 54.803 249.453Z" fill="#08080F"/>
<path d="M68.7739 273.089C68.7626 273.089 68.7513 273.088 68.7399 273.086C68.6409 273.067 68.5755 272.972 68.5941 272.873C70.2116 264.271 72.4207 255.695 75.1601 247.381C75.1915 247.285 75.295 247.232 75.3907 247.265C75.4868 247.296 75.5387 247.4 75.5073 247.496C72.7726 255.794 70.5675 264.355 68.953 272.941C68.9369 273.028 68.8602 273.089 68.7739 273.089Z" fill="#08080F"/>
<path d="M33.1618 267.135C33.1519 267.135 33.1417 267.135 33.1315 267.133C33.0321 267.116 32.9648 267.022 32.9813 266.923C33.9022 261.418 36.0737 256.087 39.2604 251.505C39.3181 251.422 39.4318 251.402 39.5147 251.46C39.5977 251.517 39.6181 251.631 39.5604 251.714C36.404 256.251 34.2537 261.531 33.3416 266.983C33.327 267.072 33.2495 267.135 33.1618 267.135Z" fill="#08080F"/>
<path d="M40.0551 43.505C37.4893 44.3967 34.4002 46.5221 33.6225 49.1566C19.5221 56.4404 11.7016 53.5252 8.32045 72.6695C6.55644 80.6457 4.79279 88.6227 3.04705 96.3512C0.483442 107.157 -4.13179 118.009 7.90092 124.427C8.51889 124.757 9.25746 124.812 9.90978 124.557C19.3836 120.848 20.5509 108.865 23.3283 100.297C23.8074 105.021 24.2112 109.972 22.3945 114.36C21.2733 117.031 19.2111 119.762 19.9179 122.802C20.272 124.257 21.4689 125.577 23.3564 125.714C27.6259 123.89 32.331 123.346 36.9711 123.192C45.25 123.536 53.508 122.144 61.7294 122.283C65.2801 122.686 68.7869 124.138 71.8987 123.613C82.7612 112.097 68.4938 108.411 75.9413 94.8441C76.9411 100.844 83.4647 125.306 92.325 118.024C96.7443 112.444 102.732 102.51 98.6896 95.704C98.406 99.7213 99.2042 104.49 95.1316 106.333C92.7032 107.263 89.9847 105.486 88.5927 103.29C85.4254 98.4606 88.6161 93.5007 90.7397 88.7795C89.2563 84.6324 87.773 80.4857 86.1497 76.1354C84.8436 69.0337 83.1976 61.2047 77.4557 56.3132C72.7952 52.0806 65.9613 51.8905 60.7427 48.6523C60.2395 45.8592 56.5035 44.8009 54.3825 43.3164L40.0551 43.505Z" fill="#FBF9F5"/>
<path d="M52.5734 80.7042C52.5672 80.7042 52.5614 80.7038 52.5552 80.7034C52.455 80.6936 52.3816 80.6037 52.3914 80.5035C52.8709 75.6975 49.8117 72.0043 46.8527 68.4324C45.1183 66.3392 43.3251 64.1743 42.2594 61.8058C41.4043 58.2124 39.4817 56.4633 37.6226 54.7724C36.0658 53.3563 34.5956 52.0184 33.9024 49.7435C33.8731 49.647 33.9276 49.5451 34.0241 49.5155C34.1209 49.4862 34.2225 49.5407 34.2521 49.6372C34.9158 51.8156 36.3501 53.1206 37.8686 54.502C39.7689 56.2306 41.7335 58.0183 42.6037 61.6889C43.6379 63.9795 45.415 66.125 47.1337 68.1997C50.1403 71.8289 53.2491 75.5821 52.7547 80.5401C52.7455 80.6336 52.6662 80.7042 52.5734 80.7042Z" fill="#A18660"/>
<path d="M53.0225 80.3471C53.0174 80.3471 53.0119 80.3471 53.0064 80.3464C52.9063 80.338 52.8314 80.2495 52.8402 80.149C53.225 75.5594 52.9202 70.7285 51.9821 66.546C51.9598 66.4473 52.0219 66.3498 52.1202 66.3278C52.2193 66.3059 52.3165 66.368 52.3384 66.4663C53.1161 69.9341 53.4621 73.8425 53.3452 77.6943C53.6851 76.5951 54.1426 75.5294 54.5917 74.4843C55.1216 73.2501 55.6698 71.9733 56.0111 70.6697C56.2922 68.7175 56.487 66.6842 56.6755 64.7173C57.2105 59.1377 57.7642 53.3684 60.4298 48.1607C60.4758 48.0708 60.5858 48.0358 60.6757 48.0814C60.7656 48.1275 60.8011 48.2375 60.755 48.3274C58.1212 53.4729 57.5712 59.2067 57.0391 64.752C56.8502 66.7229 56.6547 68.7606 56.3685 70.7417C56.0163 72.092 55.4626 73.3813 54.9272 74.6279C54.1638 76.4061 53.3741 78.2451 53.2038 80.1805C53.1961 80.2755 53.1161 80.3471 53.0225 80.3471Z" fill="#A18660"/>
<path d="M54.1105 122.39C54.0842 122.39 54.0575 122.384 54.0319 122.372C53.9409 122.329 53.9022 122.22 53.9457 122.128C56.8068 116.134 55.459 110.271 54.0319 104.064C53.3898 101.271 52.7258 98.3822 52.4919 95.504C52.307 92.1104 52.447 88.6625 52.5822 85.3278C52.652 83.6061 52.7244 81.8257 52.7507 80.0777C52.7521 79.9769 52.8384 79.8976 52.9359 79.8976C53.0368 79.899 53.1172 79.982 53.1161 80.0828C53.0894 81.8355 53.0171 83.6182 52.9476 85.3424C52.8128 88.6687 52.6732 92.1079 52.857 95.4791C53.0883 98.326 53.7494 101.201 54.3886 103.982C55.7671 109.977 57.1919 116.176 54.276 122.286C54.2439 122.352 54.1788 122.39 54.1105 122.39Z" fill="#A18660"/>
<path d="M40.4061 103.723C40.3893 103.723 40.3725 103.721 40.3553 103.716C40.2585 103.688 40.2022 103.587 40.2304 103.49C41.7097 98.3654 44.7444 93.6197 48.7756 90.1275C48.8516 90.0617 48.9667 90.0694 49.0332 90.1462C49.0994 90.2222 49.091 90.338 49.0146 90.4038C45.0364 93.8503 42.0411 98.5335 40.5816 103.591C40.5585 103.671 40.4854 103.723 40.4061 103.723Z" fill="#A18660"/>
<path d="M47.0804 109.964C47.0493 109.964 47.0179 109.956 46.9894 109.939C46.902 109.889 46.8721 109.777 46.9225 109.69C51.4343 101.879 56.131 94.6262 63.9443 91.7103C64.6138 91.4633 65.6436 91.3032 66.3464 91.6639C66.6785 91.8349 66.8956 92.0992 66.9917 92.4496C67.2516 93.4005 66.3953 94.1493 65.523 94.7563C62.9594 96.5412 60.9341 98.9933 59.6664 101.849C59.6254 101.941 59.5183 101.983 59.4252 101.941C59.3331 101.9 59.2914 101.792 59.3323 101.7C60.6275 98.7843 62.6959 96.2795 65.3143 94.4567C66.0818 93.9224 66.8393 93.2774 66.6391 92.5461C66.5704 92.295 66.4202 92.1131 66.1793 91.9892C65.6202 91.7012 64.7179 91.8141 64.0718 92.0531C56.3729 94.9263 51.7164 102.122 47.2393 109.872C47.205 109.931 47.1436 109.964 47.0804 109.964Z" fill="#A18660"/>
<path d="M74.5174 110.618C74.4512 110.618 74.3876 110.582 74.3551 110.519C72.4369 106.821 71.031 102.878 70.1759 98.8019C70.155 98.7032 70.2182 98.6064 70.3173 98.5855C70.4163 98.5651 70.5128 98.6279 70.5336 98.727C71.3818 102.771 72.7767 106.682 74.6796 110.351C74.726 110.441 74.691 110.551 74.6014 110.597C74.5744 110.611 74.5459 110.618 74.5174 110.618Z" fill="#A18660"/>
<path d="M75.9402 94.8028C75.912 94.8028 75.8835 94.7962 75.8568 94.7826C75.7669 94.7366 75.7315 94.6266 75.7775 94.5367C77.8555 90.4843 77.0964 86.9076 76.3622 83.4494C75.6504 80.0964 74.9147 76.6294 76.746 72.755C76.7891 72.6636 76.8969 72.6245 76.9893 72.668C77.0807 72.7111 77.1195 72.82 77.0763 72.9114C75.2977 76.6744 75.9884 79.9283 76.7196 83.3734C77.467 86.8945 78.2399 90.5358 76.1024 94.7033C76.0706 94.7666 76.0067 94.8028 75.9402 94.8028Z" fill="#A18660"/>
<path d="M76.413 82.8644C76.4075 82.8644 76.4024 82.8644 76.3969 82.8637C76.2964 82.8549 76.2222 82.7665 76.2306 82.6656C76.394 80.7868 76.838 78.9486 77.5506 77.2018C77.5886 77.1083 77.6953 77.0637 77.7889 77.1017C77.8821 77.1401 77.927 77.2464 77.889 77.3399C77.1903 79.0524 76.7547 80.8548 76.5946 82.6974C76.5866 82.7928 76.5065 82.8644 76.413 82.8644Z" fill="#A18660"/>
<path d="M91.2881 114.102C90.4399 114.102 89.5687 113.938 88.6982 113.604C85.4348 112.351 82.9896 109.115 82.752 105.734C82.4158 101.623 83.1387 94.4917 87.6618 92.0736C85.802 92.5702 84.9422 94.29 84.0399 96.0931C83.5688 97.0349 83.0817 98.0084 82.441 98.7777C82.4173 98.8066 82.3851 98.827 82.3489 98.8373C81.6857 99.0185 81.1901 98.9469 80.8762 98.6238C80.4954 98.2317 80.4439 97.4964 80.7315 96.554C81.3473 94.5367 83.3155 92.0853 85.4223 91.642C85.5203 91.6215 85.6182 91.6844 85.6387 91.7831C85.6595 91.8821 85.5963 91.9789 85.4976 91.9994C83.5213 92.4153 81.6663 94.7428 81.0808 96.6603C80.8371 97.4581 80.8583 98.0808 81.1379 98.3688C81.3443 98.5815 81.7003 98.6253 82.1969 98.4992C82.7926 97.7691 83.2604 96.8343 83.7128 95.9298C84.7996 93.7576 85.9237 91.521 88.9219 91.566C89.0118 91.5674 89.0871 91.6343 89.0995 91.7231C89.1119 91.8123 89.0578 91.8971 88.9719 91.9234C83.5944 93.5715 82.7604 101.363 83.116 105.706C83.3441 108.953 85.6935 112.059 88.8287 113.263C91.3188 114.219 93.7216 113.75 95.5931 111.945C95.6662 111.875 95.7817 111.877 95.8515 111.95C95.9216 112.022 95.9194 112.138 95.8467 112.208C94.5516 113.458 92.9663 114.102 91.2881 114.102Z" fill="#A18660"/>
<path d="M9.93091 123.707C9.10755 123.707 8.27324 123.487 7.43783 123.05C4.82196 121.679 2.84233 118.503 2.11034 116.132C1.42111 111.753 1.65171 103.681 5.08727 99.288C6.279 97.764 7.7554 96.8212 9.4847 96.4773C7.69072 96.1046 5.68734 96.8658 4.65787 98.4025L4.63302 98.4398C4.39767 98.792 4.10495 99.2302 3.61854 99.2302C3.61781 99.2302 3.61708 99.2302 3.61635 99.2302C3.25712 99.197 3.00094 99.0109 2.87778 98.7065C2.70456 98.276 2.82443 97.661 3.15662 97.2755C4.66153 95.207 8.17237 94.24 10.66 95.2183C10.7539 95.2552 10.7999 95.3612 10.763 95.4552C10.7261 95.5491 10.6194 95.5951 10.5259 95.5582C8.21989 94.6515 4.84352 95.5787 3.44276 97.502C3.19243 97.7937 3.09522 98.2673 3.21692 98.5695C3.28891 98.7485 3.42559 98.8454 3.63426 98.8651C3.90907 98.8651 4.13236 98.5307 4.32897 98.2362L4.35419 98.1986C5.62631 96.2993 8.2769 95.4983 10.3881 96.3739C10.4659 96.406 10.5116 96.4872 10.4988 96.5705C10.486 96.6538 10.418 96.7174 10.3344 96.7247C8.35474 96.8987 6.6861 97.8364 5.37525 99.5123C2.01131 103.814 1.79204 111.758 2.46556 116.049C3.17014 118.325 5.08398 121.403 7.60739 122.726C8.83858 123.371 10.0617 123.509 11.2429 123.136C11.339 123.105 11.4417 123.159 11.472 123.255C11.5027 123.351 11.449 123.454 11.3529 123.484C10.8836 123.633 10.4093 123.707 9.93091 123.707Z" fill="#A18660"/>
<path d="M11.0244 95.377C10.9414 95.377 10.8665 95.3203 10.8468 95.2359C10.36 93.1613 7.47478 93.4646 6.60173 93.6075C6.50306 93.6246 6.40841 93.5563 6.39197 93.4565C6.37552 93.3571 6.44349 93.2632 6.5429 93.2468C8.50425 92.927 10.7583 93.2592 11.2023 95.1526C11.2254 95.2509 11.1643 95.3492 11.0664 95.3722C11.0521 95.3751 11.0383 95.377 11.0244 95.377Z" fill="#A18660"/>
<path d="M23.5376 109.903C23.5087 109.903 23.4795 109.896 23.4524 109.882C23.3633 109.835 23.3293 109.724 23.3764 109.635C25.5274 105.575 26.9578 101.212 27.6277 96.6673C27.6423 96.5675 27.734 96.4963 27.8349 96.5131C27.9346 96.5277 28.0037 96.6205 27.9891 96.7203C27.313 101.307 25.8699 105.71 23.6991 109.806C23.6666 109.868 23.603 109.903 23.5376 109.903Z" fill="#A18660"/>
<path d="M19.8557 53.6586C23.9392 70.1125 24.43 89.5275 21.589 106.546C24.2411 103.743 25.5658 97.802 26.4199 94.0386C29.5265 80.3515 28.595 65.7735 23.5171 52.7084C22.2775 53.1601 21.0379 53.6122 19.8557 53.6586Z" fill="#222238"/>
<path d="M9.46062 98.5949C6.76691 104.464 9.79318 115.917 17.9975 113.897C21.1038 111.902 20.5538 97.6692 24.699 85.4732C26.6052 83.5527 27.6018 80.7651 27.3196 78.2969C28.181 76.8157 31.9718 73.9886 29.7813 72.4194C30.7132 71.0091 31.162 69.0701 29.364 68.0253C30.0598 67.0408 29.4765 65.8783 28.2311 65.5932C29.3186 61.5031 21.6377 66.3735 20.3129 67.0729C18.5665 68.0797 18.6827 69.9377 19.047 72.6829C20.8907 85.2141 14.2637 88.6895 9.46062 98.5949Z" fill="#FFD8CA"/>
<path d="M107.636 62.7731C108.028 65.4094 107.837 67.0693 107.809 69.4085C107.805 69.7418 107.662 70.0586 107.413 70.2801C104.603 72.7794 100.887 76.7006 100.887 76.7006C99.2862 81.9024 98.7851 93.7005 98.5655 99.245C98.5319 101.136 98.4917 103.173 97.3621 104.69C92.9351 109.615 86.2222 103.865 87.0404 98.2141C87.6989 91.4168 92.8506 85.9775 93.7401 78.5761C93.6185 76.9239 93.382 74.3219 95.0616 72.2009C96.7935 70.0144 100.188 68.3063 101.638 63.3194C101.79 62.7424 102.657 61.8423 103.228 62.3784C103.521 61.5382 104.157 60.69 105.041 61.3032C105.303 60.4375 106.523 60.2738 106.653 61.1439C107.063 61.2806 107.585 62.1014 107.636 62.7731Z" fill="#FFD8CA"/>
<path d="M101.065 69.6C101.037 69.6 101.008 69.5935 100.981 69.5796C100.892 69.5335 100.857 69.4232 100.903 69.3333C102.255 66.7134 102.732 65.6517 102.911 62.5908C102.917 62.4903 103.003 62.415 103.104 62.419C103.204 62.4249 103.282 62.5115 103.276 62.612C103.092 65.7464 102.606 66.8296 101.227 69.5006C101.195 69.5639 101.131 69.6 101.065 69.6Z" fill="#C73F1A"/>
<path d="M103.718 69.7385C103.699 69.7385 103.68 69.7355 103.66 69.7293C103.565 69.6979 103.513 69.5941 103.545 69.4984C104.606 66.2886 104.693 64.7958 104.852 62.0853L104.888 61.4753C104.894 61.3745 104.982 61.2999 105.081 61.3039C105.182 61.3101 105.259 61.3964 105.253 61.4973L105.217 62.1065C105.062 64.7574 104.968 66.3577 103.892 69.6131C103.866 69.6898 103.795 69.7385 103.718 69.7385Z" fill="#C73F1A"/>
<path d="M106.081 69.6C106.069 69.6 106.058 69.5989 106.046 69.5967C105.947 69.5777 105.882 69.4816 105.901 69.3826C106.524 66.1524 106.572 63.9699 106.448 61.4955C106.443 61.3946 106.521 61.3088 106.622 61.304C106.722 61.2941 106.808 61.3767 106.814 61.4776C106.939 63.9791 106.89 66.1853 106.261 69.452C106.243 69.539 106.167 69.6 106.081 69.6Z" fill="#C73F1A"/>
<path d="M21.7217 68.8765C21.4319 68.8765 21.1641 68.7986 20.9554 68.6495C20.8732 68.5907 20.8545 68.4767 20.913 68.3944C20.9718 68.3126 21.0859 68.2936 21.1681 68.352C21.38 68.5037 21.6888 68.549 22.0152 68.4781C22.3298 68.409 22.6284 68.2483 22.9167 68.0929L27.8229 65.4489C27.9124 65.4007 28.0228 65.4343 28.0703 65.5231C28.1181 65.6119 28.0853 65.7226 27.9961 65.7705L23.09 68.4145C22.779 68.5819 22.4577 68.7555 22.093 68.8352C21.9677 68.8629 21.8427 68.8765 21.7217 68.8765Z" fill="#C73F1A"/>
<path d="M23.7354 71.1371C23.5611 71.1371 23.3893 71.0981 23.2256 71.0041C23.1383 70.9537 23.1079 70.8422 23.158 70.7545C23.2081 70.6668 23.3192 70.6369 23.4076 70.6869C23.7975 70.9109 24.3293 70.6405 24.7491 70.38L28.9273 67.786C29.0128 67.7327 29.1257 67.759 29.1787 67.8448C29.2321 67.9304 29.2058 68.0433 29.1199 68.0966L24.9417 70.6906C24.5843 70.9128 24.1538 71.1371 23.7354 71.1371Z" fill="#C73F1A"/>
<path d="M26.5847 73.23C26.1513 73.23 25.7186 73.1956 25.2943 73.1262C25.1946 73.1098 25.127 73.0158 25.1434 72.9164C25.1598 72.8167 25.2534 72.7487 25.3532 72.7655C26.7664 72.9968 28.2716 72.8203 29.5927 72.2689C29.6859 72.2305 29.793 72.274 29.8317 72.3672C29.8705 72.4604 29.8266 72.5674 29.7334 72.6062C28.7474 73.018 27.6628 73.23 26.5847 73.23Z" fill="#C73F1A"/>
<path d="M26.3962 72.9749C26.3392 72.9749 26.2826 72.949 26.2475 72.8989C26.189 72.8167 26.2062 72.7041 26.2884 72.6456L26.2921 72.6431C27.2028 71.9944 28.1441 71.3238 29.0578 70.5439C29.3187 70.3894 29.4817 70.1273 29.4996 69.8576C29.5065 69.7571 29.5906 69.6863 29.6944 69.6877C29.7949 69.6943 29.8712 69.7816 29.8643 69.8825C29.8376 70.2761 29.6092 70.643 29.2683 70.841C28.3693 71.6121 27.4213 72.2875 26.5044 72.9409C26.4715 72.9639 26.4335 72.9749 26.3962 72.9749Z" fill="#C73F1A"/>
<path d="M28.2896 72.8657C28.2735 72.8657 28.2578 72.8639 28.2417 72.8591C28.1441 72.8328 28.0868 72.7323 28.1131 72.6351L28.4127 71.5304C28.4391 71.4328 28.5392 71.3747 28.6368 71.4017C28.7343 71.428 28.7917 71.5285 28.7654 71.6257L28.4657 72.7305C28.4438 72.8124 28.37 72.8657 28.2896 72.8657Z" fill="#C73F1A"/>
<path d="M27.2477 78.426C27.1479 78.426 27.066 78.3456 27.0649 78.2455C27.0562 77.5077 27.0437 76.4975 27.5945 75.7593C28.0929 75.0917 28.9243 74.803 29.592 74.5713C29.6874 74.5377 29.7915 74.5885 29.8244 74.6838C29.8577 74.7792 29.8072 74.8834 29.7119 74.9163C29.091 75.1319 28.3184 75.3998 27.8872 75.9779C27.4461 76.5688 27.4194 77.3523 27.43 78.2411C27.4311 78.342 27.3503 78.4249 27.2495 78.426C27.2495 78.426 27.2484 78.426 27.2477 78.426Z" fill="#C73F1A"/>
<path d="M40.4136 39.2779C39.4641 41.3759 34.2499 44.8575 33.7387 41.4859C33.5523 40.258 32.7633 39.5713 31.7598 40.4389C29.323 45.736 22.9426 43.057 24.145 37.6429C20.693 38.0354 21.0474 32.0154 23.1294 30.7984C24.2181 30.3266 25.8118 29.8113 25.8494 28.4007C23.6984 22.6541 26.5913 23.3893 28.2891 21.705C29.0752 20.9251 28.1546 18.1861 28.2646 17.0847C28.4086 15.6415 30.4606 15.348 31.3267 13.1188C32.0163 11.3438 31.6414 9.38834 32.8028 7.87941C33.5903 6.85579 35.7095 6.22905 35.8327 4.8663C35.9299 3.79408 37.4513 3.25541 38.1233 2.41415C39.2408 1.01449 40.991 1.91751 42.6885 1.34632C45.3814 -0.110354 49.3264 -0.843438 51.688 1.56559C60.2621 1.56559 57.2618 4.79723 59.9873 7.59692C61.1483 8.78974 62.2128 8.17433 62.6558 11.0277C63.8098 18.462 68.1488 14.9632 64.9387 23.7694C64.7746 26.0103 67.1244 28.0206 66.5394 30.1896C65.2296 32.7934 64.073 33.3825 65.5782 36.4292C66.8288 41.3807 60.6162 41.2783 59.6532 39.9759C58.7776 41.8499 56.0357 42.5168 54.397 41.2546L40.4136 39.2779Z" fill="#572C22"/>
<path d="M53.5464 7.23911C54.0912 8.97936 52.423 10.8029 50.6414 10.4152C50.9648 13.5376 46.7783 13.3468 44.7252 14.0909C42.1557 15.2431 41.6449 17.2008 40.6951 18.91C38.6003 22.68 39.5742 24.1297 38.8309 24.8741C38.5795 25.1259 38.0192 22.8382 37.6882 23.0553C35.9146 24.0815 36.1832 25.6949 34.9137 27.3189C35.3639 29.1816 37.1809 29.9783 39.0582 29.7371C41.078 34.3304 41.4431 39.6312 39.9645 44.6547C44.985 51.5042 49.085 59.028 52.2125 66.8183C51.998 61.5262 52.6941 56.1984 54.2612 51.1391C54.866 49.1873 55.5856 47.0045 54.6573 45.1158C54.327 43.0438 54.2414 42.5197 54.2414 39.8867C57.3806 38.0664 59.9687 32.9925 60.5933 29.0311C61.421 23.7789 60.5527 21.3549 60.2107 18.2124C59.9406 15.7321 57.9741 14.0865 56.6903 12.1357C56.1874 10.0739 54.4691 9.2085 53.5464 7.23911Z" fill="#FFD8CA"/>
<path d="M52.0527 40.6303C50.6176 40.6303 48.6391 40.171 46.2571 38.4534C45.9947 38.2641 45.7275 38.0806 45.4578 37.8953C43.7991 36.7555 41.9192 35.4636 40.2974 32.1487C40.2531 32.058 40.2904 31.9488 40.3811 31.9042C40.472 31.8596 40.581 31.8976 40.6255 31.9879C42.205 35.2166 43.9639 36.4251 45.6647 37.5938C45.9369 37.7809 46.2059 37.9659 46.4705 38.1566C50.3439 40.9494 53.069 40.3051 54.0608 39.8987C54.1536 39.86 54.2607 39.9049 54.2991 39.9985C54.3375 40.0917 54.2929 40.1984 54.1993 40.2368C53.7718 40.4125 53.0409 40.6303 52.0527 40.6303Z" fill="#C73F1A"/>
<path d="M38.0322 25.971C37.9727 25.971 37.9146 25.9421 37.8795 25.8888C37.5232 25.3486 37.0287 24.9108 36.4491 24.6232C36.3585 24.5786 36.3216 24.4686 36.3665 24.3784C36.4115 24.2881 36.5211 24.2505 36.6114 24.2958C37.2487 24.6119 37.7925 25.0932 38.1843 25.6874C38.2398 25.7718 38.2164 25.8851 38.1324 25.9407C38.1017 25.9611 38.0666 25.971 38.0322 25.971Z" fill="#C73F1A"/>
<path d="M38.1237 27.7733C38.1208 27.7733 38.1175 27.7733 38.1146 27.7733C37.4776 27.7418 36.8991 27.5178 36.4862 27.1425C36.0092 26.7091 35.771 26.0772 35.8649 25.4929C35.881 25.3931 35.9734 25.3252 36.0743 25.3416C36.1741 25.3577 36.2417 25.4512 36.2256 25.551C36.1521 26.0074 36.3509 26.526 36.7317 26.8717C37.0826 27.1904 37.5799 27.3808 38.1325 27.4078C38.2334 27.4129 38.3112 27.4985 38.3061 27.5993C38.3013 27.6973 38.2206 27.7733 38.1237 27.7733Z" fill="#C73F1A"/>
<path d="M53.9063 29.3139C53.8697 29.3139 53.8328 29.3029 53.8007 29.2803C53.7184 29.2218 53.6991 29.1078 53.7575 29.0256C54.0886 28.5592 54.4643 28.0304 54.5118 27.4395C54.5729 26.6819 54.1117 26.03 53.6231 25.3393C53.4495 25.0937 53.2697 24.8397 53.1169 24.5817C52.2534 23.1247 52.196 21.2101 52.9707 19.7041C53.0168 19.6146 53.1271 19.5795 53.217 19.6252C53.3066 19.6712 53.342 19.7816 53.296 19.8715C52.5771 21.2682 52.6305 23.0439 53.4316 24.3953C53.577 24.6406 53.7524 24.8887 53.9216 25.1281C54.4259 25.8414 54.9478 26.5789 54.8762 27.4684C54.8206 28.1594 54.3963 28.7566 54.0557 29.2368C54.0199 29.2872 53.9637 29.3139 53.9063 29.3139Z" fill="#C73F1A"/>
<path d="M51.3108 29.2138C51.2794 29.2138 51.2473 29.2058 51.218 29.1886C51.131 29.1371 51.1025 29.0252 51.1537 28.9383C51.3912 28.5363 51.73 28.1979 52.1331 27.9607C52.2201 27.9095 52.3323 27.9384 52.3831 28.0254C52.4342 28.1124 52.4054 28.2242 52.3184 28.2754C51.9687 28.4815 51.6745 28.7749 51.4684 29.1239C51.4344 29.1817 51.3733 29.2138 51.3108 29.2138Z" fill="#C73F1A"/>
<path d="M54.0136 21.3239C54.0136 21.3239 57.0987 24.0531 59.4756 20.8858C59.8275 20.4169 59.45 20.2977 58.984 19.9418C58.5404 19.6027 57.9546 19.2485 57.0512 19.3096C55.1827 19.436 54.0136 21.3239 54.0136 21.3239Z" fill="white"/>
<path d="M55.3819 20.8597C55.3819 20.0016 55.9659 19.3061 56.6866 19.3061C57.4072 19.3061 57.9912 20.0016 57.9912 20.8597C57.9912 21.7177 57.4072 22.4132 56.6866 22.4132C55.9663 22.4132 55.3819 21.7177 55.3819 20.8597Z" fill="#222238"/>
<path d="M53.6925 21.5475C54.0119 20.9562 54.4438 20.4212 54.9774 20.0028C55.5109 19.5887 56.1556 19.2927 56.8422 19.2214C57.5253 19.1465 58.2401 19.2752 58.8559 19.6004C59.1643 19.7612 59.445 19.9702 59.6913 20.2103C59.9423 20.4413 60.0173 20.5283 60.3476 20.6047L60.3513 20.6054C60.42 20.6215 60.4624 20.6898 60.4467 20.7581C60.4397 20.7881 60.4225 20.8133 60.3999 20.8305C60.2497 20.9456 60.0132 20.9858 59.8016 20.9164C59.5926 20.8601 59.43 20.688 59.3229 20.5952C59.0978 20.389 58.8635 20.1972 58.6074 20.0378C58.0968 19.7192 57.4909 19.5452 56.8795 19.5927C56.2707 19.6505 55.6871 19.9096 55.1948 20.2838C54.6989 20.6576 54.2987 21.1583 54.0159 21.7163C53.9702 21.8062 53.8602 21.8424 53.7703 21.7967C53.6804 21.7511 53.6442 21.6411 53.6899 21.5512C53.6906 21.5508 53.6917 21.5486 53.6925 21.5475Z" fill="#803B28"/>
<path d="M43.6793 21.9272C43.6793 21.9272 46.6741 24.9692 49.8001 21.5201C49.8001 21.5201 49.0024 19.9987 47.0483 20.0236C45.0939 20.0481 43.6793 21.9272 43.6793 21.9272Z" fill="white"/>
<path d="M45.1283 21.5731C45.1283 20.6928 45.7613 19.979 46.5422 19.979C47.3232 19.979 47.9561 20.6928 47.9561 21.5731C47.9561 22.4535 47.3232 23.1672 46.5422 23.1672C45.7613 23.1672 45.1283 22.4535 45.1283 21.5731Z" fill="#222238"/>
<path d="M42.6858 22.2788C42.7845 22.2459 42.9552 22.1659 43.0747 22.0811C43.2033 21.9919 43.306 21.8954 43.3857 21.7822C43.6236 21.4763 43.8801 21.181 44.1802 20.9307C44.7799 20.4344 45.5027 20.0646 46.2811 19.9436C47.0548 19.8193 47.8719 19.9286 48.5648 20.2856C49.2595 20.6383 49.8329 21.1708 50.3091 21.7599C50.3727 21.8384 50.3602 21.9536 50.2817 22.0168C50.2031 22.0804 50.088 22.0679 50.0248 21.9894L50.0229 21.9872C49.5716 21.4288 49.0274 20.9427 48.393 20.6376C47.7615 20.331 47.0405 20.24 46.3615 20.3774C45.6759 20.5057 45.0653 20.8952 44.5474 21.3535C44.2821 21.5801 44.0504 21.8443 43.829 22.1165C43.685 22.2978 43.4898 22.4363 43.2863 22.5087C43.1843 22.5478 43.078 22.5715 42.9683 22.5825C42.8569 22.5883 42.748 22.5953 42.608 22.5328C42.5452 22.5046 42.517 22.4312 42.5451 22.3683C42.5598 22.3354 42.5872 22.3121 42.619 22.3011L42.6858 22.2788Z" fill="#803B28"/>
<path d="M43.2118 21.3363C43.1935 21.3363 43.1749 21.3308 43.1588 21.3195C43.1175 21.2903 43.108 21.2332 43.1372 21.192C43.1895 21.1178 44.4433 19.376 46.3904 19.2105C47.6004 19.1104 48.8035 19.6436 49.9634 20.8039C49.9992 20.8397 49.9992 20.8974 49.9634 20.9332C49.9276 20.969 49.8698 20.969 49.834 20.9332C48.7139 19.8135 47.561 19.2931 46.4069 19.3925C44.5449 19.55 43.2984 21.28 43.286 21.2976C43.2688 21.3228 43.2406 21.3363 43.2118 21.3363Z" fill="#C73F1A"/>
<path d="M53.7077 20.8093C53.6931 20.8093 53.6781 20.8057 53.6646 20.7984C53.62 20.7746 53.6036 20.7191 53.6273 20.6748C53.6675 20.5999 54.6319 18.8334 56.3642 18.5059C57.417 18.3071 58.5185 18.6897 59.6375 19.6436C59.6758 19.6764 59.6806 19.7342 59.6477 19.7726C59.6148 19.8113 59.5571 19.8157 59.5187 19.7828C58.4439 18.867 57.3951 18.4975 56.3989 18.6854C54.7529 18.9956 53.7973 20.7436 53.7878 20.7611C53.7717 20.7918 53.7399 20.8093 53.7077 20.8093Z" fill="#C73F1A"/>
<path d="M48.825 32.2043C48.825 32.2043 50.9545 30.9438 52.3885 31.4365C52.925 31.6207 53.5071 31.5742 54.0133 31.3184C54.6857 30.9786 55.6194 30.7918 56.377 31.7109C56.377 31.7109 56.108 34.045 53.4709 34.477C49.8585 35.0686 48.825 32.2043 48.825 32.2043Z" fill="#CC5F43"/>
<path d="M52.0633 32.8639C49.9762 32.8639 48.312 32.2825 48.1961 32.2408C48.1011 32.2068 48.0518 32.1023 48.0857 32.0073C48.1197 31.9123 48.2246 31.8622 48.3193 31.8969C48.366 31.9134 53.028 33.5393 56.4932 31.3115C56.5787 31.257 56.6913 31.2815 56.7457 31.3663C56.8002 31.4511 56.7757 31.5644 56.6909 31.6188C55.1992 32.5774 53.5273 32.8639 52.0633 32.8639Z" fill="#AD2715"/>
<path d="M50.2744 19.1374C50.0168 18.9824 49.7036 18.815 49.4112 18.6857C49.2566 18.6279 49.1137 18.5537 48.9555 18.5114L48.7271 18.4328L48.4929 18.3729C47.8723 18.2128 47.2233 18.1569 46.5666 18.2252L46.0721 18.283L45.5802 18.4003L45.3325 18.4562L45.0887 18.5384L44.5983 18.701C44.2756 18.8289 43.9566 18.9751 43.6295 19.1096C43.317 19.2766 42.9973 19.4348 42.6702 19.5902L42.6402 19.6044C42.4579 19.691 42.2397 19.6135 42.1531 19.4312C42.0793 19.2755 42.1249 19.0939 42.2536 18.9897C42.5481 18.7515 42.8496 18.5161 43.1588 18.2895C43.4829 18.0838 43.8166 17.8872 44.1576 17.7001C44.8654 17.3752 45.6084 17.0737 46.4211 16.982C47.2226 16.884 48.0715 16.9158 48.8579 17.1932C49.6436 17.4753 50.3442 17.9321 50.8284 18.6608C50.9399 18.8286 50.8942 19.0548 50.7265 19.1662C50.6055 19.2466 50.4538 19.2452 50.3373 19.1754L50.2744 19.1374Z" fill="#572C22"/>
<path d="M53.8303 18.0879C54.2217 17.5996 54.6826 17.2411 55.2227 16.9557C55.7581 16.6743 56.3713 16.5099 56.9962 16.489C57.6186 16.4678 58.2585 16.591 58.8015 16.8727C59.0884 16.9875 59.3296 17.1691 59.5774 17.3369C59.8131 17.5178 60.0217 17.7261 60.2333 17.9263C60.3788 18.0641 60.385 18.2936 60.2476 18.439C60.1284 18.5651 59.9402 18.5867 59.7977 18.5008L59.7422 18.4672C59.52 18.3338 59.3208 18.1715 59.1015 18.0495C58.8731 17.9486 58.6696 17.7984 58.4342 17.7359C57.9836 17.5536 57.5093 17.4955 57.0426 17.5203C56.5738 17.5441 56.1093 17.676 55.6572 17.8664C55.2128 18.0586 54.7535 18.3206 54.3573 18.594L54.3237 18.617C54.1574 18.7318 53.9297 18.6901 53.815 18.5238C53.7211 18.3882 53.732 18.2106 53.8303 18.0879Z" fill="#572C22"/>
<path d="M26.7831 23.3765C26.7012 23.3765 26.6267 23.3213 26.6062 23.2384C26.5817 23.1404 26.6413 23.041 26.7389 23.0169C27.4606 22.836 27.8403 22.0404 27.8878 21.3772C27.9342 20.7252 27.7504 20.0615 27.5721 19.4202L27.4884 19.1161C27.2746 18.3231 27.1142 17.4789 27.3813 16.6793C27.6795 15.7869 28.4283 15.1967 29.1527 14.6262C29.8236 14.0974 30.4577 13.5982 30.7654 12.8794C30.9949 12.3422 31.0113 11.7484 31.0281 11.1198C31.046 10.4605 31.0647 9.77859 31.3512 9.16172C31.7448 8.31461 32.5338 7.80226 33.2972 7.30708C33.9097 6.90947 34.5434 6.49834 34.9479 5.92167C35.1898 5.57668 35.3448 5.1853 35.5092 4.77088C35.6247 4.47889 35.7446 4.17702 35.8973 3.8927C36.6026 2.58002 38.0213 1.71099 39.5116 1.67883C39.6139 1.67883 39.6962 1.75703 39.6984 1.85753C39.7005 1.95839 39.6205 2.04209 39.5196 2.04428C38.1591 2.07388 36.8636 2.86726 36.2197 4.06593C36.0768 4.33161 35.9613 4.6236 35.8495 4.90572C35.6846 5.3216 35.514 5.75174 35.2476 6.1318C34.8025 6.76658 34.1388 7.19708 33.4967 7.61369C32.7439 8.10229 32.0327 8.56385 31.6834 9.31593C31.4287 9.86411 31.4118 10.4792 31.3939 11.13C31.3768 11.7652 31.3589 12.4222 31.1016 13.0238C30.7577 13.8278 30.0571 14.3799 29.3792 14.9139C28.6659 15.4759 27.992 16.0065 27.7281 16.7955C27.4917 17.503 27.643 18.2836 27.8418 19.0215L27.9244 19.323C28.1108 19.9943 28.3034 20.6886 28.2522 21.4035C28.1959 22.1936 27.7263 23.1466 26.828 23.3714C26.8127 23.3747 26.7977 23.3765 26.7831 23.3765Z" fill="#572C22"/>
<path d="M24.9493 42.4777C24.9405 42.4777 24.9318 42.4773 24.9226 42.4758C23.8186 42.3143 22.9631 41.2381 23.0548 40.1256C23.0698 39.9477 23.1056 39.7712 23.1407 39.6009C23.2083 39.272 23.2719 38.9613 23.1765 38.681C23.0545 38.3222 22.7058 38.096 22.3367 37.8562C22.2494 37.7996 22.1628 37.7433 22.0794 37.6856C20.9374 36.8925 20.2292 35.4819 20.2749 34.0925C20.3205 32.7031 21.1201 31.3421 22.3115 30.6259C22.514 30.5045 22.7325 30.3942 22.9441 30.2875C23.5694 29.9724 24.1599 29.675 24.3832 29.099C24.6091 28.5176 24.3646 27.8993 24.1055 27.2447C23.9845 26.9392 23.8595 26.6231 23.7828 26.3052C23.4312 24.8525 24.2184 23.2237 25.5746 22.5966C25.9952 22.4018 26.4469 22.3028 26.884 22.2071C27.12 22.1552 27.3638 22.1014 27.5959 22.0342C28.132 21.8782 28.8238 21.5606 29.0752 20.9342C29.1128 20.8407 29.2181 20.7953 29.3127 20.833C29.4063 20.8706 29.4516 20.977 29.414 21.0705C29.1077 21.8332 28.3114 22.2063 27.6975 22.385C27.4537 22.4559 27.2034 22.5111 26.9618 22.5641C26.5247 22.6598 26.1121 22.7505 25.7277 22.9285C24.5243 23.485 23.8255 24.9307 24.1373 26.2193C24.2082 26.5128 24.3284 26.8164 24.445 27.1106C24.7183 27.8017 25.0012 28.5165 24.7234 29.2317C24.449 29.9385 23.7674 30.282 23.1082 30.6142C22.9024 30.7176 22.6901 30.8247 22.4997 30.9394C21.4114 31.5936 20.6816 32.8361 20.6399 34.1049C20.5983 35.3737 21.2451 36.6616 22.2877 37.3859C22.3678 37.4414 22.4515 37.4959 22.5355 37.5503C22.9404 37.8135 23.3596 38.0854 23.5222 38.5641C23.6494 38.938 23.5727 39.3125 23.4985 39.6747C23.4641 39.8421 23.432 39.9999 23.4192 40.156C23.3439 41.067 24.0711 41.9821 24.9752 42.1144C25.075 42.129 25.1441 42.2219 25.1295 42.3216C25.1167 42.4126 25.0385 42.4777 24.9493 42.4777Z" fill="#572C22"/>
<path d="M38.1135 22.7502C37.8928 22.7502 37.6699 22.7177 37.4488 22.6465C37.3527 22.6154 37.3 22.5123 37.3311 22.4166C37.3622 22.3205 37.4649 22.2682 37.561 22.2989C38.5078 22.6044 39.5187 22.0526 40.0994 21.3685C40.7225 20.6354 41.0521 19.6816 41.3715 18.7592L41.4022 18.6697C41.7607 17.6347 42.1426 16.644 42.8687 15.897C43.8024 14.9366 45.1429 14.5474 46.3258 14.258L46.6365 14.1827C47.7372 13.917 48.8759 13.6426 49.7822 12.9899C50.6999 12.3295 51.3734 11.0892 50.9265 9.96619C50.9133 9.93805 50.9012 9.90918 50.8899 9.87958C50.8552 9.78712 50.9001 9.6837 50.9915 9.64642C51.0825 9.60805 51.1878 9.65081 51.2276 9.74107C51.2393 9.76665 51.2502 9.79259 51.2605 9.81854C51.4973 10.3093 52.1993 10.4833 52.7047 10.3061C53.1831 10.1383 53.531 9.75569 53.7718 9.37526C53.4162 8.53254 53.4031 7.54327 53.7916 6.7064C53.8149 6.65633 53.8595 6.61942 53.9133 6.6059C53.967 6.59347 54.0236 6.60444 54.0678 6.63733C54.4307 6.91178 54.6401 7.36603 54.6427 7.88314C54.6442 8.27087 54.5367 8.68492 54.3134 9.14941C54.2751 9.22944 54.2316 9.31313 54.1837 9.39864C54.3317 9.69575 54.5301 9.96801 54.7753 10.1968C55.6656 11.0267 57.0842 11.2018 58.1495 10.6141C58.238 10.5648 58.349 10.5973 58.3976 10.6858C58.4466 10.7742 58.4145 10.8853 58.326 10.9339C57.1263 11.5961 55.5285 11.3987 54.5261 10.4643C54.3017 10.2549 54.1121 10.0137 53.9593 9.75058C53.6896 10.1244 53.3194 10.4778 52.8261 10.651C52.3886 10.8045 51.8397 10.7563 51.4249 10.5074C51.5156 11.5953 50.8523 12.6705 49.9957 13.2866C49.0309 13.981 47.8571 14.2642 46.722 14.5379L46.4125 14.6132C45.2788 14.8906 43.9969 15.2611 43.1307 16.1521C42.4572 16.845 42.0921 17.7951 41.7479 18.7895L41.7168 18.8791C41.3868 19.8332 41.0451 20.82 40.3782 21.6053C39.8505 22.2266 39.0005 22.7502 38.1135 22.7502ZM54.0254 7.1029C53.8182 7.69566 53.819 8.35164 54.0043 8.94951C54.1895 8.55373 54.2791 8.20473 54.2776 7.8846C54.2769 7.58054 54.187 7.30682 54.0254 7.1029Z" fill="#572C22"/>
<path d="M65.6337 40.0673C65.557 40.0673 65.4857 40.0187 65.4601 39.9419C65.4283 39.8462 65.4802 39.7428 65.576 39.711C66.1271 39.5282 66.582 39.0762 66.8236 38.4706C67.0655 37.8655 67.0473 37.2245 66.7739 36.7125C66.601 36.3894 66.3339 36.0865 66.0755 35.7934C65.588 35.2405 65.0841 34.6685 65.1477 33.9066C65.2036 33.2367 65.6805 32.7642 66.1413 32.307C66.3054 32.1444 66.475 31.9763 66.6175 31.8052C67.3619 30.9121 67.5351 29.5541 67.0389 28.5031C66.8393 28.0806 66.5353 27.6856 66.2414 27.304C65.7572 26.6751 65.2566 26.025 65.1776 25.2082C65.091 24.311 65.5372 23.5191 65.9692 22.7531C66.1318 22.4644 66.3003 22.1655 66.434 21.8698C67.0107 20.5933 67.0162 19.0669 66.449 17.786C65.9951 16.7613 65.2021 15.9072 64.4354 15.0817C64.2092 14.8383 63.9837 14.5949 63.7655 14.3475C62.4649 12.87 61.8795 11.5343 61.9763 10.2632C61.984 10.1627 62.0706 10.0871 62.1726 10.0951C62.2731 10.1028 62.3483 10.1905 62.3407 10.2914C62.2519 11.4586 62.8077 12.7066 64.04 14.1063C64.2556 14.3515 64.4793 14.5923 64.7033 14.8332C65.4904 15.681 66.3047 16.5577 66.783 17.6383C67.3919 19.0128 67.386 20.6511 66.767 22.0208C66.627 22.331 66.4545 22.6369 66.2878 22.9329C65.865 23.6828 65.466 24.3907 65.5416 25.1735C65.6107 25.8857 66.0576 26.4664 66.5312 27.0815C66.8371 27.4787 67.1532 27.8895 67.3696 28.3478C67.9331 29.5417 67.7442 31.0254 66.8989 32.0399C66.7454 32.224 66.5693 32.3984 66.3993 32.5672C65.9663 32.9962 65.5573 33.4019 65.5124 33.9376C65.4616 34.5446 65.8932 35.034 66.35 35.5522C66.6222 35.861 66.9036 36.1804 67.0966 36.5411C67.4211 37.1484 67.4456 37.9013 67.1635 38.6069C66.8817 39.3126 66.3449 39.8418 65.6914 40.0585C65.6721 40.0643 65.6527 40.0673 65.6337 40.0673Z" fill="#572C22"/>
<path d="M30.9214 42.9685C30.8582 42.9685 30.7968 42.9356 30.7628 42.8771C30.7124 42.7898 30.7424 42.678 30.8297 42.6276C31.3114 42.3498 31.6896 41.9124 31.8946 41.3956C32.0996 40.8789 32.1245 40.3015 31.9644 39.7694C31.9355 39.6725 31.9904 39.571 32.0868 39.5417C32.1848 39.5132 32.2856 39.5677 32.3145 39.6641C32.498 40.2748 32.4695 40.9377 32.2341 41.5305C31.9988 42.1232 31.5646 42.6254 31.0124 42.944C30.9835 42.9608 30.9525 42.9685 30.9214 42.9685Z" fill="#572C22"/>
<path d="M58.5408 41.8948C58.4469 41.8948 58.3668 41.8228 58.3588 41.7274C58.3504 41.6269 58.4249 41.5385 58.5254 41.53C59.3714 41.4591 60.1166 40.6826 60.1524 39.8344C60.1568 39.7335 60.2544 39.652 60.3424 39.6593C60.4433 39.6637 60.5215 39.7489 60.5175 39.8494C60.4733 40.8898 59.5936 41.8071 58.5561 41.8937C58.551 41.8944 58.5459 41.8948 58.5408 41.8948Z" fill="#572C22"/>
<path d="M28.6846 41.3376C28.6605 41.3376 28.6356 41.3328 28.6119 41.3222C28.2735 41.1753 28.0176 40.8965 27.8715 40.516C27.6847 40.0289 27.7067 39.4237 27.9292 38.9362C28.2643 38.2028 28.8991 37.6933 29.5134 37.2003L29.6596 37.0827C30.2929 36.571 30.9029 35.9955 31.075 35.2565C31.2252 34.6108 31.0249 33.9614 30.8133 33.274C30.639 32.7075 30.4585 32.1217 30.4789 31.5176C30.5104 30.5821 31.0403 29.6356 31.933 28.9204C32.3076 28.6204 32.6848 28.4771 33.0842 28.3258C33.5275 28.1577 33.9858 27.9838 34.5029 27.5697C34.5818 27.5069 34.6969 27.5193 34.7598 27.5982C34.823 27.6768 34.8102 27.7919 34.7313 27.8551C34.1692 28.3054 33.6616 28.498 33.2139 28.6679C32.8262 28.8148 32.4911 28.942 32.1614 29.2062C31.3523 29.8549 30.8722 30.702 30.844 31.5304C30.8261 32.0731 30.9971 32.629 31.1631 33.1669C31.3798 33.8704 31.6038 34.598 31.4313 35.3398C31.2347 36.1862 30.5743 36.8148 29.8898 37.3677L29.7429 37.4858C29.1622 37.9517 28.5618 38.4341 28.2625 39.0886C28.0794 39.4899 28.0604 39.9869 28.2135 40.3856C28.2903 40.5855 28.447 40.8519 28.7584 40.9871C28.8509 41.0273 28.8936 41.1347 28.8531 41.2276C28.8227 41.2963 28.7555 41.3376 28.6846 41.3376Z" fill="#2B1B15"/>
<path d="M36.4378 39.1912C36.4133 39.1912 36.3885 39.1865 36.3647 39.1759C35.8666 38.9574 35.4953 38.4896 35.3952 37.9549C35.2954 37.4199 35.4738 36.8498 35.8597 36.4665C36.0669 36.2607 36.3238 36.1116 36.5723 35.9673C36.9399 35.7535 37.2875 35.5518 37.4019 35.2031C37.5473 34.7591 37.2348 34.2665 36.9469 33.9314C36.8917 33.867 36.8343 33.8027 36.7769 33.7384C36.4612 33.3843 36.1345 33.0177 36.0336 32.5321C35.8816 31.7993 36.3041 31.0027 37.2224 30.2897C37.3025 30.2276 37.4168 30.2425 37.479 30.3218C37.5407 30.4015 37.5265 30.5163 37.4468 30.5784C36.9823 30.9391 36.2273 31.663 36.3918 32.4579C36.4725 32.8478 36.7528 33.1625 37.0499 33.4954C37.1088 33.5615 37.1676 33.6273 37.2246 33.6938C37.7253 34.2767 37.9069 34.838 37.7494 35.3175C37.5915 35.7981 37.1669 36.0451 36.7565 36.2837C36.5281 36.4168 36.292 36.5538 36.1177 36.7267C35.8206 37.0212 35.6784 37.4773 35.7552 37.8884C35.8319 38.2999 36.129 38.6738 36.512 38.8419C36.6045 38.8824 36.6465 38.9902 36.6059 39.0827C36.5752 39.1503 36.5083 39.1912 36.4378 39.1912Z" fill="#2B1B15"/>
<path d="M53.8745 7.03711C53.8255 7.03711 53.7766 7.01737 53.7404 6.97863C53.6717 6.90445 53.6761 6.78897 53.7502 6.72063C54.0477 6.44472 54.2136 6.02628 54.2052 5.57203C54.1968 5.11778 54.0156 4.70555 53.7082 4.44097C53.558 4.3116 53.3691 4.19723 53.1867 4.08613C52.754 3.82374 52.3071 3.55257 52.2095 3.0256C52.1803 2.86846 52.1916 2.71716 52.2026 2.57098C52.2121 2.44161 52.2212 2.31992 52.2004 2.20882C52.1814 2.10723 52.0904 1.99723 51.9979 1.96324C51.9446 1.94387 51.9226 1.96178 51.9124 1.97019C51.8346 2.03487 51.7191 2.02318 51.6551 1.94497C51.5912 1.86713 51.6021 1.75201 51.6803 1.68769C51.8031 1.58683 51.9647 1.56199 52.1229 1.61936C52.3371 1.6972 52.5169 1.91208 52.5596 2.14121C52.5892 2.29945 52.5779 2.45111 52.5669 2.59802C52.5574 2.72666 52.5483 2.84799 52.5688 2.95909C52.6364 3.3249 52.9956 3.54307 53.376 3.77367C53.5715 3.89207 53.7733 4.01486 53.9465 4.16359C54.3328 4.49615 54.5604 5.00669 54.5707 5.56472C54.5809 6.12276 54.3726 6.64169 53.9987 6.98813C53.9637 7.02103 53.9191 7.03711 53.8745 7.03711Z" fill="#2B1B15"/>
<path d="M36.6842 19.0361C36.6038 19.0361 36.5299 18.9824 36.508 18.9009C36.1627 17.6156 36.8091 16.1136 37.98 15.4814C38.1916 15.367 38.4208 15.2749 38.6426 15.1861C39.1407 14.9862 39.611 14.7973 39.8507 14.3869C40.1022 13.9568 40.0123 13.4327 39.9173 12.878C39.835 12.3981 39.7499 11.9015 39.8785 11.4227C40.1486 10.417 41.2369 9.94049 41.8614 9.74607C42.0818 9.67737 42.3066 9.6189 42.5317 9.56006C43.1336 9.40292 43.7022 9.25455 44.1835 8.92455C44.8044 8.49917 45.1855 7.84027 45.5894 7.14263C45.7615 6.84552 45.9395 6.53819 46.1368 6.25204C46.8666 5.19444 48.1669 4.42627 49.2376 5.00587C49.3264 5.05374 49.3593 5.16483 49.3114 5.25363C49.2636 5.34244 49.1525 5.37533 49.0637 5.32745C48.1902 4.85493 47.0592 5.55843 46.4376 6.45998C46.2483 6.73407 46.0743 7.03483 45.9058 7.32609C45.4995 8.02811 45.0792 8.75425 44.3903 9.22641C43.8561 9.59222 43.2297 9.75594 42.6241 9.91382C42.4045 9.97119 42.1849 10.0282 41.97 10.0951C41.4171 10.2672 40.4563 10.6809 40.2315 11.5178C40.1237 11.9194 40.1983 12.355 40.2776 12.8166C40.3796 13.4115 40.4848 14.0266 40.1665 14.5718C39.8635 15.0896 39.3124 15.3115 38.7793 15.5256C38.5669 15.6108 38.3477 15.6992 38.154 15.8034C37.1256 16.3588 36.5577 17.6777 36.8614 18.8062C36.8877 18.9038 36.8296 19.0039 36.7324 19.0303C36.7159 19.0343 36.6999 19.0361 36.6842 19.0361Z" fill="#2B1B15"/>
<path d="M35.8889 10.9904C35.8345 10.9904 35.7811 10.9666 35.745 10.9206C35.6825 10.8413 35.6964 10.7262 35.7757 10.6641C36.4247 10.1539 36.698 9.34406 36.9875 8.48635C37.2758 7.6323 37.574 6.74901 38.279 6.16576C38.8655 5.68045 39.6088 5.51125 40.3273 5.34753C40.8992 5.21707 41.4909 5.08221 41.9788 4.78729C42.4685 4.49092 42.839 4.05275 43.2315 3.58863C43.4398 3.34232 43.6554 3.08724 43.89 2.85627C44.6063 2.15023 45.7213 1.66199 46.598 2.16339C46.6857 2.21345 46.716 2.32492 46.666 2.41262C46.6155 2.50033 46.5041 2.53067 46.4167 2.4806C45.7059 2.07495 44.7649 2.50764 44.1466 3.11647C43.9237 3.33611 43.7135 3.58461 43.5107 3.82471C43.1164 4.29102 42.7089 4.77305 42.1681 5.10012C41.6294 5.42574 41.0089 5.56717 40.4088 5.70384C39.7006 5.86501 39.0318 6.01739 38.5125 6.44752C37.8876 6.96426 37.619 7.76058 37.3343 8.6033C37.0405 9.47379 36.7364 10.3742 36.0019 10.9513C35.9682 10.9776 35.9284 10.9904 35.8889 10.9904Z" fill="#2B1B15"/>
<path d="M28.8453 30.7633C28.7872 30.7633 28.7306 30.7359 28.6948 30.6843C28.6374 30.6014 28.6579 30.4874 28.7412 30.4303C29.3248 30.0269 29.2316 29.087 28.9751 28.405C28.9298 28.2848 28.8812 28.1638 28.8318 28.0422C28.5592 27.3646 28.2771 26.6641 28.4861 25.9467C28.7357 25.0897 29.5295 24.6778 30.2976 24.2791C30.8297 24.0029 31.3804 23.7175 31.7379 23.2884C32.1713 22.7688 32.3547 22.0068 32.2984 20.9594C32.2853 20.7157 32.263 20.4712 32.2403 20.2267C32.1837 19.6095 32.1249 18.971 32.221 18.3392C32.3423 17.5381 32.8364 16.5072 33.8297 16.2386C33.9258 16.2112 34.0274 16.2697 34.0537 16.3672C34.08 16.4644 34.0226 16.5649 33.9251 16.5912C33.1021 16.8142 32.6873 17.7018 32.5824 18.3944C32.4932 18.9824 32.5473 19.5707 32.6047 20.1938C32.6277 20.4427 32.6504 20.6916 32.6639 20.9401C32.7249 22.0839 32.5141 22.9288 32.0189 23.5227C31.6143 24.0083 31.0303 24.3109 30.4657 24.6037C29.7337 24.9834 29.0427 25.3422 28.8369 26.0486C28.6633 26.6447 28.9214 27.2857 29.171 27.9058C29.221 28.0301 29.2707 28.154 29.3168 28.2764C29.6347 29.1202 29.7049 30.2085 28.9488 30.7311C28.9177 30.7527 28.8815 30.7633 28.8453 30.7633Z" fill="#2B1B15"/>
<path d="M26.0472 38.419C26.023 38.419 25.9986 38.4142 25.9748 38.404C25.3612 38.1398 25.1368 37.3698 25.2742 36.7781C25.4164 36.1653 25.8601 35.6741 26.2306 35.3149C26.3103 35.2378 26.3911 35.1614 26.4725 35.0854C26.8 34.7777 27.1092 34.4868 27.3313 34.1276C27.566 33.7486 27.7257 33.1821 27.4709 32.7297C27.4216 32.6416 27.4527 32.5305 27.5407 32.4808C27.6292 32.4315 27.7403 32.4629 27.7896 32.5506C28.1218 33.1419 27.9314 33.8524 27.642 34.3198C27.3946 34.7199 27.0529 35.0412 26.7225 35.3514C26.6428 35.4263 26.5632 35.5013 26.485 35.5773C26.1294 35.9219 25.7501 36.344 25.6298 36.8611C25.5264 37.3066 25.6814 37.88 26.1188 38.0689C26.2116 38.1087 26.2544 38.2162 26.2142 38.309C26.1849 38.3777 26.1177 38.419 26.0472 38.419Z" fill="#2B1B15"/>
<path d="M63.0753 21.5925C63.0537 21.5925 63.0321 21.5889 63.0109 21.5808C62.9167 21.5454 62.8688 21.4398 62.9042 21.3455C63.0913 20.8485 62.7478 20.2882 62.4266 19.906C62.367 19.8351 62.3056 19.7646 62.2439 19.6937C61.8945 19.2931 61.5338 18.8787 61.4406 18.3342C61.3394 17.7436 61.5864 17.2009 61.8254 16.6758C62.0403 16.2033 62.2439 15.7567 62.1989 15.2955C62.1456 14.7514 61.7385 14.2291 60.9893 13.7438C60.8632 13.662 60.7338 13.583 60.6041 13.5037C60.0943 13.192 59.5673 12.87 59.2041 12.3701C58.7151 11.6977 58.6303 10.8656 58.5485 10.0612C58.5192 9.7747 58.4893 9.47832 58.441 9.19839C58.2627 8.16673 57.5197 7.13727 56.628 7.27175C56.5279 7.2871 56.4351 7.21839 56.4201 7.11863C56.4051 7.01886 56.4735 6.92567 56.5732 6.91069C57.697 6.73856 58.589 7.90799 58.8014 9.13663C58.8518 9.42898 58.8829 9.73158 58.9125 10.0247C58.9929 10.8159 59.0689 11.5632 59.4997 12.156C59.8202 12.5971 60.2935 12.8865 60.7945 13.1927C60.9268 13.2735 61.0591 13.3543 61.1877 13.4379C62.0352 13.9868 62.4978 14.6001 62.5625 15.2604C62.6173 15.8192 62.3838 16.3319 62.1584 16.8275C61.9321 17.3241 61.7187 17.7933 61.8009 18.2728C61.8766 18.7165 62.1891 19.0746 62.5194 19.4539C62.5826 19.5263 62.6455 19.5986 62.7065 19.671C63.2573 20.3266 63.444 20.9504 63.2463 21.4745C63.2189 21.5472 63.1491 21.5925 63.0753 21.5925Z" fill="#2B1B15"/>
<path d="M62.081 37.58C62.0028 37.58 61.9304 37.5295 61.9063 37.451C61.8767 37.3545 61.9308 37.2522 62.0272 37.2225C62.7402 37.0033 63.3103 36.3634 63.4463 35.6299C63.5822 34.8965 63.2793 34.0947 62.692 33.635C62.5871 33.5527 62.4731 33.4789 62.3594 33.4051C62.0748 33.2202 61.7798 33.0291 61.603 32.7118C61.3494 32.2572 61.4115 31.6466 61.7689 31.0779C61.9315 30.8188 62.1329 30.5908 62.3273 30.3708C62.4673 30.2122 62.612 30.0485 62.7366 29.8785C63.7737 28.4621 63.4375 26.2142 62.0313 25.1628C61.9505 25.1021 61.9337 24.9878 61.9944 24.907C62.055 24.8259 62.1694 24.8091 62.2502 24.8701C63.8081 26.0348 64.1805 28.5249 63.0315 30.0941C62.8974 30.2772 62.7468 30.4475 62.6014 30.6124C62.4081 30.8316 62.2253 31.0381 62.0784 31.2723C61.8584 31.6228 61.7016 32.1381 61.9224 32.5339C62.0554 32.7718 62.2999 32.9304 62.5586 33.0988C62.6814 33.1785 62.8042 33.2585 62.9175 33.3473C63.6085 33.8889 63.9656 34.8333 63.8055 35.6968C63.6454 36.5604 62.9741 37.3139 62.1347 37.5719C62.1168 37.5774 62.0985 37.58 62.081 37.58Z" fill="#2B1B15"/>
<path d="M58.2854 39.8159C58.2627 39.8159 58.24 39.8144 58.2174 39.8115C58.1176 39.798 58.0471 39.7063 58.0606 39.6061C58.0741 39.5064 58.1666 39.4366 58.266 39.4494C58.3826 39.468 58.5064 39.3383 58.5868 39.2151C58.8452 38.8197 58.9252 38.3114 58.8014 37.8553C58.6775 37.3996 58.3511 37.002 57.9276 36.7915C57.8373 36.7465 57.8004 36.6369 57.8454 36.5466C57.8903 36.4563 57.9996 36.4191 58.0906 36.4644C58.6058 36.7206 59.0031 37.2048 59.154 37.7595C59.3049 38.3146 59.2074 38.9333 58.8931 39.415C58.7243 39.673 58.5061 39.8159 58.2854 39.8159Z" fill="#2B1B15"/>
<path d="M56.5598 41.0028C56.5083 41.0028 56.4575 40.9813 56.4213 40.9392C56.3555 40.8625 56.3643 40.7474 56.441 40.6816C56.7707 40.3984 56.9742 39.9701 56.9852 39.5356C56.9965 39.101 56.8149 38.6629 56.4998 38.3632C56.4268 38.2938 56.4238 38.1779 56.4933 38.1048C56.5631 38.0321 56.6789 38.0292 56.7516 38.0983C57.1401 38.4681 57.3641 39.0086 57.3502 39.5447C57.3367 40.0804 57.0857 40.6092 56.6789 40.9586C56.6442 40.9886 56.6022 41.0028 56.5598 41.0028Z" fill="#2B1B15"/>
<path d="M95.6945 297.905C97.8713 304.282 86.1877 311.109 92.7864 316.577C94.4715 317.973 97.0296 317.733 99.2624 317.971C106.985 318.792 117.512 328.404 122.401 323.81C130.292 316.398 100.891 318.374 107.414 297.752C103.703 297.971 99.9921 298.191 95.6945 297.905Z" fill="#FFD8CA"/>
<path d="M139.599 299.793C142.514 305.904 131.708 313.906 138.911 318.653C140.751 319.864 143.265 319.36 145.512 319.364C153.284 319.375 164.879 327.832 169.197 322.757C176.165 314.569 147.178 319.594 151.227 298.421C147.566 299.025 143.905 299.63 139.599 299.793Z" fill="#FFD8CA"/>
<mask id="mask3_1_853" style="mask-type:luminance" maskUnits="userSpaceOnUse" x="90" y="297" width="34" height="29">
<path d="M95.6945 297.905C97.8713 304.282 86.1877 311.109 92.7864 316.577C94.4715 317.973 97.0296 317.733 99.2624 317.971C106.985 318.792 117.512 328.404 122.401 323.81C130.292 316.398 100.891 318.374 107.414 297.752C103.703 297.971 99.9921 298.191 95.6945 297.905Z" fill="white"/>
</mask>
<g mask="url(#mask3_1_853)">
<path d="M93.5491 304.757C96.4622 306.119 99.1454 307.913 101.469 310.052C102.236 304.7 109.56 306.687 112.367 309.645C117.34 314.688 128.596 318.206 127.422 326.278C121.091 336.127 108.796 325.179 100.766 322.721C89.8585 320.895 78.2607 315.811 93.5491 304.757Z" fill="black"/>
</g>
<mask id="mask4_1_853" style="mask-type:luminance" maskUnits="userSpaceOnUse" x="136" y="298" width="35" height="27">
<path d="M139.599 299.793C142.514 305.904 131.708 313.906 138.911 318.653C140.751 319.864 143.265 319.36 145.512 319.364C153.284 319.375 164.879 327.832 169.197 322.757C176.165 314.569 147.178 319.594 151.227 298.421C147.566 299.025 143.905 299.63 139.599 299.793Z" fill="white"/>
</mask>
<g mask="url(#mask4_1_853)">
<path d="M135.987 307.884C140.27 309.075 144.555 310.266 148.838 311.457C152.722 301.758 165.94 313.276 171.295 316.573C176.926 321.022 174.821 329.419 167.228 330.054C158.257 330.502 149.93 325.744 141.768 322.785C134.704 319.761 131.885 317.855 135.987 307.884Z" fill="black"/>
</g>
<path d="M160.692 127.486L93.1843 144.399L90.2251 213.673C88.9559 241.032 92.4158 257.64 90.0677 284.792C89.2466 294.288 95.5002 299.508 103.52 299.15C106.784 299.005 110.863 299.517 112.732 296.452C121.734 281.689 118.507 253.289 128.945 203.083C127.792 236.506 133.167 259.93 135.182 293.302C135.368 296.386 137.295 298.978 139.931 299.67C145.447 301.119 152.366 300.61 157.394 298.069C159.15 297.181 160.361 295.275 160.608 293.099C164.15 261.86 160.924 242.866 163.943 207.394L160.692 127.486Z" fill="#4A4A4A"/>
<path d="M128.471 205.179C128.466 205.179 128.461 205.179 128.456 205.179C128.298 205.171 128.174 205.044 128.183 204.895C128.5 198.847 128.828 192.591 128.791 185.649C128.791 185.582 128.816 185.517 128.864 185.468L135.558 178.392C135.663 178.28 135.846 178.27 135.965 178.37C136.084 178.469 136.094 178.64 135.989 178.752L129.368 185.75C129.4 192.666 129.075 198.896 128.758 204.922C128.752 205.067 128.624 205.179 128.471 205.179Z" fill="white"/>
<path d="M109.819 270.737C109.787 270.737 109.755 270.732 109.723 270.721C109.573 270.672 109.495 270.516 109.548 270.375L120.207 242.117C120.26 241.976 120.424 241.904 120.576 241.952C120.725 242.002 120.804 242.157 120.751 242.298L110.091 270.556C110.049 270.668 109.938 270.737 109.819 270.737Z" fill="white"/>
<path d="M157.397 265.846C157.378 265.846 157.357 265.845 157.338 265.841C157.182 265.81 157.081 265.666 157.114 265.52L160.562 250.189C160.595 250.043 160.744 249.95 160.904 249.98C161.059 250.011 161.16 250.155 161.127 250.301L157.679 265.631C157.651 265.759 157.531 265.846 157.397 265.846Z" fill="white"/>
<path d="M121.284 54.4583C115.24 55.6947 109.135 59.941 103.649 63.9398C111.57 100.401 111.667 121.273 101.623 157.645C108.561 158.2 115.499 158.756 123.521 158.766C125.663 153.126 127.805 147.487 129.947 141.847C131.232 147.342 131.926 152.959 132.015 158.585C137.991 157.626 143.967 156.668 152.06 154.594C157.728 118.757 155.563 98.8869 147.415 63.4399C141.158 60.2002 135.092 54.3329 134.763 54.5379C131.689 53.8524 128.239 54.4583 121.284 54.4583Z" fill="#FFEEDB"/>
<path d="M124.143 64.2115C123.612 64.2115 123.049 64.1302 122.454 63.967C120.909 63.543 119.546 62.4667 118.716 61.0136C117.885 59.5605 117.681 57.8992 118.158 56.4554C118.205 56.3123 118.369 56.2326 118.519 56.2767C118.671 56.3216 118.756 56.4724 118.708 56.6156C118.278 57.9224 118.464 59.432 119.223 60.7575C119.982 62.0829 121.218 63.0632 122.615 63.447C123.884 63.7952 124.982 63.7341 125.88 63.2637C126.923 62.7166 127.686 61.6357 128.148 60.051C128.186 59.9218 128.32 59.8406 128.46 59.8537C128.602 59.87 128.71 59.9799 128.715 60.1145C128.746 61.0213 129.302 61.9273 130.239 62.6005C131.294 63.358 132.635 63.6768 133.737 63.4315C136.027 62.9232 136.419 60.6708 136.643 58.2087C136.657 58.0602 136.793 57.9464 136.955 57.9619C137.113 57.975 137.231 58.1058 137.217 58.2544C137.033 60.2708 136.755 63.3178 133.869 63.9584C132.605 64.2385 131.077 63.8842 129.889 63.0307C129.165 62.51 128.638 61.8608 128.362 61.1645C127.846 62.3762 127.109 63.2389 126.162 63.7364C125.557 64.0521 124.883 64.2115 124.143 64.2115Z" fill="#540F2F"/>
<path d="M129.862 142.951C129.707 142.951 129.577 142.834 129.574 142.686C129.254 129.609 129.518 121.988 130.66 111.324C131.635 102.232 131.683 94.6083 130.807 88.6644C130.591 87.2012 130.365 85.7365 130.137 84.2718C128.928 76.4469 127.677 68.3558 128.138 60.5525C128.148 60.4039 128.265 60.3018 128.442 60.2972C128.601 60.3057 128.722 60.4334 128.713 60.5827C128.254 68.3318 129.502 76.395 130.708 84.1937C130.934 85.6591 131.161 87.1246 131.378 88.5901C132.261 94.5766 132.212 102.244 131.234 111.379C130.093 122.017 129.83 129.621 130.15 142.674C130.154 142.823 130.028 142.948 129.868 142.951C129.867 142.951 129.865 142.951 129.862 142.951Z" fill="#540F2F"/>
<path d="M113.352 119.181C113.322 119.181 113.292 119.177 113.263 119.168C113.111 119.121 113.029 118.968 113.077 118.827C116.464 109.053 121.722 103.325 127.811 96.6934C130.263 94.024 132.797 91.2633 135.423 88.0166C135.519 87.8975 135.701 87.875 135.827 87.9648C135.953 88.0553 135.978 88.2255 135.881 88.3447C133.244 91.6045 130.704 94.3714 128.246 97.0478C122.199 103.636 116.975 109.325 113.625 118.995C113.586 119.108 113.473 119.181 113.352 119.181Z" fill="#540F2F"/>
<path d="M133.018 118.168C133.009 118.168 133 118.168 132.99 118.167C132.832 118.153 132.716 118.02 132.731 117.872C133.204 113.158 134.766 111.314 136.744 108.979C137.914 107.596 139.241 106.03 140.586 103.562C140.658 103.429 140.833 103.376 140.973 103.445C141.116 103.513 141.171 103.676 141.099 103.809C139.728 106.325 138.382 107.914 137.195 109.317C135.277 111.581 133.762 113.37 133.305 117.924C133.29 118.064 133.165 118.168 133.018 118.168Z" fill="#540F2F"/>
<path d="M186.174 168.093C185.458 170.292 185.51 172.637 186.187 174.847C187.016 177.555 187.565 180.435 186.917 183.284C186.183 186.509 183.24 190.738 181.066 191.545C180.344 191.813 179.594 191.174 179.743 190.458C180.241 188.063 180.613 183.914 179.392 181.238C179.133 180.671 178.264 180.709 178.057 181.294C177.028 184.204 175.507 186.081 175.668 184.285C176.233 177.975 174.831 176.866 177.903 172.638C179.415 170.555 180.161 168.054 180.022 165.537L186.174 168.093Z" fill="#FFD8CA"/>
<path d="M180.525 191.31C180.485 191.31 180.444 191.303 180.405 191.286C180.26 191.224 180.197 191.064 180.263 190.927C181.553 188.282 182.071 185.353 181.76 182.459C181.744 182.31 181.859 182.177 182.018 182.162C182.172 182.148 182.317 182.255 182.334 182.404C182.655 185.394 182.12 188.419 180.786 191.153C180.739 191.252 180.635 191.31 180.525 191.31Z" fill="#DE5637"/>
<path d="M182.942 189.925C182.91 189.925 182.878 189.921 182.847 189.911C182.696 189.861 182.617 189.707 182.67 189.566C183.524 187.271 183.879 184.775 183.695 182.352C183.685 182.203 183.804 182.073 183.963 182.063C184.117 182.066 184.259 182.166 184.271 182.314C184.46 184.811 184.093 187.381 183.214 189.745C183.172 189.856 183.061 189.925 182.942 189.925Z" fill="#DE5637"/>
<path d="M185.489 186.222C185.472 186.222 185.453 186.221 185.435 186.218C185.279 186.189 185.177 186.047 185.206 185.9C185.465 184.644 185.623 183.357 185.673 182.075C185.679 181.926 185.795 181.8 185.972 181.814C186.13 181.82 186.256 181.946 186.249 182.094C186.197 183.404 186.037 184.72 185.772 186.003C185.745 186.133 185.625 186.222 185.489 186.222Z" fill="#DE5637"/>
<path d="M121.284 53.4338C94.5428 59.8196 89.9273 70.683 83.0461 85.8044C75.6082 102.149 60.0925 119.106 69.3127 137.284C68.5006 147.181 71.4977 149.398 79.2238 154.167C79.2123 161.814 75.395 170.565 74.013 176.007C72.1286 183.431 58.1356 208.899 94.635 206.735C103.301 206.221 97.7763 183.721 101.798 172.972C106.753 159.729 109.907 146.014 109.907 132.297C109.907 112.908 118.836 103.894 115.151 79.8914C113.759 70.827 115.806 59.4714 118.387 55.9578C119.283 54.7369 120.698 54.2323 121.284 53.4338Z" fill="#6F6F6F"/>
<path d="M134.428 54.4583C163.61 56.2898 171.951 83.0886 179.309 102.267C182.581 110.797 184.362 114.32 184.687 123.381C184.867 128.409 182.784 133.697 184.654 138.412C188.736 148.702 190.486 154.215 188.84 165.78C187.791 173.158 178.549 175.6 176.002 170.582C174.085 166.806 175.12 163.177 174.091 156.45C176.453 172.398 179.424 191.801 169.519 205.415C162.673 214.826 153.918 205.216 154.004 195.97C154.131 182.329 152.571 168.719 152.186 154.899C147.485 140.766 150.836 125.513 150.204 110.717C149.55 95.4523 148.131 92.1871 144.969 77.3504C143.408 70.03 142.545 61.5837 138.053 58.0067C136.819 57.024 135.61 55.8363 134.428 54.4583Z" fill="#6F6F6F"/>
<path d="M83.7337 157.077C83.695 157.077 83.6563 157.071 83.62 157.057C80.3108 155.728 79.4131 154.713 79.3761 154.67C79.2764 154.554 79.2953 154.383 79.4197 154.289C79.5416 154.195 79.7228 154.213 79.8241 154.328C79.8414 154.349 80.7004 155.282 83.7452 156.517C88.1432 155.08 92.0306 152.112 94.4207 148.358C96.8314 144.574 97.7752 139.91 97.0118 135.561C96.9862 135.414 97.0925 135.275 97.2498 135.25C97.4014 135.228 97.5554 135.326 97.5809 135.474C98.3658 139.947 97.3939 144.745 94.9157 148.637C92.4366 152.527 88.3952 155.6 83.8267 157.064C83.7963 157.073 83.765 157.077 83.7337 157.077Z" fill="white"/>
<path d="M95.8414 144.707C95.8143 144.707 95.7863 144.704 95.7575 144.695C95.6051 144.652 95.5194 144.501 95.5656 144.357C96.8669 140.319 95.5318 135.676 92.244 132.802C91.2137 131.903 91.4427 131.182 91.665 130.487C91.8388 129.941 92.0192 129.375 91.6831 128.573C91.1313 127.249 91.2614 125.817 91.3883 124.431C91.4171 124.116 91.4459 123.801 91.4665 123.488C91.5307 122.513 91.5325 120.194 90.176 119.696C90.12 119.675 90.0722 119.639 90.0393 119.591C88.6367 117.556 86.2762 116.125 83.7247 115.765C81.1691 115.404 78.4684 116.119 76.4918 117.677C76.3699 117.773 76.188 117.759 76.0858 117.643C75.9837 117.528 76.0001 117.358 76.122 117.261C78.223 115.606 81.0983 114.844 83.8104 115.23C86.4937 115.609 88.9776 117.101 90.4749 119.226C92.0381 119.884 92.1304 122.189 92.0431 123.522C92.0225 123.839 91.9928 124.158 91.9631 124.478C91.8429 125.802 91.7185 127.17 92.2209 128.375C92.6278 129.352 92.4004 130.067 92.2168 130.642C92.0076 131.301 91.8692 131.735 92.6368 132.405C96.0828 135.416 97.4821 140.283 96.1182 144.513C96.0795 144.633 95.9658 144.707 95.8414 144.707Z" fill="white"/>
<path d="M90.9876 118.389C90.9488 118.389 90.9101 118.382 90.8722 118.368C90.7265 118.308 90.6589 118.149 90.7223 118.011C93.1923 112.674 93.0737 108.816 92.9485 104.732C92.8382 101.144 92.7254 97.4338 94.3586 92.488C94.4055 92.3449 94.5677 92.2652 94.7193 92.3093C94.8716 92.3542 94.9565 92.5059 94.9087 92.6482C93.3043 97.5081 93.4163 101.173 93.525 104.716C93.6518 108.861 93.7721 112.778 91.2511 118.227C91.2041 118.329 91.0979 118.389 90.9876 118.389Z" fill="white"/>
<path d="M92.8111 112.937C92.6702 112.937 92.5475 112.842 92.526 112.707C91.8902 108.751 90.9711 105.87 89.9993 102.82C89.7876 102.158 89.5718 101.482 89.3552 100.781C89.3107 100.637 89.3989 100.487 89.5513 100.445C89.7044 100.402 89.8642 100.486 89.9087 100.629C90.1261 101.328 90.3403 102.003 90.5511 102.664C91.5295 105.733 92.4552 108.632 93.096 112.626C93.1199 112.773 93.0112 112.912 92.8539 112.934C92.8391 112.937 92.8242 112.937 92.8111 112.937Z" fill="white"/>
<path d="M91.2601 119.741C91.1671 119.741 91.0748 119.698 91.0196 119.62C88.8412 116.522 86.1414 113.813 82.9945 111.567C82.8685 111.477 82.843 111.307 82.9402 111.188C83.0357 111.068 83.2169 111.045 83.3437 111.137C86.5426 113.419 89.2868 116.173 91.5006 119.322C91.5879 119.447 91.5525 119.615 91.4191 119.697C91.3705 119.726 91.3145 119.741 91.2601 119.741Z" fill="white"/>
<path d="M73.3555 180.796C73.2731 180.796 73.1917 180.763 73.134 180.699C73.0319 180.585 73.0483 180.414 73.1702 180.318C76.43 177.754 77.4134 175.052 78.5533 171.925C79.2789 169.933 80.0283 167.874 81.4457 165.641C81.5272 165.513 81.7043 165.473 81.841 165.548C81.9777 165.625 82.0223 165.791 81.9408 165.92C80.5538 168.103 79.8142 170.135 79.0985 172.101C77.98 175.172 76.9233 178.072 73.54 180.733C73.4873 180.776 73.4214 180.796 73.3555 180.796Z" fill="white"/>
<path d="M175.655 170.427C175.525 170.427 175.407 170.344 175.375 170.22C169.97 149.103 169.148 134.66 168.354 120.693C167.878 112.318 167.428 104.408 166.055 95.2008C166.033 95.053 166.142 94.916 166.3 94.8951C166.464 94.8719 166.604 94.9779 166.626 95.1257C168.002 104.355 168.454 112.277 168.931 120.664C169.724 134.607 170.544 149.024 175.936 170.092C175.974 170.238 175.879 170.384 175.724 170.418C175.701 170.425 175.678 170.427 175.655 170.427Z" fill="white"/>
<path d="M171.197 153.487C171.116 153.487 171.036 153.455 170.978 153.392C167.663 149.762 164.921 145.707 162.828 141.341C162.763 141.205 162.828 141.044 162.973 140.983C163.12 140.922 163.29 140.982 163.355 141.119C165.424 145.437 168.136 149.449 171.415 153.04C171.519 153.153 171.505 153.324 171.384 153.422C171.33 153.466 171.264 153.487 171.197 153.487Z" fill="white"/>
<path d="M167.918 112.35C167.901 112.35 167.884 112.349 167.867 112.346C167.711 112.32 167.606 112.179 167.634 112.032L169.41 102.709C169.438 102.562 169.591 102.462 169.744 102.49C169.901 102.517 170.005 102.657 169.977 102.804L168.201 112.127C168.177 112.259 168.056 112.35 167.918 112.35Z" fill="white"/>
<path d="M111.788 31.4942C111.496 13.455 109.276 21.2985 116.89 10.2091C119.959 5.7376 137.008 5.28962 135.951 13.0697C135.979 11.81 137.325 10.6455 138.658 10.7863C146.387 11.6011 143.629 26.5623 142.929 32.1867L111.788 31.4942Z" fill="#67453F"/>
<path d="M135.34 16.6041C132.333 21.9994 125.583 23.3589 117.789 19.07C117.486 21.1011 116.352 23.0123 114.291 24.891C114.428 27.0814 114.359 28.1206 114.268 30.2182C113.096 28.6622 111.814 27.2362 110.12 28.297C107.345 30.0333 110.09 39.6192 114.826 37.7677C115.411 42.3366 116.703 45.6429 120.384 49.1015C120.9 51.4777 120.564 54.0102 119.502 56.285C123.215 60.0501 130.877 60.9159 135.077 57.1214C134.799 54.3507 134.819 51.5536 135.182 49.018C138.252 46.6085 139.907 43.4857 140.661 38.218C145.173 36.9669 148.367 29.9644 144.004 28.184C142.547 27.589 142.105 28.7303 140.785 30.5354C140.786 20.0256 135.256 19.4167 135.34 16.6041Z" fill="#FFD8CA"/>
<path d="M127.827 52.753C125.119 52.753 122.4 51.6078 120.533 49.675C120.426 49.5644 120.435 49.3926 120.552 49.292C120.671 49.193 120.852 49.1991 120.959 49.3106C122.747 51.1598 125.363 52.25 127.943 52.2106C129.716 52.1874 132.3 51.645 134.544 49.1914C134.648 49.0769 134.83 49.0645 134.951 49.162C135.071 49.2595 135.085 49.4305 134.981 49.5442C133.122 51.5784 130.625 52.7174 127.951 52.7522C127.911 52.7522 127.869 52.753 127.827 52.753Z" fill="#895554"/>
<path d="M141.39 33.4441C141.371 33.4441 141.35 33.4425 141.331 33.4386C141.176 33.4077 141.075 33.2645 141.108 33.1183C141.434 31.6536 142.474 30.3722 143.893 29.6913C144.034 29.6225 144.208 29.6759 144.281 29.809C144.353 29.9421 144.297 30.1053 144.155 30.1734C142.91 30.7715 141.959 31.9422 141.673 33.2289C141.644 33.3566 141.523 33.4441 141.39 33.4441Z" fill="#895554"/>
<path d="M141.524 35.2848C141.391 35.2848 141.272 35.1989 141.242 35.072C141.207 34.9258 141.306 34.7818 141.462 34.7493C142.621 34.5102 143.499 33.331 143.341 32.2261C143.319 32.0776 143.43 31.9414 143.588 31.9213C143.752 31.8958 143.891 32.0056 143.912 32.1534C144.112 33.5461 143.046 34.9768 141.586 35.2786C141.565 35.2824 141.543 35.2848 141.524 35.2848Z" fill="#895554"/>
<path d="M113.428 33.116C113.295 33.116 113.176 33.0301 113.146 32.9032C112.871 31.7287 111.962 30.7205 110.773 30.2733C110.624 30.2175 110.553 30.0605 110.612 29.9212C110.671 29.7827 110.84 29.7146 110.987 29.7711C112.351 30.2849 113.394 31.4401 113.71 32.7872C113.744 32.9334 113.645 33.0773 113.49 33.1098C113.469 33.1137 113.448 33.116 113.428 33.116Z" fill="#895554"/>
<path d="M113.552 35.4952C113.501 35.4952 113.451 35.4828 113.404 35.4573C112.14 34.7493 111.239 33.4571 111.054 32.0852C111.035 31.9367 111.146 31.8013 111.304 31.7827C111.461 31.7657 111.606 31.8686 111.627 32.0172C111.79 33.2273 112.585 34.3671 113.7 34.9915C113.837 35.0681 113.882 35.2344 113.801 35.3629C113.745 35.448 113.65 35.4952 113.552 35.4952Z" fill="#895554"/>
<path d="M128.941 40.0813C128.861 40.0813 128.781 40.0495 128.723 39.9876C128.618 39.8746 128.632 39.7036 128.753 39.6054C129.384 39.0924 129.907 38.8146 130.578 38.5028C129.813 36.7402 129.108 34.8089 128.958 32.6161C128.956 32.5875 128.959 32.5596 128.967 32.5318C129.198 31.6776 129.651 30.8195 130.276 30.0511C130.373 29.932 130.554 29.9088 130.681 30.0008C130.807 30.0914 130.831 30.2616 130.734 30.38C130.166 31.0779 129.752 31.8532 129.536 32.6246C129.693 34.8198 130.435 36.7603 131.213 38.5314C131.271 38.6637 131.209 38.8162 131.073 38.8788C130.3 39.2317 129.784 39.4847 129.129 40.0155C129.075 40.0596 129.008 40.0813 128.941 40.0813Z" fill="#895554"/>
<path d="M126.374 39.9018C126.273 39.9018 126.175 39.8515 126.121 39.7617C126.045 39.631 126.095 39.4662 126.235 39.3934L127.406 38.7861C127.546 38.7149 127.72 38.7613 127.798 38.892C127.875 39.0228 127.825 39.1876 127.685 39.2603L126.513 39.8678C126.469 39.891 126.421 39.9018 126.374 39.9018Z" fill="#895554"/>
<path d="M127.7 44.0553C126.42 44.0553 125.244 43.6862 124.411 43.0107C124.291 42.9132 124.277 42.7415 124.381 42.6285C124.487 42.5148 124.667 42.5031 124.787 42.5998C125.628 43.2823 126.891 43.6057 128.234 43.4897C129.516 43.379 130.732 42.9209 131.855 42.442C131.998 42.3801 132.17 42.4397 132.237 42.5766C132.303 42.7128 132.238 42.873 132.093 42.9349C130.924 43.4332 129.653 43.9113 128.287 44.0282C128.09 44.0475 127.893 44.0553 127.7 44.0553Z" fill="#895554"/>
<path d="M117.079 28.6615C116.889 28.6615 116.718 28.5369 116.677 28.3551C116.629 28.1462 116.771 27.9403 116.994 27.8962C119.101 27.4753 123.561 27.3128 125.766 27.7252C125.989 27.767 126.133 27.9705 126.09 28.1802C126.045 28.3907 125.826 28.5253 125.605 28.4843C123.529 28.0974 119.156 28.256 117.166 28.6537C117.137 28.6584 117.108 28.6615 117.079 28.6615Z" fill="#67453F"/>
<path d="M138.773 28.9191C138.736 28.9191 138.699 28.9144 138.662 28.9052C136.786 28.4161 134.011 28.3535 132.062 28.7566C131.839 28.803 131.62 28.6699 131.571 28.4618C131.522 28.2537 131.662 28.0463 131.885 28.0006C133.981 27.5673 136.859 27.6316 138.882 28.1593C139.101 28.2165 139.23 28.4301 139.169 28.6359C139.119 28.8069 138.954 28.9191 138.773 28.9191Z" fill="#67453F"/>
<path d="M125.226 32.6973C125.107 32.6973 124.998 32.6284 124.955 32.5186C124.537 31.4345 123.224 30.6484 121.845 30.6678C120.61 30.6778 119.333 31.2318 118.252 32.23C118.137 32.3344 117.955 32.3321 117.844 32.2261C117.733 32.1193 117.735 31.9483 117.848 31.8431C119.037 30.7467 120.455 30.137 121.841 30.1262C123.477 30.1401 124.993 31.0214 125.498 32.3344C125.551 32.4753 125.475 32.6308 125.325 32.6811C125.292 32.6927 125.258 32.6973 125.226 32.6973Z" fill="#1A1A1A"/>
<path d="M138.494 32.2849C138.404 32.2849 138.314 32.2446 138.259 32.1696C137.568 31.2442 136.392 30.6631 135.188 30.6523C135.177 30.6523 135.166 30.6523 135.154 30.6523C133.964 30.6523 132.791 31.2109 132.088 32.1162C131.993 32.2385 131.814 32.2632 131.685 32.1758C131.557 32.0876 131.529 31.9181 131.622 31.7974C132.438 30.7451 133.776 30.1138 135.193 30.1114C136.58 30.1238 137.935 30.7939 138.73 31.8601C138.821 31.9824 138.79 32.151 138.66 32.2369C138.609 32.2694 138.552 32.2849 138.494 32.2849Z" fill="#1A1A1A"/>
<path d="M120.666 30.5123C118.6 30.8814 119.259 35.749 121.471 33.933C122.514 33.078 122.581 30.1703 120.666 30.5123Z" fill="#1A1A1A"/>
<path d="M134.258 30.3708C132.796 30.8582 132.518 34.8167 134.447 34.4747C136.115 34.1792 136.669 29.5661 134.258 30.3708Z" fill="#1A1A1A"/>
<path d="M128.223 40.0257C121.022 39.9305 121.083 46.2342 128.475 41.6521C135.491 46.83 135.749 39.8338 128.223 40.0257Z" fill="#67453F"/>
</svg>
