<svg width="238" height="331" viewBox="0 0 238 331" fill="none" xmlns="http://www.w3.org/2000/svg">
<g clip-path="url(#clip0_1_1907)">
<path d="M28.353 101.483C22.0986 120.835 22.3674 141.745 36.853 156.636C38.5985 158.718 41.3869 156.903 43.539 157.28C45.7351 157.548 47.1937 160.355 49.4218 160.31C56.2981 156.723 48.468 146.646 42.6803 151.795C33.3657 137.672 32.7263 123.548 39.0119 107.977L28.353 101.483Z" fill="#FFD8CA"/>
<path d="M117.273 178.273C120.229 166.826 111.209 162.081 111.169 161.916C106.32 141.422 99.3067 121.505 97.0215 100.391C96.9819 100.023 96.5784 99.8773 96.3569 100.152C93.5099 103.679 89.2896 107.688 89.282 107.781C87.5067 128.002 97.0831 148.751 107.489 164.177C107.555 164.274 107.505 171.821 109.965 175.101C110.159 175.36 110.514 175.3 110.634 174.99C111.079 173.833 109.99 171.855 109.8 170.613C109.529 168.835 110.315 169.232 110.814 169.406C114.703 170.754 112.522 180.548 117.033 178.57C117.146 178.518 117.238 178.404 117.273 178.273Z" fill="#FFD8CA"/>
<path d="M226.051 157.219C226.147 157.824 224.416 162.397 224.512 163.313C224.519 163.385 224.505 163.462 224.472 163.524C222.606 167.08 224.585 171.585 225.779 175.255C225.867 175.525 226.197 175.559 226.329 175.312C227.725 172.699 225.572 171.41 226.364 169.818C226.41 169.727 226.501 169.662 226.594 169.647C230.573 169.008 229.859 176.379 232.566 178.377C232.766 178.525 233.032 178.363 233.044 178.093C233.076 177.357 231.879 173.665 232.401 173.442C233.395 173.739 233.943 177.009 234.198 177.907C234.505 179.16 235.728 178.579 235.648 177.853C235.904 177.956 236.326 177.417 236.383 177.069C236.589 175.816 236.276 172.492 235.237 169.773C235.976 170.477 236.38 172.089 236.723 173.106C236.831 173.425 237.255 173.37 237.307 173.035C238.021 168.539 233.628 163.967 230.617 162.342C230.534 162.297 230.478 162.222 230.458 162.121C230.346 161.564 231.186 159.903 231.15 158.829L226.051 157.219Z" fill="#FFD8CA"/>
<path d="M114.613 161.692C105.322 165.953 105.507 186.953 115.116 170.033C115.105 169.657 115.488 169.369 115.816 169.446C117.257 170.183 116.036 172.47 115.418 173.487C114.394 174.494 115.418 175.814 116.455 174.911C118.21 173.666 120.141 164.659 118.893 162.78L114.613 161.692Z" fill="#FFD8CA"/>
<path d="M112.884 172.981C112.765 172.981 112.657 172.89 112.626 172.753C112.394 171.705 112.011 170.713 111.488 169.805C111.111 169.15 110.757 168.816 110.373 168.753C110.024 168.696 109.625 168.883 109.31 169.255C109.002 169.617 108.799 170.098 108.602 170.562C108.538 170.711 108.379 170.776 108.247 170.703C108.114 170.632 108.057 170.453 108.121 170.305C108.326 169.821 108.558 169.273 108.924 168.841C109.358 168.329 109.931 168.075 110.45 168.161C111.168 168.277 111.642 168.97 111.936 169.479C112.491 170.442 112.897 171.495 113.144 172.608C113.179 172.769 113.092 172.93 112.95 172.97C112.928 172.978 112.906 172.981 112.884 172.981Z" fill="#642213"/>
<path d="M116.277 174.847C116.076 174.847 115.891 174.768 115.748 174.618C115.394 174.251 115.457 173.678 115.535 173.279C115.611 172.895 115.702 172.515 115.792 172.135C115.975 171.372 116.147 170.652 116.2 169.901C116.377 167.412 115.033 164.869 113.003 163.853C112.869 163.785 112.808 163.608 112.869 163.458C112.929 163.306 113.086 163.24 113.22 163.306C115.449 164.422 116.926 167.216 116.732 169.949C116.674 170.754 116.487 171.535 116.306 172.29C116.217 172.662 116.128 173.034 116.054 173.409C115.976 173.808 115.994 174.061 116.109 174.18C116.129 174.2 116.188 174.265 116.321 174.245C116.503 174.221 116.722 174.053 116.841 173.848C116.931 173.695 116.999 173.526 117.068 173.358C117.192 173.054 117.321 172.74 117.554 172.485C117.659 172.37 117.828 172.373 117.931 172.491C118.034 172.609 118.031 172.798 117.926 172.914C117.764 173.092 117.661 173.342 117.552 173.608C117.472 173.802 117.391 173.997 117.288 174.175C117.08 174.531 116.727 174.792 116.386 174.839C116.35 174.843 116.314 174.847 116.277 174.847Z" fill="#642213"/>
<path d="M115.549 178.891H115.548C115.401 178.89 115.282 178.755 115.283 178.589C115.305 175.251 114.676 171.876 113.463 168.828C113.403 168.677 113.463 168.5 113.598 168.433C113.731 168.363 113.89 168.433 113.95 168.584C115.193 171.71 115.838 175.172 115.816 178.594C115.815 178.758 115.695 178.891 115.549 178.891Z" fill="#642213"/>
<path d="M116.84 178.562C116.824 178.562 116.806 178.56 116.789 178.557C116.645 178.525 116.551 178.368 116.578 178.205C116.783 177.024 116.794 175.823 116.61 174.637C116.585 174.475 116.682 174.319 116.827 174.291C116.973 174.262 117.111 174.371 117.136 174.535C117.331 175.793 117.32 177.067 117.103 178.32C117.076 178.463 116.965 178.562 116.84 178.562Z" fill="#642213"/>
<path d="M110.559 175.758C110.537 175.758 110.514 175.754 110.492 175.748C110.349 175.706 110.264 175.543 110.301 175.383C110.671 173.78 111.251 172.253 112.022 170.843C112.1 170.702 112.262 170.658 112.389 170.744C112.515 170.832 112.554 171.015 112.477 171.156C111.732 172.515 111.174 173.988 110.817 175.533C110.785 175.669 110.677 175.758 110.559 175.758Z" fill="#642213"/>
<path d="M109.151 176.413C109.146 176.413 109.142 176.413 109.138 176.413C108.991 176.406 108.877 176.266 108.884 176.1C108.987 173.67 109.613 171.272 110.694 169.165C110.767 169.022 110.931 168.972 111.058 169.055C111.185 169.138 111.229 169.321 111.155 169.464C110.116 171.488 109.515 173.793 109.416 176.129C109.41 176.289 109.292 176.413 109.151 176.413Z" fill="#642213"/>
<path d="M108.088 174.712C108.082 174.712 108.076 174.712 108.072 174.711C107.925 174.701 107.813 174.559 107.822 174.394C107.929 172.406 108.427 170.427 109.263 168.671C109.332 168.526 109.493 168.469 109.624 168.548C109.753 168.626 109.803 168.807 109.733 168.953C108.934 170.634 108.457 172.528 108.354 174.43C108.344 174.589 108.227 174.712 108.088 174.712Z" fill="#642213"/>
<path d="M49.0386 160.066C48.9404 160.066 48.846 160.004 48.7996 159.898C47.9348 157.924 46.289 156.405 44.3966 155.834C44.255 155.792 44.1705 155.627 44.2085 155.467C44.2466 155.308 44.392 155.213 44.5351 155.256C46.5729 155.87 48.3459 157.506 49.2776 159.634C49.3423 159.782 49.2883 159.962 49.1558 160.034C49.1178 160.056 49.0782 160.066 49.0386 160.066Z" fill="#642213"/>
<path d="M50.6017 159.654C50.4959 159.654 50.3954 159.583 50.3543 159.465C49.4949 157.032 47.6755 155.042 45.4877 154.143C45.3491 154.086 45.2784 153.914 45.3294 153.759C45.3796 153.603 45.5341 153.524 45.6711 153.581C47.9998 154.538 49.9364 156.655 50.8499 159.244C50.9039 159.398 50.8369 159.572 50.7007 159.632C50.6672 159.647 50.6337 159.654 50.6017 159.654Z" fill="#642213"/>
<path d="M51.5025 158.49C51.3838 158.49 51.2757 158.4 51.2452 158.265C50.6926 155.848 49.1754 153.742 47.1863 152.633C47.0546 152.56 47.0006 152.38 47.066 152.232C47.1315 152.084 47.2906 152.024 47.4231 152.097C49.5492 153.282 51.1706 155.533 51.7606 158.116C51.7971 158.276 51.7119 158.439 51.5688 158.48C51.5467 158.486 51.5246 158.49 51.5025 158.49Z" fill="#642213"/>
<path d="M232.255 173.422C232.138 173.422 232.031 173.335 231.999 173.202C231.818 172.465 231.438 171.404 230.1 169.735C230.001 169.612 230.01 169.423 230.119 169.312C230.229 169.202 230.397 169.211 230.496 169.334C231.908 171.097 232.316 172.242 232.513 173.042C232.552 173.201 232.469 173.366 232.327 173.411C232.303 173.419 232.279 173.422 232.255 173.422Z" fill="#642213"/>
<path d="M235.578 177.871C235.445 177.871 235.331 177.76 235.314 177.608C234.918 174.027 233.765 171.096 231.685 168.384C231.589 168.258 231.601 168.069 231.713 167.961C231.823 167.853 231.992 167.868 232.089 167.993C234.241 170.798 235.433 173.83 235.843 177.535C235.861 177.699 235.758 177.849 235.611 177.868C235.599 177.87 235.589 177.871 235.578 177.871Z" fill="#642213"/>
<path d="M235.221 170.09C235.127 170.09 235.036 170.034 234.988 169.934C234.981 169.921 234.312 168.567 233.281 167.535C233.171 167.425 233.161 167.235 233.26 167.112C233.358 166.989 233.526 166.979 233.636 167.088C234.737 168.191 235.426 169.587 235.454 169.646C235.525 169.791 235.478 169.973 235.349 170.052C235.309 170.078 235.265 170.09 235.221 170.09Z" fill="#642213"/>
<path d="M63.0546 124.109C51.2706 127.182 47.8564 131.468 47.8564 131.468C35.3074 146.874 38.3714 165.501 35.4003 184.197C33.0092 199.243 17.1206 207.999 14.4205 222.979C12.6727 232.676 16.281 243.261 12.8318 252.365C9.64218 260.783 -4.50546 269.657 2.57407 279.619C16.6387 287.668 32.1056 276.669 46.2297 275.901C65.6222 285.844 71.5554 253.854 76.9739 238.902C72.3653 253.253 87.7911 263.287 90.581 275.965C90.9335 277.561 91.2768 279.46 92.6158 280.123C104.609 277.773 96.1693 239.786 97.624 228.733C103.554 183.657 93.5514 187.414 91.6924 149.874C90.9045 133.97 85.4427 125.837 85.4427 125.837C85.4427 125.837 74.8378 121.036 63.0546 124.109Z" fill="#838198"/>
<path d="M45.3968 155.936C43.2197 156.39 41.003 156.523 38.8075 156.202C32.3553 155.261 27.2238 163.34 25.3374 170.232C23.1062 178.383 27.1849 186.175 35.2107 185.825C45.7089 185.365 59.6884 152.952 45.3968 155.936Z" fill="#C3764E"/>
<path d="M50.4515 63.2287C38.4718 66.8001 32.5821 82.1761 24.5115 91.781C18.0128 99.0718 33.8382 107.083 40.4511 108.566C40.9817 108.684 41.4864 108.246 41.5008 107.638C41.548 105.689 42.7531 103.776 44.4369 103.225C36.1402 159.143 50.536 114.137 91.0986 129.702C91.7023 122.043 91.6429 114.319 90.8497 106.437C94.6407 102.806 98.0701 98.6981 101.585 94.5006C96.9343 84.6801 92.5359 62.5368 80.9612 61.992L50.4515 63.2287Z" fill="#F5AEA5"/>
<path d="M45.6255 158.587C45.4839 158.587 45.3484 158.498 45.2822 158.345C45.1909 158.132 45.27 157.878 45.4596 157.774C64.1214 147.646 73.1192 124.958 80.0625 101.95C84.0415 89.4266 87.8165 75.0256 82.2153 62.5299C82.1209 62.3187 82.1963 62.0621 82.3843 61.9552C82.5716 61.8492 82.8007 61.9339 82.8958 62.1451C88.6318 74.9426 84.8126 89.5472 80.7819 102.231C73.7876 125.409 64.706 148.279 45.7915 158.544C45.7374 158.574 45.6811 158.587 45.6255 158.587Z" fill="#C3764E"/>
<path d="M76.3655 235.548C76.2681 235.548 76.1752 235.489 76.128 235.385C76.061 235.238 76.1128 235.058 76.2437 234.983C83.3034 230.917 83.901 221.916 84.4286 213.975C84.4308 213.939 84.4392 213.901 84.4529 213.868C85.3154 211.781 86.2251 209.719 87.1043 207.726C91.8788 196.9 96.3892 186.674 93.0922 173.473C93.0526 173.314 93.1349 173.149 93.2765 173.104C93.4196 173.059 93.565 173.153 93.6053 173.311C96.9578 186.734 92.4033 197.06 87.5816 207.991C86.7108 209.966 85.8102 212.007 84.9569 214.071C84.4194 222.159 83.7967 231.306 76.4873 235.515C76.4477 235.537 76.4066 235.548 76.3655 235.548Z" fill="white"/>
<path d="M52.7401 139.67C52.6997 139.67 52.6586 139.66 52.6198 139.637C52.4889 139.562 52.4363 139.383 52.5033 139.235L55.7302 132.111C55.7972 131.963 55.9563 131.904 56.0888 131.98C56.2197 132.055 56.2722 132.235 56.2052 132.383L52.9783 139.507C52.9304 139.611 52.8375 139.67 52.7401 139.67Z" fill="white"/>
<path d="M60.9402 185.411C60.9258 185.411 60.9113 185.41 60.8968 185.407C60.7514 185.381 60.6532 185.227 60.6768 185.064C63.3008 166.98 66.887 148.873 71.335 131.243C71.3753 131.085 71.5207 130.994 71.6638 131.037C71.8054 131.083 71.8876 131.249 71.848 131.408C67.4047 149.015 63.823 167.1 61.2021 185.161C61.1808 185.307 61.0681 185.411 60.9402 185.411Z" fill="white"/>
<path d="M83.8218 144.653C83.6833 144.653 83.5668 144.533 83.5561 144.375L82.7881 132.419C82.7774 132.253 82.8878 132.111 83.0347 132.098C83.1816 132.089 83.3095 132.209 83.3194 132.375L84.0875 144.332C84.0981 144.497 83.9878 144.64 83.8409 144.652C83.8348 144.652 83.8287 144.653 83.8218 144.653Z" fill="white"/>
<path d="M16.3424 251.726C16.2944 251.726 16.245 251.711 16.2008 251.68C16.0767 251.592 16.0387 251.407 16.1171 251.267C20.211 243.952 23.9434 236.278 27.2106 228.456C27.2738 228.307 27.4321 228.244 27.5653 228.313C27.6986 228.383 27.7557 228.561 27.6932 228.711C24.4169 236.554 20.6738 244.25 16.5685 251.586C16.5175 251.676 16.4307 251.726 16.3424 251.726Z" fill="white"/>
<path d="M31.5516 274.825C31.4382 274.825 31.3324 274.742 31.2966 274.614C31.2532 274.455 31.3316 274.289 31.4732 274.239C43.3029 270.137 50.5286 257.499 56.3726 245.975C56.4449 245.831 56.6071 245.781 56.7365 245.863C56.8644 245.945 56.9093 246.128 56.8362 246.272C50.9419 257.896 43.647 270.645 31.6308 274.812C31.6034 274.82 31.5775 274.825 31.5516 274.825Z" fill="white"/>
<path d="M97.7606 262.683C97.6304 262.683 97.517 262.575 97.4972 262.427L93.3005 230.191C93.2792 230.027 93.3797 229.875 93.5258 229.851C93.6667 229.827 93.8067 229.94 93.8281 230.104L98.0248 262.34C98.0461 262.504 97.9456 262.656 97.8002 262.68C97.7865 262.682 97.7736 262.683 97.7606 262.683Z" fill="white"/>
<path d="M44.3218 103.546C44.3051 103.546 44.2884 103.545 44.2716 103.541C44.127 103.51 44.0326 103.353 44.06 103.191C44.9857 97.7659 43.5644 91.8007 40.3497 87.6212C40.253 87.4964 40.266 87.3074 40.3771 87.1988C40.4882 87.091 40.6572 87.103 40.7531 87.2295C44.0722 91.5441 45.5406 97.7034 44.5845 103.303C44.5594 103.446 44.4474 103.546 44.3218 103.546Z" fill="#540F2F"/>
<path d="M44.578 103.453C44.4669 103.453 44.3626 103.374 44.3253 103.248L41.5536 93.8934C41.5072 93.7369 41.5825 93.5675 41.7226 93.5154C41.8619 93.4632 42.0126 93.5479 42.0591 93.7052L44.8308 103.06C44.8772 103.216 44.8018 103.385 44.6618 103.438C44.6344 103.448 44.6062 103.453 44.578 103.453Z" fill="#540F2F"/>
<path d="M88.6867 109.967C88.6745 109.967 88.6623 109.966 88.6494 109.965C88.504 109.942 88.402 109.79 88.4225 109.627C89.0749 104.373 89.8148 98.4184 88.4195 92.9681C88.2802 92.4233 88.1188 91.8802 87.9582 91.3372C87.4778 89.714 86.98 88.0352 87.0546 86.2871C87.0614 86.122 87.2038 85.9861 87.3332 86.0023C87.4801 86.01 87.5935 86.1503 87.5867 86.3153C87.5166 87.9522 87.9978 89.5771 88.4629 91.1482C88.6258 91.6989 88.7894 92.2497 88.931 92.803C90.3576 98.3748 89.6101 104.397 88.9501 109.71C88.9318 109.859 88.8176 109.967 88.6867 109.967Z" fill="#540F2F"/>
<path d="M89.4258 94.8761C89.4227 94.8761 89.4189 94.8761 89.4159 94.8752C89.2689 94.8692 89.154 94.7307 89.1601 94.5648C89.2781 91.0344 89.7683 87.5203 90.6171 84.1183C90.6567 83.9592 90.8044 83.8651 90.9452 83.9104C91.0875 83.9549 91.1698 84.12 91.1302 84.279C90.2928 87.6358 89.8094 91.1037 89.693 94.587C89.6869 94.7495 89.5681 94.8761 89.4258 94.8761Z" fill="#540F2F"/>
<path d="M62.2665 115.18C62.255 115.18 62.2444 115.179 62.233 115.177C62.0876 115.157 61.9833 115.007 62.0023 114.843C62.6448 109.117 65.1584 103.563 68.8991 99.6063C69.0057 99.4925 69.1747 99.4985 69.276 99.6191C69.3764 99.7397 69.3719 99.9287 69.2645 100.042C65.6136 103.905 63.1594 109.328 62.5314 114.918C62.5131 115.069 62.3989 115.18 62.2665 115.18Z" fill="#540F2F"/>
<path d="M64.0356 116.3C63.9884 116.3 63.9404 116.286 63.897 116.257C63.7714 116.17 63.7319 115.986 63.808 115.845C67.465 109.106 73.8054 104.454 80.7684 103.401C80.9169 103.377 81.0485 103.493 81.0683 103.658C81.0881 103.822 80.9861 103.972 80.84 103.994C74.0345 105.022 67.8372 109.57 64.2632 116.157C64.2137 116.249 64.1262 116.3 64.0356 116.3Z" fill="#540F2F"/>
<path d="M32.5644 172.887C32.1191 172.887 31.6845 172.837 31.2635 172.735C29.0224 172.193 26.8704 169.722 27.2365 166.909C27.2571 166.745 27.3934 166.63 27.5387 166.656C27.6841 166.68 27.7854 166.833 27.7633 166.996C27.4398 169.478 29.3695 171.665 31.3754 172.15C33.277 172.611 35.5295 171.913 37.5506 170.236C38.9832 169.047 40.2027 167.511 41.3819 166.026C41.6948 165.632 42.0076 165.238 42.3251 164.85C43.776 163.072 45.5626 161.125 47.8052 160.161C47.9415 160.1 48.0968 160.179 48.1493 160.334C48.2018 160.489 48.1333 160.661 47.9956 160.72C45.8557 161.64 44.1269 163.529 42.7171 165.256C42.402 165.641 42.0906 166.034 41.7793 166.426C40.5818 167.933 39.3441 169.492 37.8672 170.719C36.1628 172.132 34.2909 172.887 32.5644 172.887Z" fill="#540F2F"/>
<path d="M42.4176 274.524C41.1974 282.623 39.9771 291.714 38.7789 300.36C38.4645 302.625 37.449 304.668 35.9661 306.242C34.6522 307.637 33.9839 309.853 34.5282 311.81C34.956 313.349 35.9654 314.58 36.9458 315.757C40.0624 319.497 43.1789 323.238 46.2954 326.978C47.4022 328.306 48.5624 329.678 50.2341 330.04C51.028 330.213 51.8821 330.064 52.5345 329.526C54.1818 328.166 53.6482 325.567 52.7728 323.672C50.3414 318.41 45.8957 314.084 45.2753 308.196C44.9556 305.16 45.7267 302.125 46.5283 299.204C48.5228 291.938 50.7593 284.758 53.2333 277.681L42.4176 274.524Z" fill="#FFD8CA"/>
<mask id="mask0_1_1907" style="mask-type:luminance" maskUnits="userSpaceOnUse" x="34" y="274" width="20" height="57">
<path d="M42.4176 274.524C41.1974 282.623 39.9771 291.714 38.7789 300.36C38.4645 302.625 37.449 304.668 35.9661 306.242C34.6522 307.637 33.9839 309.853 34.5282 311.81C34.956 313.349 35.9654 314.58 36.9458 315.757C40.0624 319.497 43.1789 323.238 46.2954 326.978C47.4022 328.306 48.5624 329.678 50.2341 330.04C51.028 330.213 51.8821 330.064 52.5345 329.526C54.1818 328.166 53.6482 325.567 52.7728 323.672C50.3414 318.41 45.8957 314.084 45.2753 308.196C44.9556 305.16 45.7267 302.125 46.5283 299.204C48.5228 291.938 50.7593 284.758 53.2333 277.681L42.4176 274.524Z" fill="white"/>
</mask>
<g mask="url(#mask0_1_1907)">
<path d="M37.3204 302.835C39.4329 310.329 43.389 317.156 48.634 322.359C48.7185 320.095 48.803 317.83 48.8875 315.566C69.7089 350.529 37.6333 331.255 33.1922 311.786C31.9727 308.005 31.688 301.646 37.3204 302.835Z" fill="#DD9289"/>
</g>
<path d="M72.5795 250.773C69.8565 268.008 70.0286 272.773 72.7668 302.368C73.1641 306.664 68.535 311.344 71.4902 314.663C73.4123 316.823 76.8813 315.467 85.4148 319.596C87.2303 320.475 92.6169 321.995 92.9495 319.888C93.7404 314.881 86.4638 314.391 82.9369 310.429C76.5182 303.217 80.893 296.823 83.5604 259.993C81.0087 252.589 78.9633 244.965 77.4484 237.21C74.829 241.434 73.3126 246.132 72.5795 250.773Z" fill="#FFD8CA"/>
<mask id="mask1_1_1907" style="mask-type:luminance" maskUnits="userSpaceOnUse" x="70" y="237" width="24" height="84">
<path d="M72.5795 250.773C69.8565 268.008 70.0286 272.773 72.7668 302.368C73.1641 306.664 68.535 311.344 71.4902 314.663C73.4123 316.823 76.8813 315.467 85.4148 319.596C87.2303 320.475 92.6169 321.995 92.9495 319.888C93.7404 314.881 86.4638 314.391 82.9369 310.429C76.5182 303.217 80.893 296.823 83.5604 259.993C81.0087 252.589 78.9633 244.965 77.4484 237.21C74.829 241.434 73.3126 246.132 72.5795 250.773Z" fill="white"/>
</mask>
<g mask="url(#mask1_1_1907)">
<path d="M71.178 307.547C76.1367 312.742 82.5585 316.148 89.2803 317.149C88.1011 315.821 87.247 314.132 86.8359 312.313C99.9879 319.001 97.5032 325.744 83.6022 323.93C76.0073 324.415 63.0152 317.527 71.178 307.547Z" fill="#DD9289"/>
</g>
<path d="M66.2635 11.7871C54.6599 11.8778 55.1555 20.5471 50.8514 29.6475C48.4756 34.672 43.7353 34.2101 43.2558 40.9732C42.8645 46.4997 47.5659 50.4482 53.3551 50.3627C65.1018 50.1882 61.2872 51.0144 73.9314 50.5756C78.9236 50.402 83.5931 48.4453 85.7238 42.1132C87.821 35.8795 83.6357 30.4215 82.2556 24.6753C80.0921 15.6587 75.4844 11.7144 66.2635 11.7871Z" fill="#C89362"/>
<path d="M62.8802 19.7972C62.7348 22.084 62.852 21.9737 62.2811 24.0219C57.0262 30.679 61.9933 38.5385 60.4952 46.0858C61.9789 60.0635 54.9617 62.3854 50.0731 64.1361C60.4305 69.2152 73.6327 67.8109 83.8181 62.4778C78.545 61.5832 74.2622 59.381 72.8075 55.5069C71.8727 53.0173 72.7002 50.1284 72.7002 50.1284C72.7002 50.1284 77.1146 47.5285 78.5708 41.713C79.3359 38.6607 79.8223 33.8578 79.3831 28.2125C79.141 25.1004 76.8976 22.645 74.1237 22.4235C70.762 22.155 63.8858 22.9786 63.8858 22.9786C63.8858 22.9786 64.0578 21.8411 62.8802 19.7972Z" fill="#FFD8CA"/>
<path d="M69.9143 50.9896C66.4987 50.9896 63.2801 48.5881 61.2758 46.0883C61.1776 45.9652 61.186 45.7762 61.2956 45.665C61.4052 45.5547 61.5734 45.5641 61.6724 45.6872C64.1282 48.7515 68.4733 51.6703 72.6358 49.8068C72.7728 49.7452 72.9273 49.8205 72.9821 49.9744C73.0362 50.1284 72.97 50.302 72.8329 50.3636C71.8601 50.798 70.8788 50.9896 69.9143 50.9896Z" fill="#895554"/>
<path d="M72.1815 39.4527C72.0856 39.4527 71.9935 39.3945 71.9455 39.2936C71.8763 39.1474 71.9265 38.9661 72.0559 38.8891C72.5591 38.5898 73.0151 38.2084 73.4132 37.7542C72.2363 35.1039 71.2353 32.3253 72.4632 29.8648C72.5347 29.7212 72.6969 29.6707 72.8263 29.7502C72.9542 29.8306 73.0006 30.0136 72.9283 30.1582C71.7986 32.4211 72.8255 35.1116 73.9735 37.6738L74.0565 37.8586L73.9316 38.0108C73.4634 38.5812 72.9169 39.0542 72.3064 39.4176C72.266 39.4416 72.2234 39.4527 72.1815 39.4527Z" fill="#895554"/>
<path d="M70.4315 39.031C70.3288 39.031 70.2298 38.9635 70.1872 38.8497C70.1286 38.6984 70.191 38.5222 70.3265 38.4572L70.9256 38.1681C71.0619 38.1031 71.2171 38.1741 71.2758 38.3255C71.3336 38.4777 71.2712 38.653 71.1357 38.718L70.5374 39.0062C70.5023 39.0225 70.4666 39.031 70.4315 39.031Z" fill="#895554"/>
<path d="M71.0531 43.3884C70.017 43.3884 68.9802 43.025 68.1421 42.2997C68.0256 42.1988 68.0035 42.0107 68.0934 41.8798C68.1832 41.749 68.3507 41.7242 68.4671 41.8251C69.9295 43.09 72.0701 43.1165 73.5583 41.8892C73.6755 41.79 73.843 41.82 73.9305 41.9534C74.0173 42.0868 73.9914 42.2732 73.8734 42.3716C73.0513 43.0498 72.0518 43.3884 71.0531 43.3884Z" fill="#895554"/>
<path d="M73.4013 31.9421C73.3259 31.9421 73.2505 31.9053 73.1972 31.8361C73.1029 31.7095 73.1166 31.5205 73.2292 31.4136C73.7027 30.9646 74.193 30.4994 74.7669 30.1624C75.2336 29.8896 75.9476 29.5962 76.718 29.7545C77.467 29.9084 78.0776 30.4848 78.2724 31.2229C78.3143 31.3819 78.2336 31.5479 78.0928 31.5949C77.9504 31.6411 77.8027 31.5513 77.7616 31.3931C77.6254 30.8765 77.1679 30.4549 76.6221 30.3428C76.0047 30.2163 75.4056 30.4626 75.0136 30.6926C74.4921 30.9988 74.0247 31.4418 73.5733 31.8711C73.5231 31.919 73.4622 31.9421 73.4013 31.9421Z" fill="black"/>
<path d="M63.3618 32.2055C63.2842 32.2055 63.2065 32.167 63.154 32.0935C63.0619 31.9643 63.0802 31.7762 63.1951 31.6727C63.7326 31.1878 64.2898 30.6866 64.9361 30.3368C65.4613 30.0529 66.2629 29.7638 67.1056 29.9896C67.9163 30.2077 68.5596 30.9098 68.7058 31.736C68.7347 31.8985 68.641 32.0558 68.4964 32.0883C68.3548 32.1182 68.2117 32.0156 68.1828 31.8531C68.0777 31.2613 67.5837 30.7345 66.9815 30.572C66.2926 30.3864 65.6144 30.6353 65.1675 30.8765C64.5753 31.1963 64.0432 31.6761 63.5286 32.1396C63.4791 32.1833 63.4205 32.2055 63.3618 32.2055Z" fill="black"/>
<path d="M69.7 28.2014C69.6346 28.2014 69.5691 28.1741 69.5173 28.1202C67.5663 26.0548 64.3203 25.9642 62.281 27.9184C62.1698 28.0261 62.0008 28.0107 61.9057 27.885C61.8098 27.7593 61.8235 27.5703 61.9354 27.4634C64.1757 25.3185 67.7406 25.4168 69.8835 27.6849C69.9908 27.7986 69.9954 27.9876 69.8949 28.1082C69.8416 28.1698 69.7708 28.2014 69.7 28.2014Z" fill="#90663E"/>
<path d="M79.1482 28.7641C79.0629 28.7641 78.9799 28.7188 78.9282 28.6341C78.4592 27.8662 77.835 27.3966 77.0723 27.2393C76.0568 27.0298 74.8548 27.3924 73.7731 28.2348C73.6528 28.3297 73.4861 28.2955 73.4023 28.1595C73.3186 28.0235 73.3483 27.8371 73.4693 27.743C74.6668 26.8108 76.0164 26.4149 77.1682 26.6509C78.0619 26.8356 78.8224 27.4043 79.3666 28.2963C79.4496 28.4323 79.4192 28.6187 79.2974 28.712C79.2525 28.747 79.1999 28.7641 79.1482 28.7641Z" fill="#90663E"/>
<path d="M66.8689 30.5079C65.6395 31.3845 66.2714 35.6504 67.9628 33.7005C68.6069 32.6639 68.3945 30.0196 66.8689 30.5079Z" fill="black"/>
<path d="M76.529 30.0991C75.3263 31.0202 76.0829 35.2612 77.7158 33.2497C78.3294 32.1901 78.0401 29.556 76.529 30.0991Z" fill="black"/>
<path d="M83.5999 48.6616C83.5063 48.6616 83.4149 48.6061 83.3662 48.5077C83.2946 48.3632 83.3411 48.181 83.4697 48.1006C85.5555 46.7998 86.9136 43.9143 86.9296 40.75C86.9425 38.216 86.2193 35.5451 84.655 32.3449C84.5842 32.2004 84.6314 32.0182 84.76 31.9387C84.8879 31.8591 85.0516 31.9113 85.1216 32.0567C86.7324 35.3501 87.4761 38.1134 87.4624 40.7534C87.4449 44.1307 85.9788 47.2206 83.7278 48.624C83.6874 48.6497 83.6433 48.6616 83.5999 48.6616Z" fill="#C89362"/>
<path d="M42.1169 44.0306C42.0202 44.0306 41.9265 43.9716 41.8793 43.869C39.3901 38.4563 42.7692 35.6281 46.3471 32.6331C49.1347 30.3 52.2931 27.6557 53.3634 23.4027C53.403 23.2436 53.5499 23.1504 53.6923 23.1957C53.8339 23.2411 53.9161 23.4061 53.8765 23.5652C52.7567 28.014 49.5207 30.7225 46.666 33.1129C42.9824 36.1968 40.0722 38.6325 42.3536 43.5936C42.4214 43.7407 42.3696 43.9211 42.2394 43.9973C42.1991 44.0203 42.1572 44.0306 42.1169 44.0306Z" fill="#C89362"/>
<path d="M160.993 330.611C156.255 328.474 153.094 322.226 148.321 320.203C132.918 313.676 146.341 308.682 145.823 297.916C148.739 298.615 151.655 299.315 154.836 299.757C148.842 313.312 160.314 320.163 164.248 325.765C166.035 328.309 163.671 331.818 160.993 330.611Z" fill="#FFD8CA"/>
<mask id="mask2_1_1907" style="mask-type:luminance" maskUnits="userSpaceOnUse" x="140" y="297" width="25" height="34">
<path d="M160.993 330.611C156.255 328.474 153.094 322.226 148.321 320.203C132.918 313.676 146.341 308.682 145.823 297.916C148.739 298.615 151.655 299.315 154.836 299.757C148.842 313.312 160.314 320.163 164.248 325.765C166.035 328.309 163.671 331.818 160.993 330.611Z" fill="white"/>
</mask>
<g mask="url(#mask2_1_1907)">
<path d="M143.813 304.947C145.978 306.968 147.927 309.28 149.605 311.818C149.731 306.546 155.561 309.055 156.988 312.451C159.911 318.089 166.559 323.053 166.517 329.874C161.225 340.931 147.595 324.894 142.478 319.998C138.285 315.23 134.627 308.656 143.813 304.947Z" fill="#3B021C"/>
</g>
<path d="M204.713 327.802C199.613 327.544 194.791 322.82 189.693 322.683C173.235 322.239 187.231 309.85 183.576 299.882C186.534 299.459 189.371 300.183 192.625 300.966C188.593 314.908 201.001 318.193 206.361 322.02C208.795 323.759 207.595 327.948 204.713 327.802Z" fill="#FFD8CA"/>
<mask id="mask3_1_1907" style="mask-type:luminance" maskUnits="userSpaceOnUse" x="181" y="299" width="27" height="29">
<path d="M204.713 327.802C199.613 327.544 194.791 322.82 189.693 322.683C173.235 322.239 187.231 309.85 183.576 299.882C186.534 299.459 189.371 300.183 192.625 300.966C188.593 314.908 201.001 318.193 206.361 322.02C208.795 323.759 207.595 327.948 204.713 327.802Z" fill="white"/>
</mask>
<g mask="url(#mask3_1_1907)">
<path d="M181.737 310.502C185.304 311.459 188.703 313.198 191.687 315.594C190.501 313.766 192.178 311.003 194.172 310.696C198.881 310.592 202.446 315.715 205.699 319.007C216.072 331.694 200.155 334.641 191.721 329.956C183.832 326.984 174.404 323.438 181.737 310.502Z" fill="#3B021C"/>
</g>
<path d="M147.289 163.349C146.483 186.089 147.863 206.42 151.675 231.61C152.307 235.785 152.764 240.186 151.214 244.046C144.807 259.999 142.566 277.723 134.708 292.673C141.914 302.825 151.634 298.806 161.847 304.114C170.056 293.865 169.37 277.489 176.611 266.726C176.743 278.355 175.995 289.995 174.991 301.634C178.915 304.251 183.488 300.937 187.644 301.204C191.762 301.288 196.514 306.061 200.406 303.524C207.132 255.254 208.919 205.024 204.201 156.184L147.289 163.349Z" fill="#695C48"/>
<path d="M171.712 51.3162C158.156 54.6549 146.492 66.2372 142.364 80.9829C141.759 83.1423 140.685 85.0991 139.281 86.7231C130.929 96.3743 128.121 110.111 126.136 123.304C125.494 127.576 123.997 131.642 121.66 135.089C116.663 142.465 113.16 151.081 111.87 160.281C123.13 167.143 126.733 164.726 131.968 151.976C136.166 144.599 145.316 139.297 146.719 130.332C150.954 143.292 129.71 165.08 159.158 164.826C168.941 162.646 203.978 168.069 205.072 154.916C211.449 147.184 208.723 134.423 209.054 124.487C214.832 135.52 216.141 148.58 220.645 160.044C224.13 166.793 232.724 165.184 233.681 157.327C234.584 148.859 230.95 140.783 231.447 132.152C231.029 115.586 220.056 95.9253 216.575 81.1061C212.623 64.2856 202.075 52.4938 191.833 51.1255L171.712 51.3162Z" fill="#FFEEDB"/>
<mask id="mask4_1_1907" style="mask-type:luminance" maskUnits="userSpaceOnUse" x="111" y="51" width="123" height="114">
<path d="M171.712 51.3162C158.156 54.6549 146.492 66.2372 142.364 80.9829C141.759 83.1423 140.685 85.0991 139.281 86.7231C130.929 96.3743 128.121 110.111 126.136 123.304C125.494 127.576 123.997 131.642 121.66 135.089C116.663 142.465 113.16 151.081 111.87 160.281C123.13 167.143 126.733 164.726 131.968 151.976C136.166 144.599 145.316 139.297 146.719 130.332C150.954 143.292 129.71 165.08 159.158 164.826C168.941 162.646 203.978 168.069 205.072 154.916C211.449 147.184 208.723 134.423 209.054 124.487C214.832 135.52 216.141 148.58 220.645 160.044C224.13 166.793 232.724 165.184 233.681 157.327C234.584 148.859 230.95 140.783 231.447 132.152C231.029 115.586 220.056 95.9253 216.575 81.1061C212.623 64.2856 202.075 52.4938 191.833 51.1255L171.712 51.3162Z" fill="white"/>
</mask>
<g mask="url(#mask4_1_1907)">
<path d="M239.39 152.577C232.427 151.574 225.353 150.08 218.511 148.637C204.601 145.701 190.218 142.667 175.97 143.573C169.281 144 162.43 145.435 155.805 146.823C141.367 149.848 126.438 152.974 112.08 145.962C108.99 145.159 106.538 142.605 105.899 139.479C105.351 136.8 106.262 134.146 108.4 132.199L108.464 132.152C120.884 124.928 137.408 122.637 158.979 125.147C160.557 125.331 162.174 125.565 163.739 125.791C170.684 126.796 177.867 127.834 184.285 124.935C186.105 124.114 187.876 122.973 189.59 121.869C192.706 119.862 195.928 117.786 199.576 117.539C205.108 117.165 209.864 120.735 214.473 124.187C218.808 127.434 223.29 130.791 228.349 130.791C228.365 130.791 228.382 130.791 228.398 130.791C233.414 130.77 241.302 121.815 244.001 114.771C245.07 111.982 245.156 109.846 244.243 108.754C243.399 107.745 241.224 107.014 235.639 109.261C228.697 112.053 222.344 108.046 216.2 104.171C213.014 102.161 209.719 100.083 206.44 99.0494C197.081 96.116 187.287 99.6832 177.815 103.132L176.593 103.577C168.44 106.536 125.043 115.37 118.566 104.045C116.627 100.656 118.15 95.8612 123.089 89.7943C134.92 80.0285 149.248 82.7524 163.105 85.3856C167.683 86.2554 172.006 87.0772 176.248 87.4732C185.385 88.3241 194.626 86.6043 203.564 84.94C207.533 84.2011 211.637 83.4365 215.69 82.9037C220.09 82.3248 223.515 79.5547 224.628 75.6746C225.63 72.1784 224.535 68.4608 221.622 65.4735C215.138 59.5836 206.995 62.2006 199.117 64.732C197.104 65.3786 195.201 65.9901 193.34 66.4544C185.209 68.4822 176.562 67.6842 168.2 66.912C156.98 65.8763 145.376 64.8056 135.051 70.6382L134.709 69.8736C145.226 63.9341 156.937 65.0151 168.262 66.0593C176.569 66.8256 185.157 67.6192 193.176 65.6189C195.015 65.1605 196.907 64.5524 198.909 63.9093C206.597 61.4386 215.31 58.6386 222.118 64.8252C225.278 68.064 226.45 72.1083 225.353 75.9363C224.148 80.1397 220.479 83.1346 215.779 83.753C211.743 84.2832 207.648 85.0461 203.688 85.7841C194.704 87.4569 185.416 89.1887 176.185 88.3258C171.911 87.9273 167.572 87.102 162.978 86.2288C149.277 83.6238 135.111 80.9316 123.595 90.4271C118.973 96.1152 117.477 100.561 119.206 103.582C125.098 113.884 166.481 106.348 176.358 102.763L177.58 102.318C187.159 98.8297 197.066 95.2223 206.645 98.225C210.012 99.2855 213.347 101.389 216.573 103.424C222.568 107.206 228.766 111.116 235.383 108.454C240.177 106.526 243.345 106.428 244.798 108.167C245.947 109.541 245.913 111.942 244.7 115.108C241.914 122.378 233.682 131.622 228.401 131.644C223.088 131.643 218.494 128.225 214.051 124.897C209.339 121.368 204.889 118.036 199.621 118.391C196.152 118.626 193.148 120.561 189.968 122.61C188.232 123.728 186.437 124.884 184.569 125.727C177.965 128.71 170.683 127.656 163.641 126.637C162.081 126.411 160.468 126.179 158.9 125.996C137.503 123.504 121.128 125.76 108.849 132.889C106.94 134.644 106.155 136.914 106.64 139.286C107.215 142.095 109.444 144.397 112.318 145.151C126.526 152.084 141.339 148.981 155.664 145.981C162.313 144.587 169.188 143.147 175.925 142.718C190.266 141.8 204.696 144.849 218.651 147.794C225.482 149.236 232.545 150.727 239.486 151.727L239.39 152.577Z" fill="#B37A73"/>
</g>
<path d="M147.72 131.851C147.59 131.851 147.477 131.743 147.457 131.595C147.039 128.391 146.601 123.599 147.612 118.977C147.828 117.995 148.104 117.026 148.372 116.09C148.719 114.874 149.079 113.616 149.301 112.332C149.971 108.458 149.538 104.519 149.157 101.044C148.867 98.402 148.531 95.6816 148.206 93.0518C148.033 91.6509 147.861 90.2586 147.698 88.8851C147.678 88.7218 147.78 88.5704 147.926 88.549C148.07 88.5251 148.205 88.6414 148.225 88.8056C148.39 90.1782 148.561 91.5697 148.734 92.9697C149.059 95.602 149.394 98.3234 149.685 100.97C150.072 104.489 150.51 108.478 149.825 112.446C149.596 113.764 149.232 115.039 148.88 116.273C148.615 117.2 148.341 118.158 148.13 119.12C147.14 123.64 147.573 128.355 147.985 131.508C148.006 131.672 147.905 131.824 147.76 131.848C147.746 131.85 147.733 131.851 147.72 131.851Z" fill="#33091D"/>
<path d="M149.555 109.536C149.426 109.536 149.312 109.43 149.293 109.282C148.619 104.372 147.359 99.5865 145.549 95.0573C145.489 94.9068 145.549 94.7289 145.683 94.6613C145.817 94.5938 145.975 94.6605 146.035 94.8118C147.865 99.3907 149.139 104.229 149.819 109.192C149.842 109.355 149.742 109.508 149.596 109.533C149.582 109.534 149.568 109.536 149.555 109.536Z" fill="#33091D"/>
<path d="M208.745 124.12C208.727 124.12 208.708 124.118 208.689 124.113C208.545 124.078 208.454 123.919 208.484 123.758C209.967 116.039 209.051 108.014 208.076 101.098L208.052 100.922C207.269 95.3762 206.461 89.6411 208.527 84.5936C208.588 84.4431 208.747 84.3764 208.88 84.4465C209.014 84.5158 209.072 84.6937 209.011 84.8433C207.013 89.7266 207.809 95.3702 208.578 100.828L208.603 101.004C209.586 107.974 210.508 116.064 209.005 123.883C208.978 124.024 208.868 124.12 208.745 124.12Z" fill="#33091D"/>
<path d="M208.714 102.678C208.698 102.678 208.682 102.676 208.665 102.673C208.52 102.642 208.425 102.486 208.453 102.323L210.058 92.767C210.085 92.6045 210.225 92.4967 210.369 92.5284C210.514 92.5591 210.609 92.7157 210.582 92.8781L208.976 102.434C208.952 102.578 208.84 102.678 208.714 102.678Z" fill="#33091D"/>
<path d="M125.558 133.267C125.521 133.267 125.484 133.258 125.449 133.241C125.315 133.173 125.254 132.996 125.314 132.846L131.254 117.88C131.314 117.729 131.472 117.661 131.606 117.729C131.74 117.797 131.8 117.974 131.74 118.124L125.8 133.09C125.757 133.201 125.66 133.267 125.558 133.267Z" fill="#33091D"/>
<path d="M169.572 121.502C169.55 121.502 169.527 121.499 169.504 121.492C169.362 121.45 169.277 121.286 169.315 121.126C170.977 114.037 173.246 107.088 176.061 100.472C176.124 100.322 176.284 100.26 176.416 100.331C176.549 100.401 176.605 100.58 176.542 100.73C173.741 107.313 171.483 114.226 169.83 121.279C169.798 121.413 169.69 121.502 169.572 121.502Z" fill="#33091D"/>
<path d="M175.736 146.39C175.635 146.39 175.539 146.326 175.494 146.217C173.653 141.771 175.481 137.709 177.249 133.781C177.468 133.294 177.686 132.809 177.895 132.328C181.792 123.357 185.671 116.003 191.933 109.269C192.039 109.155 192.207 109.16 192.309 109.279C192.411 109.398 192.408 109.587 192.301 109.702C186.095 116.374 182.246 123.677 178.374 132.59C178.164 133.074 177.945 133.562 177.724 134.051C176.014 137.852 174.244 141.782 175.977 145.964C176.039 146.114 175.981 146.292 175.848 146.362C175.812 146.381 175.774 146.39 175.736 146.39Z" fill="#33091D"/>
<path d="M145.828 150.168C145.803 150.168 145.779 150.164 145.754 150.156C145.612 150.109 145.531 149.944 145.572 149.784C147.079 143.911 149.158 138.207 151.752 132.832C151.822 132.688 151.983 132.632 152.114 132.712C152.243 132.79 152.291 132.973 152.221 133.118C149.646 138.455 147.581 144.118 146.085 149.95C146.05 150.082 145.943 150.168 145.828 150.168Z" fill="#33091D"/>
<path d="M177.289 265.047C177.232 265.047 177.174 265.026 177.126 264.983C177.01 264.883 176.989 264.694 177.079 264.564C183.605 255.108 186.212 241.689 185.049 223.539C184.755 218.943 184.319 215.075 183.935 211.661C183.078 204.053 182.402 198.044 183.626 188.655C183.63 188.618 183.641 188.582 183.658 188.55C184.825 186.256 186.471 184.261 188.419 182.78C188.542 182.688 188.707 182.723 188.789 182.86C188.871 182.997 188.84 183.183 188.718 183.276C186.85 184.695 185.27 186.603 184.145 188.798C182.941 198.074 183.613 204.039 184.462 211.587C184.848 215.007 185.284 218.885 185.579 223.497C186.751 241.8 184.108 255.354 177.498 264.93C177.448 265.007 177.368 265.047 177.289 265.047Z" fill="#33091D"/>
<path d="M152.014 244.139C151.976 244.139 151.937 244.13 151.899 244.109C151.767 244.037 151.711 243.859 151.775 243.71C153.849 238.861 155.209 233.697 155.82 228.361C155.839 228.197 155.974 228.083 156.118 228.102C156.264 228.123 156.367 228.273 156.349 228.437C155.731 233.836 154.354 239.063 152.256 243.969C152.209 244.076 152.113 244.139 152.014 244.139Z" fill="#33091D"/>
<path d="M197.571 276.613C197.551 276.613 197.53 276.61 197.51 276.605C197.366 276.568 197.277 276.407 197.31 276.246L204.743 240.302C204.776 240.14 204.92 240.039 205.063 240.078C205.206 240.115 205.296 240.276 205.262 240.437L197.829 276.381C197.8 276.52 197.691 276.613 197.571 276.613Z" fill="#33091D"/>
<path d="M160.951 288.392C160.899 288.392 160.847 288.375 160.801 288.34C160.679 288.246 160.648 288.06 160.731 287.924L172.869 267.936C172.951 267.799 173.117 267.764 173.239 267.857C173.361 267.95 173.392 268.137 173.309 268.273L161.171 288.261C161.12 288.346 161.036 288.392 160.951 288.392Z" fill="#33091D"/>
<path d="M164.604 25.1576C163.17 23.4891 162.715 20.8481 163.598 18.8384C159.506 12.29 164.263 4.69559 170.551 3.44954C175.61 -1.79211 183.593 -1.26444 187.501 6.4411C189.178 5.8262 189.696 7.52723 191.068 8.77414C196.593 13.7977 190.134 29.0728 186.633 35.1825L164.604 25.1576Z" fill="#6E2A21"/>
<path d="M180.27 11.0352C179.642 14.8889 175.937 16.2718 172.918 15.3755C170.479 17.6213 167.992 20.5881 164.618 20.9182C164.68 25.8468 164.532 29.2523 165.17 34.1476C165.692 38.1415 169.028 47.6404 175.266 44.0707C176.419 48.2613 174.407 49.9632 171.391 51.689C169.582 52.7247 184.561 56.2969 192.202 51.4247C184.462 47.6447 186.624 39.0223 187.197 31.9958C193.709 27.116 188.625 15.898 183.618 26.3505C181.258 21.9136 184.319 18.6476 180.27 11.0352Z" fill="#FFD8CA"/>
<path d="M185.208 27.8618C185.161 27.8618 185.114 27.8481 185.072 27.8199C184.945 27.7352 184.904 27.5513 184.979 27.4093C185.4 26.6157 185.836 25.7947 186.439 25.1105C187.129 24.3263 187.951 23.8628 188.754 23.8046C188.89 23.7986 189.027 23.9183 189.037 24.0843C189.047 24.2493 188.935 24.3913 188.788 24.4024C188.116 24.4511 187.416 24.8522 186.817 25.5321C186.261 26.1641 185.842 26.9535 185.436 27.7164C185.387 27.8096 185.298 27.8618 185.208 27.8618Z" fill="#642213"/>
<path d="M185.338 31.1621C185.235 31.1621 185.136 31.0936 185.093 30.9791C185.036 30.8268 185.099 30.6515 185.235 30.5874C186.54 29.9673 187.413 28.3655 187.312 26.7782C187.301 26.614 187.411 26.4703 187.558 26.4584C187.692 26.4481 187.832 26.5695 187.843 26.7354C187.96 28.5708 186.951 30.4223 185.442 31.1381C185.409 31.1552 185.373 31.1621 185.338 31.1621Z" fill="#642213"/>
<path d="M175.698 44.1323C175.593 44.1323 175.495 44.0631 175.452 43.9493C175.395 43.7971 175.459 43.6218 175.594 43.5576C179.731 41.6017 182.37 38.741 183.9 34.5539C183.956 34.4008 184.112 34.3281 184.247 34.3905C184.383 34.453 184.448 34.6283 184.393 34.7805C182.805 39.1233 180.075 42.0884 175.8 44.1092C175.767 44.1255 175.732 44.1323 175.698 44.1323Z" fill="#642213"/>
<path d="M170.492 32.8391C170.419 32.8391 170.348 32.8066 170.295 32.7416L169.039 31.2005C168.725 30.8165 168.699 30.2401 168.978 29.8296C169.769 28.6648 171.465 25.6271 170.141 22.5893C170.076 22.4414 170.131 22.2618 170.263 22.1891C170.395 22.1172 170.555 22.1788 170.62 22.3268C172.076 25.6647 170.253 28.9402 169.402 30.1931C169.28 30.3727 169.292 30.6267 169.431 30.796L170.688 32.3371C170.788 32.4594 170.78 32.6484 170.672 32.7596C170.621 32.8135 170.556 32.8391 170.492 32.8391Z" fill="#642213"/>
<path d="M171.632 37.253C171.494 37.253 171.357 37.2436 171.222 37.2256C170.337 37.1067 169.592 36.6081 169.065 35.7828C168.979 35.6486 169.007 35.4613 169.126 35.3655C169.246 35.2671 169.412 35.2996 169.498 35.4339C169.935 36.1189 170.554 36.5329 171.285 36.6312C172.23 36.7561 173.311 36.3575 174.108 35.587C174.219 35.4784 174.387 35.4929 174.484 35.6186C174.58 35.7444 174.568 35.9334 174.456 36.0411C173.662 36.8082 172.612 37.253 171.632 37.253Z" fill="#642213"/>
<path d="M169.801 24.7488C169.726 24.7488 169.653 24.7137 169.6 24.6461C168.712 23.5027 167.628 22.9023 166.707 23.0469C166.072 23.1435 165.575 23.5737 165.269 24.2921C165.205 24.44 165.046 24.5042 164.913 24.4323C164.781 24.3614 164.724 24.1818 164.788 24.0329C165.17 23.1384 165.826 22.5774 166.634 22.4534C167.735 22.2866 168.996 22.9571 170.001 24.2527C170.098 24.3776 170.086 24.5666 169.975 24.6752C169.926 24.7248 169.863 24.7488 169.801 24.7488Z" fill="black"/>
<path d="M179.922 24.8531C179.86 24.8531 179.798 24.8291 179.747 24.7804C177.273 22.3781 175.649 22.1694 174.146 24.062C174.047 24.186 173.879 24.1963 173.769 24.086C173.659 23.9756 173.65 23.7866 173.747 23.6635C175.454 21.5169 177.411 21.723 180.095 24.328C180.207 24.4357 180.219 24.6247 180.123 24.7505C180.071 24.818 179.997 24.8531 179.922 24.8531Z" fill="black"/>
<path d="M165.982 23.0794C165.292 23.9654 165.245 26.6525 166.743 26.5413C168.578 26.4045 167.696 20.8798 165.982 23.0794Z" fill="black"/>
<path d="M175.216 22.975C174.435 23.861 174.381 26.5481 176.077 26.4361C178.154 26.3001 177.156 20.7746 175.216 22.975Z" fill="black"/>
<path d="M172.437 32.5081C172.395 32.5081 172.353 32.497 172.314 32.4739L171.456 31.9702C171.326 31.8932 171.276 31.7128 171.344 31.5657C171.412 31.4203 171.575 31.363 171.704 31.4399L172.561 31.9437C172.691 32.0198 172.742 32.2011 172.674 32.3473C172.626 32.4491 172.534 32.5081 172.437 32.5081Z" fill="#642213"/>
<path d="M179.867 21.6059C179.781 21.6059 179.693 21.5725 179.623 21.5058C177.895 19.8723 175.293 19.561 173.297 20.7489C173.113 20.8575 172.882 20.7797 172.783 20.571C172.685 20.3624 172.755 20.1041 172.941 19.9929C175.204 18.6459 178.153 18.9983 180.112 20.8515C180.273 21.0038 180.294 21.274 180.158 21.4536C180.083 21.5537 179.976 21.6059 179.867 21.6059Z" fill="#6E2A21"/>
<path d="M165.133 21.0072C165.009 21.0072 164.888 20.9396 164.815 20.8139C164.7 20.6172 164.749 20.3512 164.925 20.2221C166.414 19.1231 168.464 19.029 170.028 19.9895C170.212 20.1032 170.279 20.3632 170.179 20.5702C170.078 20.7771 169.847 20.8549 169.662 20.7403C168.338 19.927 166.602 20.0074 165.342 20.9379C165.277 20.9841 165.205 21.0072 165.133 21.0072Z" fill="#6E2A21"/>
</g>
<defs>
<clipPath id="clip0_1_1907">
<rect width="238" height="331" fill="white"/>
</clipPath>
</defs>
</svg>
