<svg width="145" height="321" viewBox="0 0 145 321" fill="none" xmlns="http://www.w3.org/2000/svg">
<g clip-path="url(#clip0_1_1139)">
<path d="M58.8561 290.524C58.6479 291.583 58.8126 293.2 58.9539 294.259C59.3334 297.106 48.9508 294.939 48.9508 294.939C48.9508 294.939 49.3702 292.212 49.2924 290.829L58.8561 290.524Z" fill="#FFD8CA"/>
<path d="M23.3001 292.216C23.0289 293.573 22.7489 296.327 22.7489 296.327L14.631 296.581C14.631 296.581 15.0301 294.367 15.2387 293.262L23.3001 292.216Z" fill="#FFD8CA"/>
<path d="M48.6762 293.065C50.7048 292.646 52.8496 292.805 54.7934 293.521C62.1428 288.701 57.0049 298.234 65.2253 302.808C68.4498 304.602 74.2389 307.508 74.8448 311.112C75.7492 316.493 64.8939 314.609 58.4377 311.398C55.3316 310.311 51.8938 310.492 48.7874 309.408C43.0142 307.781 48.6762 301.02 48.6762 293.065Z" fill="#F7E7D0"/>
<path d="M15.2007 293.708C15.3354 294.49 16.0156 295.145 16.8015 295.251C17.5563 295.353 18.3035 294.994 19.0652 295.01C19.7663 295.025 20.419 295.355 21.105 295.5C21.7909 295.646 22.6352 295.534 22.9843 294.926C22.9409 298.388 22.9018 301.891 23.6895 305.262C24.4599 308.56 26.0165 311.725 26.0331 315.112C26.0379 316.08 25.9057 317.076 25.4323 317.921C24.4229 319.723 22.1057 320.399 20.0463 320.24C17.8888 320.074 15.7795 319.148 14.2717 317.596C12.7639 316.043 11.8933 313.864 12.0222 311.704C12.1519 309.531 13.2334 307.524 13.5745 305.374C13.7371 304.351 13.7295 303.31 13.7708 302.275C13.8831 299.436 14.367 296.613 15.2007 293.708Z" fill="#F7E7D0"/>
<path d="M69.4792 313.407C71.3071 313.407 73.139 313.05 74.8203 312.351C74.913 312.313 74.9564 312.207 74.9184 312.115C74.88 312.022 74.7735 311.98 74.6819 312.017C72.2209 313.039 69.4277 313.311 66.8171 312.779C65.0446 312.418 63.3362 311.695 61.6836 310.994C60.0092 310.285 58.2777 309.552 56.4628 309.185C55.4124 308.973 54.328 308.883 53.2799 308.796C51.9536 308.686 50.5824 308.573 49.2909 308.209C47.9454 307.83 47.0399 307.219 46.5995 306.392C46.5524 306.303 46.442 306.271 46.3543 306.317C46.2663 306.364 46.2326 306.474 46.2797 306.562C46.7683 307.479 47.7484 308.151 49.1924 308.558C50.5172 308.931 51.9062 309.046 53.2495 309.157C54.2875 309.243 55.361 309.332 56.3911 309.54C58.1697 309.899 59.8843 310.626 61.5424 311.328C63.2109 312.035 64.9367 312.766 66.7447 313.134C67.6418 313.316 68.5603 313.407 69.4792 313.407Z" fill="#9E6244"/>
<path d="M20.9058 318.895C21.6045 318.895 22.3509 318.791 23.0905 318.509C24.5961 317.936 25.7145 316.699 26.0093 315.283C26.03 315.185 25.9669 315.089 25.8688 315.069C25.7732 315.047 25.675 315.111 25.6548 315.209C25.3849 316.506 24.3527 317.641 22.9616 318.171C21.4259 318.756 19.8465 318.524 18.7922 318.227C15.2993 317.241 12.9527 314.468 12.5145 310.809C12.5025 310.71 12.4091 310.639 12.3131 310.651C12.2139 310.663 12.1429 310.753 12.1548 310.852C12.6108 314.662 15.0555 317.549 18.6936 318.576C19.2981 318.746 20.0674 318.895 20.9058 318.895Z" fill="#9E6244"/>
<path d="M64.9312 307.063C64.9631 307.063 64.995 307.054 65.0236 307.037C66.2847 306.29 67.6052 305.611 68.9486 305.019C69.0398 304.979 69.0815 304.872 69.0409 304.78C69.0011 304.689 68.8949 304.647 68.8022 304.688C67.556 305.237 66.3289 305.861 65.1496 306.544C65.3148 305.452 65.92 304.438 66.8128 303.782C66.8765 303.734 66.9026 303.652 66.8773 303.577C66.8519 303.503 66.7769 303.457 66.7023 303.455C64.9577 303.49 63.2362 303.776 61.5771 304.304C62.2337 303.507 63.0581 302.855 63.9889 302.402C64.0642 302.365 64.1044 302.282 64.0866 302.2C64.0685 302.118 63.9968 302.059 63.9131 302.058C62.2786 302.028 60.6286 302.105 58.9998 302.287C59.8912 301.701 60.8281 301.177 61.7937 300.726C61.8687 300.691 61.9103 300.609 61.8947 300.528C61.8788 300.446 61.81 300.386 61.7271 300.381C60.4515 300.31 59.1617 300.258 57.8854 300.224C58.8071 299.64 59.7825 299.139 60.793 298.731C60.8621 298.702 60.907 298.635 60.9063 298.56C60.9052 298.485 60.8582 298.419 60.7883 298.393C59.3812 297.87 57.8571 297.597 56.3526 297.597C56.3121 297.597 56.2712 297.598 56.2302 297.598C56.6591 297.12 57.391 296.973 58.1595 296.82C59.0538 296.641 59.9781 296.456 60.4982 295.717C60.5344 295.665 60.5413 295.599 60.5163 295.541C60.4913 295.483 60.4377 295.443 60.375 295.434L55.1426 294.7C55.0455 294.687 54.9525 294.755 54.9383 294.854C54.9246 294.953 54.9934 295.044 55.0926 295.058L59.9951 295.746C59.5344 296.176 58.8292 296.317 58.0889 296.464C57.1462 296.653 56.1716 296.848 55.7192 297.703C55.6891 297.76 55.6916 297.83 55.7264 297.884C55.7612 297.939 55.8249 297.968 55.8865 297.969C57.3436 297.912 58.8314 298.122 60.2207 298.578C59.1653 299.037 58.1505 299.595 57.1987 300.242C57.1335 300.286 57.1045 300.368 57.127 300.443C57.1494 300.519 57.2179 300.571 57.2968 300.573C58.5261 300.599 59.7713 300.644 61.0077 300.706C60.0251 301.203 59.0762 301.774 58.1787 302.408C58.1106 302.456 58.0838 302.544 58.1143 302.622C58.1451 302.699 58.2211 302.746 58.3066 302.735C59.9274 302.522 61.5742 302.414 63.2127 302.413C62.3138 302.961 61.5329 303.692 60.9299 304.558C60.885 304.623 60.8868 304.709 60.9346 304.771C60.9824 304.834 61.0653 304.857 61.1389 304.833C62.7676 304.256 64.4626 303.92 66.1851 303.834C65.3507 304.621 64.8244 305.721 64.7516 306.87C64.7473 306.937 64.7806 307 64.8378 307.036C64.8657 307.054 64.8983 307.063 64.9312 307.063Z" fill="#9E6244"/>
<path d="M23.1777 310.559C23.2509 310.559 23.32 310.514 23.3472 310.442C23.3827 310.348 23.3353 310.244 23.2414 310.208C21.3172 309.486 19.306 308.967 17.2546 308.665C18.9739 307.914 20.9271 307.601 22.8174 307.784C22.897 307.788 22.9749 307.744 23.0039 307.668C23.0332 307.592 23.0075 307.506 22.9416 307.457C21.1908 306.175 18.8453 305.841 16.8388 305.631C18.3517 304.877 20.1383 304.627 21.8268 304.95C21.88 304.959 21.9344 304.945 21.976 304.912C22.0999 304.809 22.1535 304.671 22.1278 304.521C22.0785 304.237 21.7475 303.979 21.4461 303.87C19.9608 303.334 18.4332 302.86 16.8986 302.457C18.1858 301.657 19.9018 301.651 21.6982 301.726C21.7804 301.733 21.8587 301.674 21.8807 301.592C21.9028 301.51 21.8648 301.424 21.7895 301.385C20.2267 300.568 18.5538 299.972 16.8081 299.609C18.2771 299.249 19.8261 299.142 21.3328 299.299C21.4212 299.309 21.4972 299.256 21.5237 299.175C21.5501 299.093 21.516 299.005 21.4418 298.962C20.1568 298.219 18.7088 297.708 17.2133 297.468C18.6251 296.99 20.0594 296.541 21.4874 296.13C21.5834 296.103 21.6388 296.002 21.6113 295.906C21.5838 295.81 21.4849 295.754 21.3871 295.782C19.7055 296.266 18.0149 296.802 16.3622 297.377C16.2818 297.405 16.2318 297.485 16.242 297.57C16.2518 297.654 16.3195 297.72 16.4039 297.728C17.8323 297.867 19.2354 298.261 20.5088 298.877C18.9659 298.816 17.4104 299.018 15.953 299.47C15.8729 299.494 15.8204 299.571 15.8258 299.655C15.8316 299.739 15.8939 299.808 15.9768 299.822C17.6874 300.107 19.3328 300.617 20.8786 301.339C19.2195 301.309 17.5683 301.454 16.3597 302.391C16.3053 302.433 16.2793 302.503 16.2934 302.571C16.3075 302.639 16.3589 302.693 16.4259 302.71C18.0775 303.13 19.7243 303.635 21.3223 304.211C21.5439 304.291 21.7373 304.465 21.7674 304.571C19.837 304.236 17.7957 304.607 16.1471 305.596C16.0801 305.637 16.0467 305.715 16.0638 305.791C16.0811 305.867 16.1449 305.924 16.2224 305.932C18.0923 306.12 20.3741 306.349 22.1553 307.378C20.2118 307.31 18.2437 307.737 16.5419 308.6C16.4712 308.636 16.4318 308.714 16.4455 308.793C16.4589 308.871 16.5223 308.931 16.6012 308.941C18.8348 309.223 21.0256 309.763 23.1129 310.548C23.135 310.555 23.1567 310.559 23.1777 310.559Z" fill="#9E6244"/>
<path d="M21.1679 119.152L63.1226 118.558L66.3387 123.747C74.1926 144.377 72.8225 167.219 71.1326 189.228C70.0881 202.831 68.9642 216.428 67.7038 230.013C65.8603 249.882 63.7249 269.724 60.8767 290.488C56.3571 291.411 51.7353 291.834 46.4789 290.638C47.4181 277.721 44.0016 264.885 43.6525 251.938C43.4337 243.817 44.4232 235.714 44.6434 227.594C44.9172 217.492 44.0002 207.401 43.0838 197.338C42.3164 188.907 41.5486 180.477 41.1458 172.936C39.0021 212.638 32.2246 251.928 24.8829 291.246C22.6649 292.462 20.3034 293.714 17.7761 293.609C16.7113 293.565 15.6733 293.279 14.6465 292.994C13.3452 292.634 12.0443 292.274 10.9929 290.484C11.4278 275.658 9.75745 260.813 10.5383 246.001C10.965 237.912 12.1207 229.876 12.5542 221.789C13.4503 205.067 11.2518 188.35 10.6169 171.616C9.98202 154.882 11.024 137.626 17.9648 122.386L21.1679 119.152Z" fill="#7B89A6"/>
<path d="M41.3422 171.847C41.5019 171.847 41.5091 171.749 41.5417 171.305C41.6134 169.938 41.7282 168.568 41.8391 167.242C41.9531 165.876 42.072 164.463 42.1422 163.061C42.1614 162.68 42.1415 162.206 42.1205 161.704C42.0756 160.633 42.0249 159.418 42.3298 158.705C42.6493 157.959 43.4888 157.222 44.3012 156.509C44.7278 156.135 45.1306 155.782 45.4442 155.438C46.6412 154.127 47.5438 152.795 48.4999 151.385L48.9342 150.745C48.9903 150.662 48.9693 150.55 48.8868 150.494C48.8038 150.439 48.6915 150.458 48.635 150.541L48.2001 151.182C47.2519 152.581 46.3558 153.903 45.1769 155.194C44.8767 155.523 44.4812 155.87 44.0625 156.237C43.2197 156.977 42.3487 157.741 41.9966 158.563C41.6594 159.352 41.7123 160.609 41.7587 161.719C41.7793 162.213 41.7985 162.679 41.7807 163.043C41.7105 164.439 41.5921 165.849 41.478 167.212C41.3722 168.476 41.2632 169.781 41.1908 171.084C41.168 171.113 41.1538 171.149 41.1528 171.189C41.1328 171.775 41.1306 171.837 41.3164 171.846C41.3255 171.846 41.3338 171.847 41.3422 171.847Z" fill="#323054"/>
<path d="M44.2282 134.331C44.3282 134.331 44.4093 134.25 44.4093 134.15L44.3992 123.729C44.3992 123.629 44.3181 123.548 44.2181 123.548C44.1182 123.548 44.037 123.629 44.037 123.729L44.0472 134.15C44.0472 134.25 44.1283 134.331 44.2282 134.331Z" fill="#323054"/>
<path d="M19.7283 132.901C20.0441 132.901 20.3415 132.886 20.6131 132.862C23.1266 132.639 25.5025 131.53 27.1312 129.818C28.8784 127.982 29.7618 125.461 29.4938 123.073C29.4825 122.973 29.3927 122.902 29.2935 122.913C29.1942 122.924 29.1225 123.014 29.1337 123.113C29.3902 125.396 28.543 127.81 26.8687 129.569C25.2997 131.217 23.0082 132.286 20.5812 132.501C19.3589 132.61 17.5889 132.54 16.0974 131.596C16.0138 131.543 15.9015 131.567 15.8475 131.652C15.7943 131.736 15.8193 131.848 15.9036 131.902C17.1459 132.688 18.5595 132.901 19.7283 132.901Z" fill="#323054"/>
<path d="M66.4597 133.955C67.0196 133.955 67.5759 133.833 68.1 133.548C68.188 133.501 68.2206 133.391 68.1728 133.303C68.1246 133.215 68.0141 133.183 67.9272 133.23C66.3246 134.1 64.3003 133.219 63.0541 132.199C60.7318 130.299 59.3225 127.255 59.3761 124.255C59.3779 124.155 59.2983 124.072 59.1983 124.07C59.1089 124.065 59.0158 124.148 59.014 124.248C58.9585 127.357 60.4188 130.51 62.8248 132.479C63.8056 133.281 65.1424 133.955 66.4597 133.955Z" fill="#323054"/>
<path d="M50.0989 241.709C50.1073 241.709 50.1156 241.708 50.1239 241.707C50.2228 241.693 50.2923 241.602 50.2786 241.503L45.9871 210.457C45.9737 210.358 45.8792 210.292 45.7832 210.303C45.6843 210.316 45.6148 210.408 45.6285 210.506L49.92 241.552C49.9327 241.643 50.0102 241.709 50.0989 241.709Z" fill="#323054"/>
<path d="M24.6822 257.187C24.7531 257.187 24.8209 257.145 24.8495 257.074C27.9479 249.557 30.8769 241.856 33.5552 234.187C33.5885 234.093 33.5386 233.989 33.444 233.956C33.3495 233.922 33.2459 233.973 33.2133 234.068C30.5368 241.731 27.61 249.425 24.5145 256.937C24.4764 257.029 24.5203 257.135 24.6126 257.173C24.6358 257.182 24.659 257.187 24.6822 257.187Z" fill="#323054"/>
<path d="M62.3751 51.4237C58.653 42.4684 56.6428 32.8054 56.4846 23.1088C56.3944 17.5779 56.8059 11.6584 53.9273 6.93488C50.0925 0.679301 41.926 -1.43258 35.0837 0.959987C17.9848 9.79465 28.4073 38.659 18.799 53.3595L62.3751 51.4237Z" fill="#A17C6D"/>
<path d="M16.0007 54.1852C16.0431 54.1852 16.0858 54.1704 16.1202 54.1403C20.8514 49.985 22.4327 39.5868 23.3551 29.9633C24.1306 21.8758 25.2602 13.3994 29.711 6.45638C29.765 6.37235 29.7404 6.26007 29.6563 6.20611C29.5734 6.15214 29.4608 6.17605 29.4065 6.2608C24.9118 13.2719 23.7746 21.7972 22.9948 29.9289C22.0796 39.4818 20.5182 49.7967 15.8816 53.8687C15.8066 53.9346 15.799 54.0491 15.8649 54.1244C15.9007 54.1642 15.9504 54.1852 16.0007 54.1852Z" fill="#A17C6D"/>
<path d="M54.1213 15.7057C54.2067 15.7057 54.2831 15.6445 54.2991 15.5573C54.9177 12.1676 53.9912 5.10146 46.0587 2.62017C45.9613 2.59047 45.8617 2.64371 45.8316 2.73896C45.8019 2.83458 45.8548 2.93599 45.9504 2.96569C49.485 4.07143 51.9188 6.15577 53.185 9.16078C54.1694 11.4972 54.2216 13.9633 53.9427 15.4921C53.9249 15.5906 53.9901 15.6847 54.0883 15.7028C54.0991 15.705 54.1104 15.7057 54.1213 15.7057Z" fill="#66473A"/>
<path d="M49.6523 8.99126C49.6744 8.99126 49.6965 8.98727 49.7182 8.97894C49.8113 8.94273 49.8577 8.83769 49.8211 8.74461C48.8265 6.18726 46.6759 4.15035 44.0685 3.29597C43.9755 3.26446 43.8712 3.31661 43.84 3.4115C43.8089 3.5064 43.861 3.6089 43.9559 3.64004C46.4611 4.46147 48.5277 6.41869 49.4835 8.87572C49.5114 8.94743 49.5798 8.99126 49.6523 8.99126Z" fill="#66473A"/>
<path d="M42.8357 9.68154C42.8632 9.68154 42.8907 9.67538 42.9172 9.66234C43.0063 9.61743 43.0425 9.50878 42.9979 9.41932L41.5536 6.5407C41.5086 6.45124 41.3993 6.41539 41.3102 6.45994C41.2211 6.50485 41.1848 6.61351 41.2294 6.70297L42.6738 9.58158C42.7053 9.64496 42.7694 9.68154 42.8357 9.68154Z" fill="#66473A"/>
<path d="M34.347 15.1972C34.3618 15.1972 34.3767 15.1954 34.3919 15.1914C34.4889 15.1668 34.5473 15.0683 34.5223 14.9712C34.0837 13.2523 33.9601 11.4871 34.1554 9.72506C34.1662 9.62583 34.0945 9.536 33.9953 9.52514C33.8978 9.51536 33.8066 9.58562 33.7953 9.68522C33.5954 11.491 33.7222 13.2994 34.1713 15.0611C34.1927 15.1429 34.2662 15.1972 34.347 15.1972Z" fill="#66473A"/>
<path d="M35.8061 6.40061C35.871 6.40061 35.934 6.36548 35.9662 6.30391C36.8648 4.59985 38.6047 3.35033 40.5069 3.0432C40.5735 3.03234 40.6282 2.98562 40.6499 2.92187C40.6713 2.85777 40.6554 2.7875 40.6086 2.73897C39.5152 1.60535 37.9865 0.912134 36.4131 0.837524C36.315 0.830281 36.2288 0.909954 36.2241 1.00992C36.219 1.10988 36.2962 1.19463 36.3965 1.19934C37.7641 1.26417 39.0969 1.82555 40.1038 2.75165C38.2281 3.16453 36.5421 4.43615 35.646 6.13478C35.5993 6.22351 35.6334 6.33289 35.7218 6.37961C35.7482 6.39373 35.7771 6.40061 35.8061 6.40061Z" fill="#66473A"/>
<path d="M51.7677 12.7304C51.8597 12.7304 51.9387 12.6605 51.9477 12.5667C52.0216 11.8032 51.9006 11.0267 51.5971 10.3215C51.558 10.2295 51.4512 10.1875 51.3596 10.2266C51.2676 10.2661 51.2252 10.3726 51.2646 10.4646C51.5439 11.114 51.6551 11.8285 51.587 12.5315C51.5776 12.6311 51.6504 12.7195 51.7496 12.7293C51.7558 12.73 51.7616 12.7304 51.7677 12.7304Z" fill="#66473A"/>
<path d="M33.3275 18.5717C33.3488 18.5717 33.3706 18.568 33.3916 18.5601C33.4854 18.5246 33.5325 18.4199 33.497 18.3265C33.0613 17.1758 32.9185 15.9223 33.0844 14.7025C33.0978 14.6036 33.0287 14.5124 32.9294 14.4986C32.8324 14.4852 32.7396 14.5544 32.7255 14.6536C32.5513 15.9332 32.7009 17.2479 33.1576 18.4551C33.1855 18.5271 33.2543 18.5717 33.3275 18.5717Z" fill="#66473A"/>
<path d="M28.8606 20.2058C28.9363 20.2058 29.0069 20.158 29.0326 20.0819L30.2329 16.4804C30.2644 16.3855 30.213 16.283 30.1185 16.2515C30.0239 16.2204 29.9211 16.2711 29.8892 16.366L28.6889 19.9675C28.6574 20.0624 28.7089 20.1649 28.8034 20.1964C28.8222 20.2025 28.8414 20.2058 28.8606 20.2058Z" fill="#66473A"/>
<path d="M28.7476 12.1288C28.8305 12.1288 28.9059 12.0712 28.9244 11.9868C29.3894 9.88655 30.3803 7.91666 31.7889 6.29047C31.8544 6.21477 31.8461 6.10032 31.7704 6.03477C31.695 5.96921 31.5806 5.97754 31.515 6.05287C30.067 7.72434 29.0486 9.74892 28.5705 11.9082C28.5488 12.006 28.6103 12.1027 28.7081 12.1241C28.7219 12.1274 28.7349 12.1288 28.7476 12.1288Z" fill="#66473A"/>
<path d="M27.3894 40.5223C27.4771 40.5223 27.5542 40.4582 27.568 40.3687C28.3 35.6158 28.573 30.7706 28.3793 25.9677C28.3749 25.8681 28.2866 25.787 28.1906 25.7942C28.091 25.7982 28.0131 25.8826 28.0171 25.9826C28.2101 30.7623 27.9385 35.584 27.2098 40.3137C27.1946 40.4126 27.2627 40.5049 27.3612 40.5201C27.371 40.5216 27.3804 40.5223 27.3894 40.5223Z" fill="#66473A"/>
<path d="M22.4117 49.9387C22.4678 49.9387 22.5239 49.9122 22.5591 49.8626C24.4185 47.2585 25.3989 44.0634 25.3199 40.8653C25.3174 40.7668 25.237 40.6886 25.1389 40.6886C25.1374 40.6886 25.136 40.6886 25.1342 40.6886C25.0346 40.6911 24.9552 40.774 24.9578 40.874C25.0349 43.9942 24.078 47.1115 22.2639 49.6518C22.2059 49.7333 22.2247 49.8463 22.3059 49.9042C22.3385 49.9278 22.3755 49.9387 22.4117 49.9387Z" fill="#66473A"/>
<path d="M29.029 47.0585C29.1 47.0585 29.1677 47.0162 29.1963 46.9463C31.4085 41.5769 32.3002 35.6825 31.775 29.8992C31.7659 29.7996 31.6692 29.7257 31.5783 29.7351C31.4787 29.7441 31.4052 29.8321 31.4143 29.9317C31.9347 35.6567 31.0517 41.4925 28.8616 46.8079C28.8236 46.9003 28.8678 47.006 28.9598 47.0444C28.9826 47.0542 29.0058 47.0585 29.029 47.0585Z" fill="#66473A"/>
<path d="M55.2621 37.4949C55.2736 37.4949 55.2853 37.4938 55.2972 37.4916C55.3954 37.4724 55.4595 37.3772 55.4406 37.279C54.7286 33.634 54.3635 29.9032 54.3555 26.1902C54.3552 26.0902 54.2741 26.0094 54.1745 26.0094C54.0745 26.0094 53.993 26.0909 53.9934 26.1909C54.0013 29.9268 54.3686 33.6808 55.0849 37.3482C55.1016 37.4351 55.1773 37.4949 55.2621 37.4949Z" fill="#66473A"/>
<path d="M54.7214 47.9192C54.7446 47.9192 54.7681 47.9149 54.7909 47.9051C54.8833 47.8667 54.9267 47.7606 54.8887 47.6682C53.1075 43.3912 52.1738 38.6818 52.1883 34.0495C52.1886 33.9495 52.1075 33.8681 52.0079 33.8677H52.0072C51.9076 33.8677 51.8265 33.9485 51.8261 34.0481C51.8116 38.7282 52.7547 43.4861 54.554 47.8073C54.583 47.8772 54.6508 47.9192 54.7214 47.9192Z" fill="#66473A"/>
<path d="M49.8823 44.3205C49.9011 44.3205 49.92 44.3176 49.9391 44.3115C50.034 44.2803 50.0855 44.1778 50.054 44.0829C49.3839 42.0558 49.0095 39.945 48.9403 37.8089C48.937 37.7093 48.8675 37.6285 48.753 37.634C48.6534 37.6372 48.5748 37.7209 48.5781 37.8208C48.6484 39.9917 49.0294 42.1369 49.7103 44.1967C49.7356 44.2724 49.8062 44.3205 49.8823 44.3205Z" fill="#66473A"/>
<path d="M59.2 49.8365C59.2174 49.8365 59.2351 49.834 59.2525 49.8289C59.3485 49.7999 59.4025 49.6989 59.3735 49.6029L57.6915 44.0503C57.6625 43.9547 57.5608 43.9007 57.4659 43.9297C57.3699 43.9587 57.316 44.0597 57.3449 44.1553L59.0269 49.7079C59.0504 49.7862 59.1225 49.8365 59.2 49.8365Z" fill="#66473A"/>
<path d="M53.8218 48.1503C59.6681 50.4114 66.2203 51.8235 70.9327 55.9897C77.603 61.8871 80.1784 77.116 84.1736 87.6109C79.6829 92.0672 72.247 92.5909 67.2167 95.7368C66.3931 103.246 66.8994 110.899 68.7053 118.234C70.1645 122.403 67.3065 124.121 63.3413 123.257C51.3832 120.065 24.5595 127.93 17.2793 121.767C16.7193 112.771 17.8645 103.25 17.3455 94.7857C12.0316 92.0878 6.18134 90.6579 7.62939e-06 89.3584C3.02602 78.3837 5.35375 63.0855 10.873 57.5659C15.5803 52.8586 22.1379 50.5747 27.9422 47.7019L53.8218 48.1503Z" fill="#7D7D7D"/>
<mask id="mask0_1_1139" style="mask-type:luminance" maskUnits="userSpaceOnUse" x="0" y="47" width="85" height="78">
<path d="M53.8218 48.1503C59.6681 50.4114 66.2203 51.8235 70.9327 55.9897C77.603 61.8871 80.1784 77.116 84.1736 87.6109C79.6829 92.0672 72.247 92.5909 67.2167 95.7368C66.3931 103.246 66.8994 110.899 68.7053 118.234C70.1645 122.403 67.3065 124.121 63.3413 123.257C51.3832 120.065 24.5595 127.93 17.2793 121.767C16.7193 112.771 17.8645 103.25 17.3455 94.7857C12.0316 92.0878 6.18134 90.6579 7.62939e-06 89.3584C3.02602 78.3837 5.35375 63.0855 10.873 57.5659C15.5803 52.8586 22.1379 50.5747 27.9422 47.7019L53.8218 48.1503Z" fill="white"/>
</mask>
<g mask="url(#mask0_1_1139)">
<path d="M11.0882 55.5109C15.1892 58.3851 20.2159 58.9422 24.8101 60.3858C26.7217 61.5727 25.5081 64.1931 23.369 63.4861C20.8305 62.255 18.5183 60.3199 15.5321 60.2236C14.3934 59.9516 13.9143 61.1156 14.7419 61.8997C16.1946 63.4412 18.7751 63.138 20.5469 64.2992C24.0593 69.0133 31.7723 67.6084 31.35 71.6873C27.7271 75.7745 23.9474 67.2825 19.9008 68.3513C19.7946 70.3103 22.3712 70.457 23.582 71.3498C24.9492 72.3914 25.051 74.3769 25.8188 75.9147C26.9836 78.2486 29.7035 79.5325 30.7658 81.9146C31.6658 83.5581 30.6735 85.7124 28.68 85.5871C23.4646 84.816 24.3379 78.0273 21.8385 74.4757C20.5172 72.5522 18.1591 71.068 18.0808 68.7355C18.1091 68.0282 18.1561 66.8167 17.1996 66.7783C15.2138 66.9667 18.8229 77.7528 18.8305 79.7802C19.7019 82.8675 16.5398 83.3684 15.7723 80.5357C14.0342 75.5605 16.1816 69.7073 13.8806 64.9656C13.5739 63.9356 12.2751 64.2007 12.241 65.2568C12.2215 66.3658 13.5778 67.2647 13.2171 68.4107C12.2052 70.2958 9.83907 68.3596 10.3921 66.6374C10.6362 65.0167 11.9708 63.589 11.7387 61.8907C11.2751 59.5967 8.28133 57.8919 11.0882 55.5109Z" fill="#EDECF5"/>
<path d="M1.87027 79.6861C6.9408 80.203 4.74851 72.4838 8.46375 74.1592C9.70458 76.3095 5.51525 79.5789 4.56452 81.5887C5.73038 83.1786 7.72095 82.158 8.30044 80.6039C9.27398 79.1841 11.8176 80.1081 11.1733 81.8512C9.30368 84.0816 5.68693 83.757 3.18897 84.8374C2.09193 85.7737 3.34001 86.7121 4.4356 86.2159C5.43631 85.8244 6.53805 86.795 5.4602 87.4984C3.55441 87.9971 1.87897 87.9431 -0.438625 87.5353C-0.147432 85.1579 0.494351 82.823 1.87027 79.6861Z" fill="#EDECF5"/>
<path d="M25.3935 95.3884C23.1027 94.1341 23.0162 91.5145 23.1886 89.2407C23.0672 88.6551 22.5301 88.0876 21.9456 88.2147C20.0999 89.2212 22.0285 94.1961 21.8887 96.1428C21.0901 96.058 20.6667 95.1859 20.3411 94.4518C18.8569 91.705 16.9203 87.8652 14.3311 86.1832C10.8922 87.9061 21.7602 94.1088 17.6193 96.2315C16.3731 104.584 28.5492 106.406 25.3935 95.3884Z" fill="#EDECF5"/>
<path d="M67.3405 51.9007C63.3113 51.7725 59.3171 50.6454 55.8152 48.6483C54.7149 47.799 52.301 47.1916 52.0235 49.0735C52.1307 50.7095 54.2564 50.5657 55.389 51.072C57.474 52.4936 57.9832 54.4113 60.9249 53.9524C61.5713 54.056 62.2418 54.667 62.0082 55.2787C60.8564 56.7789 55.0536 54.5591 53.0206 54.579C48.8809 54.612 46.5637 50.4353 42.9343 49.5628C40.4932 49.1141 40.269 51.8779 42.4066 52.6823C47.7208 53.1089 46.6517 57.1867 50.2094 57.2041C51.7121 56.2458 53.4976 57.3928 51.2554 58.2584C46.0005 60.0816 42.4493 59.4485 38.072 56.357C35.5432 55.3813 32.5194 56.424 30.079 55.2443C28.7321 54.3642 25.9622 52.6348 25.232 54.9807C25.1451 55.7333 25.7883 56.3631 26.425 56.7742C29.3051 59.0932 33.18 57.3685 36.2611 58.555C37.4443 59.1838 38.1644 60.4543 39.3023 61.1613C41.5301 62.6491 44.3729 61.166 46.8592 61.2928C48.0457 61.6499 47.6169 62.961 46.5706 63.1989C45.0556 63.8921 43.3762 63.7436 41.7847 63.9674C38.4545 66.5545 46.9664 67.0583 48.8914 64.0442C50.585 61.3601 53.5052 59.6369 56.7373 60.0295C58.7844 60.5825 58.0658 62.8414 56.2429 63.1855C53.4578 63.9204 54.5012 64.9377 53.6237 66.7403C50.5843 67.7834 52.6864 70.9181 55.1365 69.4132C57.4273 67.3393 59.3733 64.5803 60.8499 61.8654C61.1498 61.0765 61.2791 60.2193 61.689 59.4819C62.9034 57.4935 68.9754 54.2415 69.7983 57.9209C69.7668 59.584 66.9983 60.0016 66.7592 61.6473C66.5904 62.8078 67.9722 63.7255 69.1246 63.5075C74.2799 61.2652 75.6866 52.1644 67.3405 51.9007Z" fill="#EDECF5"/>
<path d="M62.7614 79.4174C63.777 77.3631 66.6462 78.0281 68.3503 77.0034C70.0619 75.9763 70.615 73.4095 72.6609 72.8601C73.6432 72.6095 74.8912 73.24 74.9057 74.2538C74.7884 76.2961 71.9529 76.0361 70.8011 77.1697C69.2159 79.4101 69.7906 79.1363 67.2123 79.7799C66.3546 80.5626 67.2481 81.8219 68.238 81.928C70.6983 82.3974 72.4498 79.8679 74.6819 79.3478C75.5931 79.1341 76.5623 79.2424 77.4613 78.9817C79.5018 78.2551 82.8711 74.5714 84.3141 77.9603C84.0986 81.7857 79.3359 81.1033 76.7036 81.5962C75.1585 82.1471 74.0122 83.8197 72.3726 83.7715C71.4672 83.6581 69.6773 83.1145 69.5958 84.5056C70.0152 85.7461 71.9927 85.4991 73.055 85.9055C75.8967 86.7892 78.605 86.3821 81.1515 84.9892C83.4698 84.0134 85.3579 86.6128 83.5415 88.4389C79.4696 91.7934 74.5957 86.1978 70.0286 87.9507C66.2699 86.6027 66.4144 86.3966 62.5677 87.7573C58.998 86.3734 60.9491 83.6136 62.7614 79.4174Z" fill="#EDECF5"/>
</g>
<path d="M20.1094 96.3199C20.1145 96.3199 20.1192 96.3199 20.1246 96.3191C20.2238 96.3112 20.2981 96.2235 20.2901 96.1239L19.2959 83.9065C19.1974 82.6936 19.0953 81.4397 18.6096 80.2807C18.3003 79.5422 17.8472 78.8776 17.4086 78.2351L12.8488 71.5536C12.7919 71.4707 12.6793 71.4504 12.5971 71.5062C12.5145 71.5627 12.4934 71.6753 12.5496 71.7579L17.1095 78.4394C17.5379 79.067 17.9805 79.7164 18.276 80.4212C18.7389 81.5266 18.8389 82.7519 18.9352 83.9362L19.9294 96.1533C19.9366 96.2481 20.0159 96.3199 20.1094 96.3199Z" fill="#A8A6BD"/>
<path d="M18.8167 84.4479C18.8395 84.4479 18.8627 84.4436 18.8851 84.4345C18.9779 84.3965 19.022 84.2911 18.984 84.1984C17.9572 81.6899 16.6197 79.3118 15.0087 77.1311C14.949 77.0507 14.8353 77.0341 14.7556 77.0931C14.6748 77.1525 14.6578 77.2662 14.7176 77.3463C16.3104 79.5031 17.6335 81.8547 18.6487 84.3356C18.678 84.4055 18.7454 84.4479 18.8167 84.4479Z" fill="#A8A6BD"/>
<path d="M15.4368 65.5417C15.4716 65.5417 15.506 65.5319 15.5371 65.5113C15.6201 65.4558 15.6429 65.3436 15.5875 65.2603L10.7864 58.0413C10.7314 57.9576 10.6188 57.9359 10.5355 57.9906C10.4525 58.046 10.4297 58.1583 10.4851 58.2416L15.2862 65.4606C15.3209 65.5131 15.3785 65.5417 15.4368 65.5417Z" fill="#A8A6BD"/>
<path d="M67.4462 61.372C67.5161 61.372 67.5828 61.331 67.6125 61.2626L70.1007 55.501C70.1401 55.409 70.0981 55.3025 70.0061 55.2631C69.9145 55.2236 69.808 55.2656 69.7681 55.3576L67.28 61.1192C67.2405 61.2108 67.2825 61.3176 67.3745 61.3571C67.3977 61.3672 67.4223 61.372 67.4462 61.372Z" fill="#A8A6BD"/>
<path d="M65.4647 90.1914C65.5611 90.1914 65.6407 90.1161 65.6455 90.019L66.0699 81.3404C66.1427 79.8515 66.218 78.3122 66.5103 76.8306C66.871 75.0037 67.5625 73.2551 68.1825 71.7597C68.2206 71.6673 68.1767 71.5616 68.0844 71.5232C67.9924 71.4855 67.8862 71.5286 67.8478 71.6209C67.2216 73.1323 66.5223 74.9009 66.155 76.7603C65.8577 78.2677 65.7816 79.8207 65.7085 81.3227L65.284 90.0013C65.2789 90.1012 65.356 90.186 65.456 90.191C65.4593 90.1914 65.4618 90.1914 65.4647 90.1914Z" fill="#A8A6BD"/>
<path d="M65.7998 83.1832C65.8744 83.1832 65.9439 83.1372 65.9704 83.0626C66.3467 82.0054 66.7356 80.912 67.2217 79.8783C67.4933 79.301 67.8142 78.7132 68.3155 78.3242C68.489 78.1895 68.8077 78.0631 68.9399 78.217C68.9819 78.2655 69.0044 78.3441 69.0033 78.4383C69.0004 78.6578 68.8801 78.8827 68.774 79.0815L68.1181 80.3028C68.0663 80.3347 68.0323 80.3919 68.0323 80.4567V80.5082C68.0323 80.5911 68.0884 80.6635 68.1692 80.6838C68.251 80.7037 68.3336 80.6668 68.3731 80.594L69.0931 79.2521C69.2129 79.0283 69.3615 78.7501 69.3655 78.4423C69.3669 78.3133 69.3423 78.1283 69.2144 77.9801C68.9384 77.66 68.4419 77.7676 68.0934 78.0377C67.5317 78.4734 67.1851 79.1054 66.8943 79.7237C66.4006 80.7733 66.0087 81.875 65.6295 82.9406C65.5959 83.0347 65.6451 83.1383 65.7393 83.172C65.7592 83.18 65.7795 83.1832 65.7998 83.1832Z" fill="#A8A6BD"/>
<path d="M30.5944 70.1626C28.6187 70.2488 26.643 70.335 24.6673 70.4212C24.2341 70.44 23.7767 70.4664 23.4153 70.7062C22.7474 71.1488 22.6905 72.0904 22.7032 72.8916C22.8763 83.8555 23.0498 94.8194 23.2229 105.783C23.2791 109.337 23.3352 112.891 23.3913 116.445C23.404 117.247 23.4333 118.104 23.8937 118.761C24.354 119.419 25.4167 119.711 25.9617 119.122L30.5944 70.1626Z" fill="#EEBE82"/>
<path d="M64.957 72.6449C64.1465 88.4327 63.718 104.24 63.7582 120.811C51.456 118.998 38.8094 121.522 26.3193 119.547C24.9524 117.246 25.0303 114.398 25.1491 111.724C25.747 98.255 26.345 84.7859 26.9176 71.5015C28.9371 70.3077 31.3554 70.0383 33.694 69.8485C41.7547 69.1937 49.8664 69.1665 57.9311 69.7674C60.5985 69.9662 63.6141 70.432 64.957 72.6449Z" fill="#F7E7D0"/>
<path d="M61.9795 70.835C51.3488 70.4348 37.8181 68.3834 27.9509 72.5931C27.1801 88.0093 25.7803 103.474 26.3591 118.903C26.8361 119.151 27.3714 119.286 27.9135 119.373C28.2543 104.098 28.7299 88.8263 29.3586 73.8151C36.2328 71.3385 43.6898 72.4428 50.8392 72.1179C55.3545 71.4091 59.7611 72.7528 64.2395 72.6459C63.5249 71.8788 62.6235 71.2863 61.9795 70.835Z" fill="white"/>
<path d="M51.6492 12.7123C55.5129 14.1411 53.2645 18.5702 53.5079 21.6299C54.0388 28.3002 53.1827 31.2672 47.4215 38.5763C46.7866 45.5744 48.6605 45.9565 55.0537 48.5895C46.3193 51.2331 36.9627 50.8238 27.9781 47.7018C36.1062 44.6726 35.1345 41.9595 34.7647 33.7673C33.4645 32.1658 33.032 30.7902 32.3641 29.0713C29.8542 28.5675 27.4729 25.4241 28.0698 21.9704C28.4903 19.5376 31.4333 18.7086 32.1584 21.0714C32.1584 21.6144 32.7654 22.6201 32.7654 22.6201C32.7654 22.6201 33.0744 22.7052 33.0588 22.5346C32.597 17.5746 35.2953 14.2197 39.0363 12.6131C39.3684 12.4704 39.2326 10.5302 39.5795 10.415C39.9269 10.2998 40.7573 12.0104 41.1166 11.9231C42.834 11.5066 44.6718 11.4099 46.4678 11.6442C47.9198 11.8337 47.5453 10.6776 46.9952 8.78194C48.462 10.2488 48.2925 11.8315 48.6496 11.8941C49.6967 12.0778 50.7079 12.3516 51.6492 12.7123Z" fill="#FFD8CA"/>
<path d="M44.2131 40.1809C45.6104 40.1809 46.8705 39.6087 47.5927 38.6431C47.6524 38.563 47.6361 38.4497 47.5561 38.3896C47.4764 38.3291 47.3627 38.3457 47.3026 38.4261C46.6485 39.3004 45.4971 39.8184 44.2131 39.8184C44.1936 39.8184 44.174 39.8184 44.1541 39.818C43.0991 39.805 41.9944 39.479 40.6779 38.7912C38.5403 37.675 36.6562 36.0568 35.2307 34.1126C35.1717 34.0318 35.0572 34.0152 34.9775 34.0738C34.8968 34.1329 34.8794 34.2466 34.9388 34.327C36.3973 36.3157 38.3241 37.9705 40.5106 39.1125C41.8789 39.8274 43.0357 40.1668 44.1501 40.1802C44.1704 40.1806 44.1918 40.1809 44.2131 40.1809Z" fill="#895554"/>
<path d="M31.7295 25.1921C31.7433 25.1921 31.7574 25.1906 31.7712 25.187C31.8686 25.1642 31.9291 25.0664 31.9055 24.969C31.6897 24.0603 31.421 22.9288 30.7835 22.0194C30.4981 21.6112 30.1957 21.3475 29.86 21.2135C29.4098 21.0346 28.894 21.1262 28.6043 21.437C28.5362 21.5101 28.5398 21.6246 28.613 21.693C28.6854 21.7611 28.8013 21.7575 28.8687 21.684C29.0592 21.4797 29.4116 21.4247 29.7252 21.55C29.9936 21.6572 30.2428 21.8785 30.4865 22.2273C31.0841 23.0802 31.3438 24.174 31.5528 25.053C31.573 25.1359 31.6473 25.1921 31.7295 25.1921Z" fill="#895554"/>
<path d="M31.5369 26.6268C31.6071 26.6268 31.6741 26.5855 31.7035 26.5167C31.7426 26.4247 31.6999 26.3186 31.6079 26.2791C30.7415 25.9101 30.09 25.3237 29.7723 24.628C29.4116 23.8373 29.5304 22.8982 30.0617 22.344C30.1305 22.2716 30.1283 22.1572 30.0559 22.088C29.9838 22.0188 29.869 22.0217 29.7998 22.0934C29.1689 22.7519 29.0219 23.8562 29.4427 24.7783C29.798 25.5562 30.5166 26.2078 31.4659 26.6123C31.489 26.6221 31.513 26.6268 31.5369 26.6268Z" fill="#895554"/>
<path d="M46.0049 28.5346C46.0397 28.5346 46.0748 28.5248 46.1056 28.5038C46.8632 27.996 47.6372 27.3568 47.6336 26.4676C47.6321 26.0808 47.4793 25.7327 47.3315 25.3963L47.3033 25.3315C47.0215 24.6853 46.7817 24.0135 46.5905 23.3355C46.4775 22.9353 46.362 22.463 46.3565 21.9969C46.3468 21.1809 46.6695 20.3616 46.9545 19.6387C46.9914 19.5456 46.9458 19.4406 46.8527 19.4036C46.7593 19.3674 46.6543 19.4127 46.6181 19.5058C46.3207 20.2598 45.9835 21.1139 45.9944 22.0012C46.0005 22.5097 46.123 23.0106 46.2421 23.4336C46.4377 24.1279 46.6832 24.815 46.9719 25.4767L47.0005 25.5422C47.1331 25.8447 47.2707 26.1579 47.2718 26.4694C47.2747 27.1858 46.6159 27.7262 45.9046 28.2032C45.8216 28.259 45.7991 28.3712 45.8549 28.4545C45.889 28.5067 45.9466 28.5346 46.0049 28.5346Z" fill="#895554"/>
<path d="M43.979 28.2303C44.0441 28.2303 44.1072 28.1952 44.139 28.1336C44.2654 27.8935 44.4885 27.7986 44.771 27.6783C44.883 27.6309 44.997 27.582 45.11 27.5222C45.1984 27.4755 45.2324 27.3658 45.1857 27.2774C45.139 27.189 45.0286 27.1553 44.9409 27.2021C44.8373 27.2567 44.7319 27.3013 44.6294 27.3451C44.3223 27.4759 44.005 27.6106 43.8189 27.9652C43.7721 28.0539 43.8062 28.1633 43.8949 28.2096C43.9217 28.2234 43.9503 28.2303 43.979 28.2303Z" fill="#895554"/>
<path d="M47.9777 31.3637C47.9777 31.3637 46.8104 30.1782 45.0256 31.4542C45.0256 31.4542 44.1313 30.2572 40.9293 31.3372C40.9293 31.3372 41.5095 33.7812 44.8579 33.7812C47.8571 33.7812 47.9777 31.3637 47.9777 31.3637Z" fill="#F78363"/>
<path d="M45.0197 32.2571C47.3319 32.2571 48.388 31.3737 48.4528 31.3172C48.5282 31.2517 48.5357 31.1379 48.4709 31.0623C48.4057 30.9873 48.2916 30.9786 48.2156 31.0434C48.1928 31.063 45.8639 32.9825 40.4602 30.9518C40.3675 30.917 40.2625 30.9637 40.227 31.0579C40.1915 31.1513 40.2389 31.256 40.3327 31.2912C42.2628 32.0162 43.8126 32.2571 45.0197 32.2571Z" fill="#D93A1E"/>
<path d="M42.7913 20.827C42.7913 20.827 42.3309 22.2257 40.2234 22.317C38.1159 22.4086 36.6403 20.8701 36.6403 20.8701C36.6403 20.8701 38.6878 18.7586 40.4295 19.103C42.1719 19.4474 42.7913 20.827 42.7913 20.827Z" fill="white"/>
<path d="M41.1385 20.6988C41.1385 19.8086 40.4993 19.0871 39.7105 19.0871C38.9216 19.0871 38.2824 19.8086 38.2824 20.6988C38.2824 21.589 38.9216 22.3105 39.7105 22.3105C40.4993 22.3109 41.1385 21.589 41.1385 20.6988Z" fill="#222238"/>
<path d="M36.0997 21.5869C36.1457 21.5869 36.1913 21.5695 36.2268 21.5351C37.3898 20.3931 39.1018 19.0842 40.6436 19.3334C41.5302 19.4768 42.2796 20.1334 42.8703 21.2855C42.9163 21.375 43.026 21.4098 43.1144 21.3641C43.2031 21.3185 43.2386 21.2095 43.193 21.1204C42.5465 19.8604 41.708 19.1385 40.7015 18.9759C39.0094 18.7021 37.1956 20.0759 35.9725 21.2768C35.9015 21.3471 35.9005 21.4616 35.9704 21.5329C36.0059 21.5688 36.0526 21.5869 36.0997 21.5869Z" fill="#A14727"/>
<path d="M52.7766 20.709C52.7766 20.709 52.196 22.0943 50.497 22.3109C48.5658 22.5568 47.1099 21.0136 47.1099 21.0136C47.1099 21.0136 48.8994 18.8169 50.5206 19.0871C52.142 19.3569 52.7766 20.709 52.7766 20.709Z" fill="white"/>
<path d="M49.8749 22.3373C49.1298 22.3373 48.5258 21.622 48.5258 20.7397C48.5258 19.8574 49.1298 19.1421 49.8749 19.1421C50.62 19.1421 51.2241 19.8574 51.2241 20.7397C51.2241 21.622 50.62 22.3373 49.8749 22.3373Z" fill="#222238"/>
<path d="M46.852 21.5075C46.9027 21.5075 46.953 21.4861 46.9889 21.4448C48.2764 19.957 49.4992 19.283 50.6219 19.4398C52.1619 19.6557 52.9946 21.3612 53.0025 21.3782C53.0438 21.4687 53.1514 21.5089 53.2427 21.4669C53.3332 21.4253 53.3731 21.3181 53.3318 21.2275C53.3231 21.2087 52.4191 19.3311 50.6799 19.0823C49.4289 18.9034 48.091 19.6176 46.7151 21.208C46.6495 21.2837 46.6579 21.3977 46.7336 21.4633C46.7676 21.493 46.8096 21.5075 46.852 21.5075Z" fill="#A14727"/>
<path d="M47.1056 20.4666C47.1313 20.4666 47.1574 20.4553 47.1751 20.434C48.1744 19.2319 49.2051 18.6444 50.246 18.6944C51.819 18.7669 52.882 20.2906 52.8929 20.3058C52.9207 20.3474 52.9765 20.3579 53.0189 20.3293C53.0598 20.3011 53.0707 20.2449 53.0421 20.2036C52.9972 20.1377 51.9193 18.5912 50.2558 18.5137C49.1635 18.4648 48.074 19.0696 47.0357 20.3184C47.0038 20.3568 47.0092 20.4141 47.0473 20.4459C47.0646 20.4597 47.0849 20.4666 47.1056 20.4666Z" fill="#895554"/>
<path d="M42.9883 20.4869C43.0035 20.4869 43.0187 20.4832 43.0324 20.4753C43.0762 20.4506 43.0914 20.3956 43.0672 20.3521C43.0295 20.2848 42.1223 18.6991 40.4117 18.463C39.1379 18.2866 37.7692 18.9154 36.3524 20.3322C36.3169 20.3677 36.3169 20.4249 36.3524 20.4601C36.3879 20.4955 36.4451 20.4955 36.4806 20.4601C37.8547 19.0859 39.1691 18.4739 40.3871 18.6423C42.0093 18.8661 42.9006 20.4246 42.9097 20.4401C42.9259 20.4702 42.9567 20.4869 42.9883 20.4869Z" fill="#895554"/>
<path d="M53.5918 17.6937C53.2105 17.1994 52.6871 16.9067 52.1333 16.7061C51.5774 16.509 50.9856 16.4402 50.4061 16.4587C49.8255 16.479 49.2573 16.5967 48.723 16.7883C48.4539 16.8767 48.2015 17.011 47.9487 17.1305C47.7053 17.2754 47.4677 17.4254 47.2464 17.6017C47.1653 17.6666 47.1519 17.785 47.2164 17.8665C47.2544 17.9143 47.3109 17.9386 47.3677 17.9375L47.3837 17.9371C47.664 17.9295 47.9255 17.8897 48.1852 17.8556C48.4474 17.8335 48.702 17.7959 48.9537 17.7676C49.4604 17.7238 49.9519 17.6716 50.4401 17.6658C50.9276 17.6608 51.4082 17.6756 51.8928 17.7242C52.3738 17.7738 52.8722 17.8571 53.3669 17.9784L53.4017 17.9867C53.5009 18.011 53.6009 17.9502 53.6251 17.8513C53.6389 17.7941 53.6244 17.7368 53.5918 17.6937Z" fill="#A17C6D"/>
<path d="M43.8069 17.5119C43.2846 16.9585 42.6153 16.6499 41.9192 16.4605C41.2198 16.279 40.4864 16.2453 39.7711 16.316C39.0576 16.3957 38.3509 16.5507 37.6986 16.8299C37.3676 16.9549 37.0594 17.1323 36.7538 17.3011C36.4521 17.4786 36.1732 17.6955 35.9015 17.9088C35.8219 17.9715 35.8081 18.0867 35.8704 18.1663C35.9145 18.2228 35.9855 18.246 36.0511 18.233L36.071 18.229C36.4064 18.1606 36.7211 18.0646 37.0377 17.986C37.3626 17.9309 37.6642 17.8223 37.9851 17.7882L38.4524 17.6991C38.6099 17.6821 38.7671 17.6684 38.9221 17.6459C39.0768 17.6202 39.2328 17.6111 39.3886 17.6021C39.5443 17.5941 39.6986 17.5745 39.8536 17.5735C40.4748 17.547 41.0879 17.5995 41.7065 17.6463C42.3262 17.6923 42.9572 17.7651 43.6261 17.8266L43.6518 17.8292C43.7554 17.8386 43.847 17.7625 43.8565 17.6589C43.8623 17.6028 43.8423 17.5499 43.8069 17.5119Z" fill="#A17C6D"/>
<path d="M67.785 94.2674C67.785 94.2674 67.4956 94.5891 67.6865 93.6963C67.9458 92.483 67.342 90.6627 65.8364 91.5978C63.9716 89.4573 62.7 88.9521 61.2371 90.3483C59.1676 92.5511 54.9514 95.0892 54.0228 98.3478C47.5557 100.302 40.9075 104.743 35.6479 97.2916C33.7364 93.2084 28.0744 90.1129 24.9745 89.5939C24.2175 90.3197 22.9474 91.3983 22.3998 92.2921C20.0199 90.7539 20.1695 93.9864 20.9876 95.3601C20.796 96.0671 20.8326 96.7556 21.1194 97.43C20.8152 98.5524 21.7026 100.218 22.3741 100.712C22.0028 100.656 22.0256 100.551 20.7189 100.395C20.4798 98.7672 20.306 96.9001 20.11 95.2544C15.7244 92.5235 12.0265 92.0976 7.03569 91.0821C7.03569 99.2735 7.44171 104.437 9.21929 113.333C9.41342 114.304 10.2211 115.032 11.2062 115.138C22.863 116.399 32.5901 115.879 43.7485 111.654C58.2082 113.991 65.5181 117.055 75.758 114.948C78.93 106.312 77.4614 99.6701 77.4614 91.571C73.7801 92.4971 72.0569 92.7202 67.785 94.2674Z" fill="#FFD8CA"/>
<path d="M23.8028 92.7931C23.8503 92.7931 23.8981 92.7916 23.9459 92.7887C24.6369 92.7452 25.2447 92.386 25.7807 92.0694C25.8669 92.0183 25.8955 91.9075 25.8448 91.8213C25.7933 91.7351 25.6818 91.7072 25.5967 91.7576C25.0954 92.0539 24.5275 92.3896 23.9231 92.4276C23.4472 92.4569 22.9777 92.3067 22.5207 92.1611C22.4236 92.1299 22.3233 92.1839 22.2929 92.2788C22.2625 92.374 22.3153 92.4758 22.4102 92.5062C22.8354 92.6413 23.3121 92.7931 23.8028 92.7931Z" fill="#895554"/>
<path d="M28.7122 93.664C28.789 93.664 28.86 93.6151 28.885 93.5384C28.9154 93.4431 28.8629 93.3413 28.7676 93.3105C27.4873 92.8998 26.1694 92.5532 24.8514 92.2809C24.755 92.2617 24.6576 92.3236 24.6373 92.4218C24.6167 92.5196 24.6797 92.6155 24.7779 92.6358C26.0835 92.9056 27.3888 93.2486 28.6576 93.6557C28.6753 93.6611 28.6938 93.664 28.7122 93.664Z" fill="#895554"/>
<path d="M22.616 95.7425C22.6642 95.7425 22.7124 95.7234 22.7475 95.6857C22.8159 95.6129 22.813 95.4981 22.7398 95.4296C22.043 94.7726 21.352 94.0935 20.6852 93.4112C20.6157 93.3398 20.5009 93.3384 20.4292 93.4083C20.3578 93.4782 20.3564 93.5926 20.4263 93.6644C21.0963 94.35 21.7913 95.0327 22.4914 95.6933C22.5269 95.7262 22.5715 95.7425 22.616 95.7425Z" fill="#895554"/>
<path d="M22.4643 97.4732C22.5041 97.4732 22.5443 97.4601 22.5777 97.4333C22.6559 97.371 22.6682 97.257 22.6059 97.1787L21.1322 95.3385C21.0688 95.2599 20.9547 95.2479 20.8776 95.3102C20.7994 95.3725 20.787 95.4866 20.8493 95.5648L22.323 97.4051C22.3585 97.45 22.4111 97.4732 22.4643 97.4732Z" fill="#895554"/>
<path d="M22.4653 99.3604C22.4975 99.3604 22.5301 99.3521 22.5595 99.334C22.6446 99.2822 22.6721 99.1706 22.6203 99.0852C22.2545 98.4828 21.8279 97.9135 21.3509 97.3941C21.2828 97.3202 21.1683 97.3159 21.0952 97.3829C21.0217 97.4506 21.0166 97.5651 21.0843 97.639C21.5446 98.1413 21.9572 98.6911 22.3106 99.2731C22.3447 99.3296 22.4041 99.3604 22.4653 99.3604Z" fill="#895554"/>
<path d="M37.7393 102.068C39.3962 102.068 41.0782 102.028 42.7993 101.95C42.8992 101.945 42.9764 101.86 42.9721 101.76C42.9673 101.661 42.8902 101.587 42.7834 101.587C35.7288 101.911 29.3302 101.575 22.6443 100.533C22.5462 100.519 22.4527 100.585 22.4375 100.685C22.4223 100.783 22.49 100.876 22.5885 100.891C27.6674 101.683 32.5815 102.068 37.7393 102.068Z" fill="#895554"/>
<path d="M12.6991 102.372C12.7303 102.372 12.7621 102.364 12.7907 102.347C15.1417 100.968 17.6794 100.405 20.5421 100.622C20.6424 100.628 20.729 100.555 20.7367 100.455C20.7443 100.355 20.6693 100.268 20.5697 100.26C17.6273 100.037 15.024 100.617 12.6075 102.034C12.5213 102.085 12.4923 102.196 12.5427 102.282C12.5767 102.34 12.6372 102.372 12.6991 102.372Z" fill="#895554"/>
<path d="M44.0469 111.661C44.0701 111.661 44.094 111.657 44.1168 111.647C45.4149 111.104 46.7267 110.531 47.995 109.978C50.6111 108.836 53.3158 107.655 56.0427 106.671C56.6142 106.465 57.532 106.248 58.5946 105.996C62.4598 105.08 68.3014 103.697 67.769 100.427C67.7661 100.408 67.76 100.389 67.7509 100.373C67.4909 99.8719 67.5778 99.3387 68.0102 98.7886C68.6857 98.003 68.3452 97.4221 68.0711 96.9552C67.8288 96.542 67.6194 96.1849 67.9378 95.655C68.1449 95.1183 68.133 94.7224 67.916 94.4497C67.8534 94.3714 67.7393 94.3591 67.6618 94.4203C67.5832 94.4826 67.5702 94.5964 67.6325 94.6749C67.7639 94.8408 67.7578 95.1175 67.6129 95.4975C67.1979 96.1827 67.509 96.7126 67.7585 97.1385C68.0287 97.5992 68.2424 97.9628 67.7303 98.5586C67.2123 99.2178 67.1055 99.8907 67.4159 100.513C67.8541 103.431 62.2338 104.762 58.511 105.644C57.4375 105.898 56.511 106.117 55.9196 106.331C53.1818 107.319 50.4716 108.502 47.8502 109.646C46.5829 110.199 45.2729 110.771 43.977 111.313C43.885 111.352 43.8415 111.458 43.8799 111.55C43.9089 111.62 43.9759 111.661 44.0469 111.661Z" fill="#895554"/>
<path d="M60.6094 93.8774C60.6322 93.8774 60.6546 93.8734 60.6771 93.8644L65.7425 91.8333C65.8353 91.796 65.8802 91.6909 65.8429 91.5978C65.8056 91.5048 65.7006 91.4591 65.6075 91.4972L60.542 93.5283C60.4493 93.5656 60.4044 93.6706 60.4417 93.7637C60.4696 93.8347 60.5377 93.8774 60.6094 93.8774Z" fill="#895554"/>
<path d="M63.6152 92.4772C63.6775 92.4772 63.7398 92.4743 63.8014 92.4678C63.901 92.4577 63.9734 92.3686 63.9629 92.269C63.9528 92.1694 63.8583 92.0995 63.7645 92.1074C63.4772 92.1371 63.1781 92.0803 62.9213 91.9484C62.8326 91.9028 62.7231 91.9376 62.6775 92.0263C62.6315 92.1154 62.6667 92.2244 62.7558 92.2701C63.0187 92.4059 63.3182 92.4772 63.6152 92.4772Z" fill="#895554"/>
<path d="M74.3949 102.292C74.4731 102.292 74.5448 102.241 74.5684 102.163C74.597 102.067 74.5426 101.966 74.4466 101.937C71.8317 101.156 69.3204 100.847 67.7279 101.114C67.6297 101.13 67.5627 101.224 67.5794 101.323C67.596 101.421 67.6876 101.488 67.788 101.472C69.3276 101.213 71.7785 101.518 74.3427 102.284C74.3605 102.289 74.3782 102.292 74.3949 102.292Z" fill="#895554"/>
<path d="M116.342 298.09C117.17 284.566 119.985 267.355 122.418 252.194C124.373 240.013 125.429 227.063 126.469 215.286L106.61 216.764C106.315 227.658 110.373 241.947 108.157 252.395C104.274 267.82 107.881 272.755 109.369 293.502C109.741 298.679 108.202 300.64 107.265 302.258C106.327 303.876 105.41 305.756 106.003 307.521C106.995 310.277 110.369 310.836 112.828 311.849C117.647 313.912 121.084 317.226 126.242 316.316C130.332 315.594 126.158 311.769 122.803 309.812C118.503 307.304 116.001 303.462 116.342 298.09Z" fill="#FFD8CA"/>
<path d="M78.523 215.78C77.6884 224.819 78.0687 233.931 77.2551 242.667C77.1203 244.113 76.7104 245.525 76.0456 246.826C69.6545 259.327 70.4034 269.717 67.573 290.235C67.0002 294.388 64.7036 296.131 63.2502 298.103C62.4311 299.215 62.2449 301.008 62.7413 303.458C64.9094 314.172 61.5981 312.546 64.7963 317.684C67.3174 321.734 74.0576 320.022 73.145 315.112C71.8327 308.056 70.6863 303.051 72.8948 296.002C77.714 280.616 84.1285 263.884 90.3606 249C94.5867 238.905 97.3236 228.622 98.6407 217.623L78.523 215.78Z" fill="#FFD8CA"/>
<mask id="mask1_1_1139" style="mask-type:luminance" maskUnits="userSpaceOnUse" x="62" y="215" width="37" height="105">
<path d="M78.523 215.78C77.6884 224.819 78.0687 233.931 77.2551 242.667C77.1203 244.113 76.7104 245.525 76.0456 246.826C69.6545 259.327 70.4034 269.717 67.573 290.235C67.0002 294.388 64.7036 296.131 63.2502 298.103C62.4311 299.215 62.2449 301.008 62.7413 303.458C64.9094 314.172 61.5981 312.546 64.7963 317.684C67.3174 321.734 74.0576 320.022 73.145 315.112C71.8327 308.056 70.6863 303.051 72.8948 296.002C77.714 280.616 84.1285 263.884 90.3606 249C94.5867 238.905 97.3236 228.622 98.6407 217.623L78.523 215.78Z" fill="white"/>
</mask>
<g mask="url(#mask1_1_1139)">
<path d="M65.2335 295.26C64.5727 299.931 64.794 304.719 65.882 309.313C67.5902 308.351 69.808 308.304 71.5576 309.194C70.8359 305.987 71.0947 302.578 72.2909 299.508C71.8631 304.144 72.3018 308.855 73.5799 313.342C74.0942 315.147 74.7184 317.178 73.749 318.797C73.1302 319.83 71.9402 320.462 70.7214 320.63C69.5026 320.798 68.2572 320.548 67.1008 320.137C65.6637 319.626 64.2742 318.821 63.4481 317.571C61.7867 315.056 62.8816 311.764 62.7094 308.781C62.6127 307.11 62.1007 305.492 61.7274 303.859C61.3549 302.225 61.1227 300.505 61.5832 298.892C62.0438 297.28 63.3398 295.798 65.2335 295.26Z" fill="#383838"/>
</g>
<mask id="mask2_1_1139" style="mask-type:luminance" maskUnits="userSpaceOnUse" x="105" y="215" width="23" height="102">
<path d="M116.342 298.09C117.17 284.566 119.985 267.355 122.418 252.194C124.373 240.013 125.429 227.063 126.469 215.286L106.61 216.764C106.315 227.658 110.373 241.947 108.157 252.395C104.274 267.82 107.881 272.755 109.369 293.502C109.741 298.679 108.202 300.64 107.265 302.258C106.327 303.876 105.41 305.756 106.003 307.521C106.995 310.277 110.369 310.836 112.828 311.849C117.647 313.912 121.084 317.226 126.242 316.316C130.332 315.594 126.158 311.769 122.803 309.812C118.503 307.304 116.001 303.462 116.342 298.09Z" fill="white"/>
</mask>
<g mask="url(#mask2_1_1139)">
<path d="M106.754 302.573C110.194 306.205 114.442 309.112 119.123 311.037C119.522 309.718 120.514 308.579 121.787 307.976C123.344 309.236 124.9 310.496 126.457 311.755C127.357 312.483 128.32 313.318 128.473 314.445C128.685 315.992 127.169 317.356 125.583 317.617C123.997 317.879 122.399 317.347 120.884 316.822C118.678 316.058 116.471 315.293 114.264 314.529C111.8 313.675 109.252 312.771 107.39 310.988C105.528 309.204 104.557 306.273 106.754 302.573Z" fill="#383838"/>
</g>
<path d="M92.1416 87.0032C92.0831 87.0985 92.0278 87.1946 91.9763 87.2922C91.4612 88.2733 90.5464 89.0003 89.4772 89.3703C82.8882 91.6465 78.7165 93.7003 74.8729 97.4313C67.2646 104.817 65.304 129.149 65.1691 129.56C57.9684 151.55 63.0222 162.516 87.6832 153.952C88.9527 153.511 90.2658 153.211 91.5275 153.672C101.588 157.353 108.947 156.852 119.252 151.874C120.766 151.143 122.265 147.881 123.597 148.893C131.047 154.55 144.769 155.694 144.606 143.862C144.604 143.672 144.589 143.477 144.566 143.287C143.596 135.436 142.287 130.935 139.707 123.487C134.324 109.762 127.231 93.8063 111.268 89.89C110.039 89.5889 109.078 88.7227 108.476 87.6402C108.159 87.0721 107.73 86.5614 107.219 86.1476C106.482 85.5508 105.53 85.2618 104.571 85.2414L95.9913 85.0537C94.4483 85.0189 92.9349 85.718 92.1416 87.0032Z" fill="#FFF7EE"/>
<path d="M68.8874 138.305C68.8422 138.305 68.7977 138.295 68.7556 138.273C68.6239 138.202 68.5764 138.041 68.6481 137.913C70.7795 134.162 74.6705 134.513 78.4369 134.851C81.0748 135.089 83.8008 135.335 85.8932 134.161C86.6803 133.72 87.4067 133.142 88.1097 132.583C89.9886 131.09 91.9322 129.547 94.9449 130.831C96.3344 129.496 97.2228 128.429 98.0816 127.397L98.5063 127.729C97.6101 128.806 96.6828 129.92 95.1935 131.336C95.1109 131.414 94.9877 131.434 94.8864 131.386C92.0825 130.11 90.4016 131.446 88.4549 132.993C87.7356 133.565 86.9914 134.156 86.1653 134.619C83.9225 135.878 81.1068 135.624 78.3863 135.379C74.6347 135.04 71.0865 134.72 69.1258 138.168C69.0767 138.256 68.9832 138.305 68.8874 138.305Z" fill="#948E91"/>
<path d="M81.5218 135.276C81.44 135.276 81.3582 135.24 81.3052 135.171C80.7916 134.515 81.0238 133.887 81.2491 133.281C81.3792 132.93 81.514 132.568 81.514 132.182C81.514 130.337 81.1376 129.343 80.7012 128.191C80.0045 126.353 79.2159 124.271 79.5417 118.233C78.7 116.03 77.8209 113.694 76.9419 111.357C76.8904 111.22 76.9629 111.068 77.1047 111.018C77.2466 110.97 77.4032 111.038 77.4546 111.176C78.3391 113.53 79.2244 115.883 80.0723 118.1C80.0855 118.134 80.0902 118.17 80.0887 118.206C79.7614 124.179 80.5321 126.213 81.2117 128.009C81.6473 129.158 82.0579 130.243 82.0579 132.182C82.0579 132.661 81.9006 133.086 81.7619 133.461C81.5336 134.076 81.4198 134.443 81.7385 134.851C81.8297 134.968 81.8063 135.134 81.687 135.222C81.6379 135.259 81.5802 135.276 81.5218 135.276Z" fill="#948E91"/>
<path d="M93.9188 150.819C93.7224 150.819 93.5267 150.817 93.3327 150.815C93.1823 150.814 93.0608 150.694 93.0623 150.548C93.0639 150.402 93.1854 150.286 93.3351 150.286H93.3374C94.331 150.294 95.3558 150.304 96.3198 150.059C96.9261 149.906 98.0304 149.502 98.6078 148.525C98.9819 147.891 99.0614 147.151 99.144 146.368C99.2055 145.788 99.2695 145.188 99.4628 144.619C99.7246 143.846 100.205 143.183 100.671 142.542C100.992 142.1 101.324 141.644 101.569 141.166C102.542 139.279 102.168 136.792 100.681 135.253C100.59 135.159 100.582 135.015 100.662 134.912C101.903 133.315 102.959 131.793 103.982 130.321C104.065 130.199 104.236 130.166 104.36 130.249C104.485 130.33 104.518 130.495 104.434 130.616C103.445 132.041 102.425 133.511 101.233 135.057C102.742 136.76 103.094 139.391 102.059 141.403C101.794 141.917 101.45 142.39 101.118 142.848C100.655 143.485 100.218 144.087 99.9809 144.785C99.8064 145.3 99.7456 145.871 99.6872 146.422C99.6022 147.226 99.5134 148.058 99.0817 148.789C98.5798 149.637 97.6493 150.27 96.4593 150.572C95.6185 150.786 94.7612 150.819 93.9188 150.819Z" fill="#948E91"/>
<path d="M122.137 149.137C120.205 149.137 118.552 147.727 117.626 146.358C117.016 145.459 116.566 144.465 116.13 143.505C115.827 142.836 115.515 142.145 115.153 141.5C114.721 140.729 114.2 139.986 113.696 139.268C113.129 138.459 112.543 137.623 112.07 136.732C111.452 135.563 110.568 133.323 111.469 131.251C110.176 129.807 109.265 128.558 108.383 127.35C108.295 127.231 108.324 127.066 108.447 126.982C108.569 126.897 108.74 126.924 108.827 127.044C109.727 128.277 110.658 129.552 111.994 131.031C112.066 131.11 112.082 131.222 112.037 131.318C111.363 132.713 111.552 134.599 112.555 136.491C113.012 137.353 113.588 138.175 114.146 138.969C114.658 139.699 115.187 140.454 115.632 141.248C116.004 141.913 116.322 142.614 116.628 143.293C117.055 144.233 117.495 145.206 118.079 146.068C118.967 147.377 120.565 148.718 122.379 148.601C122.536 148.581 122.66 148.7 122.67 148.845C122.682 148.991 122.569 149.118 122.419 149.128C122.325 149.134 122.231 149.137 122.137 149.137Z" fill="#948E91"/>
<path d="M140.557 135.654C140.467 135.654 140.378 135.61 140.326 135.53C139.379 134.058 138.4 132.537 137.11 131.315C135.693 129.976 134.042 129.192 132.462 129.111C131.671 129.071 130.853 129.201 130.062 129.326C129.106 129.478 128.119 129.634 127.128 129.508C125.546 129.305 124.207 128.425 122.912 127.572C122.538 127.326 122.163 127.08 121.784 126.85C121.021 126.39 118.386 124.982 116.506 126.223C116.395 126.295 116.251 126.281 116.158 126.191C114.518 124.583 113.35 123.502 112.223 122.456L112.382 122.238L112.599 122.073C113.694 123.088 114.825 124.136 116.391 125.667C118.454 124.486 121.036 125.775 122.072 126.4C122.457 126.633 122.837 126.884 123.219 127.134C124.461 127.952 125.745 128.797 127.2 128.983C128.111 129.098 129.015 128.956 129.974 128.803C130.793 128.673 131.641 128.536 132.491 128.581C134.203 128.669 135.979 129.506 137.49 130.935C138.828 132.202 139.825 133.75 140.788 135.248C140.868 135.372 140.829 135.536 140.702 135.613C140.657 135.641 140.607 135.654 140.557 135.654Z" fill="#948E91"/>
<path d="M124.348 127.878C124.317 127.878 124.285 127.872 124.254 127.862C124.112 127.812 124.04 127.658 124.093 127.522C124.923 125.339 124.938 122.831 124.135 120.637C123.926 120.068 123.658 119.496 123.398 118.942C122.79 117.647 122.162 116.308 122.207 114.849C122.736 112.488 122.98 110.929 123.216 109.422C123.239 109.279 123.373 109.177 123.526 109.201C123.675 109.222 123.777 109.357 123.754 109.502C123.518 111.017 123.273 112.583 122.745 114.913C122.71 116.199 123.285 117.424 123.895 118.722C124.16 119.286 124.433 119.869 124.65 120.459C125.495 122.767 125.478 125.408 124.605 127.704C124.564 127.812 124.46 127.878 124.348 127.878Z" fill="#948E91"/>
<path d="M125.034 121.606C124.883 121.606 124.76 121.487 124.761 121.341C124.767 118.797 125.215 116.29 126.09 113.892C126.14 113.753 126.295 113.682 126.439 113.73C126.581 113.779 126.655 113.931 126.605 114.069C125.748 116.411 125.312 118.858 125.306 121.341C125.307 121.487 125.185 121.606 125.034 121.606Z" fill="#948E91"/>
<path d="M97.3625 94.1315C96.5669 94.1315 95.786 93.9673 95.08 93.8001C94.1253 93.5747 93.0312 93.2797 92.1249 92.6405C91.125 91.9324 90.5459 90.8688 90.6137 89.8634C90.6246 89.7174 90.758 89.6123 90.9037 89.616C91.0541 89.6259 91.1687 89.7522 91.1585 89.8974C91.0915 90.8854 91.7796 91.741 92.4459 92.2123C93.272 92.7955 94.3054 93.0724 95.2094 93.2865C96.1882 93.518 97.3197 93.7434 98.3655 93.4899C99.3794 93.2441 100.283 92.4339 100.615 91.4747C100.65 91.3734 100.744 91.3022 100.855 91.2954C100.965 91.2848 101.067 91.3446 101.117 91.4399C101.907 92.9665 103.874 93.8727 105.588 93.502C107.306 93.1321 108.691 91.5042 108.741 89.7976C108.745 89.6508 108.87 89.5245 109.021 89.5404C109.171 89.5442 109.291 89.666 109.286 89.812C109.228 91.7834 107.689 93.5921 105.707 94.0195C103.907 94.4053 101.939 93.6132 100.911 92.1427C100.419 93.0413 99.5049 93.76 98.498 94.0051C98.1216 94.0951 97.7405 94.1315 97.3625 94.1315Z" fill="#948E91"/>
<path d="M105.052 113.835C104.927 113.835 104.814 113.752 104.785 113.628C103.171 106.632 101.725 99.4956 100.492 92.4188C100.467 92.2751 100.567 92.1382 100.715 92.114C100.869 92.086 101.005 92.1873 101.029 92.3303C102.261 99.3989 103.704 106.526 105.318 113.513C105.35 113.655 105.258 113.797 105.11 113.829C105.091 113.833 105.071 113.835 105.052 113.835Z" fill="#948E91"/>
<path d="M107.988 150.094C107.985 150.094 107.982 150.094 107.98 150.094C107.83 150.09 107.71 149.968 107.715 149.822C107.911 143.083 107.522 136.279 106.558 129.597C106.537 129.453 106.64 129.319 106.79 129.298C106.945 129.278 107.077 129.379 107.099 129.523C108.067 136.234 108.458 143.069 108.26 149.837C108.257 149.981 108.135 150.094 107.988 150.094Z" fill="#948E91"/>
<path d="M91.7613 151.271C71.1503 163.65 72.4253 194.181 59.2691 211.097C88.3948 223.582 111.482 218.328 141.261 213.685C136.754 192.711 136.071 168.007 123.424 148.893L91.7613 151.271Z" fill="#D6D9AF"/>
<mask id="mask3_1_1139" style="mask-type:luminance" maskUnits="userSpaceOnUse" x="59" y="148" width="83" height="71">
<path d="M91.7613 151.271C71.1503 163.65 72.4253 194.181 59.2691 211.097C88.3948 223.582 111.482 218.328 141.261 213.685C136.754 192.711 136.071 168.007 123.424 148.893L91.7613 151.271Z" fill="white"/>
</mask>
<g mask="url(#mask3_1_1139)">
<path d="M94.5353 224.481C94.4994 224.481 94.4627 224.474 94.4284 224.46C94.3373 224.422 94.2742 224.34 94.2633 224.244C93.9227 221.048 93.5689 217.726 93.3383 214.344C92.5184 214.649 91.7196 215.029 90.9372 215.4C89.5718 216.049 88.1605 216.72 86.6362 217.012C84.5414 217.413 82.4201 217.058 80.4462 216.42C80.302 218.096 80.1703 219.768 80.0402 221.431C80.0292 221.576 79.9062 221.672 79.7503 221.675C74.2663 221.319 68.7871 219.838 63.9047 217.391C63.8268 217.353 63.7738 217.281 63.7597 217.198C63.7457 217.115 63.7746 217.03 63.8354 216.97C65.5911 215.246 67.1014 213.235 68.3974 210.874L55.9425 204.845C55.8077 204.78 55.7532 204.621 55.8202 204.49C55.888 204.358 56.0532 204.308 56.1865 204.371L68.6499 210.405C69.829 208.168 70.8226 205.626 71.6557 202.729C71.4313 202.623 71.2061 202.518 70.9816 202.415C66.3151 200.266 62.6633 199.878 59.8212 201.229C59.7245 201.274 59.6084 201.261 59.525 201.193C59.4432 201.126 59.4089 201.018 59.4393 200.917L62.9057 189.313C62.9275 189.238 62.9828 189.176 63.0553 189.145C63.127 189.113 63.2119 189.113 63.2836 189.147C66.7094 190.715 70.2163 191.986 73.7458 192.946C73.8596 192.273 73.9709 191.603 74.0816 190.94C74.4736 188.576 74.8742 186.166 75.3738 183.77L68.3959 182.369C68.3172 182.353 68.2501 182.305 68.2119 182.236C68.1737 182.168 68.1683 182.087 68.1972 182.014L72.8325 170.365C72.8839 170.231 73.0366 170.164 73.1761 170.21C75.1298 170.87 77.0968 171.477 79.0762 172.033C80.2179 169.43 81.5334 166.905 82.9603 164.44C80.6325 164.107 78.3188 164.101 76.0712 164.763C75.9801 164.791 75.8756 164.768 75.8047 164.702C75.733 164.637 75.7034 164.539 75.7268 164.446C76.7929 160.233 81.206 157.96 84.6615 157.292C85.6613 157.099 86.6729 156.993 87.6883 156.945C89.2539 154.62 90.8655 152.334 92.4631 150.067C92.548 149.945 92.7179 149.915 92.8418 149.998C92.9665 150.08 92.9984 150.245 92.9135 150.365C91.39 152.527 89.8532 154.707 88.3561 156.921C89.6716 156.889 90.9878 156.946 92.2939 157.029C94.7931 151.095 100.217 146.335 106.671 144.781C106.781 144.754 106.905 144.8 106.968 144.898C107.03 144.996 107.02 145.121 106.945 145.208C104.386 148.149 102.861 152.064 102.238 157.373C104.57 157.293 106.894 157.085 109.202 156.751C109.174 152.538 109.605 148.364 111.16 144.405C111.192 144.325 111.262 144.264 111.349 144.242C111.435 144.223 111.527 144.242 111.593 144.3C112.753 145.279 114.411 145.707 115.917 145.419C115.996 145.407 116.069 145.421 116.131 145.465C116.192 145.509 116.232 145.575 116.241 145.648L117.37 155.041C119.427 154.523 121.54 154.061 123.682 154.192C123.754 154.196 123.827 154.201 123.899 154.207C123.339 152.424 122.769 150.647 122.201 148.88L121.42 146.446C121.397 146.372 121.407 146.292 121.45 146.226C121.494 146.16 121.564 146.116 121.643 146.105L124.658 145.693C124.787 145.679 124.9 145.742 124.948 145.852L130.135 157.745C130.285 158.02 130.413 158.311 130.514 158.619C130.559 158.754 130.486 158.898 130.35 158.948C130.212 158.997 130.061 158.933 130.004 158.804L129.641 157.972C128.667 156.218 126.645 155.191 124.666 154.841C125.59 157.803 126.48 160.785 127.28 163.79C128.962 163.949 130.711 164.42 132.263 165.445C134.971 167.232 136.447 170.817 135.935 174.365C135.919 174.476 135.834 174.564 135.721 174.588C133.761 174.99 131.793 175.343 129.819 175.646C130.38 179.337 130.698 183.053 130.671 186.795C130.67 186.893 130.669 186.99 130.668 187.088C133.657 187.857 137.356 187.604 139.395 185.308C139.446 185.25 139.522 185.217 139.602 185.217H139.769C139.902 185.217 140.015 185.31 140.038 185.438L142.007 196.811C142.026 196.918 141.975 197.025 141.879 197.081C141.784 197.136 141.662 197.132 141.572 197.064C138.907 195.08 135.093 194.45 130.221 195.183C130.202 195.415 130.184 195.647 130.166 195.877C129.932 198.814 129.694 201.793 129.668 204.757C131.887 204.887 134.146 205.155 136.456 205.432C138.369 205.659 140.346 205.895 142.305 206.045C142.429 206.055 142.53 206.144 142.552 206.262L144.029 214.335C144.046 214.433 144.007 214.533 143.924 214.593C143.843 214.652 143.734 214.664 143.641 214.619C139.616 212.72 134.945 212.927 130.488 213.77C130.685 214.659 130.923 215.541 131.209 216.413C131.231 216.481 131.225 216.554 131.191 216.617C131.157 216.68 131.099 216.727 131.03 216.747C127.482 217.809 124.204 219.701 121.549 222.218C121.493 222.272 121.415 222.301 121.336 222.293C121.258 222.287 121.186 222.247 121.139 222.185C119.931 220.581 119.016 218.731 118.394 216.646C115.176 217.248 111.936 217.491 108.734 216.818C108.254 216.718 107.775 216.596 107.297 216.46C107.596 217.597 107.974 218.723 108.443 219.826C108.479 219.909 108.468 220.004 108.415 220.079C108.362 220.153 108.272 220.196 108.18 220.191C103.394 220.011 98.4769 221.553 94.7036 224.425C94.6545 224.462 94.5953 224.481 94.5353 224.481ZM93.8728 214.155C94.091 217.417 94.4269 220.626 94.7565 223.719C98.4629 221.036 103.157 219.572 107.782 219.65C107.334 218.542 106.973 217.414 106.688 216.278C105.785 216 104.891 215.681 104.013 215.368C100.991 214.291 98.1364 213.276 95.1532 213.825C94.7199 213.904 94.2936 214.018 93.8728 214.155ZM118.929 216.54C119.502 218.443 120.325 220.14 121.396 221.625C124.005 219.217 127.179 217.389 130.607 216.32C130.35 215.511 130.135 214.695 129.953 213.874C128.738 214.118 127.543 214.405 126.383 214.706L124.86 215.105C122.903 215.621 120.921 216.143 118.929 216.54ZM64.4829 217.084C69.1361 219.361 74.3202 220.756 79.5173 221.129C79.6444 219.506 79.7729 217.876 79.9147 216.242C78.3327 215.686 76.8591 214.972 75.5857 214.356L68.8852 211.112C67.6274 213.405 66.1686 215.378 64.4829 217.084ZM107.147 215.862C107.714 216.031 108.281 216.18 108.849 216.299C111.947 216.95 115.103 216.715 118.247 216.131C117.518 213.438 117.261 210.37 117.482 206.942C117.213 207.044 116.946 207.147 116.681 207.248C114.284 208.17 111.811 209.119 109.201 208.89C108.19 208.799 107.229 208.535 106.3 208.173C106.302 210.682 106.533 213.292 107.147 215.862ZM80.4945 215.87C82.523 216.546 84.5313 216.874 86.5318 216.491C87.9852 216.214 89.3638 215.559 90.6972 214.925C91.5427 214.524 92.4054 214.113 93.3024 213.79C93.092 210.496 93.0062 207.15 93.1706 203.813C91.7437 204.037 90.3129 204.466 88.8361 204.91C86.7094 205.548 84.511 206.208 82.2674 206.208C82.0391 206.206 81.8131 206.201 81.5894 206.188C81.1141 209.405 80.7774 212.644 80.4945 215.87ZM118.042 206.733C117.797 210.216 118.045 213.321 118.783 216.028C120.774 215.634 122.758 215.111 124.717 214.594L126.244 214.194C127.413 213.891 128.618 213.601 129.843 213.355C129.305 210.696 129.118 207.983 129.12 205.258C125.861 205.099 122.707 205.268 119.63 206.196C119.102 206.355 118.57 206.539 118.042 206.733ZM69.1377 210.642L75.8296 213.881C77.2183 214.553 78.5962 215.191 79.9639 215.686C80.2436 212.507 80.5764 209.316 81.0447 206.143C78.1278 205.844 75.408 204.534 72.7669 203.262C72.562 203.163 72.3586 203.065 72.1536 202.966C71.3159 205.857 70.3184 208.398 69.1377 210.642ZM96.8482 213.144C99.356 213.144 101.811 214.019 104.201 214.871C104.972 215.146 105.755 215.425 106.544 215.677C105.955 213.084 105.744 210.461 105.754 207.948C104.648 207.466 103.587 206.863 102.543 206.269C100.662 205.199 98.717 204.093 96.5918 203.764C95.6255 203.614 94.6732 203.624 93.7201 203.736C93.5526 207.035 93.6336 210.346 93.837 213.608C94.2337 213.484 94.6373 213.38 95.0503 213.304C95.6527 213.194 96.252 213.144 96.8482 213.144ZM136.417 212.621C138.825 212.621 141.194 212.984 143.401 213.927L142.053 206.556C140.152 206.404 138.24 206.177 136.391 205.957C134.101 205.684 131.861 205.417 129.666 205.287C129.666 207.973 129.85 210.641 130.378 213.251C132.37 212.873 134.408 212.621 136.417 212.621ZM106.303 207.606C107.249 207.993 108.218 208.271 109.25 208.362C111.728 208.582 114.143 207.653 116.479 206.755C116.823 206.623 117.172 206.489 117.522 206.359C117.546 206.059 117.572 205.759 117.603 205.455C117.859 202.922 118.316 200.376 118.758 197.913C118.789 197.734 118.821 197.554 118.854 197.374C117.825 197.47 116.791 197.502 115.755 197.441C113.698 197.319 111.674 196.827 109.716 196.352C109.054 196.19 108.381 196.026 107.703 195.877C107.533 196.755 107.37 197.635 107.221 198.51C106.779 201.094 106.344 204.245 106.303 207.606ZM95.1252 203.125C95.6411 203.125 96.1585 203.161 96.6775 203.241C98.904 203.586 100.894 204.717 102.818 205.812C103.81 206.376 104.776 206.926 105.76 207.372C105.817 204.064 106.246 200.97 106.682 198.422C106.834 197.537 106.999 196.648 107.171 195.761C106.59 195.64 106.007 195.532 105.424 195.446C102.154 194.968 98.7738 195.193 95.5039 195.41C95.253 195.427 95.0004 195.445 94.7456 195.46C94.2149 198.011 93.9032 200.602 93.7505 203.203C94.2071 203.154 94.6662 203.125 95.1252 203.125ZM119.418 197.315C119.377 197.545 119.337 197.775 119.295 198.004C118.855 200.457 118.4 202.994 118.147 205.507C118.125 205.723 118.104 205.938 118.087 206.152C118.546 205.987 119.008 205.83 119.469 205.691C122.614 204.742 125.823 204.57 129.122 204.728C129.15 201.758 129.388 198.777 129.622 195.837C129.637 195.649 129.652 195.461 129.668 195.272C129.436 195.311 129.202 195.353 128.966 195.398C127.798 195.621 126.611 195.894 125.462 196.159C123.482 196.613 121.462 197.079 119.418 197.315ZM81.6681 205.662C81.8466 205.671 82.0251 205.677 82.2044 205.677C82.2254 205.677 82.2464 205.677 82.2674 205.677C84.4277 205.677 86.5871 205.03 88.6757 204.403C90.1571 203.958 91.6682 203.504 93.1987 203.276C93.3483 200.666 93.6562 198.063 94.1823 195.498C93.219 195.558 92.244 195.612 91.2793 195.64C88.8408 195.713 86.3635 195.62 83.8744 195.37C82.8971 198.746 82.198 202.19 81.6681 205.662ZM72.3001 202.447C72.5362 202.56 72.7716 202.674 73.0085 202.788C75.6106 204.04 78.2907 205.332 81.1226 205.618C81.6518 202.145 82.3492 198.696 83.3234 195.313C80.2841 194.98 77.2261 194.41 74.1829 193.612C73.8883 195.33 73.5727 197.063 73.2049 198.766C72.9282 200.051 72.6266 201.277 72.3001 202.447ZM63.4972 199.912C65.7252 199.912 68.2813 200.585 71.2146 201.936C71.4102 202.026 71.605 202.117 71.8006 202.21C72.1139 201.08 72.4038 199.895 72.6711 198.657C73.0413 196.945 73.3584 195.201 73.6553 193.472C70.175 192.529 66.7196 191.287 63.339 189.757L60.1251 200.518C61.1569 200.114 62.2776 199.912 63.4972 199.912ZM107.806 195.356C108.496 195.508 109.178 195.674 109.85 195.837C111.783 196.307 113.782 196.793 115.789 196.912C116.844 196.976 117.899 196.937 118.952 196.833C119.446 194.053 119.915 191.202 120.064 188.367C120.138 186.969 120.134 185.566 120.078 184.162C116.965 183.939 114.061 185.069 110.992 186.259C110.508 186.448 110.019 186.637 109.527 186.821C109.214 188.498 108.87 190.161 108.53 191.805C108.287 192.973 108.041 194.162 107.806 195.356ZM120.626 184.213C120.679 185.607 120.682 187.002 120.609 188.392C120.462 191.205 120.003 194.022 119.517 196.768C121.478 196.531 123.427 196.082 125.336 195.642C126.489 195.376 127.683 195.101 128.861 194.876C129.147 194.822 129.43 194.771 129.711 194.726C129.898 192.332 130.074 189.887 130.117 187.486C130.036 187.462 129.954 187.437 129.874 187.412C128.696 187.039 127.541 186.547 126.423 186.071C124.562 185.279 122.641 184.46 120.626 184.213ZM133.921 194.357C136.904 194.357 139.393 194.995 141.361 196.266L139.567 185.911C137.369 188.11 133.684 188.376 130.66 187.632C130.612 189.962 130.446 192.324 130.264 194.64C131.554 194.452 132.775 194.357 133.921 194.357ZM101.102 194.634C102.575 194.634 104.047 194.711 105.505 194.924C106.096 195.01 106.686 195.119 107.273 195.242C107.508 194.05 107.752 192.865 107.994 191.701C108.312 190.163 108.634 188.608 108.931 187.042C107.414 187.594 105.862 188.076 104.275 188.314C101.852 188.676 99.363 188.452 96.9885 188.067C96.6471 188.934 96.3198 189.81 96.0268 190.688C95.56 192.083 95.1751 193.497 94.8602 194.925C95.0636 194.911 95.2655 194.898 95.4657 194.884C97.3213 194.76 99.2119 194.634 101.102 194.634ZM84.0255 194.854C86.4585 195.094 88.8759 195.181 91.2621 195.112C92.2674 195.082 93.2883 195.025 94.2952 194.96C94.6194 193.466 95.0207 191.984 95.5085 190.524C95.7946 189.669 96.111 188.817 96.4422 187.974C95.4867 187.808 94.5532 187.621 93.6523 187.44L87.375 186.18C86.9588 187.079 86.5388 187.997 86.153 188.908C85.327 190.859 84.6264 192.843 84.0255 194.854ZM74.2742 193.088C77.3368 193.893 80.4166 194.466 83.4754 194.797C84.0864 192.738 84.8033 190.706 85.6488 188.707C86.0221 187.825 86.4266 186.938 86.8287 186.07L75.9075 183.878C75.4096 186.264 75.0114 188.667 74.6194 191.024C74.5056 191.707 74.391 192.396 74.2742 193.088ZM97.1887 187.564C99.5095 187.939 101.858 188.138 104.192 187.79C105.836 187.545 107.457 187.021 109.044 186.434C109.618 183.327 110.078 180.177 110.202 177.031C107.149 176.997 104.098 176.847 101.056 176.58C100.983 176.942 100.904 177.302 100.816 177.66C100.161 180.357 99.0825 182.964 98.0398 185.485C97.7561 186.17 97.4685 186.864 97.1887 187.564ZM87.6041 185.685L93.7629 186.921C94.7137 187.112 95.6738 187.305 96.6401 187.473C96.9339 186.736 97.2355 186.008 97.5332 185.289C98.5689 182.786 99.6397 180.198 100.285 177.54C100.366 177.206 100.441 176.869 100.509 176.533C97.3976 176.247 94.2953 175.84 91.2108 175.312C91.1819 175.529 91.15 175.747 91.1141 175.964C90.5538 179.335 89.084 182.501 87.661 185.562C87.6431 185.602 87.6236 185.644 87.6041 185.685ZM120.603 183.677C122.73 183.919 124.718 184.766 126.642 185.586C127.748 186.057 128.891 186.545 130.042 186.908C130.069 186.917 130.096 186.925 130.124 186.933C130.125 186.886 130.125 186.837 130.126 186.79C130.152 183.081 129.837 179.392 129.28 175.727C126.191 176.187 123.086 176.527 119.977 176.744C120.246 179.031 120.491 181.35 120.603 183.677ZM110.748 177.036C110.628 180.112 110.19 183.181 109.639 186.21C110.024 186.064 110.407 185.915 110.788 185.767C113.761 184.614 116.833 183.426 120.054 183.628C119.941 181.333 119.698 179.041 119.433 176.781C116.541 176.971 113.646 177.056 110.748 177.036ZM76.0174 183.359L87.057 185.576C87.0929 185.498 87.1288 185.421 87.1646 185.344C88.5728 182.314 90.0285 179.182 90.5764 175.879C90.613 175.66 90.6457 175.439 90.6745 175.218C86.8809 174.551 83.1168 173.703 79.391 172.673C78.5735 174.577 77.8511 176.522 77.2495 178.517C76.7695 180.107 76.3681 181.727 76.0174 183.359ZM68.8206 181.914L75.4829 183.252C75.8367 181.609 76.2411 179.974 76.7258 178.367C77.3275 176.372 78.0483 174.427 78.8626 172.525C76.9791 171.995 75.1056 171.417 73.2454 170.795L68.8206 181.914ZM110.766 176.507C113.634 176.532 116.505 176.442 119.371 176.255C119.326 175.885 119.283 175.515 119.238 175.147L118.1 165.677C117.819 165.76 117.54 165.843 117.262 165.925C116.254 166.224 115.21 166.533 114.173 166.8C112.934 167.117 111.682 167.378 110.421 167.584C110.656 170.543 110.848 173.555 110.766 176.507ZM101.157 176.058C104.171 176.32 107.195 176.468 110.22 176.502C110.301 173.587 110.113 170.603 109.88 167.669C107.218 168.068 104.518 168.22 101.832 168.122C101.776 170.767 101.636 173.441 101.157 176.058ZM118.631 165.523L119.781 175.085C119.826 175.462 119.871 175.84 119.916 176.218C123.019 176.002 126.116 175.663 129.199 175.203C128.62 171.538 127.802 167.898 126.85 164.284C125.513 164.194 124.236 164.299 123.161 164.463C121.632 164.698 120.116 165.095 118.631 165.523ZM91.2738 174.784C94.3716 175.315 97.4872 175.723 100.611 176.01C101.091 173.409 101.231 170.741 101.286 168.099C98.71 167.973 96.1453 167.618 93.6313 167.035C92.8605 166.856 92.0797 166.653 91.3043 166.444C91.3152 167.169 91.3377 167.891 91.3603 168.605C91.4258 170.636 91.4928 172.725 91.2738 174.784ZM127.426 164.336C128.362 167.904 129.165 171.499 129.739 175.123C131.639 174.83 133.533 174.492 135.421 174.107C135.829 170.814 134.452 167.528 131.958 165.881C130.552 164.954 128.967 164.506 127.426 164.336ZM79.6046 172.181C83.279 173.195 86.9939 174.032 90.7353 174.69C90.9457 172.677 90.8795 170.621 90.8156 168.621C90.7907 167.853 90.7666 167.076 90.7564 166.295C90.4112 166.201 90.0675 166.105 89.7269 166.011C87.6821 165.445 85.6052 164.869 83.5362 164.529C82.0898 167.014 80.7579 169.558 79.6046 172.181ZM101.842 167.593C104.514 167.689 107.193 167.54 109.838 167.14C109.798 166.65 109.757 166.161 109.718 165.674C109.486 162.898 109.252 160.084 109.209 157.286C106.879 157.62 104.534 157.827 102.18 157.905C102.083 158.84 102.012 159.817 101.968 160.839C101.901 162.386 101.885 163.968 101.869 165.498C101.861 166.193 101.854 166.891 101.842 167.593ZM91.298 165.893C92.1194 166.115 92.9455 166.331 93.7575 166.519C96.2341 167.094 98.7598 167.444 101.296 167.569C101.308 166.875 101.315 166.182 101.322 165.494C101.339 163.96 101.354 162.374 101.422 160.817C101.466 159.811 101.535 158.847 101.63 157.923C99.9499 157.966 98.2704 157.94 96.5871 157.851C95.7346 157.804 94.8805 157.742 94.0248 157.68C93.5697 157.647 93.1122 157.615 92.6532 157.584C92.1334 158.892 91.7593 160.256 91.5512 161.653C91.344 163.048 91.291 164.474 91.298 165.893ZM109.753 157.206C109.793 160.015 110.029 162.842 110.26 165.633C110.3 166.105 110.34 166.579 110.378 167.055C111.606 166.853 112.826 166.598 114.032 166.288C115.06 166.024 116.098 165.716 117.101 165.419C117.41 165.328 117.722 165.235 118.034 165.144L116.9 155.708C116.826 155.726 116.753 155.745 116.681 155.764C116.279 155.866 115.879 155.969 115.478 156.067C113.586 156.534 111.675 156.914 109.753 157.206ZM83.8221 164.039C85.8514 164.387 87.8784 164.949 89.8766 165.502C90.1665 165.583 90.4587 165.664 90.7525 165.744C90.7494 164.354 90.8062 162.955 91.0112 161.579C91.2177 160.196 91.5809 158.846 92.0851 157.548C90.7237 157.464 89.3544 157.415 87.9914 157.463C86.545 159.617 85.1392 161.804 83.8221 164.039ZM117.434 155.571L118.566 164.989C120.039 164.566 121.546 164.174 123.075 163.94C124.137 163.778 125.39 163.675 126.706 163.745C125.898 160.728 125.001 157.731 124.07 154.755C123.928 154.739 123.788 154.728 123.648 154.72C121.562 154.597 119.472 155.058 117.434 155.571ZM87.3181 157.497C86.4608 157.55 85.6098 157.65 84.769 157.813C81.5972 158.425 77.5823 160.439 76.386 164.127C78.6452 163.55 80.9457 163.596 83.2494 163.946C84.5344 161.754 85.9052 159.609 87.3181 157.497ZM92.8683 157.068C93.2689 157.095 93.6679 157.124 94.0653 157.152C94.9179 157.214 95.7689 157.276 96.6176 157.322C98.3087 157.412 99.999 157.433 101.688 157.391C102.274 152.309 103.673 148.465 105.999 145.508C100.125 147.193 95.2234 151.608 92.8683 157.068ZM111.538 144.937C110.13 148.693 109.726 152.66 109.747 156.671C111.626 156.383 113.494 156.011 115.346 155.555C115.745 155.456 116.143 155.353 116.543 155.252C116.641 155.227 116.739 155.202 116.837 155.176L115.733 145.987C114.271 146.183 112.719 145.795 111.538 144.937ZM124.491 154.275C126.047 154.506 127.659 155.134 128.862 156.183L124.527 146.245L122.037 146.585L122.722 148.721C123.313 150.564 123.908 152.416 124.491 154.275Z" fill="#776F66"/>
</g>
<path d="M89.5681 165.958C89.5354 165.958 89.5018 165.952 89.4691 165.94C89.3288 165.888 89.2587 165.735 89.314 165.598C91.0901 161.153 93.2348 156.807 95.688 152.68C95.7628 152.554 95.9303 152.508 96.0605 152.583C96.1914 152.656 96.2358 152.818 96.1603 152.945C93.7218 157.048 91.5897 161.37 89.823 165.79C89.7801 165.894 89.6772 165.958 89.5681 165.958Z" fill="white"/>
<path d="M103.921 155.832C103.908 155.832 103.894 155.831 103.88 155.829C103.732 155.807 103.629 155.672 103.651 155.528L104.178 152.15C104.201 152.007 104.335 151.903 104.488 151.928C104.636 151.949 104.739 152.085 104.717 152.229L104.19 155.606C104.171 155.738 104.054 155.832 103.921 155.832Z" fill="white"/>
<path d="M114.57 155.013C114.567 155.013 114.564 155.013 114.562 155.013C114.411 155.009 114.292 154.887 114.297 154.741L114.402 151.261C114.406 151.115 114.538 151.012 114.682 151.004C114.832 151.008 114.952 151.13 114.947 151.275L114.842 154.756C114.838 154.9 114.716 155.013 114.57 155.013Z" fill="white"/>
<path d="M127.422 165.365C127.308 165.365 127.203 165.296 127.164 165.186C125.569 160.667 123.761 155.545 120.193 151.793C120.09 151.686 120.097 151.519 120.208 151.42C120.318 151.32 120.491 151.326 120.593 151.435C124.24 155.269 126.068 160.447 127.681 165.015C127.73 165.153 127.654 165.304 127.511 165.351C127.481 165.361 127.451 165.365 127.422 165.365Z" fill="white"/>
<path d="M106.611 47.3314C89.1857 44.2216 84.2005 63.7221 90.8549 75.446C86.2602 76.3031 86.6857 80.034 86.7067 83.4707C85.9679 85.2287 83.111 84.9557 81.8587 86.4149C80.332 88.1934 82.0925 91.3252 80.4988 93.047C78.2607 94.3761 79.8185 96.6591 82.0411 95.6167C85.2284 94.5289 83.9465 90.9106 85.1622 88.766C86.6101 87.0359 89.9744 88.4801 91.5431 86.8529C92.7666 85.5843 92.1642 83.094 93.7197 82.2323C94.5013 81.9804 97.1283 81.3382 95.8144 80.3359C99.3088 81.9252 103.586 81.7807 106.959 79.9598C106.494 83.631 109.837 84.7869 112.714 85.6024C113.965 86.6811 112.7 88.8863 113.611 90.2479C114.441 91.4863 116.393 91.1928 117.749 91.863C119.672 92.8593 120.204 95.5093 122.27 96.3021C123.455 96.7665 125.165 96.1046 125.156 94.864C125.142 93.0016 121.807 92.6975 121.485 90.8607C121.252 89.5301 120.888 88.7017 120.631 87.3749C120.105 85.231 116.859 86.1781 115.622 84.7151C114.206 80.9713 115.434 79.8365 111.129 78.108C119.307 74.2477 124.304 50.489 106.611 47.3314Z" fill="#383838"/>
<path d="M105.312 52.558C103.256 58.2051 97.2804 60.4768 91.445 60.7325C91.2868 65.1511 90.4069 65.4235 90.4147 60.8536C85.2097 58.7642 85.1373 70.5198 90.5729 69.901C91.261 74.7675 92.2733 77.2525 94.5302 79.7398C94.7211 81.7838 94.425 84.8385 93.3176 88.257C95.6368 88.72 98.9301 89.3986 100.73 90.8911C102.038 89.1323 104.846 88.4348 107.234 88.3795C105.994 87.1752 106.145 83.4693 106.409 80.7225C108.185 79.3828 110.645 77.3796 111.934 74.6963C118.128 74.9256 120.283 65.1799 115.303 66.3411C115.27 67.0946 114.826 67.82 114.161 68.2088C114.083 67.2035 114.27 66.1792 114.829 65.1391C110.002 61.6161 106.604 58.0954 105.312 52.558Z" fill="#FFD8CA"/>
<path d="M90.3821 66.3228C90.266 66.3228 90.1577 66.2502 90.1219 66.1368C89.6683 64.7138 88.7581 63.4195 87.5579 62.4921C87.4403 62.4013 87.42 62.2348 87.5143 62.1206C87.607 62.0063 87.7793 61.9867 87.897 62.0783C89.182 63.0715 90.1569 64.4574 90.6417 65.9802C90.6869 66.1201 90.6058 66.2684 90.4624 66.3115C90.4367 66.319 90.4094 66.3228 90.3821 66.3228Z" fill="#895554"/>
<path d="M89.5054 68.0316C89.4438 68.0316 89.3823 68.0118 89.3308 67.971C88.3847 67.2077 87.8813 65.9497 88.0481 64.7658C88.0676 64.6221 88.1984 64.5214 88.3558 64.5396C88.5047 64.5593 88.6092 64.6924 88.5889 64.8384C88.4471 65.8445 88.8757 66.915 89.6799 67.564C89.7953 67.6578 89.8116 67.8251 89.7157 67.937C89.6619 67.999 89.5841 68.0316 89.5054 68.0316Z" fill="#895554"/>
<path d="M113.945 70.6024C113.902 70.6024 113.859 70.5925 113.818 70.5721C113.684 70.5033 113.634 70.3429 113.704 70.2135C114.351 69.0281 115.544 68.1582 116.9 67.8881C117.046 67.8586 117.191 67.9509 117.222 68.0939C117.252 68.2369 117.157 68.3769 117.01 68.4064C115.813 68.6454 114.757 69.4132 114.187 70.4617C114.137 70.5509 114.043 70.6024 113.945 70.6024Z" fill="#895554"/>
<path d="M113.279 73.0646C113.164 73.0646 113.057 72.9935 113.019 72.8823C112.973 72.7431 113.051 72.5933 113.195 72.5487C114.371 72.1773 115.354 71.1909 115.697 70.0372C115.738 69.8958 115.888 69.8133 116.034 69.8564C116.18 69.8973 116.263 70.0433 116.221 70.184C115.823 71.5229 114.728 72.6221 113.364 73.0533C113.336 73.0608 113.307 73.0646 113.279 73.0646Z" fill="#895554"/>
<path d="M100.33 62.188C100.291 62.188 100.252 62.1803 100.215 62.1637C99.1606 61.6863 98.0228 61.2159 96.8476 61.004C95.96 60.8437 94.6477 60.7665 93.4335 61.3112C93.3003 61.3724 93.1343 61.3149 93.0719 61.1818C93.0088 61.0494 93.0681 60.8921 93.2052 60.8308C94.548 60.2279 95.9819 60.3088 96.9467 60.4836C98.1834 60.706 99.3594 61.1924 100.445 61.6833C100.582 61.7453 100.641 61.9028 100.577 62.0351C100.531 62.132 100.432 62.188 100.33 62.188Z" fill="#383838"/>
<path d="M112.316 64.9075C112.254 64.9075 112.19 64.8871 112.139 64.8447C110.264 63.2947 107.598 62.6237 105.18 63.095C105.027 63.1245 104.888 63.0307 104.859 62.8884C104.829 62.7455 104.924 62.6055 105.072 62.5768C107.649 62.0722 110.491 62.7879 112.491 64.4416C112.606 64.5361 112.62 64.704 112.522 64.8144C112.469 64.8765 112.393 64.9075 112.316 64.9075Z" fill="#383838"/>
<path d="M99.6104 72.2762C99.5208 72.2762 99.432 72.2331 99.3805 72.1544L98.3877 70.646C98.3238 70.5492 98.3324 70.4229 98.4072 70.3344C99.3813 69.1981 100.224 67.8879 100.846 66.5429C100.949 65.6283 100.789 64.7145 100.38 63.8967C100.313 63.7651 100.369 63.607 100.506 63.5435C100.64 63.48 100.804 63.5337 100.87 63.666C101.33 64.5859 101.507 65.6162 101.383 66.645C101.38 66.6715 101.372 66.6972 101.362 66.7221C100.744 68.0641 99.9144 69.3752 98.9535 70.5227L99.8403 71.8693C99.9214 71.9926 99.8848 72.1559 99.7577 72.2346C99.7118 72.2626 99.661 72.2762 99.6104 72.2762Z" fill="#895554"/>
<path d="M101.945 72.606C101.849 72.606 101.756 72.5568 101.706 72.4691L101.177 71.5341C101.104 71.4055 101.152 71.2443 101.284 71.174C101.417 71.1051 101.583 71.1506 101.655 71.2784L102.184 72.2134C102.257 72.342 102.208 72.5032 102.077 72.5735C102.035 72.5962 101.99 72.606 101.945 72.606Z" fill="#895554"/>
<path d="M100.962 76.4332C100.631 76.4332 100.301 76.3999 99.9782 76.3334C98.8474 76.0981 97.8054 75.4453 97.1196 74.5405C97.0308 74.4233 97.0565 74.2576 97.1781 74.1706C97.2981 74.0836 97.4688 74.1085 97.5592 74.2273C98.1663 75.0292 99.0897 75.6071 100.092 75.8159C101.095 76.0216 102.18 75.8605 103.071 75.3696C103.201 75.2985 103.369 75.3416 103.444 75.4694C103.518 75.5965 103.472 75.7584 103.341 75.831C102.622 76.2259 101.791 76.4332 100.962 76.4332Z" fill="#895554"/>
<path d="M100.481 83.1008C98.1488 83.1008 96.0432 82.1 94.4737 80.1263C94.3817 80.0106 94.4035 79.8442 94.5227 79.7549C94.6404 79.6671 94.8118 79.6868 94.9054 79.8025C97.5137 83.0834 101.741 83.464 105.939 80.7966C106.063 80.718 106.233 80.7504 106.316 80.8737C106.398 80.9955 106.363 81.1597 106.236 81.2399C104.279 82.4858 102.31 83.1008 100.481 83.1008Z" fill="#895554"/>
<path d="M110.317 67.2427C110.229 67.2427 110.141 67.2004 110.089 67.1232C109.704 66.5521 109.305 65.9621 108.786 65.4991C108.233 65.0044 107.601 64.7298 107.009 64.7267C107.004 64.7267 107 64.7267 106.996 64.7267C106.231 64.7267 105.526 65.1557 104.998 65.5309C104.878 65.6163 104.705 65.5913 104.617 65.4733C104.529 65.3553 104.555 65.1897 104.677 65.1042C105.226 64.7139 106.063 64.1987 106.997 64.1987C107.002 64.1987 107.007 64.1987 107.013 64.1987C107.742 64.2025 108.503 64.5263 109.157 65.1095C109.725 65.6179 110.143 66.2359 110.546 66.8343C110.628 66.9561 110.594 67.1202 110.467 67.2004C110.421 67.2292 110.369 67.2427 110.317 67.2427Z" fill="#383838"/>
<path d="M106.88 64.3568C105.707 64.5391 105.129 67.3864 106.267 67.739C108.01 68.2791 109.237 63.9596 106.88 64.3568Z" fill="#383838"/>
<path d="M110.317 67.2427C110.229 67.2427 110.141 67.2004 110.089 67.1232C109.704 66.5521 109.305 65.9621 108.786 65.4991C108.233 65.0044 107.601 64.7298 107.009 64.7267C107.004 64.7267 107 64.7267 106.996 64.7267C106.231 64.7267 105.526 65.1557 104.998 65.5309C104.878 65.6163 104.705 65.5913 104.617 65.4733C104.529 65.3553 104.555 65.1897 104.677 65.1042C105.226 64.7139 106.063 64.1987 106.997 64.1987C107.002 64.1987 107.007 64.1987 107.013 64.1987C107.742 64.2025 108.503 64.5263 109.157 65.1095C109.725 65.6179 110.143 66.2359 110.546 66.8343C110.628 66.9561 110.594 67.1202 110.467 67.2004C110.421 67.2292 110.369 67.2427 110.317 67.2427Z" fill="#383838"/>
<path d="M106.88 64.3568C105.707 64.5391 105.129 67.3864 106.267 67.739C108.01 68.2791 109.237 63.9596 106.88 64.3568Z" fill="#383838"/>
<path d="M99.0169 65.3561C98.9289 65.3561 98.8409 65.3137 98.7886 65.2365C98.4037 64.6654 98.0047 64.0754 97.4856 63.6124C96.9323 63.1177 96.3011 62.8431 95.7088 62.84C95.7049 62.84 95.701 62.84 95.6971 62.84C94.9318 62.84 94.2265 63.2697 93.6974 63.6442C93.5782 63.7297 93.406 63.7047 93.3172 63.5867C93.2283 63.4687 93.2548 63.303 93.3763 63.2175C93.9257 62.8272 94.7635 62.3113 95.6979 62.3113C95.7025 62.3113 95.7073 62.3113 95.7119 62.3113C96.4414 62.3158 97.2027 62.6396 97.8558 63.2228C98.4239 63.7312 98.8416 64.3492 99.2453 64.9476C99.3271 65.0694 99.2929 65.2336 99.1658 65.3137C99.1206 65.3425 99.0692 65.3561 99.0169 65.3561Z" fill="#383838"/>
<path d="M95.58 62.4702C94.4063 62.6525 93.8289 65.4999 94.9667 65.8524C96.7092 66.3926 97.9366 62.0723 95.58 62.4702Z" fill="#383838"/>
<path d="M96.2654 123.901C94.0787 116.378 104.482 110.888 106.104 115.354C107.869 117.45 110.325 119.176 111.509 121.655C112.641 125.552 108.621 127.805 104.744 126.215C105.2 133.914 97.7695 128.039 96.2654 123.901Z" fill="#FFD8CA"/>
<path d="M97.1243 121.079C97.118 121.079 97.111 121.079 97.1048 121.079C96.9544 121.068 96.8414 120.941 96.8531 120.796C96.9793 119.117 97.8428 117.196 99.2206 115.525C99.3149 115.411 99.4864 115.392 99.604 115.484C99.7217 115.575 99.7404 115.742 99.6468 115.856C98.3353 117.446 97.5155 119.26 97.3963 120.834C97.3861 120.974 97.2653 121.079 97.1243 121.079Z" fill="#895554"/>
<path d="M104.162 125.856C104.03 125.856 103.915 125.764 103.892 125.634C103.665 124.29 104.227 121.286 104.912 120.188C105.032 119.995 105.154 119.811 105.269 119.633C105.719 118.943 106.144 118.292 106.017 117.942C105.96 117.788 105.773 117.657 105.462 117.555C105.37 117.524 105.301 117.448 105.282 117.355C105.263 117.262 105.297 117.167 105.37 117.104C105.56 116.943 105.648 116.779 105.632 116.617C105.61 116.388 105.377 116.128 105.009 115.92C104.9 115.859 104.849 115.734 104.884 115.618C104.947 115.409 105.007 115.291 105.052 115.205C105.066 115.178 105.082 115.145 105.085 115.134C105.088 115.093 105.027 114.937 104.975 114.812C104.371 114.643 103.625 114.752 102.863 115.124C101.487 115.797 100.377 117.134 99.8896 118.703C99.846 118.843 99.6947 118.926 99.5498 118.88C99.4048 118.837 99.3239 118.69 99.3675 118.55C99.8967 116.845 101.112 115.387 102.618 114.651C103.563 114.189 104.507 114.079 105.272 114.349C105.345 114.374 105.403 114.428 105.433 114.497C105.655 115.027 105.686 115.156 105.54 115.441C105.521 115.477 105.498 115.52 105.474 115.579C105.893 115.861 106.14 116.206 106.175 116.566C106.191 116.734 106.166 116.96 106.001 117.205C106.273 117.349 106.447 117.535 106.531 117.765C106.747 118.356 106.298 119.044 105.73 119.915C105.617 120.09 105.497 120.273 105.379 120.462C104.767 121.443 104.226 124.342 104.431 125.549C104.456 125.692 104.355 125.829 104.206 125.853C104.191 125.855 104.177 125.856 104.162 125.856Z" fill="#895554"/>
<path d="M101.041 120.903C101.024 120.903 101.006 120.902 100.989 120.899C100.842 120.872 100.745 120.732 100.773 120.589C101.188 118.491 103.463 115.498 105.134 115.427C105.303 115.436 105.412 115.535 105.419 115.68C105.426 115.826 105.309 115.949 105.158 115.956C103.868 116.011 101.709 118.666 101.309 120.689C101.284 120.816 101.169 120.903 101.041 120.903Z" fill="#572013"/>
<path d="M102.637 123.267C102.629 123.267 102.621 123.267 102.614 123.267C102.464 123.254 102.353 123.125 102.366 122.98C102.521 121.223 104.066 118.203 105.37 117.103C105.484 117.006 105.656 117.019 105.755 117.129C105.853 117.24 105.841 117.407 105.728 117.503C104.551 118.494 103.049 121.435 102.909 123.025C102.897 123.163 102.777 123.267 102.637 123.267Z" fill="#572013"/>
</g>
<defs>
<clipPath id="clip0_1_1139">
<rect width="145" height="321" fill="white"/>
</clipPath>
</defs>
</svg>
