<svg width="556" height="557" viewBox="0 0 556 557" fill="none" xmlns="http://www.w3.org/2000/svg">
<circle cx="278" cy="278" r="278" fill="#FBF7FF"/>
<path d="M310.689 428.71C309.468 432.643 307.858 436.446 306.192 440.847C289.102 449.203 298.296 458.416 307.669 468.163C310.836 472.836 311.433 478.793 312.484 484.397C313.476 490.877 318.203 503.061 325.893 499.172C327.066 497.99 327.081 496.073 326.979 494.381C325.668 471.99 317.158 446.654 332.9 427.35C325.678 427.279 318.45 427.824 310.689 428.71Z" fill="#FFC2AB"/>
<path d="M367.929 404.175C368.346 405.85 368.763 407.526 369.301 409.147C370.171 411.769 370.251 414.599 369.695 417.31C366.238 434.17 381.589 431.403 394.318 426.756C399.977 425.828 405.692 427.435 411.368 428.233C417.045 429.03 423.378 428.821 427.736 424.97C431.299 422.232 428.357 418.666 424.565 418.484C409.203 416.65 386.397 410.255 384.038 392.337C378.749 393.764 373.868 396.776 367.929 404.175Z" fill="#FFC2AB"/>
<path d="M325.578 499.546C325.54 499.546 325.501 499.542 325.463 499.532C325.202 499.466 325.041 499.193 325.105 498.923C325.252 498.299 325.17 497.552 324.861 496.703C324.7 496.262 324.501 495.839 324.29 495.391C324.135 495.059 323.979 494.728 323.839 494.389C323.159 492.745 322.855 490.932 322.959 489.146C322.975 488.869 323.207 488.655 323.474 488.674C323.742 488.69 323.947 488.929 323.931 489.207C323.835 490.837 324.114 492.492 324.734 493.993C324.868 494.317 325.017 494.634 325.167 494.95C325.378 495.399 325.596 495.863 325.773 496.349C326.151 497.391 326.246 498.337 326.053 499.162C325.997 499.392 325.797 499.546 325.578 499.546Z" fill="#FFC2AB"/>
<path d="M426.071 425.854C425.918 425.854 425.767 425.779 425.672 425.64C425.209 424.96 424.08 425.046 423.615 425.115C423.443 425.14 423.27 425.17 423.096 425.202C422.3 425.343 421.476 425.488 420.657 425.195C420.403 425.105 420.267 424.818 420.355 424.555C420.442 424.292 420.719 424.151 420.973 424.243C421.558 424.452 422.226 424.331 422.932 424.208C423.115 424.176 423.297 424.143 423.477 424.117C424.853 423.913 425.915 424.248 426.468 425.059C426.623 425.287 426.571 425.601 426.351 425.761C426.265 425.824 426.167 425.854 426.071 425.854Z" fill="#FFC2AB"/>
<path d="M428.659 423.413C428.543 423.413 428.427 423.37 428.334 423.283C426.855 421.903 424.666 421.387 422.757 421.966C422.499 422.042 422.228 421.891 422.153 421.624C422.077 421.357 422.225 421.077 422.483 420.998C424.708 420.324 427.262 420.925 428.985 422.535C429.185 422.721 429.201 423.039 429.021 423.247C428.925 423.357 428.792 423.413 428.659 423.413Z" fill="#FFC2AB"/>
<path d="M184.147 364.27C197.003 403.561 246.786 437.391 280.698 403.107C290.407 392.525 294.118 379.017 302.866 359.485C298.446 379.03 297.409 407.199 293.766 426.916C292.209 432.675 295.598 436.464 301.004 433.75C323.705 423.807 343.608 440.786 346.398 422.29C348.282 414.142 350.165 405.995 352.644 398.299C353.077 406.897 359.846 413.654 366.592 405.6C374.698 397.809 384.178 391.557 396.7 386.484C381.371 344.127 360.323 304.056 342.745 262.632C340.617 256.975 335.12 248.249 328.627 250.605C278.55 270.252 258.278 295.782 227.642 324.636C213.721 336.338 198.129 346.082 184.147 364.27Z" fill="#D9AB9C"/>
<path d="M221.277 348.098C221.2 348.098 221.122 348.079 221.049 348.039C220.811 347.908 220.721 347.602 220.847 347.357C222.076 344.963 225.288 340.136 229.529 337.228C229.753 337.075 230.056 337.137 230.204 337.37C230.353 337.602 230.291 337.915 230.067 338.068C225.988 340.864 222.893 345.519 221.707 347.83C221.62 348 221.452 348.098 221.277 348.098Z" fill="#804444"/>
<path d="M223.806 362.428C223.777 362.428 223.747 362.425 223.717 362.42C223.453 362.37 223.278 362.107 223.326 361.833C223.586 360.366 223.822 358.942 224.054 357.549C225.238 350.422 226.261 344.266 229.359 337.434C229.473 337.182 229.762 337.075 230.007 337.191C230.25 337.31 230.354 337.61 230.241 337.862C227.199 344.571 226.186 350.664 225.014 357.72C224.782 359.117 224.544 360.545 224.284 362.014C224.241 362.259 224.036 362.428 223.806 362.428Z" fill="#804444"/>
<path d="M238.315 341.59C238.292 341.59 238.27 341.588 238.247 341.584C237.981 341.546 237.795 341.291 237.832 341.016C238.908 333.03 241.137 325.28 244.454 317.984C244.568 317.732 244.857 317.623 245.102 317.742C245.345 317.86 245.449 318.161 245.334 318.412C242.059 325.617 239.859 333.268 238.796 341.155C238.763 341.407 238.554 341.59 238.315 341.59Z" fill="#804444"/>
<path d="M313.687 327.47C313.636 327.47 313.583 327.461 313.532 327.444C313.277 327.355 313.139 327.07 313.225 326.805L321.404 301.545C321.49 301.281 321.765 301.137 322.021 301.227C322.275 301.316 322.413 301.601 322.328 301.866L314.148 327.126C314.08 327.337 313.89 327.47 313.687 327.47Z" fill="#804444"/>
<path d="M316.085 320.336C315.965 320.336 315.845 320.289 315.751 320.198C315.556 320.006 315.547 319.688 315.732 319.485L330.131 303.698C330.468 303.33 330.885 302.874 331.464 302.667C332.111 302.435 332.982 302.623 333.321 303.335C333.711 304.159 333.127 305.027 332.907 305.353C330.595 308.786 327.957 312.009 325.067 314.931C324.875 315.128 324.566 315.123 324.379 314.923C324.191 314.724 324.195 314.405 324.387 314.21C327.234 311.332 329.832 308.158 332.108 304.776C332.429 304.302 332.54 303.976 332.447 303.781C332.362 303.602 332.044 303.526 331.781 303.62C331.428 303.746 331.115 304.088 330.839 304.391L316.44 320.178C316.344 320.283 316.215 320.336 316.085 320.336Z" fill="#804444"/>
<path d="M352.63 399.078C352.419 399.078 352.224 398.934 352.162 398.715C348.94 387.315 345.015 383.648 341.22 380.103C338.29 377.367 335.524 374.782 333.456 368.896C329.612 357.955 325.161 350.666 320.858 343.617C318.835 340.302 316.747 336.881 314.736 333.108C310.331 340.99 306.887 350.039 303.462 359.389C303.366 359.648 303.085 359.781 302.835 359.681C302.583 359.582 302.457 359.292 302.552 359.031C306.105 349.334 309.679 339.957 314.332 331.829C314.42 331.675 314.579 331.581 314.751 331.581C314.754 331.581 314.757 331.581 314.76 331.582C314.936 331.585 315.095 331.686 315.179 331.846C317.3 335.901 319.528 339.55 321.682 343.079C326.013 350.172 330.492 357.508 334.371 368.551C336.356 374.201 339.035 376.705 341.872 379.355C345.587 382.825 349.796 386.758 353.097 398.433C353.173 398.7 353.024 398.98 352.767 399.058C352.721 399.071 352.675 399.078 352.63 399.078Z" fill="#804444"/>
<path d="M370.128 345.385C369.91 345.385 369.712 345.232 369.657 345.003L359.303 302.135C359.238 301.865 359.396 301.591 359.657 301.524C359.915 301.458 360.182 301.62 360.247 301.891L370.601 344.759C370.666 345.029 370.508 345.303 370.247 345.37C370.207 345.38 370.167 345.385 370.128 345.385Z" fill="#804444"/>
<path d="M297.882 412.52C297.805 412.52 297.727 412.501 297.654 412.461C297.417 412.33 297.326 412.025 297.452 411.779C303.477 400 308.255 387.508 311.65 374.649C311.721 374.381 311.989 374.222 312.248 374.296C312.507 374.37 312.66 374.647 312.589 374.916C309.174 387.845 304.371 400.407 298.312 412.252C298.225 412.422 298.056 412.52 297.882 412.52Z" fill="#804444"/>
<path d="M285.154 385.543C285.094 385.543 285.033 385.531 284.974 385.507C284.725 385.404 284.602 385.111 284.702 384.852L296.176 354.945C296.275 354.686 296.558 354.558 296.808 354.662C297.058 354.765 297.18 355.059 297.081 355.318L285.606 385.225C285.531 385.423 285.347 385.543 285.154 385.543Z" fill="#804444"/>
<path d="M328.984 185.945C325.912 179.153 326.575 170.702 330.665 164.512C331.494 166.19 333.548 167.101 335.293 166.564C333.694 165.659 332.873 163.504 333.442 161.712C336.095 163.608 339.496 164.344 342.66 163.705C341.992 162.552 341.326 161.4 340.659 160.246C344.012 160.324 347.342 161.275 350.26 162.987C352.148 160.528 356.25 160.441 358.234 162.818C362.836 161.078 368.555 163.883 370.201 168.627C371.765 166.01 374.565 164.228 377.527 163.963C374.369 166.153 373.774 171.397 376.356 174.285C378.031 173.646 379.707 173.007 381.382 172.368C381.744 173.967 381.364 175.727 380.378 177.013C383.259 177.46 386.232 177.247 389.025 176.395C388.22 178.526 386.268 180.146 384.084 180.498C387.495 181.216 390.371 186.916 385.803 187.797C388.569 189.925 389.422 194.305 387.667 197.377C393.697 205.266 380.742 212.512 385.673 220.913C384.066 221.456 382.139 220.677 381.312 219.152C377.976 225.095 380.284 229.118 381.998 234.488C378.282 236.618 374.895 232.939 372.205 230.798C367.123 229.949 367.576 237.118 370.051 240.002C366.685 242.688 361.378 240.176 361.136 235.784C358.938 241.768 352.351 234.968 358.116 232.671L343.218 221.603L328.984 185.945Z" fill="#7A3733"/>
<path d="M369.511 223.624C361.594 225.944 352.536 223.649 346.304 217.631C346.151 217.484 346.159 217.224 346.325 217.094C350.032 214.199 359.558 210.285 361.203 206.794C361.266 206.659 361.234 206.488 361.125 206.388C358.686 204.137 353.044 208.45 350.588 209.783C349.879 210.676 347.832 210.347 348.794 209.018C352.555 203.818 355.969 202.399 361.944 198.226C362.853 197.591 365.58 195.673 365.227 194.624C365.208 194.569 365.174 194.518 365.138 194.473C363.562 192.497 354.067 198.866 348.407 201.799C348.003 202.009 347.626 201.498 347.966 201.191C352.575 197.032 359.581 192.396 364.497 188.707C364.531 188.681 364.563 188.649 364.587 188.613C366.215 186.262 363.414 184.742 361.46 185.744C361.271 185.841 361.049 185.728 360.994 185.517C359.608 180.176 339.856 193.3 336.068 195.693C335.498 196.06 334.642 196.369 334.259 195.799C331.664 188.084 344.783 187.951 343.313 183.111C343.295 183.055 343.267 182.997 343.229 182.953C342.863 182.527 342.201 182.526 341.638 182.57C336.83 183.334 335.127 183.983 330.68 185.968C330.621 185.994 330.567 186.038 330.529 186.092C324.352 194.834 320.701 205.764 318.825 216.021C318.805 216.131 318.836 216.247 318.908 216.331C322.705 220.72 328.534 220.778 332.215 225.838C332.286 225.935 332.306 226.07 332.268 226.184C331.052 229.874 328.974 232.391 329.579 236.385C329.608 236.576 329.792 236.704 329.977 236.68C334.247 236.133 333.146 241.858 336.188 244.113C336.321 244.211 336.511 244.191 336.628 244.072C339.942 240.68 342.512 236.087 346.609 233.726C346.658 233.698 346.713 233.681 346.769 233.679C355.721 233.276 364.579 233.042 369.902 224.141C370.066 223.868 369.811 223.536 369.511 223.624Z" fill="#FFC2AB"/>
<path d="M334.112 225.982C333.954 225.982 333.8 225.902 333.706 225.755C333.558 225.523 333.62 225.211 333.844 225.057L345.342 217.183C345.566 217.029 345.867 217.093 346.016 217.325C346.164 217.557 346.103 217.87 345.878 218.023L334.38 225.897C334.298 225.954 334.204 225.982 334.112 225.982Z" fill="#6F5656"/>
<path d="M342.357 197.737C342.206 197.737 342.058 197.665 341.963 197.529C341.805 197.304 341.854 196.99 342.071 196.826C347.884 192.451 354.175 188.741 360.77 185.797C361.018 185.686 361.303 185.806 361.409 186.061C361.516 186.316 361.402 186.613 361.155 186.723C354.626 189.638 348.398 193.311 342.644 197.641C342.556 197.705 342.456 197.737 342.357 197.737Z" fill="#6F5656"/>
<path d="M346.848 202.793C346.683 202.793 346.523 202.707 346.432 202.55C346.292 202.312 346.366 202.002 346.596 201.857L348.155 200.879C348.383 200.733 348.684 200.81 348.824 201.048C348.963 201.287 348.89 201.596 348.66 201.741L347.1 202.72C347.021 202.769 346.934 202.793 346.848 202.793Z" fill="#6F5656"/>
<path d="M334.531 239.307C334.357 239.307 334.188 239.209 334.1 239.038L332.696 236.291C332.57 236.046 332.661 235.74 332.899 235.61C333.137 235.48 333.432 235.574 333.557 235.82L334.962 238.567C335.088 238.812 334.997 239.118 334.759 239.248C334.686 239.288 334.608 239.307 334.531 239.307Z" fill="#6F5656"/>
<path d="M343.787 232.129C343.749 232.129 343.711 232.124 343.672 232.115C343.488 232.069 343.347 231.917 343.31 231.724C342.883 229.525 343.409 227.145 344.717 225.357C344.881 225.136 345.186 225.091 345.4 225.26C345.614 225.429 345.656 225.744 345.493 225.966C344.533 227.278 344.055 228.955 344.149 230.597C345.472 229.648 347.388 229.597 348.697 230.604C348.913 230.77 348.958 231.086 348.798 231.309C348.637 231.534 348.332 231.58 348.116 231.413C346.954 230.522 345.072 230.771 344.167 231.941C344.074 232.061 343.933 232.129 343.787 232.129Z" fill="#6F5656"/>
<path d="M351.982 233.191C351.91 233.191 351.837 233.18 351.764 233.157C349.422 232.421 349.577 230.503 349.701 228.963C349.746 228.409 349.792 227.837 349.743 227.301C349.551 225.235 348.926 224.404 348.92 224.396C348.664 224.065 348.708 223.579 349.022 223.31C349.336 223.039 349.797 223.075 350.064 223.396C350.158 223.51 350.995 224.583 351.235 227.153C351.297 227.827 351.243 228.499 351.195 229.091C351.062 230.733 351.073 231.319 352.2 231.673C352.595 231.797 352.819 232.231 352.699 232.64C352.6 232.975 352.303 233.191 351.982 233.191Z" fill="#7A3733"/>
<path d="M329.747 187.05C323.845 175.039 335.068 159.099 326.888 147.757C320.653 139.693 309.495 141.218 300.57 140.428C295.536 139.932 290.615 138.579 285.595 137.956C274.549 134.76 254.858 145.886 267.399 157.984C225.43 160.955 176.816 180.379 161.845 224.127C152.922 242.478 141.563 259.801 134.43 278.989C128.125 295.512 142.477 303.516 137.805 315.022C134.43 318.573 134.649 322.245 137.398 326.297C142.95 336.975 140.558 351.122 147.641 360.781C154.388 369.981 167.639 371.521 178.221 367.864C200.273 359.767 203.809 339.684 229.166 337.651C233.663 331.487 242.367 317.952 246.404 311.456C250.095 302.393 256.613 300.421 260.949 293.442C268.299 305.767 278.785 315.125 291.579 319.538C296.445 321.216 301.755 319.771 305.259 315.892C326.496 292.384 324.758 253.989 333.757 225.438C328.98 221.775 324.204 218.111 319.359 216.127C320.913 206.746 324.464 197.726 329.747 187.05Z" fill="#A5746E"/>
<path d="M292.48 275.662C292.412 275.662 292.344 275.656 292.275 275.645C291.613 275.534 291.168 274.936 290.952 273.867C289.68 267.569 288.946 261.113 288.77 254.678C288.687 251.618 288.916 247.84 291.44 245.777C292.246 245.118 293.185 244.727 294.094 244.347C294.654 244.114 295.183 243.894 295.686 243.615C297.919 242.375 299.418 240.06 300.59 237.957C303.159 233.348 305.047 228.273 306.873 223.364C308.168 219.88 309.509 216.276 311.088 212.848C311.455 212.049 311.921 211.166 312.802 210.807C314.13 210.261 315.284 211.221 316.302 212.068C317.186 212.8 318.021 213.491 318.846 213.242C319.103 213.159 319.374 213.315 319.451 213.582C319.527 213.849 319.38 214.129 319.122 214.208C317.811 214.612 316.686 213.677 315.694 212.854C314.617 211.961 313.91 211.439 313.159 211.745C312.608 211.97 312.268 212.627 311.968 213.281C310.405 216.676 309.071 220.261 307.782 223.727C305.942 228.672 304.041 233.785 301.434 238.463C300.194 240.687 298.596 243.145 296.147 244.505C295.598 244.81 295.018 245.051 294.459 245.284C293.575 245.653 292.741 246 292.045 246.569C289.86 248.355 289.668 251.825 289.745 254.65C289.918 261.025 290.645 267.421 291.905 273.663C292.027 274.263 292.213 274.615 292.431 274.651C292.509 274.665 292.568 274.647 292.633 274.596C292.854 274.425 293.053 273.928 293.117 273.386C293.876 266.994 294.09 261.153 293.772 255.532C293.767 255.502 293.764 255.472 293.764 255.44C293.764 255.429 293.764 255.419 293.764 255.407C293.764 255.405 293.764 255.404 293.764 255.404C293.781 255.146 293.984 254.911 294.235 254.903C294.499 254.862 294.72 255.071 294.736 255.343C295.067 261.064 294.854 267.007 294.083 273.509C294.045 273.825 293.872 274.894 293.218 275.402C292.997 275.573 292.744 275.662 292.48 275.662Z" fill="#D1BCB9"/>
<path d="M318.523 216.87C318.428 216.87 318.331 216.84 318.247 216.781L312.316 212.537C312.095 212.379 312.04 212.065 312.193 211.836C312.345 211.606 312.648 211.55 312.87 211.707L318.8 215.951C319.021 216.109 319.077 216.423 318.924 216.652C318.829 216.793 318.677 216.87 318.523 216.87Z" fill="#D1BCB9"/>
<path d="M278.448 269.2C278.298 269.2 278.143 269.181 277.985 269.136C277.015 268.87 276.519 267.813 276.529 266.904C276.538 266.048 276.896 265.283 277.261 264.572C280.09 259.08 284.09 254.354 287.958 249.784C288.135 249.575 288.442 249.554 288.645 249.737C288.847 249.921 288.867 250.239 288.69 250.449C284.858 254.975 280.896 259.657 278.12 265.046C277.798 265.672 277.509 266.286 277.501 266.915C277.495 267.428 277.768 268.034 278.234 268.162C278.715 268.291 279.277 267.961 280.004 267.115C283.099 263.514 285.853 259.577 288.191 255.412C288.326 255.171 288.623 255.089 288.857 255.23C289.089 255.369 289.167 255.678 289.033 255.918C286.662 260.141 283.87 264.134 280.732 267.785C280.191 268.417 279.395 269.2 278.448 269.2Z" fill="#D1BCB9"/>
<path d="M273.852 263.448C273.755 263.448 273.657 263.418 273.57 263.355C273.351 263.194 273.299 262.88 273.455 262.652C277.872 256.205 283.715 250.73 290.353 246.819C290.587 246.682 290.884 246.767 291.017 247.009C291.15 247.251 291.067 247.558 290.834 247.697C284.32 251.534 278.584 256.907 274.249 263.235C274.155 263.373 274.005 263.448 273.852 263.448Z" fill="#D1BCB9"/>
<path d="M322.96 197.396C322.856 197.396 322.752 197.362 322.664 197.291C318.635 194.098 315.642 189.558 314.235 184.509C314.132 184.138 314.036 183.762 313.94 183.385C313.576 181.956 313.232 180.609 312.482 179.469C311.658 178.221 310.374 177.156 308.441 176.119C304.014 173.744 301.45 171.045 298.969 168.435C293.632 162.814 289.022 157.961 267.62 157.961C267.351 157.961 267.133 157.736 267.133 157.457C267.133 157.179 267.351 156.953 267.62 156.953C289.429 156.953 294.4 162.187 299.664 167.728C302.09 170.283 304.6 172.925 308.889 175.225C310.971 176.342 312.368 177.51 313.286 178.902C314.131 180.184 314.513 181.681 314.882 183.128C314.976 183.498 315.07 183.866 315.172 184.231C316.52 189.074 319.392 193.429 323.256 196.493C323.47 196.662 323.51 196.979 323.347 197.2C323.251 197.328 323.106 197.396 322.96 197.396Z" fill="#D1BCB9"/>
<path d="M320.305 207.194C320.153 207.194 320.003 207.12 319.908 206.984C315.601 200.761 312.969 193.441 312.295 185.816C312.27 185.539 312.468 185.294 312.735 185.268C313 185.243 313.239 185.447 313.265 185.724C313.922 193.171 316.493 200.319 320.699 206.396C320.856 206.622 320.806 206.937 320.587 207.099C320.502 207.162 320.403 207.194 320.305 207.194Z" fill="#D1BCB9"/>
<path d="M260.173 292.925C260.053 292.925 259.934 292.879 259.841 292.789C253.665 286.827 249.187 279.23 246.893 270.817C245.02 263.951 244.653 256.675 244.298 249.638C243.89 241.535 243.468 233.155 240.716 225.507C240.623 225.247 240.75 224.957 241.002 224.859C241.253 224.764 241.534 224.895 241.628 225.156C244.432 232.949 244.859 241.406 245.271 249.585C245.623 256.567 245.987 263.786 247.83 270.543C250.077 278.778 254.46 286.216 260.505 292.051C260.701 292.241 260.712 292.56 260.529 292.764C260.433 292.871 260.303 292.925 260.173 292.925Z" fill="#D1BCB9"/>
<path d="M247.704 271.56C247.629 271.56 247.552 271.542 247.481 271.504C233.595 264.114 223.616 248.943 222.056 232.857C222.04 232.69 222.105 232.525 222.231 232.419C222.356 232.312 222.523 232.274 222.68 232.324C227.197 233.718 229.937 238.233 232.357 242.739C234.669 247.046 237.282 251.354 241.522 252.584C241.781 252.659 241.932 252.938 241.86 253.206C241.787 253.474 241.519 253.632 241.26 253.555C236.659 252.22 233.919 247.722 231.507 243.228C229.228 238.986 226.863 235.058 223.109 233.541C224.879 249.004 234.554 263.489 247.928 270.609C248.166 270.736 248.261 271.04 248.138 271.287C248.05 271.46 247.88 271.56 247.704 271.56Z" fill="#D1BCB9"/>
<path d="M240.583 267.056C240.504 267.056 240.424 267.036 240.35 266.994L207.619 248.492C207.383 248.358 207.296 248.053 207.425 247.808C207.554 247.564 207.849 247.475 208.085 247.607L240.816 266.109C241.052 266.242 241.139 266.548 241.01 266.793C240.922 266.96 240.755 267.056 240.583 267.056Z" fill="#D1BCB9"/>
<path d="M195.925 330.423C194.772 330.423 193.7 330.052 192.877 329.126C191.338 327.394 191.767 324.665 192.952 322.976C194.172 321.236 196.053 320.21 197.712 319.304C203.234 316.288 208.945 313.17 214.402 309.822C214.633 309.68 214.932 309.76 215.069 309.999C215.206 310.239 215.129 310.548 214.898 310.69C209.421 314.05 203.699 317.174 198.166 320.197C196.6 321.051 194.826 322.019 193.739 323.569C192.769 324.954 192.448 327.155 193.593 328.443C195.165 330.211 198.173 329.246 200.272 327.882C206.237 324.004 210.798 318.127 215.209 312.444L216.277 311.07C221.089 304.896 226.384 298.581 233.509 295.168C242.785 290.725 251.41 293.538 255.499 298.032C255.683 298.234 255.674 298.553 255.479 298.743C255.284 298.936 254.976 298.925 254.791 298.723C250.934 294.485 242.757 291.851 233.918 296.084C226.983 299.405 221.775 305.622 217.035 311.704L215.968 313.077C211.507 318.825 206.893 324.77 200.79 328.737C199.314 329.694 197.54 330.423 195.925 330.423Z" fill="#D1BCB9"/>
<path d="M217.18 289.531C217.001 289.531 216.828 289.428 216.744 289.251C216.625 289.002 216.724 288.698 216.964 288.575C227.58 283.137 240.235 281.824 251.683 284.971C251.942 285.043 252.097 285.319 252.028 285.588C251.959 285.857 251.692 286.021 251.432 285.945C240.21 282.861 227.803 284.149 217.395 289.48C217.327 289.515 217.252 289.531 217.18 289.531Z" fill="#D1BCB9"/>
<path d="M146.963 331.295C146.17 331.295 145.355 331.02 144.696 330.506C143.915 329.899 143.463 329.032 143.455 328.125C143.453 327.847 143.669 327.619 143.938 327.616C143.939 327.616 143.941 327.616 143.942 327.616C144.209 327.616 144.426 327.839 144.429 328.117C144.434 328.715 144.737 329.278 145.281 329.701C145.947 330.218 146.856 330.416 147.596 330.2C148.949 329.808 150.045 328.397 150.39 326.605C150.719 324.904 150.423 323.131 150.14 321.415L143.186 279.499C143.14 279.224 143.318 278.964 143.584 278.917C143.846 278.864 144.1 279.054 144.145 279.327L151.099 321.244C151.384 322.966 151.709 324.918 151.346 326.802C150.93 328.963 149.561 330.678 147.859 331.171C147.57 331.253 147.268 331.295 146.963 331.295Z" fill="#D1BCB9"/>
<path d="M156.856 347.262C155.954 347.262 155.054 347.173 154.17 346.99C149.824 346.091 145.959 342.95 144.085 338.793C143.971 338.541 144.077 338.24 144.32 338.123C144.563 338.004 144.853 338.114 144.967 338.366C146.713 342.239 150.313 345.165 154.361 346.001C158.407 346.837 162.817 345.569 165.866 342.688C166.065 342.502 166.373 342.515 166.554 342.721C166.735 342.927 166.721 343.246 166.522 343.434C163.915 345.896 160.381 347.262 156.856 347.262Z" fill="#D1BCB9"/>
<path d="M210.771 334.634C210.688 334.634 210.604 334.612 210.527 334.566C210.294 334.425 210.215 334.117 210.35 333.876C213.621 328.037 219.223 324.746 223.347 323.012C228.576 320.815 234.196 319.841 239.631 318.9C239.897 318.848 240.147 319.039 240.192 319.314C240.236 319.588 240.057 319.848 239.792 319.894C234.41 320.826 228.844 321.79 223.714 323.947C219.731 325.62 214.326 328.79 211.192 334.382C211.102 334.543 210.939 334.634 210.771 334.634Z" fill="#D1BCB9"/>
<path d="M298.268 189.456C298.119 189.456 297.973 189.384 297.877 189.251C297.717 189.028 297.762 188.712 297.979 188.546L309.564 179.66C309.78 179.495 310.086 179.542 310.245 179.765C310.405 179.988 310.36 180.304 310.143 180.47L298.557 189.357C298.471 189.422 298.369 189.456 298.268 189.456Z" fill="#D1BCB9"/>
<path d="M302.956 204.339C302.949 204.339 302.941 204.338 302.935 204.338C302.667 204.327 302.458 204.093 302.469 203.813C302.87 193.834 295.539 183.943 286.125 181.764C285.862 181.703 285.697 181.434 285.756 181.162C285.814 180.89 286.076 180.718 286.337 180.78C296.189 183.06 303.862 193.412 303.442 203.856C303.431 204.128 303.216 204.339 302.956 204.339Z" fill="#D1BCB9"/>
<path d="M296.509 242.992C296.489 242.992 296.47 242.99 296.45 242.988C296.184 242.955 295.993 242.705 296.024 242.428L298.798 218.209C298.83 217.932 299.072 217.742 299.339 217.768C299.606 217.801 299.796 218.051 299.765 218.328L296.991 242.546C296.963 242.803 296.752 242.992 296.509 242.992Z" fill="#D1BCB9"/>
<path d="M292.902 147.524C289.185 147.524 285.457 146.98 282.029 145.319C281.785 145.201 281.68 144.901 281.794 144.649C281.907 144.397 282.198 144.288 282.441 144.406C288.544 147.363 295.751 146.622 302.027 145.697L303.464 145.483C309.699 144.547 316.147 143.578 322.265 145.354C322.524 145.429 322.674 145.708 322.602 145.976C322.53 146.244 322.26 146.402 322.002 146.325C316.084 144.607 309.739 145.559 303.604 146.48L302.166 146.695C299.216 147.129 296.063 147.524 292.902 147.524Z" fill="#D1BCB9"/>
<path d="M325.784 173.801C325.542 173.801 325.332 173.614 325.302 173.359C324.682 168.155 323.519 163.008 321.848 158.06C321.759 157.797 321.893 157.51 322.146 157.418C322.401 157.325 322.678 157.465 322.767 157.727C324.462 162.743 325.639 167.96 326.268 173.234C326.301 173.511 326.112 173.763 325.845 173.797C325.824 173.799 325.804 173.801 325.784 173.801Z" fill="#D1BCB9"/>
<path d="M326.496 182.818C326.229 182.818 326.012 182.596 326.009 182.318C325.971 178.054 323.564 174.085 321.311 170.7L320.952 170.162C318.637 166.69 316.241 163.1 315.645 158.881C315.606 158.606 315.79 158.349 316.056 158.309C316.319 158.275 316.57 158.459 316.608 158.735C317.172 162.721 319.501 166.212 321.754 169.589L322.113 170.128C324.448 173.636 326.942 177.761 326.983 182.309C326.985 182.587 326.769 182.815 326.5 182.818C326.499 182.818 326.497 182.818 326.496 182.818Z" fill="#D1BCB9"/>
<path d="M157.779 126.363C124.193 127.757 59.3647 189.121 47.7616 240.283C43.8949 263.841 61.8361 289.989 86.2352 283.996C93.9476 282.211 100.652 277.438 107.141 272.765C147.406 249.93 113.802 208.36 145.97 181.815C157.673 173.122 174.492 177.102 184.148 164.684C200.447 143.72 195.917 137.173 181.313 131.848C175.598 129.419 169.569 125.874 157.779 126.363Z" fill="#CCBDDB"/>
<path d="M187.346 37.2903C183.027 38.1845 179.652 41.5712 176.544 44.8043C170.833 50.7447 165.104 56.7068 160.189 63.3661C158.24 66.0075 156.34 69.0398 156.543 72.3574C156.628 73.7347 157.145 75.164 158.239 75.9519C159.5 76.8601 161.186 76.7204 162.701 76.4599C169.758 75.2446 176.546 72.1441 181.97 67.3135C187.394 62.4828 191.408 55.9041 192.987 48.6795C193.599 45.8806 193.812 42.7879 192.453 40.2877C191.095 37.7859 187.68 36.3496 187.346 37.2903Z" fill="#CCBDDB"/>
<path d="M224.483 99.574C212.667 101.003 199.432 106.437 192.637 117.01C187.074 130.822 206.776 131.929 215.265 128.93C220.58 127.358 225.502 124.523 229.851 120.991C242.089 112.099 239.592 96.1851 224.483 99.574Z" fill="#CCBDDB"/>
<path d="M371.342 58.0709C344.127 39.9317 308.147 36.787 278.382 49.9459C270.191 53.5667 262.311 58.4757 256.705 65.6407C251.098 72.8056 248.032 82.5026 250.16 91.4567C252.298 100.458 259.387 107.576 267.534 111.416C275.682 115.256 284.817 116.216 293.768 116.328C302.009 116.431 310.766 115.987 317.892 120.273C325.372 124.773 329.46 133.576 336.313 139.043C345.847 146.651 359.228 146.627 370.913 143.639C382.598 140.651 393.598 135.098 405.398 132.644C410.966 131.486 416.901 130.939 421.596 127.63C425.961 124.553 428.683 119.338 429.48 113.933C430.276 108.527 429.279 102.957 427.338 97.8725C422.959 86.405 413.954 77.3424 403.797 70.9041C393.641 64.465 380.735 64.3316 371.342 58.0709Z" fill="#CCBDDB"/>
<path d="M452.133 60.744C451.27 66.8899 454.724 72.8683 459.016 77.2073C463.307 81.5455 468.519 84.8337 472.693 89.2937C481.198 98.3812 484.611 111.421 492.366 121.201C495.018 124.545 499.325 127.692 503.073 125.778C505.187 124.699 506.382 122.218 506.556 119.785C506.729 117.35 506.038 114.941 505.216 112.654C501.469 102.227 494.772 92.9565 486.169 86.2902C478.542 80.3792 469.185 76.1744 464.126 67.8151C462.402 64.9674 461.195 61.6591 458.691 59.5226C456.186 57.3853 452.624 57.2449 452.133 60.744Z" fill="#CCBDDB"/>
<path d="M439.648 138.39C429.536 142.825 424.328 156.502 428.796 166.89C431.592 173.389 437.641 179.332 436.155 186.278C434.954 191.887 429.3 195.098 426.321 199.943C421.125 208.39 424.825 220.225 420.122 228.975C415.155 238.218 403.332 240.132 394.779 245.918C381.663 254.792 376.957 272.9 378.664 289.027C380.905 310.193 392.764 330.05 410.047 341.584C421.334 349.115 435.465 353.151 448.398 349.413C461.331 345.674 472.125 332.803 471.13 318.936C470.67 312.526 468.047 305.394 471.633 300.148C474.127 296.5 478.717 295.31 482.734 293.676C501.717 285.958 512.356 263.809 512.873 242.699C513.391 221.588 505.696 201.252 497.322 181.997C493.002 172.063 488.351 162.053 481.144 154.115C470.895 142.828 454.49 131.881 439.648 138.39Z" fill="#CCBDDB"/>
<path d="M491.661 339.393C478.364 345.888 468.468 357.879 458.997 369.523C455.584 373.72 452.014 378.29 451.548 383.756C450.85 391.946 457.811 399.223 465.531 401.144C473.252 403.065 481.359 400.846 488.776 397.908C496.511 394.845 504.09 390.882 509.951 384.823C515.812 378.765 519.793 370.342 519.177 361.791C518.632 354.222 514.351 347.043 508.061 343.147C501.773 339.251 493.539 338.476 491.661 339.393Z" fill="#CCBDDB"/>
<path d="M111.748 386.142C107.826 388.2 103.904 390.257 99.9827 392.314C96.8837 393.94 93.5143 395.873 92.3692 399.27C91.3274 402.361 92.5811 405.983 94.9912 408.102C97.4012 410.222 100.756 410.954 103.897 410.58C107.038 410.206 109.994 408.82 112.691 407.112C115.673 405.222 118.489 402.816 120.058 399.58C121.627 396.345 121.708 392.151 119.548 389.305C117.387 386.459 112.723 385.63 111.748 386.142Z" fill="#CCBDDB"/>
<path d="M41.9235 103.745C38.1744 110.774 36.1164 118.989 37.3656 126.914C38.6148 134.839 43.5172 142.338 50.6897 145.392C57.8621 148.445 67.109 146.235 71.4206 139.56C74.1287 135.367 74.7136 129.997 73.9669 125.013C73.2195 120.029 71.2513 115.337 69.1753 110.774C67.3202 106.696 65.3094 102.588 62.2171 99.4163C59.1248 96.2444 54.7323 94.1125 50.4395 94.8585C46.1467 95.6046 43.7509 100.319 41.9235 103.745Z" fill="#CCBDDB"/>
<path d="M47.432 332.483C45.6286 342.906 49.5709 354.189 57.3972 361.004C59.7211 363.027 62.8628 364.735 65.6937 363.599C68.1352 362.618 69.4675 359.745 69.5177 357.035C69.5679 354.323 68.5943 351.718 67.6364 349.195C65.0714 342.441 62.1341 335.216 56.142 331.452C54.6876 330.539 53.013 329.852 51.3204 330.027C49.6271 330.203 47.6327 331.325 47.432 332.483Z" fill="#CCBDDB"/>
<path d="M377.898 506.384C382.822 503.009 388.504 506.928 393.553 507.633C399.326 508.439 404.836 505.215 409.842 502.13C416.974 498.6 421.352 491.178 415.793 483.965C408.697 474.755 395.786 476.338 385.989 479.344C380.833 480.781 375.68 482.417 370.355 482.832C365.549 482.907 358.043 483.473 357.592 489.764C358.309 494.189 359.933 496.768 356.322 500.503C351.67 506.453 354.029 513.849 354.977 520.579C354.293 541.78 328.135 534.322 328 548.543C332.861 565.992 371.078 550.507 372.728 535.521C374.381 524.842 366.225 514.384 377.898 506.384Z" fill="#CCBDDB"/>
<path d="M148.35 428.586C145.662 436.685 147.415 445.614 149.895 453.784C153.742 466.456 159.297 478.569 166.349 489.664C171.616 497.95 177.834 505.782 185.778 511.325C193.722 516.869 203.585 519.949 213.009 518.176C220.806 516.709 228.471 511.093 229.876 503.015C230.715 498.188 229.258 493.193 229.938 488.34C230.565 483.864 232.958 479.855 233.958 475.453C235.386 469.168 233.731 462.216 229.647 457.338C225.563 452.461 219.153 449.781 212.944 450.356C205.981 451.001 199.431 455.435 192.499 454.504C187.162 453.787 182.671 449.959 179.277 445.633C175.882 441.307 173.27 436.359 169.767 432.127C166.264 427.895 161.536 424.294 156.16 424.016C154.519 423.93 152.807 424.182 151.425 425.105C150.044 426.027 148.708 427.505 148.35 428.586Z" fill="#CCBDDB"/>
</svg>
