<svg width="20" height="20" viewBox="0 0 20 20" fill="none" xmlns="http://www.w3.org/2000/svg">
<mask id="mask0_2902_4278" style="mask-type:alpha" maskUnits="userSpaceOnUse" x="0" y="0" width="20" height="20">
<rect width="20" height="20" fill="#D9D9D9"/>
</mask>
<g mask="url(#mask0_2902_4278)">
<path d="M15.8958 16.9792C14.2152 16.8542 12.6215 16.4411 11.1145 15.7397C9.60756 15.0383 8.25687 14.0904 7.06242 12.8959C5.86798 11.7015 4.92353 10.3508 4.22909 8.84383C3.53465 7.33689 3.12492 5.74314 2.99992 4.06258C2.97215 3.77091 3.05895 3.51744 3.26034 3.30216C3.46173 3.08689 3.70826 2.97925 3.99992 2.97925H6.83326C7.06937 2.97925 7.27423 3.05216 7.44784 3.198C7.62145 3.34383 7.73604 3.52786 7.79159 3.75008L8.29159 5.97925C8.31937 6.1598 8.30895 6.33341 8.26034 6.50008C8.21173 6.66675 8.13187 6.80564 8.02076 6.91675L5.99992 8.95842C6.2777 9.48619 6.59715 9.99314 6.95826 10.4792C7.31937 10.9654 7.72215 11.4237 8.16659 11.8542C8.58326 12.2709 9.0277 12.6563 9.49992 13.0105C9.97215 13.3647 10.4721 13.6806 10.9999 13.9584L13.0624 11.9584C13.1735 11.8473 13.3124 11.7674 13.4791 11.7188C13.6458 11.6702 13.8194 11.6598 13.9999 11.6876L16.2291 12.1667C16.4652 12.2362 16.6527 12.3577 16.7916 12.5313C16.9305 12.7049 16.9999 12.9098 16.9999 13.1459V15.9792C16.9999 16.2709 16.8888 16.5174 16.6666 16.7188C16.4444 16.9202 16.1874 17.007 15.8958 16.9792Z" fill="white"/>
</g>
</svg>
