<svg width="261" height="89" viewBox="0 0 261 89" fill="none" xmlns="http://www.w3.org/2000/svg">
<mask id="path-1-outside-1_2902_4281" maskUnits="userSpaceOnUse" x="-0.560791" y="0.156494" width="110" height="89" fill="black">
<rect fill="white" x="-0.560791" y="0.156494" width="110" height="89"/>
<path d="M99.4493 24.5864C99.4108 24.6121 99.385 24.6378 99.3465 24.6635C99.2693 24.715 99.1922 24.7665 99.1151 24.8179C99.0765 24.8436 99.0251 24.8822 98.9865 24.908C98.9094 24.9594 98.8451 25.0109 98.768 25.0623C98.6522 25.1524 98.5237 25.2424 98.3951 25.3453C98.3694 25.3453 98.3566 25.3711 98.3308 25.3839C98.2151 25.474 98.1123 25.5512 98.0094 25.6541C97.8937 25.7312 97.7909 25.8213 97.688 25.9242C97.6495 25.9499 97.6109 25.9885 97.5723 26.0143H97.5595C97.4566 26.1172 97.3538 26.2072 97.2638 26.3101C97.1995 26.3744 97.1224 26.4388 97.0581 26.5159C97.0195 26.5417 96.9938 26.5803 96.9681 26.606C96.9038 26.6574 96.8395 26.7218 96.7753 26.7989C96.7367 26.8375 96.711 26.8633 96.6724 26.9019C96.6724 26.9276 96.6339 26.9533 96.6081 26.979C96.5439 27.0562 96.4667 27.1463 96.3896 27.2235C96.3639 27.262 96.3253 27.3006 96.2867 27.3521C96.2353 27.4164 96.171 27.4936 96.1196 27.5579C96.1196 27.5708 96.0939 27.5836 96.0939 27.5965C96.0682 27.6222 96.0296 27.6608 96.0168 27.6994C95.9782 27.7251 95.9653 27.738 95.9525 27.7637C95.9525 27.7766 95.9268 27.7895 95.9268 27.8152C95.8882 27.8538 95.8496 27.8924 95.8368 27.931C95.8111 27.9567 95.7854 27.9824 95.7725 28.0082C95.7596 28.021 95.7596 28.0339 95.7468 28.0467C95.6568 28.1625 95.5797 28.2783 95.4897 28.4069C95.4768 28.4198 95.464 28.4455 95.4511 28.4584C95.3997 28.5356 95.3611 28.6128 95.3097 28.6771C95.284 28.7157 95.2583 28.7543 95.2325 28.7928C95.2068 28.8572 95.1811 28.8958 95.1426 28.9472C95.0911 29.0244 95.0397 29.1144 94.9883 29.2045C94.9626 29.2559 94.924 29.3074 94.8983 29.3717C94.8469 29.4489 94.7954 29.5389 94.744 29.629C94.7183 29.6933 94.6926 29.7448 94.6669 29.7962C94.6283 29.8477 94.6026 29.912 94.5769 29.9635C94.5512 30.0149 94.5255 30.0664 94.4869 30.1307C94.474 30.1693 94.4483 30.2079 94.4355 30.2465C94.3712 30.3751 94.3069 30.5166 94.2298 30.6581C94.2298 30.671 94.2298 30.6838 94.2169 30.6967C94.2041 30.7482 94.1784 30.7996 94.1526 30.8511C94.1012 30.9668 94.0498 31.0697 94.0112 31.1727C93.9598 31.2884 93.9084 31.4171 93.8698 31.5328C93.8441 31.5843 93.8312 31.6358 93.8055 31.6872C93.7798 31.7515 93.7541 31.8287 93.7284 31.893C93.677 32.0088 93.6384 32.1374 93.5998 32.2532C93.5741 32.3047 93.5484 32.369 93.5356 32.4333C93.5356 32.4333 93.5313 32.4419 93.5227 32.459C93.4584 32.6263 93.407 32.8064 93.3556 32.9736C93.3299 33.0379 93.317 33.0894 93.3041 33.1408C93.2527 33.2952 93.2013 33.4624 93.1499 33.6297C93.137 33.6811 93.1242 33.7326 93.1113 33.784C93.0856 33.8998 93.047 34.0284 93.0213 34.1571C92.9956 34.2343 92.9699 34.3243 92.957 34.4144C92.9442 34.4529 92.9313 34.4915 92.9185 34.5301C92.8928 34.6202 92.867 34.7231 92.8542 34.8131C92.8285 34.8646 92.8285 34.9032 92.8156 34.9546C92.8156 34.9804 92.8156 35.0061 92.7899 35.0447C92.7513 35.2119 92.7128 35.3791 92.687 35.5464C92.6613 35.5978 92.6613 35.6364 92.6485 35.6879C92.3399 37.1544 92.0828 38.8267 91.9028 40.7048C92.2885 44.1909 91.6971 48.0115 90.2573 51.8963C90.2573 51.8963 90.253 51.9049 90.2444 51.9221C89.5116 56.1929 86.9661 58.5984 86.9661 58.5984C86.9404 58.637 86.9147 58.6627 86.889 58.7013L86.8761 58.7142C86.8761 58.7399 86.8504 58.7656 86.8376 58.7914C86.8119 58.83 86.799 58.8557 86.7733 58.8814C86.7476 58.92 86.7219 58.9586 86.709 58.9843C86.6833 59.0486 86.6447 59.1001 86.5933 59.1644C86.5804 59.2159 86.5547 59.2545 86.5162 59.2931C86.5033 59.3316 86.4776 59.3702 86.4647 59.396C86.4519 59.4088 86.439 59.4088 86.439 59.4217C86.4262 59.4474 86.4005 59.4732 86.3876 59.4989C86.349 59.5632 86.3105 59.6275 86.259 59.679C86.2205 59.7562 86.1819 59.8205 86.1305 59.8848C86.1176 59.9105 86.1048 59.9234 86.0919 59.9362C86.0791 59.962 86.0662 59.9748 86.0533 59.9877C85.9119 60.1935 85.7834 60.3993 85.642 60.5923C85.5777 60.6952 85.5134 60.7853 85.4363 60.8882C85.4363 60.8882 85.3977 60.9396 85.372 60.9654C83.5286 63.7321 81.1842 66.1644 78.764 68.465C78.494 68.7223 78.224 68.9667 77.9412 69.2111C77.8255 69.314 77.6969 69.4169 77.5812 69.5198C77.2341 69.8286 76.8741 70.1244 76.5013 70.4203C76.1156 70.7419 75.7171 71.0506 75.3186 71.3594C75.2414 71.4237 75.1643 71.488 75.0743 71.5523C74.9843 71.6166 74.9072 71.681 74.8172 71.7453C74.74 71.7967 74.6629 71.8482 74.5858 71.9254C74.5858 71.9382 74.5729 71.9382 74.5729 71.9382C74.5729 71.9382 74.5601 71.964 74.5472 71.964C74.4701 72.0026 74.3929 72.054 74.3158 72.1183C74.2387 72.1698 74.1744 72.2212 74.0972 72.2727C73.6858 72.5814 73.2745 72.8773 72.8374 73.1603C72.8374 73.1732 72.7988 73.186 72.7731 73.2118C72.4774 73.4047 72.1688 73.5977 71.8603 73.8164C71.8603 73.8164 71.8603 73.8292 71.8474 73.8292C71.7446 73.8678 71.6546 73.945 71.5518 74.0093C71.1146 74.2795 70.6775 74.5496 70.2276 74.8197C69.8162 75.0641 69.4048 75.3086 68.9805 75.5401C68.9805 75.5401 68.8648 75.6302 68.8134 75.643C68.7748 75.6816 68.7234 75.6945 68.6849 75.7202C68.672 75.7202 68.6463 75.7459 68.6206 75.7588L68.1578 75.9903C67.9392 76.119 67.7207 76.2219 67.4892 76.3377C67.3221 76.4277 67.155 76.5049 66.9879 76.5949C66.6793 76.7493 66.3708 76.9037 66.0622 77.0452C66.0237 77.0709 65.9979 77.0838 65.9594 77.0966H65.9465C65.9465 77.0966 65.8951 77.1481 65.8694 77.1481C65.6765 77.2253 65.4837 77.3153 65.2909 77.4054C65.0723 77.5083 64.8409 77.6112 64.6095 77.7012C64.2238 77.8813 63.8253 78.0486 63.4267 78.2029C63.3239 78.2544 63.221 78.293 63.1311 78.3316C63.0925 78.3573 63.0539 78.3702 63.0025 78.383C62.9896 78.383 62.9639 78.4088 62.9511 78.4088C62.8996 78.4216 62.8482 78.4345 62.7839 78.4602H62.7711C62.3854 78.6146 61.9997 78.7561 61.614 78.8976C61.0998 79.0777 60.5856 79.2578 60.0713 79.425C59.7242 79.5408 59.3771 79.6437 59.03 79.7466C58.7986 79.8238 58.5672 79.8881 58.3358 79.9524C58.0144 80.0425 57.693 80.1325 57.3587 80.2226C57.2944 80.2226 57.243 80.2483 57.1787 80.274C57.0887 80.2869 56.9859 80.3126 56.8959 80.3383C55.8417 80.6085 54.7618 80.84 53.669 81.033C53.6562 81.033 53.6562 81.033 53.6562 81.033C53.6433 81.033 53.6304 81.033 53.6304 81.033C53.4505 81.0587 53.2833 81.0844 53.1034 81.123C52.782 81.1745 52.4605 81.2259 52.1391 81.2774C52.0749 81.2774 52.0106 81.2903 51.9463 81.3031C51.8692 81.316 51.792 81.316 51.702 81.3288C51.6635 81.3288 51.6378 81.3417 51.5992 81.3417C51.4835 81.3417 51.3678 81.3674 51.2521 81.3803C50.9178 81.4318 50.5836 81.4704 50.2493 81.5089C50.185 81.5218 50.1079 81.5218 50.0308 81.5347C49.9151 81.5475 49.8122 81.5604 49.6965 81.5604C49.3108 81.599 48.9123 81.6376 48.5266 81.6633C48.0766 81.7019 47.6267 81.7276 47.1767 81.7405C46.9582 81.7405 46.7268 81.7662 46.5082 81.7662C44.7084 81.8305 42.8828 81.7791 41.0187 81.6376C40.4787 81.599 39.9388 81.5475 39.3988 81.4832H39.3603C39.2574 81.4704 39.1674 81.4575 39.0646 81.4446H39.0003C38.5118 81.3803 38.0232 81.316 37.5347 81.2388C37.3676 81.2259 37.2004 81.2002 37.0333 81.1616C36.9948 81.1616 36.9562 81.1616 36.9176 81.1488C36.8662 81.123 36.8148 81.123 36.7633 81.123C36.7505 81.123 36.7376 81.1102 36.7248 81.1102C36.3391 81.0459 35.9534 80.9687 35.5677 80.9043C35.5677 80.9172 35.542 80.9043 35.5292 80.9043C35.1563 80.8272 34.7707 80.75 34.3978 80.6728C34.3593 80.6599 34.3207 80.6599 34.2821 80.6471C33.4851 80.467 32.6751 80.274 31.8523 80.0682C31.8395 80.0682 31.8266 80.0682 31.8138 80.0682C31.3381 79.9396 30.8496 79.798 30.361 79.6694C29.8854 79.515 29.3968 79.3735 28.9083 79.2192C27.8284 78.8719 26.7485 78.4859 25.6557 78.0614C25.6172 78.0614 25.5915 78.0486 25.5657 78.0357C26.0157 78.01 26.4657 77.9842 26.9028 77.9457C26.4785 77.9714 26.0414 77.9971 25.6043 78.0228C25.6943 77.9842 25.8614 77.9199 26.0928 77.8042C26.2214 77.7527 26.3628 77.6884 26.5171 77.6241C26.5557 77.5983 26.5942 77.5855 26.6457 77.5726C26.9285 77.444 27.237 77.3025 27.597 77.1095C27.7127 77.0452 27.8413 76.9809 27.9698 76.9165C28.2012 76.8136 28.4455 76.6721 28.7026 76.5178C28.7155 76.5178 28.7283 76.5049 28.7412 76.5049C29.0497 76.3248 29.384 76.1447 29.7311 75.9389C30.0782 75.7331 30.4382 75.5015 30.811 75.2571C31.1195 75.077 31.4409 74.8583 31.7624 74.6268C32.0838 74.421 32.4052 74.1894 32.7394 73.9321C33.0737 73.6877 33.4208 73.4304 33.7679 73.1474C34.115 72.8902 34.4621 72.6072 34.8092 72.2984C35.1692 72.0026 35.5292 71.6938 35.8763 71.3594C36.2362 71.0378 36.5962 70.6904 36.9562 70.3431L37.7147 69.5841C37.779 69.507 37.8433 69.4426 37.9075 69.3655C38.0747 69.1982 38.2289 69.031 38.3832 68.8638C38.3832 68.8638 38.3961 68.8509 38.3961 68.838C38.3961 68.838 38.4089 68.8252 38.4218 68.8123C38.4861 68.748 38.5503 68.6837 38.6146 68.6065C38.6146 68.6065 38.6532 68.555 38.666 68.5422C38.8589 68.3364 39.0389 68.1177 39.2188 67.899C39.3217 67.7832 39.4245 67.6803 39.5017 67.5645C39.566 67.5002 39.6174 67.4487 39.656 67.3844C39.7074 67.3201 39.7588 67.2687 39.8102 67.2043C39.8102 67.1915 39.8359 67.1786 39.8359 67.1657C39.9516 67.0242 40.0673 66.8827 40.1702 66.7412C40.2602 66.6255 40.3502 66.5225 40.4273 66.4068C40.453 66.4068 40.4787 66.3553 40.4916 66.3425C40.4916 66.3425 40.4959 66.3339 40.5044 66.3167C40.5044 66.3167 40.5302 66.291 40.5302 66.2781C40.543 66.2653 40.5559 66.2524 40.5687 66.2395C40.7873 65.9565 41.0058 65.6607 41.2115 65.3648C41.2244 65.3648 41.2372 65.3391 41.2372 65.3262C41.2887 65.249 41.3529 65.1718 41.3915 65.0947C41.4686 64.9918 41.5329 64.9017 41.6101 64.7988C41.6872 64.683 41.7772 64.5672 41.8543 64.4515C41.88 64.4 41.9058 64.3486 41.9443 64.31C41.9957 64.2456 42.0343 64.1685 42.0857 64.1041C42.1243 64.0398 42.1629 63.9755 42.1886 63.924C42.3171 63.744 42.4328 63.5639 42.5486 63.3709C42.5486 63.3709 42.5871 63.3194 42.6 63.2937C42.6128 63.268 42.6257 63.2551 42.6385 63.2294C42.7285 63.0879 42.8185 62.9464 42.8957 62.8049C42.8957 62.8049 42.9214 62.7663 42.9214 62.7534H42.9342C42.9342 62.7534 42.9342 62.7277 42.9471 62.7148C42.9857 62.6377 43.0371 62.5605 43.0757 62.4833C43.0242 62.5605 42.9728 62.6377 42.9342 62.7148C42.5614 62.5476 42.1886 62.3804 41.8158 62.2003C41.4429 62.0202 41.0701 61.853 40.7101 61.6729C39.6302 61.1197 38.5632 60.5409 37.5219 59.9362C23.1214 51.3974 19.3169 36.4083 20.7062 19.5823C28.1884 30.6324 40.363 34.5559 51.2264 35.8165C54.1318 24.432 58.4515 14.6426 72.1174 11.8383H72.1303C72.516 11.7611 72.9016 11.6839 73.313 11.6196C73.3387 11.6196 73.3644 11.6067 73.3902 11.6067C73.4159 11.5939 73.4544 11.5939 73.493 11.5939C73.673 11.5553 73.8401 11.5295 74.0201 11.5038C74.0587 11.5038 74.0972 11.5038 74.1487 11.5038C74.3287 11.4781 74.5215 11.4524 74.7143 11.4266C74.92 11.388 75.1257 11.3623 75.3443 11.3495C75.5114 11.3237 75.6785 11.298 75.8457 11.2851C75.8714 11.2851 75.8971 11.2723 75.9357 11.2723C75.9871 11.2723 76.0385 11.2723 76.0899 11.2723H76.1799C76.617 11.2208 77.067 11.1822 77.5169 11.1565C90.6044 11.4395 97.2381 19.5823 99.7836 24.3677C99.7836 24.3677 99.4613 24.5797 99.4493 24.5864Z"/>
</mask>
<path d="M99.4493 24.5864C99.4108 24.6121 99.385 24.6378 99.3465 24.6635C99.2693 24.715 99.1922 24.7665 99.1151 24.8179C99.0765 24.8436 99.0251 24.8822 98.9865 24.908C98.9094 24.9594 98.8451 25.0109 98.768 25.0623C98.6522 25.1524 98.5237 25.2424 98.3951 25.3453C98.3694 25.3453 98.3566 25.3711 98.3308 25.3839C98.2151 25.474 98.1123 25.5512 98.0094 25.6541C97.8937 25.7312 97.7909 25.8213 97.688 25.9242C97.6495 25.9499 97.6109 25.9885 97.5723 26.0143H97.5595C97.4566 26.1172 97.3538 26.2072 97.2638 26.3101C97.1995 26.3744 97.1224 26.4388 97.0581 26.5159C97.0195 26.5417 96.9938 26.5803 96.9681 26.606C96.9038 26.6574 96.8395 26.7218 96.7753 26.7989C96.7367 26.8375 96.711 26.8633 96.6724 26.9019C96.6724 26.9276 96.6339 26.9533 96.6081 26.979C96.5439 27.0562 96.4667 27.1463 96.3896 27.2235C96.3639 27.262 96.3253 27.3006 96.2867 27.3521C96.2353 27.4164 96.171 27.4936 96.1196 27.5579C96.1196 27.5708 96.0939 27.5836 96.0939 27.5965C96.0682 27.6222 96.0296 27.6608 96.0168 27.6994C95.9782 27.7251 95.9653 27.738 95.9525 27.7637C95.9525 27.7766 95.9268 27.7895 95.9268 27.8152C95.8882 27.8538 95.8496 27.8924 95.8368 27.931C95.8111 27.9567 95.7854 27.9824 95.7725 28.0082C95.7596 28.021 95.7596 28.0339 95.7468 28.0467C95.6568 28.1625 95.5797 28.2783 95.4897 28.4069C95.4768 28.4198 95.464 28.4455 95.4511 28.4584C95.3997 28.5356 95.3611 28.6128 95.3097 28.6771C95.284 28.7157 95.2583 28.7543 95.2325 28.7928C95.2068 28.8572 95.1811 28.8958 95.1426 28.9472C95.0911 29.0244 95.0397 29.1144 94.9883 29.2045C94.9626 29.2559 94.924 29.3074 94.8983 29.3717C94.8469 29.4489 94.7954 29.5389 94.744 29.629C94.7183 29.6933 94.6926 29.7448 94.6669 29.7962C94.6283 29.8477 94.6026 29.912 94.5769 29.9635C94.5512 30.0149 94.5255 30.0664 94.4869 30.1307C94.474 30.1693 94.4483 30.2079 94.4355 30.2465C94.3712 30.3751 94.3069 30.5166 94.2298 30.6581C94.2298 30.671 94.2298 30.6838 94.2169 30.6967C94.2041 30.7482 94.1784 30.7996 94.1526 30.8511C94.1012 30.9668 94.0498 31.0697 94.0112 31.1727C93.9598 31.2884 93.9084 31.4171 93.8698 31.5328C93.8441 31.5843 93.8312 31.6358 93.8055 31.6872C93.7798 31.7515 93.7541 31.8287 93.7284 31.893C93.677 32.0088 93.6384 32.1374 93.5998 32.2532C93.5741 32.3047 93.5484 32.369 93.5356 32.4333C93.5356 32.4333 93.5313 32.4419 93.5227 32.459C93.4584 32.6263 93.407 32.8064 93.3556 32.9736C93.3299 33.0379 93.317 33.0894 93.3041 33.1408C93.2527 33.2952 93.2013 33.4624 93.1499 33.6297C93.137 33.6811 93.1242 33.7326 93.1113 33.784C93.0856 33.8998 93.047 34.0284 93.0213 34.1571C92.9956 34.2343 92.9699 34.3243 92.957 34.4144C92.9442 34.4529 92.9313 34.4915 92.9185 34.5301C92.8928 34.6202 92.867 34.7231 92.8542 34.8131C92.8285 34.8646 92.8285 34.9032 92.8156 34.9546C92.8156 34.9804 92.8156 35.0061 92.7899 35.0447C92.7513 35.2119 92.7128 35.3791 92.687 35.5464C92.6613 35.5978 92.6613 35.6364 92.6485 35.6879C92.3399 37.1544 92.0828 38.8267 91.9028 40.7048C92.2885 44.1909 91.6971 48.0115 90.2573 51.8963C90.2573 51.8963 90.253 51.9049 90.2444 51.9221C89.5116 56.1929 86.9661 58.5984 86.9661 58.5984C86.9404 58.637 86.9147 58.6627 86.889 58.7013L86.8761 58.7142C86.8761 58.7399 86.8504 58.7656 86.8376 58.7914C86.8119 58.83 86.799 58.8557 86.7733 58.8814C86.7476 58.92 86.7219 58.9586 86.709 58.9843C86.6833 59.0486 86.6447 59.1001 86.5933 59.1644C86.5804 59.2159 86.5547 59.2545 86.5162 59.2931C86.5033 59.3316 86.4776 59.3702 86.4647 59.396C86.4519 59.4088 86.439 59.4088 86.439 59.4217C86.4262 59.4474 86.4005 59.4732 86.3876 59.4989C86.349 59.5632 86.3105 59.6275 86.259 59.679C86.2205 59.7562 86.1819 59.8205 86.1305 59.8848C86.1176 59.9105 86.1048 59.9234 86.0919 59.9362C86.0791 59.962 86.0662 59.9748 86.0533 59.9877C85.9119 60.1935 85.7834 60.3993 85.642 60.5923C85.5777 60.6952 85.5134 60.7853 85.4363 60.8882C85.4363 60.8882 85.3977 60.9396 85.372 60.9654C83.5286 63.7321 81.1842 66.1644 78.764 68.465C78.494 68.7223 78.224 68.9667 77.9412 69.2111C77.8255 69.314 77.6969 69.4169 77.5812 69.5198C77.2341 69.8286 76.8741 70.1244 76.5013 70.4203C76.1156 70.7419 75.7171 71.0506 75.3186 71.3594C75.2414 71.4237 75.1643 71.488 75.0743 71.5523C74.9843 71.6166 74.9072 71.681 74.8172 71.7453C74.74 71.7967 74.6629 71.8482 74.5858 71.9254C74.5858 71.9382 74.5729 71.9382 74.5729 71.9382C74.5729 71.9382 74.5601 71.964 74.5472 71.964C74.4701 72.0026 74.3929 72.054 74.3158 72.1183C74.2387 72.1698 74.1744 72.2212 74.0972 72.2727C73.6858 72.5814 73.2745 72.8773 72.8374 73.1603C72.8374 73.1732 72.7988 73.186 72.7731 73.2118C72.4774 73.4047 72.1688 73.5977 71.8603 73.8164C71.8603 73.8164 71.8603 73.8292 71.8474 73.8292C71.7446 73.8678 71.6546 73.945 71.5518 74.0093C71.1146 74.2795 70.6775 74.5496 70.2276 74.8197C69.8162 75.0641 69.4048 75.3086 68.9805 75.5401C68.9805 75.5401 68.8648 75.6302 68.8134 75.643C68.7748 75.6816 68.7234 75.6945 68.6849 75.7202C68.672 75.7202 68.6463 75.7459 68.6206 75.7588L68.1578 75.9903C67.9392 76.119 67.7207 76.2219 67.4892 76.3377C67.3221 76.4277 67.155 76.5049 66.9879 76.5949C66.6793 76.7493 66.3708 76.9037 66.0622 77.0452C66.0237 77.0709 65.9979 77.0838 65.9594 77.0966H65.9465C65.9465 77.0966 65.8951 77.1481 65.8694 77.1481C65.6765 77.2253 65.4837 77.3153 65.2909 77.4054C65.0723 77.5083 64.8409 77.6112 64.6095 77.7012C64.2238 77.8813 63.8253 78.0486 63.4267 78.2029C63.3239 78.2544 63.221 78.293 63.1311 78.3316C63.0925 78.3573 63.0539 78.3702 63.0025 78.383C62.9896 78.383 62.9639 78.4088 62.9511 78.4088C62.8996 78.4216 62.8482 78.4345 62.7839 78.4602H62.7711C62.3854 78.6146 61.9997 78.7561 61.614 78.8976C61.0998 79.0777 60.5856 79.2578 60.0713 79.425C59.7242 79.5408 59.3771 79.6437 59.03 79.7466C58.7986 79.8238 58.5672 79.8881 58.3358 79.9524C58.0144 80.0425 57.693 80.1325 57.3587 80.2226C57.2944 80.2226 57.243 80.2483 57.1787 80.274C57.0887 80.2869 56.9859 80.3126 56.8959 80.3383C55.8417 80.6085 54.7618 80.84 53.669 81.033C53.6562 81.033 53.6562 81.033 53.6562 81.033C53.6433 81.033 53.6304 81.033 53.6304 81.033C53.4505 81.0587 53.2833 81.0844 53.1034 81.123C52.782 81.1745 52.4605 81.2259 52.1391 81.2774C52.0749 81.2774 52.0106 81.2903 51.9463 81.3031C51.8692 81.316 51.792 81.316 51.702 81.3288C51.6635 81.3288 51.6378 81.3417 51.5992 81.3417C51.4835 81.3417 51.3678 81.3674 51.2521 81.3803C50.9178 81.4318 50.5836 81.4704 50.2493 81.5089C50.185 81.5218 50.1079 81.5218 50.0308 81.5347C49.9151 81.5475 49.8122 81.5604 49.6965 81.5604C49.3108 81.599 48.9123 81.6376 48.5266 81.6633C48.0766 81.7019 47.6267 81.7276 47.1767 81.7405C46.9582 81.7405 46.7268 81.7662 46.5082 81.7662C44.7084 81.8305 42.8828 81.7791 41.0187 81.6376C40.4787 81.599 39.9388 81.5475 39.3988 81.4832H39.3603C39.2574 81.4704 39.1674 81.4575 39.0646 81.4446H39.0003C38.5118 81.3803 38.0232 81.316 37.5347 81.2388C37.3676 81.2259 37.2004 81.2002 37.0333 81.1616C36.9948 81.1616 36.9562 81.1616 36.9176 81.1488C36.8662 81.123 36.8148 81.123 36.7633 81.123C36.7505 81.123 36.7376 81.1102 36.7248 81.1102C36.3391 81.0459 35.9534 80.9687 35.5677 80.9043C35.5677 80.9172 35.542 80.9043 35.5292 80.9043C35.1563 80.8272 34.7707 80.75 34.3978 80.6728C34.3593 80.6599 34.3207 80.6599 34.2821 80.6471C33.4851 80.467 32.6751 80.274 31.8523 80.0682C31.8395 80.0682 31.8266 80.0682 31.8138 80.0682C31.3381 79.9396 30.8496 79.798 30.361 79.6694C29.8854 79.515 29.3968 79.3735 28.9083 79.2192C27.8284 78.8719 26.7485 78.4859 25.6557 78.0614C25.6172 78.0614 25.5915 78.0486 25.5657 78.0357C26.0157 78.01 26.4657 77.9842 26.9028 77.9457C26.4785 77.9714 26.0414 77.9971 25.6043 78.0228C25.6943 77.9842 25.8614 77.9199 26.0928 77.8042C26.2214 77.7527 26.3628 77.6884 26.5171 77.6241C26.5557 77.5983 26.5942 77.5855 26.6457 77.5726C26.9285 77.444 27.237 77.3025 27.597 77.1095C27.7127 77.0452 27.8413 76.9809 27.9698 76.9165C28.2012 76.8136 28.4455 76.6721 28.7026 76.5178C28.7155 76.5178 28.7283 76.5049 28.7412 76.5049C29.0497 76.3248 29.384 76.1447 29.7311 75.9389C30.0782 75.7331 30.4382 75.5015 30.811 75.2571C31.1195 75.077 31.4409 74.8583 31.7624 74.6268C32.0838 74.421 32.4052 74.1894 32.7394 73.9321C33.0737 73.6877 33.4208 73.4304 33.7679 73.1474C34.115 72.8902 34.4621 72.6072 34.8092 72.2984C35.1692 72.0026 35.5292 71.6938 35.8763 71.3594C36.2362 71.0378 36.5962 70.6904 36.9562 70.3431L37.7147 69.5841C37.779 69.507 37.8433 69.4426 37.9075 69.3655C38.0747 69.1982 38.2289 69.031 38.3832 68.8638C38.3832 68.8638 38.3961 68.8509 38.3961 68.838C38.3961 68.838 38.4089 68.8252 38.4218 68.8123C38.4861 68.748 38.5503 68.6837 38.6146 68.6065C38.6146 68.6065 38.6532 68.555 38.666 68.5422C38.8589 68.3364 39.0389 68.1177 39.2188 67.899C39.3217 67.7832 39.4245 67.6803 39.5017 67.5645C39.566 67.5002 39.6174 67.4487 39.656 67.3844C39.7074 67.3201 39.7588 67.2687 39.8102 67.2043C39.8102 67.1915 39.8359 67.1786 39.8359 67.1657C39.9516 67.0242 40.0673 66.8827 40.1702 66.7412C40.2602 66.6255 40.3502 66.5225 40.4273 66.4068C40.453 66.4068 40.4787 66.3553 40.4916 66.3425C40.4916 66.3425 40.4959 66.3339 40.5044 66.3167C40.5044 66.3167 40.5302 66.291 40.5302 66.2781C40.543 66.2653 40.5559 66.2524 40.5687 66.2395C40.7873 65.9565 41.0058 65.6607 41.2115 65.3648C41.2244 65.3648 41.2372 65.3391 41.2372 65.3262C41.2887 65.249 41.3529 65.1718 41.3915 65.0947C41.4686 64.9918 41.5329 64.9017 41.6101 64.7988C41.6872 64.683 41.7772 64.5672 41.8543 64.4515C41.88 64.4 41.9058 64.3486 41.9443 64.31C41.9957 64.2456 42.0343 64.1685 42.0857 64.1041C42.1243 64.0398 42.1629 63.9755 42.1886 63.924C42.3171 63.744 42.4328 63.5639 42.5486 63.3709C42.5486 63.3709 42.5871 63.3194 42.6 63.2937C42.6128 63.268 42.6257 63.2551 42.6385 63.2294C42.7285 63.0879 42.8185 62.9464 42.8957 62.8049C42.8957 62.8049 42.9214 62.7663 42.9214 62.7534H42.9342C42.9342 62.7534 42.9342 62.7277 42.9471 62.7148C42.9857 62.6377 43.0371 62.5605 43.0757 62.4833C43.0242 62.5605 42.9728 62.6377 42.9342 62.7148C42.5614 62.5476 42.1886 62.3804 41.8158 62.2003C41.4429 62.0202 41.0701 61.853 40.7101 61.6729C39.6302 61.1197 38.5632 60.5409 37.5219 59.9362C23.1214 51.3974 19.3169 36.4083 20.7062 19.5823C28.1884 30.6324 40.363 34.5559 51.2264 35.8165C54.1318 24.432 58.4515 14.6426 72.1174 11.8383H72.1303C72.516 11.7611 72.9016 11.6839 73.313 11.6196C73.3387 11.6196 73.3644 11.6067 73.3902 11.6067C73.4159 11.5939 73.4544 11.5939 73.493 11.5939C73.673 11.5553 73.8401 11.5295 74.0201 11.5038C74.0587 11.5038 74.0972 11.5038 74.1487 11.5038C74.3287 11.4781 74.5215 11.4524 74.7143 11.4266C74.92 11.388 75.1257 11.3623 75.3443 11.3495C75.5114 11.3237 75.6785 11.298 75.8457 11.2851C75.8714 11.2851 75.8971 11.2723 75.9357 11.2723C75.9871 11.2723 76.0385 11.2723 76.0899 11.2723H76.1799C76.617 11.2208 77.067 11.1822 77.5169 11.1565C90.6044 11.4395 97.2381 19.5823 99.7836 24.3677C99.7836 24.3677 99.4613 24.5797 99.4493 24.5864Z" fill="#AA0004"/>
<path d="M99.4493 24.5864C99.4108 24.6121 99.385 24.6378 99.3465 24.6635C99.2693 24.715 99.1922 24.7665 99.1151 24.8179C99.0765 24.8436 99.0251 24.8822 98.9865 24.908C98.9094 24.9594 98.8451 25.0109 98.768 25.0623C98.6522 25.1524 98.5237 25.2424 98.3951 25.3453C98.3694 25.3453 98.3566 25.3711 98.3308 25.3839C98.2151 25.474 98.1123 25.5512 98.0094 25.6541C97.8937 25.7312 97.7909 25.8213 97.688 25.9242C97.6495 25.9499 97.6109 25.9885 97.5723 26.0143H97.5595C97.4566 26.1172 97.3538 26.2072 97.2638 26.3101C97.1995 26.3744 97.1224 26.4388 97.0581 26.5159C97.0195 26.5417 96.9938 26.5803 96.9681 26.606C96.9038 26.6574 96.8395 26.7218 96.7753 26.7989C96.7367 26.8375 96.711 26.8633 96.6724 26.9019C96.6724 26.9276 96.6339 26.9533 96.6081 26.979C96.5439 27.0562 96.4667 27.1463 96.3896 27.2235C96.3639 27.262 96.3253 27.3006 96.2867 27.3521C96.2353 27.4164 96.171 27.4936 96.1196 27.5579C96.1196 27.5708 96.0939 27.5836 96.0939 27.5965C96.0682 27.6222 96.0296 27.6608 96.0168 27.6994C95.9782 27.7251 95.9653 27.738 95.9525 27.7637C95.9525 27.7766 95.9268 27.7895 95.9268 27.8152C95.8882 27.8538 95.8496 27.8924 95.8368 27.931C95.8111 27.9567 95.7854 27.9824 95.7725 28.0082C95.7596 28.021 95.7596 28.0339 95.7468 28.0467C95.6568 28.1625 95.5797 28.2783 95.4897 28.4069C95.4768 28.4198 95.464 28.4455 95.4511 28.4584C95.3997 28.5356 95.3611 28.6128 95.3097 28.6771C95.284 28.7157 95.2583 28.7543 95.2325 28.7928C95.2068 28.8572 95.1811 28.8958 95.1426 28.9472C95.0911 29.0244 95.0397 29.1144 94.9883 29.2045C94.9626 29.2559 94.924 29.3074 94.8983 29.3717C94.8469 29.4489 94.7954 29.5389 94.744 29.629C94.7183 29.6933 94.6926 29.7448 94.6669 29.7962C94.6283 29.8477 94.6026 29.912 94.5769 29.9635C94.5512 30.0149 94.5255 30.0664 94.4869 30.1307C94.474 30.1693 94.4483 30.2079 94.4355 30.2465C94.3712 30.3751 94.3069 30.5166 94.2298 30.6581C94.2298 30.671 94.2298 30.6838 94.2169 30.6967C94.2041 30.7482 94.1784 30.7996 94.1526 30.8511C94.1012 30.9668 94.0498 31.0697 94.0112 31.1727C93.9598 31.2884 93.9084 31.4171 93.8698 31.5328C93.8441 31.5843 93.8312 31.6358 93.8055 31.6872C93.7798 31.7515 93.7541 31.8287 93.7284 31.893C93.677 32.0088 93.6384 32.1374 93.5998 32.2532C93.5741 32.3047 93.5484 32.369 93.5356 32.4333C93.5356 32.4333 93.5313 32.4419 93.5227 32.459C93.4584 32.6263 93.407 32.8064 93.3556 32.9736C93.3299 33.0379 93.317 33.0894 93.3041 33.1408C93.2527 33.2952 93.2013 33.4624 93.1499 33.6297C93.137 33.6811 93.1242 33.7326 93.1113 33.784C93.0856 33.8998 93.047 34.0284 93.0213 34.1571C92.9956 34.2343 92.9699 34.3243 92.957 34.4144C92.9442 34.4529 92.9313 34.4915 92.9185 34.5301C92.8928 34.6202 92.867 34.7231 92.8542 34.8131C92.8285 34.8646 92.8285 34.9032 92.8156 34.9546C92.8156 34.9804 92.8156 35.0061 92.7899 35.0447C92.7513 35.2119 92.7128 35.3791 92.687 35.5464C92.6613 35.5978 92.6613 35.6364 92.6485 35.6879C92.3399 37.1544 92.0828 38.8267 91.9028 40.7048C92.2885 44.1909 91.6971 48.0115 90.2573 51.8963C90.2573 51.8963 90.253 51.9049 90.2444 51.9221C89.5116 56.1929 86.9661 58.5984 86.9661 58.5984C86.9404 58.637 86.9147 58.6627 86.889 58.7013L86.8761 58.7142C86.8761 58.7399 86.8504 58.7656 86.8376 58.7914C86.8119 58.83 86.799 58.8557 86.7733 58.8814C86.7476 58.92 86.7219 58.9586 86.709 58.9843C86.6833 59.0486 86.6447 59.1001 86.5933 59.1644C86.5804 59.2159 86.5547 59.2545 86.5162 59.2931C86.5033 59.3316 86.4776 59.3702 86.4647 59.396C86.4519 59.4088 86.439 59.4088 86.439 59.4217C86.4262 59.4474 86.4005 59.4732 86.3876 59.4989C86.349 59.5632 86.3105 59.6275 86.259 59.679C86.2205 59.7562 86.1819 59.8205 86.1305 59.8848C86.1176 59.9105 86.1048 59.9234 86.0919 59.9362C86.0791 59.962 86.0662 59.9748 86.0533 59.9877C85.9119 60.1935 85.7834 60.3993 85.642 60.5923C85.5777 60.6952 85.5134 60.7853 85.4363 60.8882C85.4363 60.8882 85.3977 60.9396 85.372 60.9654C83.5286 63.7321 81.1842 66.1644 78.764 68.465C78.494 68.7223 78.224 68.9667 77.9412 69.2111C77.8255 69.314 77.6969 69.4169 77.5812 69.5198C77.2341 69.8286 76.8741 70.1244 76.5013 70.4203C76.1156 70.7419 75.7171 71.0506 75.3186 71.3594C75.2414 71.4237 75.1643 71.488 75.0743 71.5523C74.9843 71.6166 74.9072 71.681 74.8172 71.7453C74.74 71.7967 74.6629 71.8482 74.5858 71.9254C74.5858 71.9382 74.5729 71.9382 74.5729 71.9382C74.5729 71.9382 74.5601 71.964 74.5472 71.964C74.4701 72.0026 74.3929 72.054 74.3158 72.1183C74.2387 72.1698 74.1744 72.2212 74.0972 72.2727C73.6858 72.5814 73.2745 72.8773 72.8374 73.1603C72.8374 73.1732 72.7988 73.186 72.7731 73.2118C72.4774 73.4047 72.1688 73.5977 71.8603 73.8164C71.8603 73.8164 71.8603 73.8292 71.8474 73.8292C71.7446 73.8678 71.6546 73.945 71.5518 74.0093C71.1146 74.2795 70.6775 74.5496 70.2276 74.8197C69.8162 75.0641 69.4048 75.3086 68.9805 75.5401C68.9805 75.5401 68.8648 75.6302 68.8134 75.643C68.7748 75.6816 68.7234 75.6945 68.6849 75.7202C68.672 75.7202 68.6463 75.7459 68.6206 75.7588L68.1578 75.9903C67.9392 76.119 67.7207 76.2219 67.4892 76.3377C67.3221 76.4277 67.155 76.5049 66.9879 76.5949C66.6793 76.7493 66.3708 76.9037 66.0622 77.0452C66.0237 77.0709 65.9979 77.0838 65.9594 77.0966H65.9465C65.9465 77.0966 65.8951 77.1481 65.8694 77.1481C65.6765 77.2253 65.4837 77.3153 65.2909 77.4054C65.0723 77.5083 64.8409 77.6112 64.6095 77.7012C64.2238 77.8813 63.8253 78.0486 63.4267 78.2029C63.3239 78.2544 63.221 78.293 63.1311 78.3316C63.0925 78.3573 63.0539 78.3702 63.0025 78.383C62.9896 78.383 62.9639 78.4088 62.9511 78.4088C62.8996 78.4216 62.8482 78.4345 62.7839 78.4602H62.7711C62.3854 78.6146 61.9997 78.7561 61.614 78.8976C61.0998 79.0777 60.5856 79.2578 60.0713 79.425C59.7242 79.5408 59.3771 79.6437 59.03 79.7466C58.7986 79.8238 58.5672 79.8881 58.3358 79.9524C58.0144 80.0425 57.693 80.1325 57.3587 80.2226C57.2944 80.2226 57.243 80.2483 57.1787 80.274C57.0887 80.2869 56.9859 80.3126 56.8959 80.3383C55.8417 80.6085 54.7618 80.84 53.669 81.033C53.6562 81.033 53.6562 81.033 53.6562 81.033C53.6433 81.033 53.6304 81.033 53.6304 81.033C53.4505 81.0587 53.2833 81.0844 53.1034 81.123C52.782 81.1745 52.4605 81.2259 52.1391 81.2774C52.0749 81.2774 52.0106 81.2903 51.9463 81.3031C51.8692 81.316 51.792 81.316 51.702 81.3288C51.6635 81.3288 51.6378 81.3417 51.5992 81.3417C51.4835 81.3417 51.3678 81.3674 51.2521 81.3803C50.9178 81.4318 50.5836 81.4704 50.2493 81.5089C50.185 81.5218 50.1079 81.5218 50.0308 81.5347C49.9151 81.5475 49.8122 81.5604 49.6965 81.5604C49.3108 81.599 48.9123 81.6376 48.5266 81.6633C48.0766 81.7019 47.6267 81.7276 47.1767 81.7405C46.9582 81.7405 46.7268 81.7662 46.5082 81.7662C44.7084 81.8305 42.8828 81.7791 41.0187 81.6376C40.4787 81.599 39.9388 81.5475 39.3988 81.4832H39.3603C39.2574 81.4704 39.1674 81.4575 39.0646 81.4446H39.0003C38.5118 81.3803 38.0232 81.316 37.5347 81.2388C37.3676 81.2259 37.2004 81.2002 37.0333 81.1616C36.9948 81.1616 36.9562 81.1616 36.9176 81.1488C36.8662 81.123 36.8148 81.123 36.7633 81.123C36.7505 81.123 36.7376 81.1102 36.7248 81.1102C36.3391 81.0459 35.9534 80.9687 35.5677 80.9043C35.5677 80.9172 35.542 80.9043 35.5292 80.9043C35.1563 80.8272 34.7707 80.75 34.3978 80.6728C34.3593 80.6599 34.3207 80.6599 34.2821 80.6471C33.4851 80.467 32.6751 80.274 31.8523 80.0682C31.8395 80.0682 31.8266 80.0682 31.8138 80.0682C31.3381 79.9396 30.8496 79.798 30.361 79.6694C29.8854 79.515 29.3968 79.3735 28.9083 79.2192C27.8284 78.8719 26.7485 78.4859 25.6557 78.0614C25.6172 78.0614 25.5915 78.0486 25.5657 78.0357C26.0157 78.01 26.4657 77.9842 26.9028 77.9457C26.4785 77.9714 26.0414 77.9971 25.6043 78.0228C25.6943 77.9842 25.8614 77.9199 26.0928 77.8042C26.2214 77.7527 26.3628 77.6884 26.5171 77.6241C26.5557 77.5983 26.5942 77.5855 26.6457 77.5726C26.9285 77.444 27.237 77.3025 27.597 77.1095C27.7127 77.0452 27.8413 76.9809 27.9698 76.9165C28.2012 76.8136 28.4455 76.6721 28.7026 76.5178C28.7155 76.5178 28.7283 76.5049 28.7412 76.5049C29.0497 76.3248 29.384 76.1447 29.7311 75.9389C30.0782 75.7331 30.4382 75.5015 30.811 75.2571C31.1195 75.077 31.4409 74.8583 31.7624 74.6268C32.0838 74.421 32.4052 74.1894 32.7394 73.9321C33.0737 73.6877 33.4208 73.4304 33.7679 73.1474C34.115 72.8902 34.4621 72.6072 34.8092 72.2984C35.1692 72.0026 35.5292 71.6938 35.8763 71.3594C36.2362 71.0378 36.5962 70.6904 36.9562 70.3431L37.7147 69.5841C37.779 69.507 37.8433 69.4426 37.9075 69.3655C38.0747 69.1982 38.2289 69.031 38.3832 68.8638C38.3832 68.8638 38.3961 68.8509 38.3961 68.838C38.3961 68.838 38.4089 68.8252 38.4218 68.8123C38.4861 68.748 38.5503 68.6837 38.6146 68.6065C38.6146 68.6065 38.6532 68.555 38.666 68.5422C38.8589 68.3364 39.0389 68.1177 39.2188 67.899C39.3217 67.7832 39.4245 67.6803 39.5017 67.5645C39.566 67.5002 39.6174 67.4487 39.656 67.3844C39.7074 67.3201 39.7588 67.2687 39.8102 67.2043C39.8102 67.1915 39.8359 67.1786 39.8359 67.1657C39.9516 67.0242 40.0673 66.8827 40.1702 66.7412C40.2602 66.6255 40.3502 66.5225 40.4273 66.4068C40.453 66.4068 40.4787 66.3553 40.4916 66.3425C40.4916 66.3425 40.4959 66.3339 40.5044 66.3167C40.5044 66.3167 40.5302 66.291 40.5302 66.2781C40.543 66.2653 40.5559 66.2524 40.5687 66.2395C40.7873 65.9565 41.0058 65.6607 41.2115 65.3648C41.2244 65.3648 41.2372 65.3391 41.2372 65.3262C41.2887 65.249 41.3529 65.1718 41.3915 65.0947C41.4686 64.9918 41.5329 64.9017 41.6101 64.7988C41.6872 64.683 41.7772 64.5672 41.8543 64.4515C41.88 64.4 41.9058 64.3486 41.9443 64.31C41.9957 64.2456 42.0343 64.1685 42.0857 64.1041C42.1243 64.0398 42.1629 63.9755 42.1886 63.924C42.3171 63.744 42.4328 63.5639 42.5486 63.3709C42.5486 63.3709 42.5871 63.3194 42.6 63.2937C42.6128 63.268 42.6257 63.2551 42.6385 63.2294C42.7285 63.0879 42.8185 62.9464 42.8957 62.8049C42.8957 62.8049 42.9214 62.7663 42.9214 62.7534H42.9342C42.9342 62.7534 42.9342 62.7277 42.9471 62.7148C42.9857 62.6377 43.0371 62.5605 43.0757 62.4833C43.0242 62.5605 42.9728 62.6377 42.9342 62.7148C42.5614 62.5476 42.1886 62.3804 41.8158 62.2003C41.4429 62.0202 41.0701 61.853 40.7101 61.6729C39.6302 61.1197 38.5632 60.5409 37.5219 59.9362C23.1214 51.3974 19.3169 36.4083 20.7062 19.5823C28.1884 30.6324 40.363 34.5559 51.2264 35.8165C54.1318 24.432 58.4515 14.6426 72.1174 11.8383H72.1303C72.516 11.7611 72.9016 11.6839 73.313 11.6196C73.3387 11.6196 73.3644 11.6067 73.3902 11.6067C73.4159 11.5939 73.4544 11.5939 73.493 11.5939C73.673 11.5553 73.8401 11.5295 74.0201 11.5038C74.0587 11.5038 74.0972 11.5038 74.1487 11.5038C74.3287 11.4781 74.5215 11.4524 74.7143 11.4266C74.92 11.388 75.1257 11.3623 75.3443 11.3495C75.5114 11.3237 75.6785 11.298 75.8457 11.2851C75.8714 11.2851 75.8971 11.2723 75.9357 11.2723C75.9871 11.2723 76.0385 11.2723 76.0899 11.2723H76.1799C76.617 11.2208 77.067 11.1822 77.5169 11.1565C90.6044 11.4395 97.2381 19.5823 99.7836 24.3677C99.7836 24.3677 99.4613 24.5797 99.4493 24.5864Z" stroke="white" stroke-width="13.3161" mask="url(#path-1-outside-1_2902_4281)"/>
<path d="M25.7031 77.9008C25.7031 77.9008 41.4946 72.2669 47.1339 53.3955C52.7733 34.5202 51.647 12.6897 77.727 11C90.8378 11.2804 97.4669 19.4526 100.004 24.2377C95.9154 26.7724 93.0938 30.5762 92.1079 40.5745C94.3647 60.7151 63.7713 92.6877 25.7031 77.8971V77.9008Z" fill="url(#paint0_linear_2902_4281)"/>
<path d="M77.727 11C51.6469 12.6897 52.7733 34.5202 47.1339 53.3954C41.4947 72.2668 25.7031 77.9008 25.7031 77.9008C64.0519 75.9309 65.0379 46.0682 66.4486 38.1839C67.8594 30.2958 71.9477 20.718 78.0083 18.3236C93.3744 14.0991 99.9997 24.2376 99.9997 24.2376C97.4669 19.4526 90.8378 11.2804 77.727 11Z" fill="url(#paint1_linear_2902_4281)"/>
<path d="M92.1079 40.5787C93.0938 30.5804 95.9154 26.7765 100.004 24.2419C100.004 24.2419 95.4906 22.412 90.9814 25.2269C86.4685 28.0419 84.2162 30.5804 79.2784 44.6629C74.3444 58.7493 72.088 67.6227 57.0018 74.2416C41.9157 80.8597 29.651 79.0303 25.7031 77.9049C63.7675 92.6925 94.361 60.7229 92.1079 40.5825V40.5787Z" fill="url(#paint2_linear_2902_4281)"/>
<path d="M87.0943 58.5751C77.6057 50.2169 64.3515 44.7384 49.5232 43.9238C48.8102 47.0912 48.0631 50.2813 47.1339 53.3918C41.4947 72.2633 25.7031 77.8972 25.7031 77.8972C53.3497 88.638 77.0521 74.7149 87.0943 58.5706V58.5751Z" fill="url(#paint3_linear_2902_4281)"/>
<path d="M65.064 46.6062C60.168 45.1476 54.9534 44.2232 49.5265 43.9238C49.4393 44.3065 49.352 44.6892 49.2648 45.0756C49.261 45.0908 49.2572 45.1097 49.2534 45.1249C49.1624 45.5151 49.0752 45.9091 48.9841 46.2994C48.9841 46.2994 48.9841 46.2994 48.9841 46.3032C48.9007 46.6593 48.8173 47.0117 48.7339 47.3677C48.7149 47.4549 48.6921 47.5421 48.6694 47.6292C48.6011 47.9172 48.529 48.2051 48.4608 48.493C48.438 48.5802 48.4191 48.6711 48.3964 48.7582C48.3053 49.1219 48.2143 49.4856 48.1195 49.8494C48.1119 49.8721 48.1081 49.8949 48.1005 49.9213C48.0133 50.251 47.9299 50.5844 47.8388 50.914C47.8123 51.0201 47.782 51.1262 47.7516 51.2322C47.6796 51.4937 47.6075 51.7551 47.5355 52.0165C47.5051 52.1226 47.4748 52.2286 47.4483 52.331C47.3459 52.6871 47.2435 53.0394 47.141 53.3918C41.5017 72.2633 25.7102 77.8972 25.7102 77.8972C55.1544 76.3815 62.5723 58.4308 65.0678 46.6024L65.064 46.6062Z" fill="url(#paint4_linear_2902_4281)"/>
<path d="M27.1596 78.4424C27.4971 78.5636 27.8308 78.681 28.1684 78.7948C28.2177 78.8096 28.2669 78.829 28.3201 78.8475C28.6993 78.9761 29.0748 79.0981 29.4502 79.2155C29.545 79.2452 29.6437 79.2757 29.7385 79.3062C30.0532 79.4006 30.3642 79.4958 30.679 79.5864C30.7548 79.6095 30.8306 79.6318 30.9065 79.6511C31.2781 79.7567 31.6498 79.8592 32.0215 79.9537C32.1087 79.9767 32.1959 79.9998 32.2794 80.0221C32.5865 80.1016 32.89 80.1774 33.1933 80.2495C33.2805 80.2718 33.3715 80.2911 33.4588 80.3142C33.8266 80.4012 34.1945 80.4807 34.5624 80.5602C34.6306 80.5751 34.7027 80.5907 34.7709 80.6019C35.082 80.6665 35.3891 80.7268 35.7001 80.7877C35.7949 80.8063 35.8897 80.8256 35.9845 80.8405C36.3486 80.9089 36.7164 80.9728 37.0805 81.03C37.1222 81.0375 37.1602 81.0412 37.2019 81.0486C37.5318 81.1021 37.858 81.1512 38.1841 81.1966C38.2827 81.2114 38.3775 81.2233 38.4761 81.2382C38.825 81.2835 39.1739 81.3289 39.5228 81.3668C39.538 81.3668 39.5532 81.3668 39.5684 81.3712C39.9286 81.4129 40.2889 81.4463 40.6491 81.4805C40.744 81.4887 40.8388 81.4961 40.9336 81.5073C41.2446 81.534 41.5518 81.5563 41.8627 81.5794C41.9159 81.5794 41.9689 81.5868 42.0259 81.5905C42.3785 81.6136 42.7312 81.6322 43.0839 81.6478C43.1711 81.6478 43.2621 81.6552 43.3494 81.6589C43.6414 81.6701 43.9296 81.6775 44.2216 81.6812C44.2937 81.6812 44.3695 81.6812 44.4454 81.6857C44.7943 81.6894 45.1394 81.6931 45.4845 81.6894C45.5603 81.6894 45.64 81.6894 45.7159 81.6894C46.0002 81.6894 46.2847 81.6812 46.5691 81.6738C46.6526 81.6738 46.736 81.6701 46.8194 81.6664C47.1607 81.6552 47.502 81.6396 47.8433 81.621C47.9041 81.621 47.9609 81.6136 48.0216 81.6099C48.3136 81.5943 48.6019 81.5719 48.89 81.5526C48.9773 81.5452 49.0683 81.5378 49.1555 81.534C49.4931 81.5073 49.8306 81.4768 50.1681 81.4426C50.1947 81.4426 50.2212 81.4352 50.2478 81.4352C50.5587 81.401 50.8697 81.3668 51.1806 81.3289C51.2679 81.3177 51.3589 81.3066 51.4461 81.2954C51.7571 81.2538 52.0643 81.2114 52.3753 81.1661C52.398 81.1661 52.4246 81.1586 52.4474 81.1549C52.7773 81.1059 53.1072 81.0523 53.4334 80.9958C53.5168 80.981 53.6041 80.9654 53.6875 80.9505C53.9681 80.9014 54.2449 80.8479 54.5218 80.7951C54.5749 80.784 54.628 80.7758 54.6848 80.7647C55.0072 80.7 55.3258 80.6323 55.6443 80.5639C55.7202 80.5491 55.7999 80.5298 55.8757 80.5112C56.1412 80.4502 56.4028 80.3893 56.6645 80.3253C56.7327 80.3097 56.801 80.2911 56.8693 80.2763C57.1841 80.2005 57.4988 80.1172 57.8098 80.0332C57.8743 80.0146 57.9387 79.9998 58.0032 79.9804C58.2649 79.9083 58.5228 79.8362 58.7807 79.7604C58.8565 79.7381 58.9323 79.7188 59.0044 79.6965C59.3116 79.605 59.6225 79.5106 59.926 79.4162C59.9714 79.4006 60.017 79.3857 60.0587 79.3746C60.3241 79.2869 60.5934 79.1999 60.8551 79.1129C60.9347 79.0862 61.0105 79.0601 61.0902 79.0334C61.3936 78.9271 61.697 78.8208 61.9966 78.7115C62.008 78.7078 62.0194 78.7033 62.0308 78.6996C62.3227 78.5941 62.611 78.484 62.8954 78.374C62.9713 78.3435 63.0471 78.3131 63.1229 78.2833C63.396 78.177 63.6653 78.067 63.9345 77.957C63.9611 77.9459 63.9876 77.9347 64.0142 77.9273C64.3062 77.8061 64.5982 77.6805 64.8864 77.5519C64.9584 77.5214 65.0305 77.4872 65.0988 77.4575C65.3453 77.3474 65.588 77.2374 65.8307 77.1237C65.88 77.1014 65.9293 77.0783 65.9749 77.0553C66.2593 76.923 66.5399 76.7869 66.8205 76.6502C66.885 76.6197 66.9457 76.5892 67.0102 76.5558C67.2453 76.4383 67.4767 76.3209 67.708 76.2034C67.7686 76.1729 67.8256 76.1425 67.8862 76.112C68.1631 75.9685 68.4361 75.8243 68.7054 75.6764C68.7547 75.6496 68.8078 75.6199 68.8571 75.5931C69.0884 75.4682 69.316 75.3396 69.5435 75.2103C69.6079 75.1761 69.6687 75.1382 69.7331 75.1047C70.0024 74.9494 70.2678 74.794 70.5333 74.6386C70.5637 74.6193 70.594 74.6045 70.6205 74.5851C70.8594 74.4417 71.0946 74.2974 71.3297 74.1532C71.3942 74.1153 71.4586 74.0737 71.5194 74.0321C72.0389 73.7028 72.5547 73.369 73.059 73.0241C73.1197 72.9824 73.1804 72.9408 73.2411 72.8992C73.4686 72.7401 73.6962 72.5847 73.9237 72.4219C73.9465 72.4071 73.9693 72.3878 73.9958 72.3729C74.2423 72.1945 74.4888 72.0168 74.7315 71.8384C74.7884 71.7968 74.8415 71.7552 74.8946 71.7172C75.1028 71.5619 75.3119 71.4028 75.5165 71.2474C75.5545 71.217 75.5961 71.1872 75.6341 71.1568C75.8729 70.9709 76.1081 70.7851 76.3395 70.6C76.3849 70.5621 76.434 70.5242 76.4801 70.4862C76.6773 70.3272 76.8745 70.1636 77.0679 70.0045C77.1133 69.9666 77.1624 69.9287 77.2078 69.8871C77.4355 69.6938 77.6632 69.505 77.8864 69.308C77.9207 69.2775 77.9549 69.2471 77.9891 69.2166C78.1826 69.0464 78.376 68.8761 78.5658 68.7052C78.6149 68.6598 78.664 68.6182 78.7138 68.5728C78.9334 68.3721 79.1499 68.1714 79.3657 67.97C79.3813 67.9551 79.3962 67.944 79.4073 67.9283C79.6082 67.7395 79.8054 67.55 80.0026 67.3567C80.0525 67.3114 80.0979 67.2616 80.147 67.2162C80.5644 66.8074 80.9736 66.3903 81.3717 65.9696C81.4179 65.9205 81.4633 65.8752 81.5086 65.8261C81.6865 65.6366 81.8651 65.4433 82.0392 65.25C82.0585 65.227 82.0771 65.2084 82.0965 65.1854C82.2899 64.9735 82.4797 64.7572 82.6687 64.5416C82.7066 64.4963 82.7483 64.4509 82.7862 64.4048C82.9499 64.2197 83.1092 64.0302 83.2684 63.8443C83.2982 63.8101 83.3287 63.7722 83.3592 63.738C83.5415 63.5225 83.7193 63.3024 83.8979 63.0831C83.9284 63.0452 83.9582 63.0036 83.9924 62.9657C84.1442 62.7761 84.2923 62.5866 84.4403 62.397C84.4738 62.3517 84.5081 62.31 84.5423 62.2647C84.7134 62.0447 84.8838 61.8209 85.0468 61.5979C85.0661 61.5711 85.0884 61.5407 85.1078 61.5146C85.2551 61.3177 85.3995 61.1162 85.5438 60.9155C85.578 60.8664 85.6115 60.8211 85.6458 60.772C85.805 60.5446 85.9642 60.3171 86.1197 60.0896C86.1242 60.0822 86.1279 60.0785 86.1317 60.071C86.2797 59.851 86.4271 59.6317 86.5714 59.4117C86.6056 59.3626 86.6361 59.3091 86.6696 59.26C86.8177 59.0326 86.962 58.8096 87.1027 58.5821C84.0646 55.903 80.6366 53.524 76.8931 51.4971C73.1918 61.7414 69.4942 68.7661 57.0096 74.2447C41.9234 80.8635 29.6588 79.0334 25.7109 77.9079C26.0939 78.0559 26.4808 78.2001 26.8638 78.3398C26.9662 78.3777 27.0648 78.4119 27.1672 78.4498L27.1596 78.4424Z" fill="url(#paint5_linear_2902_4281)"/>
<path d="M100.005 24.2377C97.4679 19.4526 90.8389 11.2804 77.7281 11C75.7793 11.125 73.9853 11.3675 72.328 11.7085C80.7319 12.9891 92.3672 17.8765 92.8144 35.0847C92.83 35.2476 92.8449 35.3992 92.8561 35.5583C94.2029 29.1895 96.6829 26.295 100.005 24.2377Z" fill="url(#paint6_linear_2902_4281)"/>
<path d="M90.9806 25.2267C90.9806 25.2267 90.9732 25.2305 90.9695 25.2343C92.0432 27.9584 92.7106 31.209 92.8126 35.0887C92.8282 35.2515 92.8431 35.4031 92.8543 35.5623C92.8996 35.3425 92.9495 35.1303 92.9986 34.9181C93.0172 34.8386 93.0366 34.7666 93.0552 34.687C93.0894 34.5506 93.1199 34.4143 93.1578 34.2779C93.1809 34.1946 93.1995 34.1111 93.2226 34.0278C93.2561 33.9028 93.2903 33.7777 93.3245 33.6527C93.3476 33.5732 93.3662 33.4974 93.3893 33.4178C93.4309 33.2776 93.4689 33.1413 93.5105 33.0087C93.5291 32.9518 93.5448 32.895 93.5634 32.8381C93.6207 32.6525 93.6809 32.4744 93.742 32.2964C93.7606 32.2358 93.7836 32.1789 93.8022 32.1221C93.8439 32.0009 93.89 31.8797 93.9317 31.7622C93.9577 31.694 93.9845 31.6258 94.0113 31.5576C94.053 31.4515 94.0946 31.3454 94.1363 31.2431C94.1631 31.1787 94.1891 31.1105 94.2159 31.0461C94.2613 30.9363 94.3067 30.8302 94.3566 30.7241C94.3789 30.671 94.4057 30.6142 94.428 30.5612C94.4965 30.4058 94.5686 30.2543 94.6408 30.1103C94.6594 30.0724 94.6788 30.0384 94.6974 30.0004C94.7547 29.8868 94.8112 29.7769 94.8685 29.6671C94.8983 29.614 94.925 29.5572 94.9556 29.5041C95.0047 29.4132 95.0538 29.3223 95.1036 29.2351C95.1334 29.1821 95.1639 29.1252 95.1981 29.0722C95.251 28.9851 95.3008 28.8979 95.3536 28.8108C95.3842 28.7616 95.4102 28.7161 95.4407 28.6668C95.5129 28.5531 95.5851 28.4395 95.6609 28.3334C95.6758 28.3144 95.687 28.2918 95.7026 28.2728C95.7822 28.1516 95.8656 28.0379 95.9489 27.9205C95.9794 27.8788 96.0099 27.8371 96.0397 27.7954C96.097 27.7159 96.1573 27.6401 96.2183 27.5643C96.2525 27.5188 96.2867 27.4772 96.321 27.4317C96.3775 27.3597 96.4385 27.2877 96.4988 27.2158C96.533 27.174 96.5672 27.1362 96.6015 27.0945C96.6737 27.0112 96.7451 26.9316 96.8173 26.852C96.8403 26.8255 96.8627 26.799 96.8857 26.7763C96.9802 26.674 97.0755 26.5717 97.1737 26.4731C97.2042 26.4429 97.231 26.4163 97.2615 26.386C97.3292 26.3141 97.4014 26.2458 97.4735 26.1777C97.5115 26.1435 97.5494 26.1095 97.5837 26.0716C97.6477 26.0109 97.7161 25.9503 97.7846 25.8897C97.8225 25.8556 97.8605 25.8215 97.8984 25.7912C97.9743 25.7268 98.0465 25.6624 98.1224 25.598C98.1522 25.5714 98.1827 25.5487 98.2132 25.5222C98.3196 25.435 98.4252 25.3517 98.5316 25.2646C98.5547 25.2494 98.577 25.2305 98.5964 25.2153C98.6834 25.1471 98.7705 25.0827 98.8575 25.0183C98.8955 24.9918 98.9334 24.9614 98.9714 24.935C99.0473 24.8819 99.1195 24.8289 99.1954 24.7758C99.237 24.7455 99.2787 24.719 99.3166 24.6925C99.3963 24.6394 99.4722 24.5864 99.5518 24.5333C99.586 24.5106 99.624 24.4841 99.6582 24.4614C99.772 24.3856 99.8896 24.3136 100.007 24.2416C100.007 24.2416 95.4943 22.4117 90.9851 25.2267H90.9806Z" fill="url(#paint7_linear_2902_4281)"/>
<path d="M76.0504 11.144C75.7126 11.178 75.3748 11.2159 75.0452 11.2576C74.9428 11.269 74.8442 11.2842 74.7456 11.2993C74.3929 11.3486 74.0478 11.3978 73.7065 11.4546C73.642 11.466 73.5775 11.4774 73.5131 11.485C73.1073 11.5531 72.7091 11.629 72.3223 11.7085C76.4708 12.3412 81.4086 13.8567 85.3984 17.2968C95.5202 17.3915 99.9989 24.2377 99.9989 24.2377C97.466 19.4526 90.8369 11.2804 77.7261 11C77.2678 11.0303 76.8235 11.0682 76.3801 11.1099C76.2699 11.1212 76.1598 11.1326 76.0504 11.144Z" fill="url(#paint8_linear_2902_4281)"/>
<path d="M76.1102 22.692C77.5515 22.692 78.7197 21.5249 78.7197 20.0853C78.7197 18.6458 77.5515 17.4788 76.1102 17.4788C74.6692 17.4788 73.5011 18.6458 73.5011 20.0853C73.5011 21.5249 74.6692 22.692 76.1102 22.692Z" fill="#FBF7FF"/>
<path d="M47.1356 53.3954C44.8715 60.9693 40.9767 66.4099 37.1199 70.21C42.3685 71.3577 48.0344 71.9866 53.9505 71.9866C63.4201 71.9866 72.2565 70.3765 79.7429 67.5919C82.6627 64.7805 85.1427 61.723 87.0959 58.5786C77.6073 50.2205 64.3531 44.7421 49.5248 43.9275C48.8119 47.0949 48.0647 50.2849 47.1356 53.3954Z" fill="url(#paint9_linear_2902_4281)"/>
<path d="M46.6525 54.9035C46.516 55.3012 46.3794 55.6914 46.2353 56.0743C46.2125 56.1382 46.1861 56.2029 46.1633 56.2675C46.0305 56.6236 45.8902 56.9722 45.7499 57.3164C45.7272 57.3737 45.7044 57.4301 45.6816 57.4837C45.5261 57.8546 45.3669 58.2226 45.2038 58.5824C45.1696 58.6582 45.1355 58.7303 45.1014 58.8054C44.9345 59.1696 44.7639 59.5331 44.5894 59.8855C44.5894 59.8855 44.5894 59.8892 44.5894 59.8929C44.415 60.249 44.2329 60.5939 44.0509 60.9351C44.0167 60.9953 43.9865 61.06 43.9523 61.1209C43.7702 61.4577 43.5844 61.7877 43.3986 62.1096C43.3721 62.1549 43.3493 62.1966 43.3227 62.2382C43.1407 62.5526 42.9549 62.8596 42.7653 63.1629C42.7501 63.1889 42.7349 63.2157 42.716 63.2425C42.5187 63.5606 42.314 63.8714 42.1092 64.1784C42.0788 64.2237 42.0485 64.269 42.0182 64.3144C41.601 64.9358 41.1725 65.5305 40.7364 66.1029C40.7136 66.1289 40.6946 66.1594 40.6718 66.1862C40.4519 66.4738 40.2319 66.7541 40.0082 67.0306C39.9968 67.0462 39.9854 67.0574 39.974 67.073C39.5152 67.6372 39.0525 68.1754 38.586 68.6868C38.5746 68.7017 38.5595 68.7166 38.5481 68.7322C38.0741 69.251 37.6 69.7439 37.126 70.2137C40.6946 70.9942 44.4604 71.5279 48.3667 71.7933C59.5353 65.1514 63.4035 54.5131 65.0722 46.6099C63.267 46.0719 61.4163 45.6059 59.5277 45.2194C59.4746 45.2081 59.4253 45.1967 59.3722 45.1891C58.7578 45.0641 58.1397 44.9466 57.514 44.8368C57.4912 44.8368 57.4722 44.8292 57.4494 44.8254C56.8806 44.7269 56.3041 44.636 55.7277 44.5527C55.6177 44.5375 55.5077 44.5185 55.394 44.5034C54.791 44.42 54.188 44.3405 53.5774 44.2685C53.5395 44.2647 53.5053 44.2609 53.4675 44.2571C52.9099 44.1927 52.3487 44.1396 51.7874 44.0904C51.6357 44.0791 51.4878 44.0639 51.3361 44.0525C50.7369 44.0033 50.1339 43.9616 49.5271 43.9275C49.4399 44.3102 49.3527 44.6929 49.2655 45.0792C48.9848 46.3068 48.6966 47.5381 48.3932 48.7618C48.3022 49.1256 48.2112 49.4893 48.1164 49.853C48.1088 49.8758 48.105 49.8985 48.0974 49.9212C48.0102 50.2509 47.9268 50.5843 47.8357 50.9139C47.8092 51.0199 47.7788 51.126 47.7485 51.2321C47.6765 51.4935 47.6044 51.755 47.5323 52.0163C47.4034 52.4748 47.2706 52.937 47.1341 53.3916C47.0089 53.816 46.8725 54.2289 46.7359 54.642C46.7056 54.7291 46.679 54.8162 46.6487 54.8998L46.6525 54.9035Z" fill="url(#paint10_linear_2902_4281)"/>
<path d="M87.1727 58.465C87.1727 58.465 92.5316 53.3955 89.9943 44.9429C87.4577 36.4903 80.688 35.5053 70.8201 35.9296C60.9523 36.354 33.8821 38.6044 20.9121 19.4526C19.6416 34.9446 22.6035 47.4813 31.91 55.6499C41.2166 63.8179 56.7237 67.6224 63.2087 68.0424C69.6937 68.4669 79.8457 69.4518 87.1764 58.465H87.1727Z" fill="url(#paint11_linear_2902_4281)"/>
<path d="M31.9071 55.6499C41.2136 63.8179 56.7208 67.6224 63.2058 68.0424C69.5619 68.4557 79.4336 69.4102 86.7264 59.1125C87.0337 44.8748 74.1886 50.1221 48.6847 46.2121C22.0393 42.128 20.9091 19.4526 20.9091 19.4526C19.6387 34.9446 22.6005 47.4813 31.9071 55.6499Z" fill="url(#paint12_linear_2902_4281)"/>
<path d="M50.943 56.351C36.4219 57.7604 24.8627 46.3525 24.8627 46.3525L24.7527 46.2881C26.5123 49.8419 28.8712 52.9789 31.9127 55.6463C41.2193 63.8143 56.7264 67.6181 63.2114 68.0388C67.4248 68.3116 73.1854 68.8231 78.7151 66.1336C79.0336 65.504 79.2725 64.826 79.4242 64.0946C81.3961 54.3769 65.2024 54.9639 50.9468 56.3473L50.943 56.351Z" fill="url(#paint13_linear_2902_4281)"/>
<path d="M117.305 26.9424H121.72L134.929 54.8423H130.438L128.637 50.8339H120.286C119.034 50.8339 117.924 50.9211 116.956 51.0915C115.986 51.262 115.159 51.4856 114.472 51.7546C113.786 52.0235 113.232 52.3191 112.815 52.6373C112.398 52.9556 112.117 53.2626 111.969 53.5577L111.271 54.846H106.93L118.815 30.3257L117.305 26.9424ZM126.835 46.7914L120.836 35.2131L114.764 48.3371C115.254 47.9204 116.066 47.5605 117.191 47.2536C118.318 46.9467 119.843 46.7952 121.754 46.7952H126.832L126.835 46.7914Z" fill="#662483"/>
<path d="M156.751 47.1974L147.441 35.9867V54.8429H143.504V31.2811L140.304 27.4204H145.491L156.713 40.8741L168.083 27.4204H173.271L170.07 31.2811V54.8429H166.134V35.9867L156.751 47.1974Z" fill="#662483"/>
<path d="M190.53 35.8015H194.285V54.8434H190.53V41.0943L179.418 54.8434H175.664V35.8015H179.418V49.4748L190.53 35.8015Z" fill="#662483"/>
<path d="M199.433 54.8434V35.8015H211.538C212.444 35.8015 213.286 35.9416 214.06 36.2258C214.834 36.5062 215.489 36.9116 216.028 37.4382C216.567 37.9648 216.992 38.6013 217.298 39.3515C217.605 40.0979 217.757 40.9276 217.757 41.833C217.757 43.7464 217.151 45.2467 215.937 46.3379C214.724 47.429 213.036 47.9745 210.878 47.9745H209.187C208.303 47.9745 207.574 47.9935 206.998 48.0314C206.422 48.0693 205.917 48.1223 205.489 48.1981C205.06 48.2701 204.673 48.38 204.329 48.5277C203.983 48.6754 203.604 48.8573 203.187 49.0809V54.8508H199.433V54.8434ZM203.187 45.2846C204.021 44.7958 204.954 44.4889 205.982 44.364C207.013 44.2427 208.079 44.1783 209.182 44.1783H210.874C211.781 44.1783 212.512 44.0305 213.062 43.7388C213.616 43.4433 213.889 42.7954 213.889 41.7914C213.889 41.3254 213.802 40.9541 213.631 40.67C213.461 40.3896 213.233 40.1661 212.953 40.0069C212.671 39.8478 212.349 39.738 211.997 39.6773C211.64 39.6167 211.265 39.5864 210.874 39.5864H203.183V45.2846H203.187Z" fill="#662483"/>
<path d="M220.703 54.8434V35.8015H232.809C233.715 35.8015 234.557 35.9416 235.33 36.2258C236.104 36.5062 236.761 36.9116 237.299 37.4382C237.837 37.9648 238.262 38.6013 238.569 39.3515C238.877 40.0979 239.028 40.9276 239.028 41.833C239.028 43.7464 238.421 45.2467 237.208 46.3379C235.994 47.429 234.307 47.9745 232.149 47.9745H230.457C229.573 47.9745 228.846 47.9935 228.269 48.0314C227.693 48.0693 227.189 48.1223 226.76 48.1981C226.331 48.2701 225.944 48.38 225.599 48.5277C225.254 48.6754 224.875 48.8573 224.458 49.0809V54.8508H220.703V54.8434ZM224.458 45.2846C225.292 44.7958 226.225 44.4889 227.253 44.364C228.285 44.2427 229.35 44.1783 230.454 44.1783H232.145C233.051 44.1783 233.783 44.0305 234.333 43.7388C234.887 43.4433 235.16 42.7954 235.16 41.7914C235.16 41.3254 235.073 40.9541 234.902 40.67C234.731 40.3896 234.504 40.1661 234.223 40.0069C233.943 39.8478 233.62 39.738 233.268 39.6773C232.911 39.6167 232.536 39.5864 232.145 39.5864H224.454V45.2846H224.458Z" fill="#662483"/>
<path d="M246.532 35.3614H250.616L260.921 54.8428H256.764L255.255 51.9749H252.971C251.796 51.9749 250.628 52.0734 249.475 52.2703C248.322 52.4674 247.272 52.706 246.328 52.9866C245.383 53.2669 244.586 53.562 243.935 53.869C243.286 54.176 242.884 54.4258 242.74 54.6228L242.63 54.8428H238.655L247.78 37.7483L246.528 35.3577L246.532 35.3614ZM253.449 48.5234L249.733 41.465L245.208 50.179C245.823 49.8607 246.767 49.5046 248.042 49.1144C249.316 48.7242 250.947 48.5272 252.934 48.5272H253.449V48.5234Z" fill="#662483"/>
<path d="M106.894 68.683V63.2112H107.85V67.8237H110.487V63.2112H111.451V68.683H106.894ZM111.331 69.8873V68.4333L111.548 68.683H110.487V67.8237H112.228V69.8873H111.331Z" fill="#1D1D1B"/>
<path d="M114.012 65.4859H116.612V66.3229H114.012V65.4859ZM114.087 67.8312H117.037V68.683H113.115V63.2112H116.933V64.0631H114.087V67.8312Z" fill="#1D1D1B"/>
<path d="M121.797 63.2112H122.768V68.683H121.797V63.2112ZM119.093 68.683H118.121V63.2112H119.093V68.683ZM121.872 66.3385H119.01V65.4702H121.872V66.3385Z" fill="#1D1D1B"/>
<path d="M125.334 68.683V63.8207L125.565 64.0713H123.609V63.2112H128.031V64.0713H126.074L126.298 63.8207V68.683H125.334Z" fill="#1D1D1B"/>
<path d="M128.869 68.683V63.2112H131.021C131.484 63.2112 131.88 63.2892 132.209 63.4461C132.542 63.6022 132.799 63.8259 132.978 64.1181C133.157 64.4102 133.247 64.7566 133.247 65.158C133.247 65.5595 133.157 65.9059 132.978 66.1973C132.799 66.4894 132.542 66.7131 132.209 66.87C131.88 67.0261 131.484 67.1042 131.021 67.1042H129.407L129.84 66.6277V68.683H128.869ZM129.84 66.7369L129.407 66.2441H130.976C131.404 66.2441 131.726 66.1504 131.939 65.9631C132.159 65.7698 132.268 65.5015 132.268 65.158C132.268 64.8087 132.159 64.5403 131.939 64.3522C131.726 64.1649 131.404 64.0713 130.976 64.0713H129.407L129.84 63.571V66.7369Z" fill="#1D1D1B"/>
<path d="M136.31 68.683V63.2112H140.934V68.683H139.978V63.8207L140.202 64.0713H137.042L137.266 63.8207V68.683H136.31Z" fill="#1D1D1B"/>
<path d="M142.411 68.683V63.2112H144.562C145.026 63.2112 145.422 63.2892 145.751 63.4461C146.084 63.6022 146.341 63.8259 146.52 64.1181C146.699 64.4102 146.789 64.7566 146.789 65.158C146.789 65.5595 146.699 65.9059 146.52 66.1973C146.341 66.4894 146.084 66.7131 145.751 66.87C145.422 67.0261 145.026 67.1042 144.562 67.1042H142.949L143.382 66.6277V68.683H142.411ZM143.382 66.7369L142.949 66.2441H144.518C144.946 66.2441 145.267 66.1504 145.481 65.9631C145.701 65.7698 145.81 65.5015 145.81 65.158C145.81 64.8087 145.701 64.5403 145.481 64.3522C145.267 64.1649 144.946 64.0713 144.518 64.0713H142.949L143.382 63.571V66.7369Z" fill="#1D1D1B"/>
<path d="M146.778 68.683L149.131 63.2112H150.087L152.448 68.683H151.432L149.408 63.7509H149.796L147.779 68.683H146.778ZM147.861 67.4171L148.123 66.6195H150.946L151.208 67.4171H147.861Z" fill="#1D1D1B"/>
<path d="M156.709 68.683L154.938 66.0174L155.723 65.5096L157.807 68.683H156.709ZM153.25 68.683V63.2112H154.206V68.683H153.25ZM153.914 66.3771V65.5015H155.678V66.3771H153.914ZM155.813 66.0649L154.923 65.9393L156.709 63.2112H157.74L155.813 66.0649Z" fill="#1D1D1B"/>
<path d="M159.515 68.683V63.8207L159.747 64.0713H157.789V63.2112H162.212V64.0713H160.254L160.479 63.8207V68.683H159.515Z" fill="#1D1D1B"/>
<path d="M163.056 68.683V63.2112H164.012V67.0967L166.821 63.2112H167.725V68.683H166.769V64.8057L163.96 68.683H163.056Z" fill="#1D1D1B"/>
<path d="M172.31 66.557C172.037 66.6767 171.77 66.7659 171.511 66.8232C171.252 66.8804 171 66.9086 170.756 66.9086C170.089 66.9086 169.574 66.7421 169.21 66.4084C168.851 66.0701 168.672 65.5855 168.672 64.9544V63.2112H169.635V64.8451C169.635 65.2309 169.743 65.5253 169.957 65.7282C170.171 65.9319 170.478 66.033 170.876 66.033C171.115 66.033 171.354 66.0047 171.593 65.9475C171.837 65.8902 172.072 65.8018 172.296 65.6814L172.31 66.557ZM172.161 68.683V63.2112H173.124V68.683H172.161Z" fill="#1D1D1B"/>
<path d="M175.485 65.4859H178.085V66.3229H175.485V65.4859ZM175.56 67.8312H178.511V68.683H174.589V63.2112H178.406V64.0631H175.56V67.8312Z" fill="#1D1D1B"/>
<path d="M182.001 68.762C181.603 68.762 181.232 68.6944 180.888 68.5583C180.549 68.4178 180.253 68.2223 179.999 67.9726C179.75 67.7169 179.556 67.4173 179.416 67.0731C179.277 66.7289 179.207 66.3543 179.207 65.9477C179.207 65.541 179.277 65.1656 179.416 64.8215C179.556 64.478 179.752 64.1807 180.006 63.9309C180.261 63.6752 180.557 63.4797 180.895 63.3444C181.234 63.2039 181.605 63.1333 182.009 63.1333C182.437 63.1333 182.828 63.2113 183.181 63.3675C183.535 63.5191 183.834 63.7458 184.078 64.0476L183.451 64.6654C183.261 64.452 183.049 64.2929 182.815 64.1889C182.581 64.0789 182.327 64.0246 182.053 64.0246C181.779 64.0246 181.528 64.0714 181.299 64.1651C181.075 64.2587 180.878 64.3918 180.709 64.5635C180.544 64.736 180.415 64.9389 180.32 65.1738C180.231 65.408 180.186 65.6659 180.186 65.9477C180.186 66.2286 180.231 66.4866 180.32 66.7215C180.415 66.9556 180.544 67.1593 180.709 67.331C180.878 67.5035 181.075 67.6358 181.299 67.7302C181.528 67.8239 181.779 67.8707 182.053 67.8707C182.327 67.8707 182.581 67.8187 182.815 67.7139C183.049 67.6046 183.261 67.4403 183.451 67.2218L184.078 67.8469C183.834 68.1443 183.535 68.371 183.181 68.5271C182.828 68.6832 182.434 68.762 182.001 68.762Z" fill="#1D1D1B"/>
<path d="M188.438 68.683L186.667 66.0174L187.451 65.5096L189.536 68.683H188.438ZM184.979 68.683V63.2112H185.935V68.683H184.979ZM185.644 66.3771V65.5015H187.406V66.3771H185.644ZM187.541 66.0649L186.652 65.9393L188.438 63.2112H189.468L187.541 66.0649Z" fill="#1D1D1B"/>
<path d="M192.612 68.7615C192.203 68.7615 191.828 68.6909 191.484 68.5504C191.14 68.4092 190.841 68.2144 190.587 67.9639C190.333 67.7082 190.136 67.4116 189.997 67.0726C189.858 66.7284 189.788 66.3538 189.788 65.9472C189.788 65.5405 189.858 65.1681 189.997 64.8292C190.136 64.485 190.333 64.1884 190.587 63.9379C190.841 63.6829 191.14 63.4844 191.484 63.3439C191.828 63.2034 192.201 63.1328 192.604 63.1328C193.013 63.1328 193.386 63.2034 193.725 63.3439C194.069 63.4844 194.367 63.6829 194.622 63.9379C194.875 64.1884 195.072 64.485 195.212 64.8292C195.351 65.1681 195.421 65.5405 195.421 65.9472C195.421 66.3538 195.351 66.7284 195.212 67.0726C195.072 67.4168 194.875 67.7134 194.622 67.9639C194.367 68.2144 194.069 68.4092 193.725 68.5504C193.386 68.6909 193.015 68.7615 192.612 68.7615ZM192.604 67.8702C192.868 67.8702 193.113 67.8234 193.337 67.7297C193.56 67.6353 193.755 67.503 193.919 67.3306C194.084 67.1536 194.211 66.95 194.3 66.721C194.395 66.4861 194.442 66.2282 194.442 65.9472C194.442 65.6654 194.395 65.4105 194.3 65.1808C194.211 64.9466 194.084 64.7429 193.919 64.5712C193.755 64.3943 193.56 64.2583 193.337 64.1646C193.113 64.0709 192.868 64.0241 192.604 64.0241C192.34 64.0241 192.096 64.0709 191.872 64.1646C191.653 64.2583 191.458 64.3943 191.29 64.5712C191.125 64.7429 190.996 64.9466 190.901 65.1808C190.811 65.4105 190.766 65.6654 190.766 65.9472C190.766 66.223 190.811 66.4787 190.901 66.7128C190.996 66.9477 191.125 67.1536 191.29 67.3306C191.454 67.503 191.648 67.6353 191.872 67.7297C192.096 67.8234 192.34 67.8702 192.604 67.8702Z" fill="#1D1D1B"/>
<path d="M196.499 68.6827V63.2108H197.455V67.0963L200.264 63.2108H201.168V68.6827H200.212V64.8053L197.403 68.6827H196.499ZM198.823 62.8436C198.374 62.8436 198.035 62.7447 197.806 62.5462C197.582 62.3485 197.468 62.0697 197.462 61.71H198.143C198.148 61.9025 198.207 62.0512 198.322 62.1552C198.442 62.26 198.608 62.3121 198.823 62.3121C199.036 62.3121 199.204 62.26 199.323 62.1552C199.448 62.0512 199.512 61.9025 199.517 61.71H200.19C200.184 62.0697 200.068 62.3485 199.838 62.5462C199.609 62.7447 199.271 62.8436 198.823 62.8436Z" fill="#1D1D1B"/>
<path d="M204.707 68.683V63.2112H209.331V68.683H208.375V63.8207L208.599 64.0713H205.439L205.663 63.8207V68.683H204.707Z" fill="#1D1D1B"/>
<path d="M213.212 68.7615C212.814 68.7615 212.443 68.6939 212.099 68.5578C211.761 68.4173 211.464 68.2218 211.21 67.9721C210.961 67.7164 210.767 67.4168 210.627 67.0726C210.488 66.7284 210.418 66.3538 210.418 65.9472C210.418 65.5405 210.488 65.1652 210.627 64.821C210.767 64.4775 210.964 64.1802 211.217 63.9304C211.472 63.6747 211.768 63.4792 212.107 63.3439C212.445 63.2034 212.816 63.1328 213.22 63.1328C213.648 63.1328 214.039 63.2109 214.393 63.367C214.747 63.5186 215.045 63.7453 215.289 64.0471L214.662 64.6649C214.473 64.4515 214.261 64.2925 214.027 64.1884C213.793 64.0784 213.539 64.0241 213.264 64.0241C212.991 64.0241 212.739 64.0709 212.51 64.1646C212.286 64.2583 212.089 64.3913 211.92 64.563C211.755 64.7355 211.626 64.9384 211.531 65.1733C211.442 65.4075 211.397 65.6654 211.397 65.9472C211.397 66.2282 211.442 66.4861 211.531 66.721C211.626 66.9552 211.755 67.1588 211.92 67.3306C212.089 67.503 212.286 67.6353 212.51 67.7297C212.739 67.8234 212.991 67.8702 213.264 67.8702C213.539 67.8702 213.793 67.8182 214.027 67.7134C214.261 67.6041 214.473 67.4398 214.662 67.2213L215.289 67.8464C215.045 68.1438 214.747 68.3705 214.393 68.5266C214.039 68.6827 213.646 68.7615 213.212 68.7615Z" fill="#1D1D1B"/>
<path d="M216.197 68.683V63.2112H217.153V67.0967L219.963 63.2112H220.866V68.683H219.91V64.8057L217.101 68.683H216.197Z" fill="#1D1D1B"/>
<path d="M221.816 63.2112H222.937L224.17 65.0406L225.402 63.2112H226.538L224.782 65.8382L226.679 68.683H225.529L224.17 66.6901L222.818 68.683H221.696L223.587 65.8769L221.816 63.2112Z" fill="#1D1D1B"/>
<path d="M229.743 68.7615C229.335 68.7615 228.958 68.6909 228.615 68.5504C228.272 68.4092 227.973 68.2144 227.719 67.9639C227.464 67.7082 227.268 67.4116 227.129 67.0726C226.989 66.7284 226.919 66.3538 226.919 65.9472C226.919 65.5405 226.989 65.1681 227.129 64.8292C227.268 64.485 227.464 64.1884 227.719 63.9379C227.973 63.6829 228.272 63.4844 228.615 63.3439C228.958 63.2034 229.332 63.1328 229.736 63.1328C230.145 63.1328 230.517 63.2034 230.857 63.3439C231.2 63.4844 231.499 63.6829 231.753 63.9379C232.007 64.1884 232.203 64.485 232.343 64.8292C232.482 65.1681 232.552 65.5405 232.552 65.9472C232.552 66.3538 232.482 66.7284 232.343 67.0726C232.203 67.4168 232.007 67.7134 231.753 67.9639C231.499 68.2144 231.2 68.4092 230.857 68.5504C230.517 68.6909 230.147 68.7615 229.743 68.7615ZM229.736 67.8702C229.999 67.8702 230.244 67.8234 230.468 67.7297C230.692 67.6353 230.886 67.503 231.051 67.3306C231.215 67.1536 231.342 66.95 231.432 66.721C231.526 66.4861 231.574 66.2282 231.574 65.9472C231.574 65.6654 231.526 65.4105 231.432 65.1808C231.342 64.9466 231.215 64.7429 231.051 64.5712C230.886 64.3943 230.692 64.2583 230.468 64.1646C230.244 64.0709 229.999 64.0241 229.736 64.0241C229.472 64.0241 229.228 64.0709 229.004 64.1646C228.784 64.2583 228.59 64.3943 228.421 64.5712C228.257 64.7429 228.127 64.9466 228.032 65.1808C227.943 65.4105 227.898 65.6654 227.898 65.9472C227.898 66.223 227.943 66.4787 228.032 66.7128C228.127 66.9477 228.257 67.1536 228.421 67.3306C228.585 67.503 228.779 67.6353 229.004 67.7297C229.228 67.8234 229.472 67.8702 229.736 67.8702Z" fill="#1D1D1B"/>
<path d="M233.386 68.7618C233.301 68.7618 233.217 68.7537 233.132 68.7381C233.047 68.7224 232.955 68.7046 232.855 68.683L232.923 67.7999C232.992 67.8208 233.068 67.8312 233.147 67.8312C233.356 67.8312 233.523 67.7427 233.648 67.5658C233.772 67.3829 233.861 67.1175 233.917 66.7682C233.972 66.4188 234.009 65.9891 234.029 65.4784L234.103 63.2112H237.951V68.683H236.995V63.8207L237.219 64.0713H234.731L234.94 63.8133L234.888 65.439C234.873 65.9809 234.838 66.4582 234.783 66.87C234.728 67.2818 234.644 67.6282 234.529 67.9092C234.42 68.1857 234.273 68.3969 234.088 68.5426C233.904 68.689 233.67 68.7618 233.386 68.7618Z" fill="#1D1D1B"/>
<path d="M241.849 68.7615C241.441 68.7615 241.065 68.6909 240.721 68.5504C240.377 68.4092 240.078 68.2144 239.824 67.9639C239.571 67.7082 239.374 67.4116 239.234 67.0726C239.094 66.7284 239.025 66.3538 239.025 65.9472C239.025 65.5405 239.094 65.1681 239.234 64.8292C239.374 64.485 239.571 64.1884 239.824 63.9379C240.078 63.6829 240.377 63.4844 240.721 63.3439C241.065 63.2034 241.438 63.1328 241.842 63.1328C242.25 63.1328 242.624 63.2034 242.962 63.3439C243.306 63.4844 243.604 63.6829 243.859 63.9379C244.113 64.1884 244.309 64.485 244.449 64.8292C244.588 65.1681 244.658 65.5405 244.658 65.9472C244.658 66.3538 244.588 66.7284 244.449 67.0726C244.309 67.4168 244.113 67.7134 243.859 67.9639C243.604 68.2144 243.306 68.4092 242.962 68.5504C242.624 68.6909 242.252 68.7615 241.849 68.7615ZM241.842 67.8702C242.106 67.8702 242.35 67.8234 242.574 67.7297C242.798 67.6353 242.992 67.503 243.156 67.3306C243.321 67.1536 243.448 66.95 243.537 66.721C243.632 66.4861 243.68 66.2282 243.68 65.9472C243.68 65.6654 243.632 65.4105 243.537 65.1808C243.448 64.9466 243.321 64.7429 243.156 64.5712C242.992 64.3943 242.798 64.2583 242.574 64.1646C242.35 64.0709 242.106 64.0241 241.842 64.0241C241.577 64.0241 241.333 64.0709 241.109 64.1646C240.89 64.2583 240.696 64.3943 240.527 64.5712C240.362 64.7429 240.233 64.9466 240.138 65.1808C240.048 65.4105 240.004 65.6654 240.004 65.9472C240.004 66.223 240.048 66.4787 240.138 66.7128C240.233 66.9477 240.362 67.1536 240.527 67.3306C240.691 67.503 240.885 67.6353 241.109 67.7297C241.333 67.8234 241.577 67.8702 241.842 67.8702Z" fill="#1D1D1B"/>
<path d="M245.738 68.683V63.2112H249.287L249.279 64.0713H246.463L246.687 63.8289L246.694 68.683H245.738Z" fill="#1D1D1B"/>
<path d="M250.105 68.683V63.2112H251.062V67.0967L253.871 63.2112H254.775V68.683H253.818V64.8057L251.01 68.683H250.105Z" fill="#1D1D1B"/>
<path d="M256.253 68.683V63.2112H257.209V67.0967L260.018 63.2112H260.922V68.683H259.966V64.8057L257.157 68.683H256.253Z" fill="#1D1D1B"/>
<defs>
<linearGradient id="paint0_linear_2902_4281" x1="25.7031" y1="46.3409" x2="100.004" y2="46.3409" gradientUnits="userSpaceOnUse">
<stop stop-color="#B87FB6"/>
<stop offset="1" stop-color="#A44A96"/>
</linearGradient>
<linearGradient id="paint1_linear_2902_4281" x1="44.3466" y1="18.7706" x2="53.7795" y2="35.2594" gradientUnits="userSpaceOnUse">
<stop stop-color="#662483"/>
<stop offset="1" stop-color="#A44A96"/>
</linearGradient>
<linearGradient id="paint2_linear_2902_4281" x1="57.7148" y1="36.5437" x2="63.4843" y2="52.8879" gradientUnits="userSpaceOnUse">
<stop stop-color="#662483"/>
<stop offset="1" stop-color="#A44A96"/>
</linearGradient>
<linearGradient id="paint3_linear_2902_4281" x1="68.0187" y1="51.7892" x2="40.6073" y2="88.0579" gradientUnits="userSpaceOnUse">
<stop stop-color="#7FABDC"/>
<stop offset="1" stop-color="#4F3B8F"/>
</linearGradient>
<linearGradient id="paint4_linear_2902_4281" x1="19.7257" y1="64.3257" x2="58.0685" y2="57.5542" gradientUnits="userSpaceOnUse">
<stop stop-color="#7FABDC"/>
<stop offset="1" stop-color="#534395"/>
</linearGradient>
<linearGradient id="paint5_linear_2902_4281" x1="37.7253" y1="83.3597" x2="79.2455" y2="55.1531" gradientUnits="userSpaceOnUse">
<stop stop-color="#7FABDC"/>
<stop offset="1" stop-color="#554395"/>
</linearGradient>
<linearGradient id="paint6_linear_2902_4281" x1="72.328" y1="23.2792" x2="100.005" y2="23.2792" gradientUnits="userSpaceOnUse">
<stop stop-color="#FDD08F"/>
<stop offset="0.74" stop-color="#FAB400"/>
</linearGradient>
<linearGradient id="paint7_linear_2902_4281" x1="95.187" y1="21.4873" x2="96.0306" y2="30.6409" gradientUnits="userSpaceOnUse">
<stop stop-color="#D28B00"/>
<stop offset="0.74" stop-color="#FAB400"/>
</linearGradient>
<linearGradient id="paint8_linear_2902_4281" x1="86.3962" y1="18.8919" x2="84.4273" y2="11.1431" gradientUnits="userSpaceOnUse">
<stop stop-color="#FDD08F"/>
<stop offset="1" stop-color="#FAB400"/>
</linearGradient>
<linearGradient id="paint9_linear_2902_4281" x1="6.65926" y1="54.4373" x2="76.401" y2="60.0823" gradientUnits="userSpaceOnUse">
<stop stop-color="#5A4495"/>
<stop offset="1" stop-color="#4458A3"/>
</linearGradient>
<linearGradient id="paint10_linear_2902_4281" x1="51.5409" y1="59.9687" x2="56.0457" y2="75.5578" gradientUnits="userSpaceOnUse">
<stop stop-color="#483575"/>
<stop offset="1" stop-color="#4458A3"/>
</linearGradient>
<linearGradient id="paint11_linear_2902_4281" x1="51.4333" y1="39.8661" x2="70.1652" y2="58.0514" gradientUnits="userSpaceOnUse">
<stop stop-color="#77C19B"/>
<stop offset="1" stop-color="#0090D2"/>
</linearGradient>
<linearGradient id="paint12_linear_2902_4281" x1="47.8087" y1="43.598" x2="66.5443" y2="61.7831" gradientUnits="userSpaceOnUse">
<stop stop-color="#2AB19A"/>
<stop offset="1" stop-color="#00ACE9"/>
</linearGradient>
<linearGradient id="paint13_linear_2902_4281" x1="52.0504" y1="54.4224" x2="65.1483" y2="67.1351" gradientUnits="userSpaceOnUse">
<stop stop-color="#77C19B"/>
<stop offset="1" stop-color="#0090D2"/>
</linearGradient>
</defs>
</svg>
