<svg width="20" height="21" viewBox="0 0 20 21" fill="none" xmlns="http://www.w3.org/2000/svg">
<mask id="mask0_2902_4266" style="mask-type:alpha" maskUnits="userSpaceOnUse" x="0" y="0" width="21" height="21">
<rect x="0.0078125" y="0.034668" width="20" height="20" fill="#D9D9D9"/>
</mask>
<g mask="url(#mask0_2902_4266)">
<path d="M10.0078 13.5347C10.98 13.5347 11.8064 13.1944 12.487 12.5138C13.1675 11.8333 13.5078 11.0069 13.5078 10.0347C13.5078 9.06245 13.1675 8.23606 12.487 7.5555C11.8064 6.87495 10.98 6.53467 10.0078 6.53467C9.03559 6.53467 8.2092 6.87495 7.52865 7.5555C6.84809 8.23606 6.50781 9.06245 6.50781 10.0347C6.50781 11.0069 6.84809 11.8333 7.52865 12.5138C8.2092 13.1944 9.03559 13.5347 10.0078 13.5347ZM10.0078 12.0347C9.45226 12.0347 8.98003 11.8402 8.59115 11.4513C8.20226 11.0624 8.00781 10.5902 8.00781 10.0347C8.00781 9.47911 8.20226 9.00689 8.59115 8.618C8.98003 8.22911 9.45226 8.03467 10.0078 8.03467C10.5634 8.03467 11.0356 8.22911 11.4245 8.618C11.8134 9.00689 12.0078 9.47911 12.0078 10.0347C12.0078 10.5902 11.8134 11.0624 11.4245 11.4513C11.0356 11.8402 10.5634 12.0347 10.0078 12.0347ZM10.0078 16.0347C8.02726 16.0347 6.22309 15.4895 4.59531 14.3993C2.96753 13.309 1.7717 11.8541 1.00781 10.0347C1.7717 8.21522 2.96753 6.76036 4.59531 5.67008C6.22309 4.57981 8.02726 4.03467 10.0078 4.03467C11.9884 4.03467 13.7925 4.57981 15.4203 5.67008C17.0481 6.76036 18.2439 8.21522 19.0078 10.0347C18.2439 11.8541 17.0481 13.309 15.4203 14.3993C13.7925 15.4895 11.9884 16.0347 10.0078 16.0347Z" fill="#FBF7FF"/>
</g>
</svg>
